<svg xmlns="http://www.w3.org/2000/svg" xmlns:xlink="http://www.w3.org/1999/xlink" viewBox="0 0 6000 4000"><defs><linearGradient id="a" x1="3935.03" x2="3935.03" y1="1251.84" y2="2086.12" gradientUnits="userSpaceOnUse"><stop offset="0" stop-color="#fde81d"/><stop offset="1" stop-color="#f2f2f2" stop-opacity="0"/></linearGradient><linearGradient id="b" x1="4185.76" x2="4185.76" y1="1079.99" y2="1914.28" xlink:href="#a"/></defs><circle cx="1745.09" cy="1311.98" r="162.44" fill="#d7edfd"/><path fill="#a0d5fd" d="M5218.53,1974.52c-2.85,166.87-251.08,166.85-253.9,0C4967.48,1807.64,5215.7,1807.66,5218.53,1974.52Z"/><path fill="#e1f1fd" d="M5072,2522.85c-2.92,12.82-6.34,25.36-10.17,37.6C5015.41,2709.19,4909.47,2813,4909.47,2813s-918.2-23.05-3574.79,104.55c-169.83-122.65-259.9-267.63-290.64-417.4-96.26-468.82,388.77-984.5,828-1008.37C2001,1000,3059.27,1165.24,3811.3,1124.82c708.62,0,1175.85,495.47,1007.84,886.26,37,25.24,69.34,50.81,97.46,76.56C5080.72,2237.93,5101.35,2394.09,5072,2522.85Z"/><path fill="#a0d5fd" d="M5072,2522.85C5033.56,2691.4,4909.47,2813,4909.47,2813s-918.2-23.05-3574.79,104.55l-1.31-1c-68.13-49.37-123.37-102.34-167-157.77-64.66-82.06-104-169.52-122.28-258.68,54.92-160.6,204.8-327.33,582.25-360.84,464-267.9,657.54-157,735.19-49.8C2992,1818.32,3644.4,2052.15,3770,2216.45,4043.85,2058.35,4793.27,2159.89,5072,2522.85Z"/><path fill="#6fc0fd" d="M2234.45,2596.52,1333.37,2916.6c-68.13-49.37-123.37-102.34-167-157.77,61.13-102.29,220.15-291.62,573-329.17C2227.91,2377.66,2234.45,2596.52,2234.45,2596.52Z"/><path fill="#7cb720" d="M4652 2119.59s-117.85 67.65 32.12 162.84C4753.46 2204.86 4652 2119.59 4652 2119.59zM4717.07 1959.29s-141.5 89.52 30.61 201.63C4832.64 2061.16 4717.07 1959.29 4717.07 1959.29z"/><path fill="#59c116" d="M4810.78,1856.09s-141.5,89.52,30.6,201.63C4926.35,1958,4810.78,1856.09,4810.78,1856.09Z"/><path fill="#7cb720" d="M4696.11 2290.6s52.81-93.51 169.41-34.45C4812.6 2341.67 4729.29 2317.41 4696.11 2290.6zM4773.67 2191s63.16-110.13 214.11-34.07C4924.13 2257.4 4817.05 2224.63 4773.67 2191z"/><path fill="#59c116" d="M4860.46 2066.07s63.16-110.13 214.11-34.07C5010.93 2132.5 4903.84 2099.73 4860.46 2066.07zM4911.87 1980.7s-43.34-60.52 30.39-117.83c33.71-26.2 84.4-30.26 84.4-30.26S5034.68 2014.12 4911.87 1980.7z"/><path fill="#59c116" d="M4916.18 1965.36a4.51 4.51 0 00-6.3.92h0s-71.76 96.36-156.34 215.27c-42.29 59.45-87.78 124.55-129.12 186.09s-78.52 119.49-104.23 164.77a4.5 4.5 0 107.82 4.45c25.51-44.92 62.61-102.77 103.88-164.2 61.92-92.16 133.23-192.43 189-269.64 27.91-38.6 52-71.45 69-94.64 8.53-11.6 15.32-20.78 20-27.06l5.33-7.19 1.84-2.47A4.5 4.5 0 004916.18 1965.36zM4197.52 2153.91s-23.08 165.84 173.68 106.9C4349.94 2131.5 4197.52 2153.91 4197.52 2153.91zM4170.46 2000.46s-23.08 165.84 173.68 106.9C4322.88 1978.05 4170.46 2000.46 4170.46 2000.46zM4184.66 1878.89S4168 1998.54 4310 1956C4294.63 1862.72 4184.66 1878.89 4184.66 1878.89zM4379.49 2257.88s-19.86-125.39 145.42-160.8C4538.35 2215.28 4434.39 2256.9 4379.49 2257.88z"/><path fill="#59c116" d="M4340.18 2099.6s-43.26-119.36 112.32-185.45C4488.1 2027.66 4393.9 2088.23 4340.18 2099.6zM4312.74 1960.67s-33.2-91.61 86.2-142.33C4426.26 1905.46 4354 1952 4312.74 1960.67zM4285.93 1848.08s-74.2-6-70.3-99.32c1.77-42.65 31.42-84 31.42-84S4390.78 1775.93 4285.93 1848.08z"/><path fill="#59c116" d="M4409.66,2482.51c-37.65-371.7-141.2-693.17-141.25-693.34a4.5,4.5,0,1,0-8.57,2.76h0l.3.91c6,19,104.22,331.56,140.56,690.58a4.5,4.5,0,0,0,9-.91Z"/><path fill="#008a4d" d="M4005.55 2275s74.54 115.31 165.49 13.73C4088.47 2211.43 4005.55 2275 4005.55 2275zM3937.42 2182.22s54.66 122.05 162.78-12.24C4031 2093.74 3937.42 2182.22 3937.42 2182.22zM3869.29 2077s48.54 100.88 136.26-6.41C3945.85 2006.83 3869.29 2077 3869.29 2077zM4179.6 2290.49s-57.33-70.23 37.49-157.77C4267.71 2201 4214.92 2268.12 4179.6 2290.49zM4113.3 2170.3s-71.51-52.76-2.8-158.8C4175.17 2064.06 4141.39 2140.53 4113.3 2170.3zM4032.28 2072.91s-62.36-44.86-11.39-122.88C4077.56 1994.34 4053.89 2051.5 4032.28 2072.91zM3977.49 2025.76s-39.37 25.54-64.48-22.13c-11.48-21.79-8.44-53.63-8.44-53.63S4009.7 1949.76 3977.49 2025.76z"/><path fill="#008a4d" d="M4232.84 2439.52c-4.91-45.58-22.6-93.66-46.26-140.26-35.5-69.89-84.5-136.48-124.64-185.67s-71.43-80.94-71.5-81a4.5 4.5 0 10-6.41 6.32h0l.15.15c3.27 3.33 58.65 60.17 115.48 138 28.42 38.93 57.19 83.11 80 128.41s39.6 91.73 44.24 135a4.5 4.5 0 008.95-1zM4816.63 2297.6S4695.32 2265 4702.22 2398C4804.35 2398.12 4816.63 2297.6 4816.63 2297.6zM4952.88 2267.53s-120.75-49.62-105 119.95C4947.65 2394.53 4952.88 2267.53 4952.88 2267.53zM5125.46 2258s-138.71-49.68-124.43 129.25C5116.48 2392.42 5125.46 2258 5125.46 2258zM4700 2424s105.11-16.45 125.17 90.94C4726.41 2527 4697.75 2460 4700 2424zM4854.3 2401s125.75-17.42 157.95 148.52C4893.81 2560.67 4854.21 2455.92 4854.3 2401z"/><path fill="#008a4d" d="M4999.67,2389.36s112.41-15.66,140.85,131.12C5034.65,2530.57,4999.48,2438,4999.67,2389.36Z"/><path fill="#008a4d" d="M5095.44,2400.66s18.76-62.62,98.17-42.2c36.31,9.34,66.36,42.37,66.36,42.37S5138.2,2503.92,5095.44,2400.66Z"/><path fill="#008a4d" d="M5097.35,2406.35c-44.48-20.73-96.57-28.69-150.68-28.69-47.46,0-96.49,6.13-143.37,15.31-70.33,13.77-135.81,34.39-183.76,51.57s-78.34,30.94-78.43,31a4.5,4.5,0,0,0,3.71,8.2h0l.15-.07c3.17-1.42,57.58-25.71,134.23-49.61a1200.49,1200.49,0,0,1,128-32.66c45.79-8.86,93.51-14.73,139.46-14.72,53.23,0,104.06,7.87,146.87,27.84a4.5,4.5,0,1,0,3.81-8.15Z"/><path fill="#a1b2bd" d="M2991.48,2378.89l-1495,1133.6c400.68,25.53,810.42-1.35,1189.39-24.24L3786.81,2335.36C3526.16,2336.77,3247.2,2355.44,2991.48,2378.89Z"/><path fill="#d1d6da" d="M2138.93,2474.43c-350.71,36.93-932.7,246.34-901.2,588.83,0,0-601.49,373.75,148.43,440.82q55,4.92,110.32,8.41l1495-1133.6C2609,2414,2278.52,2459.73,2138.93,2474.43Z"/><ellipse cx="1427.41" cy="3305.05" fill="#9da1a3" rx="273.36" ry="83.55"/><ellipse cx="1816.56" cy="3044.38" fill="#9da1a3" rx="210.2" ry="72.71"/><path fill="#6b4d2b" d="M4602.61,2437.53c-187.19-78.25-486.92-104-815.8-102.17L2685.87,3488.25c299-18.07,578.89-33.65,820-19,194.8,11.81,410,24.27,615.46,25.57L4747,2512.31C4703.77,2484.85,4655.71,2459.73,4602.61,2437.53Z"/><path fill="#523418" d="M2808.83,3481s22.29-97.3,72.91-147.92,262.6-288.79,302.26-328.45,125.46-78.38,125.46-78.38,144.28-166.41,182.68-204.81,189.94-216.86,197.28-224.2,53.54-51.57,53.54-51.57l112.79-110-68.94-.26L2685.87,3488.25Z"/><path fill="#897155" d="M2975.38 3399.93c-30.73-6.64-62.49-5.94-93.64-3.18-7.74-.13-12.07 10-6.37 15.37 1.67 1.53 4 2.84 6.37 2.63 19.71-1.75 39.56-2.67 59.33-1.43a193 193 0 0129.52 4 9.53 9.53 0 006.94-.9C2984.18 3412.84 2982.92 3401.6 2975.38 3399.93zM2987.14 3292.59c-1.54-2.26-3.36-4.54-3.82-7.29v0c-2.07-10.17-18-8.29-17.71 2.08 1 9.66 15.29 33.83 26.57 23.47C2998.64 3304.44 2991.87 3297.49 2987.14 3292.59zM3058.78 3373.8c9.63-3.88 39.66-2.6 35.52-17.49-3.88-13.78-29.85-.35-40.3.13C3042.76 3359.37 3047.53 3376.85 3058.78 3373.8zM3165.83 3377.47c-25 6.62-35-17.76-45.48-7.73-10.17 13.54 13.53 21.91 23.55 24.94a57.72 57.72 0 0026.72.14C3181.85 3391.87 3177.09 3374.41 3165.83 3377.47zM3105.08 3421.19a9.28 9.28 0 00-6.62-1 44.87 44.87 0 01-22.18-3.09c-7.49-2.5-15-13.63-22.84-6-12.46 15.81 24.95 27.13 36.23 27.29 6.24-.17 14.89 1.3 18.64-4.89A9.08 9.08 0 003105.08 3421.19zM3460.16 3399.84a90.8 90.8 0 01-25.74-13.73c-6.8-4.63-14.14-17.75-23.06-9.45a9.19 9.19 0 000 12.73c8.14 8.75 47.84 41.08 55.08 21.53A9.22 9.22 0 003460.16 3399.84zM3090.37 3267.55c4.5 1.47 10-1.7 11.07-6.28a9.14 9.14 0 00-6.29-11.07l-47.37-18.7c-7.78-2.85-20.59-11-24.54 1a9.15 9.15 0 006.29 11.07zM3260.57 3420.21a133.58 133.58 0 01-15.91-27.24c-2.23-6.33-5.07-15.76-13.75-13.29-4.39 1.42-7.94 6.31-6.29 11.07 4.94 12.4 18 44.62 31.54 47.27C3266.11 3437.8 3267.49 3425.75 3260.57 3420.21zM3500.79 3314a10.26 10.26 0 00-6.94-.91l-54.1 9c-7.47 1.7-8.95 12.86-2.15 16.45a10.3 10.3 0 006.93.91l54.11-9C3506.11 3328.7 3507.59 3317.54 3500.79 3314zM3625.26 3416l-47.05-2.14c-11.6-.15-11.66 18 0 18l47.05 2.14C3636.87 3434.16 3636.93 3416 3625.26 3416zM3625.26 3332.6c-10 1.77-31.12-5.85-32.52 9 1.7 14.9 22.34 7.22 32.52 9C3636.88 3350.68 3636.92 3332.56 3625.26 3332.6zM3789.53 3460.8c-16.39 7.45-26.8-13.73-36-.78-7.07 18.14 29.19 23.28 40.76 18.13C3805.57 3475.22 3800.68 3457.52 3789.53 3460.8zM4004.47 3416.52c-10-5.92-19.17 9.69-9.09 15.54a141 141 0 0137.19 30.32c3.13 3.54 9.57 3.44 12.73 0C4057.73 3449.13 4014.41 3423 4004.47 3416.52zM4166.28 3340.76a199 199 0 01-51.2.07c-7.93-.12-16.37-5.43-24-2.27-6.67 3.58-5.38 14.73 2.15 16.45 12.25 3.17 83 13.72 82-5.25C4175.35 3345.06 4171.09 3340.46 4166.28 3340.76zM4142.81 3277.88c11.61.09 11.66-18 0-18h-51.33c-4.71 0-9.22 4.14-9 9a9.15 9.15 0 009 9zM4186.31 3173.35c-7.4-2.38-14.38 6.65-10.16 13.22 5.89 6.39 15.93 7.49 22.41 13.66a77 77 0 0112 11.95c2.39 3 4.09 7.14 8.2 8.15 7.3 2.32 14.43-6.65 10.16-13.22A86.16 86.16 0 004186.31 3173.35zM4099.15 3086.06c-17.35 13.44 28.35 51 41.36 55.62 6.67 4.06 15.56-2.63 13.23-10.16-3.12-7.91-13.8-8.82-19.53-14.64a90.93 90.93 0 01-14.53-14.49C4113.83 3096 4110.59 3080.09 4099.15 3086.06zM4311.59 3082.24l-42.49-24c-10-5.91-19.17 9.7-9.08 15.54l42.48 24C4312.5 3103.69 4321.67 3088.08 4311.59 3082.24zM4018.77 3074.71c4.7 0 9.22-4.14 9-9a9.17 9.17 0 00-9-9h-64.93c-9.08 1.13-26.48-4.55-27.48 9a9.16 9.16 0 009 9zM3928.94 3035.1c10.52-16.88 33.07-8.76 30.13-24.76-8.37-17.76-39.06 4.68-45.67 15.68C3907.44 3036 3923 3045.23 3928.94 3035.1zM3852 2975.05l-59.9 1.59c-4.7.13-9.22 4.05-9 9 .21 4.77 4 9.14 9 9l59.9-1.59C3863.55 2993.1 3863.61 2975 3852 2975.05zM3711.07 3079.33a9.25 9.25 0 00-6.86-.92 56.17 56.17 0 01-29.09-4.09l1.67.71c-10.27-5.73-19.11 9.68-9 15.56 10.8 4.8 38.15 11.39 46.53 1A9.07 9.07 0 003711.07 3079.33zM3574.38 3213.28c-1.51-13.82-20.7-8.41-30.38-11.14-7.72-.35-12.07 10.13-6.37 15.36 7.89 5.1 18.73 2.91 27.75 4.78C3570.12 3222.5 3574.54 3218 3574.38 3213.28zM3565.43 3125.65c-5.65 5.32-1.43 15.57 6.37 15.36 9.26-1.25 27.12 4.82 28.25-9a9.09 9.09 0 00-9-9C3582.75 3124.06 3572.49 3120.35 3565.43 3125.65zM3531.13 3223.85a220.33 220.33 0 00-48.84.47c-5.29.64-10.56 1.41-15.8 2.37-11.21 3-6.54 20.47 4.78 17.36a215.24 215.24 0 0159.86-2.2C3542.72 3242 3542.88 3223.86 3531.13 3223.85zM3655.47 3166c-18.44-.61-25.92-22.37-36.73-12.43-12.43 14.55 27.63 34.12 38.88 28.88C3664.37 3178.87 3663 3167.68 3655.47 3166zM3463.86 3104.22c16.54 3.16 6.95-23.35 30.89-22.32 11.61.11 11.65-17.89 0-18-17.16-1-34.32 12.22-37.17 29.25C3456.41 3097.8 3459.07 3103 3463.86 3104.22zM3533 3027.47a49.71 49.71 0 0123.26 9.61c8.59 11.3 24.69 1.54 15.75-10.12-10.77-9.19-26.57-19.55-41.16-15.94C3524.13 3014.62 3525.51 3025.82 3533 3027.47zM3379.53 2972.53a45.44 45.44 0 00-41.35 1.59c-10.08 5.77-1 21.42 9.09 15.54a27.88 27.88 0 0124.58-1l-.47-.19C3381.32 2993.3 3389.2 2977.76 3379.53 2972.53zM3370.77 2920.73c11.6.09 11.66-18 0-18h-70.58c-11.6-.08-11.66 18 0 18zM3237.89 3052.15c6.67 4 15.54-2.62 13.22-10.16-.68-2.08-2.05-4.46-4.14-5.38a68 68 0 01-26.36-20.3 75.57 75.57 0 01-6.72-10.75c-5.7-10.11-21.38-1-15.54 9.08A83.16 83.16 0 003237.89 3052.15zM3720.33 2876.25c-24.1-5.21-49-5.89-73.52-4.61-8.61 1.39-19.06-1-26.49 4.07-5.64 5.26-1.4 15.73 6.37 15.37 19.71-1.75 39.56-2.68 59.33-1.43a193 193 0 0129.52 4 9.53 9.53 0 006.94-.91C3729.13 2889.16 3727.87 2877.92 3720.33 2876.25zM3547.18 2681.22c3.77 4.25 7.16 10.82 13.54 11a9.09 9.09 0 009-9c-.5-7.9-10.27-11.39-11.5-19.23v0C3551.43 2647.92 3530.16 2661.44 3547.18 2681.22zM3633.69 2752.44c9.62-3.88 39.66-2.6 35.51-17.49-3.88-13.78-29.85-.35-40.3.13C3617.67 2738 3622.43 2755.49 3633.69 2752.44zM3740.74 2756.11c-25.06 6.62-35-17.76-45.49-7.73-10.17 13.53 13.53 21.91 23.55 24.94a57.72 57.72 0 0026.72.14C3756.75 2770.51 3752 2753.05 3740.74 2756.11zM3673.36 2798.86c-24.8 4.3-34.8-19-45-9.11-10.16 13.45 13.31 21.63 23.11 25.11 9.27 1.79 25.16 5.83 31.76-2.71C3687.29 2805.65 3680.77 2796.83 3673.36 2798.86zM3999 2755.3c-3.24-3.42-9.5-3.51-12.73 0-12.45 15.75 32.15 36.53 44 40.54 4.48 1.49 10-1.72 11.08-6.28 2.08-8.31-6-11.32-12.4-13.34A90.12 90.12 0 013999 2755.3zM3604.43 2622.19l47.37 18.69c6.57 1.71 13.62 8.07 20.4 4.41s5.34-14.4-2.15-16.45l-47.36-18.7c-6.57-1.71-13.62-8.06-20.41-4.4S3596.94 2620.13 3604.43 2622.19zM3831.06 2816.66c10-.23 11.33-12.27 4.41-17.81a133.78 133.78 0 01-15.91-27.23c-2.23-6.34-5.06-15.77-13.75-13.3-4.38 1.42-7.94 6.31-6.28 11.07C3804.46 2781.79 3817.55 2814 3831.06 2816.66zM4075.69 2692.59a10.24 10.24 0 00-6.93-.91l-54.11 9c-7.47 1.7-9 12.86-2.15 16.45a10.38 10.38 0 006.94.91l54.1-9C4081 2707.34 4082.49 2696.18 4075.69 2692.59zM4209.17 2803.64a9.2 9.2 0 00-9-9l-47.05-2.14a9.06 9.06 0 00-9 9 9.19 9.19 0 009 9l47.05 2.14A9.07 9.07 0 004209.17 2803.64zM4351.3 2715.57c-1.7-14.89-22.34-7.22-32.53-9-4.7 0-9.21 4.15-9 9 1.71 14.89 22.34 7.21 32.53 9C4347 2724.57 4351.52 2720.43 4351.3 2715.57zM4369.22 2856.79c14-6 3.5-22.86-9.44-16.16-11.92 2.57-17.1-7.54-25.94-6.11-7.56 1.92-8.85 12.53-2.15 16.45C4342.11 2858.74 4356.93 2860.89 4369.22 2856.79zM4427 2789.72c-10-5.91-19.16 9.7-9.08 15.54a156.5 156.5 0 0117 11.28 154.73 154.73 0 0120.18 19.05c3.13 3.53 9.58 3.43 12.73 0C4480.28 2822.33 4437 2796.2 4427 2789.72zM4588.84 2714a199.65 199.65 0 01-51.23.06c-7.93-.12-16.36-5.42-23.95-2.26-6.66 3.57-5.37 14.72 2.15 16.45 12.26 3.16 83 13.71 82-5.25C4597.9 2718.26 4593.65 2713.67 4588.84 2714zM4565.36 2651.09c11.61.08 11.67-18 0-18H4514c-4.71 0-9.22 4.14-9 9a9.15 9.15 0 009 9zM4677.19 2619.73a86.23 86.23 0 00-42.61-33.76c-7.39-2.38-14.37 6.65-10.16 13.22 5.9 6.39 15.95 7.5 22.43 13.67a76.79 76.79 0 0112 11.94c2.39 3 4.09 7.14 8.2 8.16C4674.32 2635.27 4681.46 2626.3 4677.19 2619.73zM4597.87 2538.76c-36.35-15.56-34.95-48.31-50.45-40.08-18.12 12.81 33.67 59.13 48.3 56.53C4603.18 2553.44 4604.71 2542.35 4597.87 2538.76zM4410.25 2938.08l-42.48-24c-10-5.91-19.17 9.71-9.08 15.55l42.48 24C4411.17 2959.53 4420.34 2943.92 4410.25 2938.08zM4526.42 2451.47a9.15 9.15 0 00-9-9h-64.93c-9.08 1.12-26.48-4.56-27.48 9a9.17 9.17 0 009 9h64.92C4508 2459.34 4525.42 2465 4526.42 2451.47zM4332.38 2428.65c8.66 5.06 13.05-5.57 18.81-9.92 6.86-6.83 18.21-4.46 22.72-11.14C4383.37 2374.05 4309.83 2412.56 4332.38 2428.65zM4184 2407.23l59.9-1.59c11.61 0 11.66-18.07 0-18l-59.9 1.59c-4.7.12-9.22 4.05-9 9C4175.26 2403 4179 2407.36 4184 2407.23zM4283.82 2474.42c7.48-1.69 9-12.86 2.15-16.45a9.27 9.27 0 00-6.87-.92A56.25 56.25 0 014250 2453l1.67.7c-6.68-4-15.47 2.68-13.15 10.2C4244.26 2476.26 4271.88 2476.2 4283.82 2474.42zM4146.65 2598.28c11.81-18.19-17.32-15.84-27.75-17.5-7.71-.35-12.07 10.13-6.37 15.36 7.9 5.1 18.73 2.9 27.75 4.78C4142.44 2601.13 4145.17 2599.76 4146.65 2598.28zM4140.34 2504.29c-5.66 5.32-1.43 15.57 6.36 15.36 9.26-1.25 27.13 4.82 28.25-9a9.09 9.09 0 00-9-9C4157.65 2502.7 4147.39 2499 4140.34 2504.29zM4041.39 2605.33c-7.47 1.72-8.95 12.85-2.15 16.45 5.09 2.64 10.82-.28 16.17-.58a220.88 220.88 0 0150.62-.71c2.16.21 4.89-1.17 6.37-2.64C4130.41 2591.26 4052.92 2603.58 4041.39 2605.33zM4230.37 2544.66c-18.44-.6-25.92-22.36-36.73-12.42-12.43 14.55 27.63 34.12 38.88 28.88C4239.28 2557.51 4237.89 2546.32 4230.37 2544.66zM3911.93 2628.73c-7.89-5.1-18.73-2.91-27.75-4.78-2.16-.21-4.89 1.16-6.37 2.64-11.81 18.19 17.32 15.84 27.76 17.5C3913.28 2644.44 3917.63 2634 3911.93 2628.73zM3912 2544.82c-7.74-.25-12.06 10.08-6.36 15.37 7.07 5.28 17.3 1.59 25.61 2.63 7.74.25 12.06-10.07 6.36-15.36C3930.52 2542.17 3920.29 2545.86 3912 2544.82zM3871.31 2645.66a221 221 0 00-48.84.47c-5.29.64-10.56 1.41-15.8 2.37-11.21 3-6.53 20.47 4.79 17.36a215.15 215.15 0 0159.85-2.2C3882.9 2663.79 3883.06 2645.67 3871.31 2645.66zM3971.65 2575.41c-8.11-8.32-21 4.47-12.73 12.73a56 56 0 0031.95 17.05c4.65 1.16 9.87-1.48 11.07-6.28C4005 2583.44 3982.26 2589.89 3971.65 2575.41zM4033.39 2478.72c3.6 6.76 14.77 5.38 16.44-2.15 4.77-20.39 18.39-12.57 26.18-18.67 5.66-5.46 1.39-15.29-6.36-15.36-9.08-.65-17.73 2.95-24.72 8.5C4037.56 2457.31 4029.53 2468.78 4033.39 2478.72zM4107.93 2406.11a49.45 49.45 0 0123.26 9.6c8.59 11.31 24.69 1.55 15.75-10.11-10.77-9.19-26.57-19.55-41.16-15.94C4099 2393.26 4100.41 2404.46 4107.93 2406.11zM4001.06 2433.21a27.91 27.91 0 0124.58-1l-.46-.19c15.72 4.74 22.1-21.35-12.72-20.15C3977.67 2413.33 3984.63 2439.25 4001.06 2433.21zM3890.66 2397.74h54.92c8.46-.7 24 3.6 24.65-9a9.15 9.15 0 00-9-9h-70.57C3879.05 2379.65 3879 2397.77 3890.66 2397.74zM3734.36 2662.16c5.23 2.77 10.78 7.53 17 6.31a9.09 9.09 0 006.29-11.07c-2.81-7.72-13.15-8.28-18.62-13.84a76.32 76.32 0 01-11.87-11.83c-5-6.17-8.71-19.66-19-14C3693.09 2629.1 3724.47 2655.74 3734.36 2662.16z"/><path fill="#523418" d="M4747,2512.31l-625.63,982.48c400.84,2.52,764.4-37.47,866.2-207.8C5123.5,3059.53,5072.75,2719.32,4747,2512.31Z"/><path d="M1840.17,1428.19a5,5,0,0,0-5,5V2874.65a5,5,0,0,0,10,0V1433.19A5,5,0,0,0,1840.17,1428.19Z"/><path d="M1871.7 1816.47a5.49 5.49 0 00-7.77.23h0c-.38.4-5.1 5.54-11 17.59s-13 31-18.16 59.09a5.5 5.5 0 1010.82 2c5-27.16 11.78-45.14 17.21-56.23a91.44 91.44 0 016.75-11.74c.83-1.19 1.47-2 1.88-2.54.21-.25.36-.43.45-.52l.08-.1h0A5.5 5.5 0 001871.7 1816.47zM1840.7 2062.58a159 159 0 00-26.22-45.45 5.5 5.5 0 00-8.34 7.17h0a151.21 151.21 0 0114.51 21.08 124.65 124.65 0 019.72 21 71.65 71.65 0 014.3 23.13 5.5 5.5 0 0011 0A82.86 82.86 0 001840.7 2062.58zM1845.6 1578.38a65.42 65.42 0 00-3.76-14.33 36.29 36.29 0 00-4.27-7.86 23.46 23.46 0 00-8.62-7.43 22.28 22.28 0 00-9.85-2.21 32.25 32.25 0 00-11.19 2.19 58 58 0 00-12.76 6.88 61.83 61.83 0 00-5.33 4.15 5.5 5.5 0 007.37 8.17h0a55.57 55.57 0 017.5-5.42 41.12 41.12 0 017.17-3.51 21.35 21.35 0 017.24-1.46 11.37 11.37 0 014.49.85 10.75 10.75 0 013.06 2 19.56 19.56 0 014.52 6.68 52.17 52.17 0 013.57 13 5.5 5.5 0 1010.86-1.72z"/><path d="M1835.69,1667.48c2.58-5.44,4.9-9.91,6.57-13,.83-1.55,1.5-2.75,2-3.56.23-.41.4-.71.52-.91l.12-.22a89.88,89.88,0,0,0,6.68-13c3.33-7.91,6.73-18.69,6.74-30.46a51.86,51.86,0,0,0-3.16-18.24,48.48,48.48,0,0,0-11.34-17.45,5.5,5.5,0,1,0-7.78,7.78,37.43,37.43,0,0,1,8.81,13.52,40.85,40.85,0,0,1,2.47,14.39c0,9.6-2.89,19.14-5.87,26.19a90.93,90.93,0,0,1-4.08,8.42c-.55,1-1,1.77-1.32,2.28-.15.26-.27.45-.35.56l-.08.13v0h0l-.14.21a283,283,0,0,0-15.26,31.16,237.48,237.48,0,0,0-10.51,30.42c-2.88,10.89-4.84,22.25-4.85,33.27a92.19,92.19,0,0,0,5,29.74,104.68,104.68,0,0,0,16.62,30.49,83.9,83.9,0,0,0,10.19,11.11,5.5,5.5,0,0,0,7.19-8.32h0l-.07-.07a87,87,0,0,1-14.65-18.11,90.62,90.62,0,0,1-9.17-19.55,81,81,0,0,1-4.07-25.29c0-9.7,1.77-20.21,4.49-30.45A245.81,245.81,0,0,1,1835.69,1667.48Z"/><polygon fill="#e93131" points="1979.56 2686.87 1936.52 3062.43 1743.82 3062.43 1739.32 3023.22 1700.77 2686.87 1979.56 2686.87"/><path fill="#cc1f1f" d="M1979.56,2686.87l-43,375.57H1743.81l-4.49-39.22c43.52,1,112-4.72,141.08-47.09,36.49-53.22,60.42-229.48,67.65-289.26Z"/><path d="M1865.78 2573.34a5.5 5.5 0 00-7.51 2v0c-.3.51-6 10.45-14.36 22.42-4.17 6-9 12.47-14.06 18.52a125.06 125.06 0 01-15.53 15.88 28.66 28.66 0 00-8.12 10.37 27.8 27.8 0 00-2.4 11.51 40.88 40.88 0 002.67 13.83 72.13 72.13 0 008.54 16 76.07 76.07 0 005.16 6.64 5.5 5.5 0 108.17-7.36h0l0 0a71 71 0 01-7.23-10.13 54.26 54.26 0 01-4.42-9.27 29.41 29.41 0 01-1.86-9.65 16.93 16.93 0 011.42-7 17.82 17.82 0 015.09-6.41 135.91 135.91 0 0017.23-17.61 305.23 305.23 0 0020.71-28.38c5.27-8.11 8.54-13.81 8.58-13.88A5.5 5.5 0 001865.78 2573.34zM1844.65 2383.74c-1.1-6.32-3-13.82-5.16-21.62-3.27-11.68-7.27-24-10.45-33.38s-5.54-15.89-5.55-15.92a5.5 5.5 0 00-10.34 3.76h0l.06.17c.63 1.72 6 16.77 11.3 33.57 2.62 8.4 5.19 17.23 7.09 25 1 3.88 1.73 7.49 2.26 10.61a47.75 47.75 0 01.81 7.52 5.5 5.5 0 0011 0A60.12 60.12 0 001844.65 2383.74zM1876.84 2183.59a5.5 5.5 0 00-7.51-2 67.13 67.13 0 00-19 16.26 75.26 75.26 0 00-13.15 25.39 64.46 64.46 0 00-2.54 12.41 5.5 5.5 0 0011 .83h0a64.59 64.59 0 0113.49-32 56.17 56.17 0 0115.69-13.39A5.5 5.5 0 001876.84 2183.59z"/><path fill="#85b51d" d="M1826.6,1447.67s-58.15-12.75-26.49-46.22,83.11-31.64,83.11-31.64,13.1,112.56-20.06,107.55S1826.6,1447.67,1826.6,1447.67Z"/><path fill="#7cb720" d="M1999.44,2380.83c-30.07-55.29-114.13-37.11-120.38,38.7,0,0,131,119.27,145.24,196.91C2046.91,2599.34,2020.06,2418.74,1999.44,2380.83Z"/><path fill="#588a16" d="M1879.06 2419.53s-174-4.94-126.17 80.49 248.81 133.52 271.41 116.42C2010.06 2538.8 1879.06 2419.53 1879.06 2419.53zM1928.69 2112.74s-96.18 1.44-73.63 54.11 201.79 121 201.79 121C2039.68 2167.57 1928.69 2112.74 1928.69 2112.74z"/><path fill="#7cb720" d="M2033.27,2095.34c-40.4-37-97.42-22.47-104.58,17.4,0,0,111,54.83,128.16,175.12C2056.85,2287.86,2073.67,2132.3,2033.27,2095.34Z"/><path fill="#588a16" d="M1784,2225.13s8.62-95.19-81.81-67.6-95.66,183.75-95.66,183.75S1697.39,2228.54,1784,2225.13Z"/><path fill="#4f7c14" d="M1784,2225.13c-86.62,3.41-177.47,116.15-177.47,116.15s226.77,3.13,240.4-54.74S1784,2225.13,1784,2225.13Z"/><path fill="#69a31a" d="M1773.78,1905.27c-57.58-6.77-169.78,141-174.66,147.5-.12,1.88-.17,2.9-.17,2.9s225.27-5.79,244.69-64.31S1804.49,1890.75,1773.78,1905.27Z"/><path fill="#4f7c14" d="M1773.78,1905.27s-43.69-87-106.75-28.64c-57.28,53-66.67,157.46-67.91,176.14C1604,2046.3,1716.2,1898.5,1773.78,1905.27Z"/><path fill="#7cb720" d="M2039,1867.67s-19.87-141.89-67.48-169.38-66.3,20.87-60.16,46.64C1911.33,1744.93,1989.88,1732.66,2039,1867.67Z"/><path fill="#588a16" d="M1911.33,1744.93s-83.46-3.68-52.78,61.37S2039,1867.67,2039,1867.67C1989.88,1732.66,1911.33,1744.93,1911.33,1744.93Z"/><path fill="#69a31a" d="M1790.68,1563.73s-15.89-93.72-57.31-52.3-70,151-70,151C1704.83,1563.73,1790.68,1563.73,1790.68,1563.73Z"/><path fill="#588a16" d="M1790.68,1563.73s-85.85,0-127.27,98.66c0,0,119.64,17.49,148.2-14.72S1825.66,1563.73,1790.68,1563.73Z"/><path fill="#135e64" d="M3442.44,1611.07l14.41,32.68,28.43,16.42,35.51-3.86,25.43,44-21.1,28.83V1762l21.1,28.82-25.43,44-35.51-3.86-28.43,16.41-14.41,32.69h-50.85l-14.42-32.69L3348.74,1831l-35.51,3.86-25.42-44,21.1-28.82v-32.83l-21.1-28.83,25.42-44,35.51,3.86,28.43-16.42,14.42-32.68Z"/><path fill="#19767b" d="M3430.45,1594.36l14.42,32.68,28.43,16.42,35.51-3.87,25.43,44-21.11,28.83v32.82l21.11,28.83-25.43,44-35.51-3.86-28.43,16.41-14.42,32.69H3379.6l-14.41-32.69-28.43-16.41-35.51,3.86-25.43-44,21.1-28.83v-32.82l-21.1-28.83,25.43-44,35.51,3.87,28.43-16.42,14.41-32.68Z"/><path fill="#999" d="M3469.52,1728.87a64.44,64.44,0,1,1-4.34-23.29A64.49,64.49,0,0,1,3469.52,1728.87Z"/><path fill="#fff" d="M3469.52,1728.87a49,49,0,1,1-4.34-23.29A64.49,64.49,0,0,1,3469.52,1728.87Z"/><rect width="379.09" height="350.18" x="3417.28" y="817.71" fill="#59c116" rx="65.42"/><path fill="#fff" d="M3627,1065.94a64.1,64.1,0,1,1-128.19,0c0-35.4,64.09-123.26,64.09-123.26S3627,1030.54,3627,1065.94Zm41.46-210.37s-46.39,63.59-46.39,89.2a46.39,46.39,0,1,0,92.77,0C3714.84,919.16,3668.46,855.57,3668.46,855.57Z"/><path d="M1496.61,1488.72a5,5,0,0,0-5,5v1642a5,5,0,0,0,10,0v-1642A5,5,0,0,0,1496.61,1488.72Z"/><path d="M1532.63 1907.09a5.49 5.49 0 00-7.77.22h0c-.38.4-5.82 6.29-12.64 20.22s-15 35.87-21 68.4a5.5 5.5 0 0010.82 2c5.81-31.63 13.72-52.6 20.07-65.55a106.71 106.71 0 017.91-13.76c1-1.4 1.73-2.39 2.23-3l.53-.64.11-.12h0A5.5 5.5 0 001532.63 1907.09zM1496.39 2192.63c-5.11-14.65-12.64-27.67-18.91-37.11a168.75 168.75 0 00-11.38-15.4 5.5 5.5 0 00-8.34 7.17h0a177.89 177.89 0 0116.94 24.63 145.36 145.36 0 0111.37 24.54 84.29 84.29 0 015 27.16 5.5 5.5 0 0011 0A95.17 95.17 0 001496.39 2192.63zM1502 1630a75.46 75.46 0 00-4.31-16.46 41.23 41.23 0 00-4.86-8.94 26.35 26.35 0 00-9.69-8.36 24.89 24.89 0 00-11-2.47 36.78 36.78 0 00-12.69 2.48 66.31 66.31 0 00-14.63 7.89 70 70 0 00-6.1 4.76 5.5 5.5 0 007.37 8.17h0a65.25 65.25 0 018.84-6.39 50.21 50.21 0 018.48-4.16 25.89 25.89 0 018.73-1.74 14.05 14.05 0 015.56 1.06 13.28 13.28 0 013.8 2.46 23.57 23.57 0 015.47 8 61.47 61.47 0 014.21 15.37A5.5 5.5 0 101502 1630z"/><path d="M1490.61,1733c3-6.34,5.7-11.54,7.64-15.15,1-1.8,1.75-3.2,2.29-4.15l.61-1.07c.07-.11.12-.2.15-.26a103.78,103.78,0,0,0,7.7-15c3.84-9.13,7.75-21.54,7.76-35a59.29,59.29,0,0,0-3.62-20.88,55.35,55.35,0,0,0-13-20,5.5,5.5,0,1,0-7.78,7.78,44.46,44.46,0,0,1,10.44,16,48.48,48.48,0,0,1,2.92,17c0,11.33-3.4,22.51-6.89,30.76a105.66,105.66,0,0,1-4.78,9.88c-.65,1.17-1.19,2.07-1.55,2.68-.18.3-.32.52-.41.66l-.1.16,0,0h0l-.14.22a324.79,324.79,0,0,0-17.67,36.09A274.17,274.17,0,0,0,1462,1778c-3.33,12.61-5.6,25.73-5.6,38.42a106.22,106.22,0,0,0,5.71,34.26,120.62,120.62,0,0,0,19.16,35.16,97.11,97.11,0,0,0,11.72,12.78,5.49,5.49,0,1,0,7.18-8.32h0a100.34,100.34,0,0,1-16.69-20.39,106.63,106.63,0,0,1-11.1-23.18,95.12,95.12,0,0,1-5-30.3c0-11.37,2.06-23.64,5.23-35.6C1477.41,1762.88,1484.61,1745.66,1490.61,1733Z"/><polygon fill="#e93131" points="1658.54 2917.55 1608.54 3353.83 1384.68 3353.83 1379.46 3308.27 1334.68 2917.55 1658.54 2917.55"/><path fill="#cc1f1f" d="M1658.54,2917.55l-50,436.28H1384.68l-5.22-45.56c50.55,1.2,130.13-5.48,163.88-54.7,42.39-61.82,70.19-266.58,78.59-336Z"/><path d="M1522.26 2802.8a5.5 5.5 0 00-7.69 1.17h0c-.28.38-5.9 8-14.58 18s-20.43 22.55-32.85 32.77a32.45 32.45 0 00-9.18 11.73 31.32 31.32 0 00-2.71 13 46.44 46.44 0 003 15.76 83.09 83.09 0 009.81 18.36 85.07 85.07 0 005.92 7.63 5.5 5.5 0 108.18-7.36h0l-.18-.2a84.39 84.39 0 01-8.74-12.4 62.16 62.16 0 01-5-10.65 34.87 34.87 0 01-2.08-11.14A20.48 20.48 0 011468 2871a21.5 21.5 0 016.15-7.77c13.37-11 25.63-24.14 34.6-34.56s14.65-18.11 14.71-18.19A5.5 5.5 0 001522.26 2802.8zM1500.8 2567.51a36.87 36.87 0 00-6.85-12.8 58.39 58.39 0 00-20.59-15.53 5.5 5.5 0 10-4.26 10.14h0a50.09 50.09 0 0111.52 7.41 34.25 34.25 0 017.37 8.65 24 24 0 012.28 5.3 21.94 21.94 0 01.84 6 5.5 5.5 0 0011 0A32.8 32.8 0 001500.8 2567.51zM1538.44 2333.35a5.5 5.5 0 00-7.51-2 77.16 77.16 0 00-21.78 18.69 86.21 86.21 0 00-15.11 29.19 74 74 0 00-2.92 14.22 5.5 5.5 0 0011 .83h0a75.59 75.59 0 0116-37.76 66.13 66.13 0 0118.36-15.62A5.51 5.51 0 001538.44 2333.35z"/><path fill="#85b51d" d="M1542.41 1476.18s-71.33-43.08-14.29-73.19 124.42-4.5 124.42-4.5-33.33 155.09-75 133.52S1542.41 1476.18 1542.41 1476.18zM1506 1496.21s29.59 19.72 9.39 39.92-69.38-20-69.38-20 27.54-70.8 55-55S1506 1496.21 1506 1496.21zM1785.41 1348.41c-24.78 3.32-28.31-71.65-28.31-71.65s104.31-10.27 90.41 26.39-39 21.73-39 21.73S1810.2 1345.08 1785.41 1348.41z"/><path fill="#7cb720" d="M1419.49,2009.6s-50.75-101.06-124-33.28c-66.55,61.58-77.46,182.92-78.9,204.62C1222.26,2173.43,1352.6,2001.73,1419.49,2009.6Z"/><path fill="#588a16" d="M1419.49,2009.6c-66.89-7.87-197.23,163.83-202.9,171.34-.14,2.19-.19,3.38-.19,3.38s261.69-6.73,284.25-74.71S1455.16,1992.74,1419.49,2009.6Z"/><path fill="#7cb720" d="M1442.4,2429.28s37.07-114.06-81.26-105.5S1192.9,2522,1192.9,2522,1335.47,2409.32,1442.4,2429.28Z"/><path fill="#588a16" d="M1442.4 2429.28c-106.93-20-249.5 92.67-249.5 92.67s276.59 67 309.38 0S1442.4 2429.28 1442.4 2429.28zM1533.68 2592.46s-233.82 25.66-154 131.16 357.86 132.6 385 105.51C1731.17 2727.83 1533.68 2592.46 1533.68 2592.46z"/><path fill="#7cb720" d="M1687.66 2518.32c-50.51-68.44-159.68-28.52-154 74.14 0 0 197.49 135.37 231 236.67C1791.74 2802 1722.3 2565.24 1687.66 2518.32zM1779.33 2413.89s-13.88-181.32-72.71-215.28-126.89-5.71-126.89 41.34C1579.73 2240 1730.86 2279.87 1779.33 2413.89z"/><path fill="#588a16" d="M1579.73,2240s-120,21.39-80,77,279.55,96.95,279.55,96.95C1730.86,2279.87,1579.73,2240,1579.73,2240Z"/><path fill="#7cb720" d="M1727.55,1965.91s-23.08-164.82-78.39-196.75-77,24.24-69.89,54.18C1579.27,1823.34,1670.52,1809.08,1727.55,1965.91Z"/><path fill="#588a16" d="M1579.27 1823.34s-97-4.28-61.3 71.29 209.58 71.28 209.58 71.28C1670.52 1809.08 1579.27 1823.34 1579.27 1823.34zM1439.12 1612.85s-18.46-108.88-66.58-60.76-81.27 175.37-81.27 175.37C1339.39 1612.85 1439.12 1612.85 1439.12 1612.85z"/><path fill="#69a31a" d="M1439.12,1612.85s-99.73,0-147.85,114.61c0,0,139,20.32,172.16-17.11S1479.75,1612.85,1439.12,1612.85Z"/><path fill="#389fd9" d="M3032.44,1267.48a24.71,24.71,0,0,1-20.73-38.15l47.4-72.92a114.85,114.85,0,0,1,88.24-52.34c2.87-.21,5.79-.32,8.68-.32a114.66,114.66,0,0,1,86.36,39l.61.69,14.1-12.46a23.3,23.3,0,0,1,38.3,12.84l17.31,85.31a23.28,23.28,0,0,1-30.27,26.75l-82.54-27.66a23.32,23.32,0,0,1-8-39.59l14.1-12.46-.61-.69a65.32,65.32,0,0,0-49.33-22.27c-1.66,0-3.34.06-5,.18a66.55,66.55,0,0,0-28.15,8.64,65.49,65.49,0,0,0-22.28,21.28l-47.4,72.92A24.62,24.62,0,0,1,3032.44,1267.48Z"/><path fill="#fff" d="M3156,1110.25a108.19,108.19,0,0,1,81.49,36.78l4.92,5.56,19-16.76a16.6,16.6,0,0,1,11.08-4.24,16.8,16.8,0,0,1,16.55,13.5l17.31,85.31a16.79,16.79,0,0,1-21.83,19.3L3202,1222a16.82,16.82,0,0,1-5.79-28.56l19-16.76-4.91-5.56a71.85,71.85,0,0,0-54.2-24.47c-1.83,0-3.65.07-5.47.2a72.82,72.82,0,0,0-30.92,9.49,72.06,72.06,0,0,0-24.48,23.38l-47.4,72.91a18.22,18.22,0,0,1-30.59-19.81l47.4-72.91a108.33,108.33,0,0,1,83.27-49.39q4.1-.32,8.2-.31m0-13c-3.05,0-6.13.12-9.17.34a121.36,121.36,0,0,0-93.21,55.3l-47.39,72.89a31.22,31.22,0,1,0,52.4,34l47.39-72.89a59,59,0,0,1,20.09-19.2,59.91,59.91,0,0,1,25.38-7.78c1.49-.12,3-.17,4.5-.17a59.38,59.38,0,0,1,21.76,4.09,58.72,58.72,0,0,1,18.82,12l-9,8a29.83,29.83,0,0,0,10.27,50.63l82.54,27.66a29.76,29.76,0,0,0,32.61-9.44,29.67,29.67,0,0,0,6.1-24.77l-17.3-85.32a29.81,29.81,0,0,0-49-16.41l-9.32,8.23a121.14,121.14,0,0,0-87.44-37.07Z"/><path fill="#389fd9" d="M3138.1,1528.23c-.43,0-.85,0-1.28,0L3050,1523.6a115.24,115.24,0,0,1-103.5-151.88l.3-.88-17.84-6a23.32,23.32,0,0,1-8-39.6l65.22-57.64a23.3,23.3,0,0,1,38.31,12.84l17.32,85.31a23.27,23.27,0,0,1-30.28,26.75l-17.83-6-.3.88a65.45,65.45,0,0,0-2.75,30.68,66.56,66.56,0,0,0,32.34,47.46,65.41,65.41,0,0,0,29.57,8.66l86.85,4.59a24.72,24.72,0,0,1-1.25,49.41Z"/><path fill="#fff" d="M3001.5,1268.27a16.79,16.79,0,0,1,16.56,13.49l17.32,85.31a16.77,16.77,0,0,1-21.84,19.3l-24-8-2.36,7a72.31,72.31,0,0,0,65,95.36l86.84,4.59a18.22,18.22,0,0,1-.91,36.42c-.32,0-.63,0-.95,0l-86.84-4.59a108.71,108.71,0,0,1-97.67-143.32l2.36-7-24-8a16.82,16.82,0,0,1-5.8-28.56l65.23-57.64a16.59,16.59,0,0,1,11.07-4.23m0-13h0a29.74,29.74,0,0,0-19.68,7.49l-65.23,57.64a29.82,29.82,0,0,0,10.28,50.63l11.79,4a121.73,121.73,0,0,0,111,155.11l86.81,4.59c.56,0,1.1,0,1.64,0a31.22,31.22,0,0,0,1.57-62.4l-86.82-4.59a59.11,59.11,0,0,1-26.68-7.8,60.06,60.06,0,0,1-29.15-42.8,58.49,58.49,0,0,1,.95-22.28l11.44,3.84a29.83,29.83,0,0,0,38.71-34.22l-17.32-85.31a30,30,0,0,0-29.3-23.9Z"/><path fill="#389fd9" d="M3282,1555.25a23.39,23.39,0,0,1-7.47-1.23L3192,1526.35a23.33,23.33,0,0,1-8-39.59l65.23-57.65a23.29,23.29,0,0,1,38.3,12.84l3.74,18.43.91-.18a65.46,65.46,0,0,0,28-13A66.57,66.57,0,0,0,3345,1395.5a65.37,65.37,0,0,0-7.29-29.93l-39.45-77.51A24.74,24.74,0,0,1,3309,1254.8a24.71,24.71,0,0,1,33.26,10.77l39.45,77.51a115.24,115.24,0,0,1-79.8,165.57l-.9.18,3.74,18.43a23.34,23.34,0,0,1-22.8,28Z"/><path fill="#fff" d="M3320.27,1258.59a18.22,18.22,0,0,1,16.23,9.93l39.44,77.5a108.73,108.73,0,0,1-75.29,156.25l-7.27,1.48,5,24.81a16.79,16.79,0,0,1-21.83,19.3L3194,1520.19a16.82,16.82,0,0,1-5.79-28.56l65.22-57.65a16.6,16.6,0,0,1,11.07-4.24,16.8,16.8,0,0,1,16.56,13.5l5,24.8,7.28-1.47a71.85,71.85,0,0,0,30.7-14.24,73,73,0,0,0,27.39-56.83,72,72,0,0,0-8-32.89l-39.45-77.5a18.23,18.23,0,0,1,16.22-26.52m0-13a31.34,31.34,0,0,0-14.2,3.43,31.2,31.2,0,0,0-13.59,42l39.43,77.49a59,59,0,0,1,6.59,27,60,60,0,0,1-22.49,46.65,58.5,58.5,0,0,1-19.77,10.31l-2.4-11.82a29.8,29.8,0,0,0-49-16.41l-65.22,57.65a29.82,29.82,0,0,0,10.27,50.62l82.53,27.67a30,30,0,0,0,9.54,1.57,29.85,29.85,0,0,0,29.17-35.78l-2.47-12.19a121.74,121.74,0,0,0,78.84-173.68l-39.44-77.47a31.08,31.08,0,0,0-27.81-17Z"/><ellipse cx="4092.52" cy="2984.13" fill="#1c140b" rx="131.69" ry="53.64"/><path fill="#cff935" d="M4108.94,2812.48c12.31-21.16,20.53-43.44,22.42-66.56-21.33-9.82-39.42-14.64-48.09-13.17-11.91,2-30.83,12.14-48.8,23.24,18,25.71,39.1,49.34,63.63,68.67A44.57,44.57,0,0,0,4108.94,2812.48Z"/><path fill="#81dd0b" d="M4176.05,2824.68c-4.12,10-8.67,19.73-11.75,29.16a255.08,255.08,0,0,1-69.94-38.86l-1.84-1.44c.33-.26.66-.52,1-.79a47.92,47.92,0,0,0,10.76-12.39q1.53-2.62,3-5.28c11.67-21.32,19.4-43.66,21.29-66.77a325.64,325.64,0,0,1,49.45,28.45c-4.3,8.11,7,17.81,7.67,26.41C4186.58,2797,4181.73,2811,4176.05,2824.68Z"/><path fill="#85e40b" d="M4039.35,2733c-24.95,15.41-48.08,32.69-48.08,32.69-10.09,14.71,18.43,94.65,58.81,156.95,18.1-.57,36.23-1.77,52.64-8.12,33.8-13.69,55.68-42.27,66.57-75.63C4114.58,2819.21,4071.88,2779.5,4039.35,2733Z"/><path fill="#59c116" d="M4256.79,2836.11c-6.49-41.66-40.89-78-77.66-103.62a45.4,45.4,0,0,0-4.84,24.4c3.92,57.41-19.57,118.73-74.36,140.91-16.41,6.35-34.54,7.54-52.64,8.12,22.92,35.36,49.66,65,75.34,73.88C4193.55,3004.22,4270,2921.21,4256.79,2836.11Z"/><path fill="#479a12" d="M4022.65,2941.58a227.83,227.83,0,0,1-99.34-78.39c-.17,29,10.55,60.84,41.91,92.2,47.87,47.87,99.33,49.12,135.32,44.64,40.57-5.05,62.46-20.73,55.8-48.83-.08-.37-.18-.73-.27-1.09C4115,2967.28,4063.18,2958.09,4022.65,2941.58Z"/><path fill="#59c116" d="M4078.22,2845.87c-9.77-53.71-80.92-99-99-99,0,0-55.46,51.13-55.86,116.37a227.83,227.83,0,0,0,99.34,78.39c40.53,16.51,92.34,25.7,133.42,8.53C4143,2898.22,4087.92,2899.21,4078.22,2845.87Z"/><ellipse cx="4371.11" cy="2666.32" fill="#1c140b" rx="112.81" ry="48.17"/><path fill="#cff935" d="M4387.74,2523c10.27-17.67,17.13-36.27,18.71-55.57-17.81-8.19-32.91-12.22-40.14-11-9.94,1.68-25.74,10.14-40.74,19.41,15,21.46,32.64,41.19,53.11,57.32A37.14,37.14,0,0,0,4387.74,2523Z"/><path fill="#81dd0b" d="M4443.76,2533.21c-3.44,8.31-7.24,16.47-9.81,24.35a213.18,213.18,0,0,1-58.39-32.44l-1.53-1.2.82-.66a40.09,40.09,0,0,0,9-10.35q1.28-2.19,2.48-4.4c9.74-17.8,16.19-36.45,17.77-55.74a270.63,270.63,0,0,1,41.28,23.75c-3.59,6.77,5.81,14.86,6.4,22C4452.55,2510.08,4448.5,2521.78,4443.76,2533.21Z"/><path fill="#85e40b" d="M4329.64,2456.7c-20.83,12.87-40.14,27.29-40.14,27.29-8.41,12.28,15.39,79,49.1,131,15.11-.48,30.24-1.48,43.94-6.78,28.22-11.42,46.49-35.28,55.58-63.13C4392.44,2528.65,4356.8,2495.5,4329.64,2456.7Z"/><path fill="#59c116" d="M4511.16,2542.76c-5.42-34.78-34.14-65.09-64.83-86.5a37.94,37.94,0,0,0-4,20.37c3.27,47.92-16.34,99.11-62.08,117.62-13.7,5.31-28.83,6.3-43.94,6.78,19.14,29.52,41.46,54.3,62.9,61.68C4458.37,2683.09,4522.22,2613.8,4511.16,2542.76Z"/><path fill="#479a12" d="M4315.7,2630.8a190.1,190.1,0,0,1-82.92-65.44c-.14,24.23,8.8,50.79,35,77,40,40,82.92,41,113,37.27,33.87-4.22,52.14-17.31,46.59-40.76-.08-.31-.16-.61-.23-.92C4392.78,2652.26,4349.54,2644.59,4315.7,2630.8Z"/><path fill="#59c116" d="M4362.09,2550.91c-8.15-44.84-67.54-82.69-82.68-82.69,0,0-46.3,42.68-46.63,97.14a190.1,190.1,0,0,0,82.92,65.44c33.84,13.79,77.08,21.46,111.38,7.12C4416.17,2594.6,4370.19,2595.43,4362.09,2550.91Z"/><ellipse cx="3848.7" cy="3398.29" fill="#1c140b" rx="136.01" ry="66.36"/><path fill="#ebff35" d="M3864.39,3180.79c15.59-26.82,26-55.05,28.4-84.34-27-12.44-49.95-18.55-60.93-16.7-15.09,2.55-39.07,15.39-61.84,29.46,22.79,32.58,49.54,62.52,80.62,87A56.62,56.62,0,0,0,3864.39,3180.79Z"/><path fill="#81dd0b" d="M3949.42,3196.24c-5.22,12.61-11,25-14.89,37-32.59-11.73-62.05-28.65-88.62-49.24-.79-.61-1.56-1.22-2.33-1.83.41-.32.83-.65,1.24-1a60.62,60.62,0,0,0,13.63-15.7c1.29-2.21,2.55-4.44,3.76-6.69,14.79-27,24.59-55.32,27-84.6a411.74,411.74,0,0,1,62.66,36c-5.45,10.27,8.82,22.57,9.72,33.46C3962.76,3161.13,3956.62,3178.88,3949.42,3196.24Z"/><path fill="#85e40b" d="M3776.2,3080.1c-31.62,19.53-60.93,41.42-60.93,41.42-12.77,18.65,23.36,119.94,74.53,198.88,22.94-.73,45.91-2.25,66.7-10.29,42.83-17.34,70.56-53.56,84.36-95.83C3871.53,3189.31,3817.42,3139,3776.2,3080.1Z"/><path fill="#59c116" d="M4051.73,3210.73c-8.22-52.79-51.82-98.8-98.41-131.3a57.49,57.49,0,0,0-6.13,30.92c5,72.74-24.79,150.44-94.23,178.54-20.79,8.05-43.76,9.57-66.7,10.3,29,44.81,62.93,82.41,95.47,93.62C3971.6,3423.74,4068.52,3318.56,4051.73,3210.73Z"/><path fill="#479a12" d="M3755,3344.37A288.59,288.59,0,0,1,3629.17,3245c-.22,36.78,13.36,77.1,53.1,116.83,60.66,60.66,125.87,62.24,171.47,56.57,51.41-6.4,79.14-26.28,70.71-61.87-.11-.47-.23-.93-.35-1.39C3872.05,3376.94,3806.4,3365.29,3755,3344.37Z"/><path fill="#59cb16" d="M3825.46,3223.1c-12.38-68.06-102.53-125.51-125.52-125.51,0,0-70.27,64.78-70.77,147.45A288.59,288.59,0,0,0,3755,3344.37c51.36,20.92,117,32.57,169.06,10.81C3907.54,3289.43,3837.74,3290.68,3825.46,3223.1Z"/><ellipse cx="3541.82" cy="2917.55" fill="#1c140b" rx="136.58" ry="48.06"/><path fill="#ebff35" d="M3558.24,2737c12.31-21.17,20.53-43.45,22.42-66.56-21.33-9.82-39.42-14.64-48.09-13.18-11.9,2-30.83,12.15-48.8,23.25,18,25.71,39.1,49.34,63.63,68.66A44.38,44.38,0,0,0,3558.24,2737Z"/><path fill="#81dd0b" d="M3625.35,2749.17c-4.12,9.95-8.67,19.73-11.75,29.16a255.08,255.08,0,0,1-69.94-38.86l-1.84-1.44c.33-.26.66-.52,1-.79a47.92,47.92,0,0,0,10.76-12.39q1.53-2.62,3-5.28c11.67-21.32,19.4-43.66,21.29-66.77a325.64,325.64,0,0,1,49.45,28.45c-4.3,8.11,7,17.81,7.67,26.41C3635.88,2721.46,3631,2735.47,3625.35,2749.17Z"/><path fill="#85e40b" d="M3488.65,2657.51c-25,15.41-48.08,32.69-48.08,32.69-10.09,14.72,18.43,94.66,58.81,157,18.1-.58,36.23-1.78,52.64-8.13,33.8-13.68,55.68-42.26,66.57-75.62C3563.88,2743.7,3521.18,2704,3488.65,2657.51Z"/><path fill="#59c116" d="M3706.09,2760.6c-6.49-41.66-40.89-78-77.66-103.62a45.43,45.43,0,0,0-4.84,24.41c3.92,57.4-19.57,118.72-74.36,140.9-16.41,6.35-34.54,7.55-52.64,8.12,22.92,35.37,49.66,65.05,75.34,73.89C3642.85,2928.71,3719.35,2845.7,3706.09,2760.6Z"/><path fill="#479a12" d="M3472,2866.07a227.68,227.68,0,0,1-99.33-78.39c-.18,29,10.54,60.85,41.9,92.2,47.87,47.88,99.33,49.12,135.32,44.65,40.57-5.05,62.46-20.74,55.81-48.83-.09-.37-.19-.73-.28-1.1C3564.29,2891.77,3512.49,2882.59,3472,2866.07Z"/><path fill="#59c116" d="M3527.52,2770.37c-9.77-53.71-80.91-99-99.05-99,0,0-55.46,51.12-55.85,116.36a227.68,227.68,0,0,0,99.33,78.39c40.54,16.52,92.34,25.7,133.42,8.53C3592.3,2822.71,3537.22,2823.7,3527.52,2770.37Z"/><ellipse cx="3831.4" cy="2590.82" fill="#1c140b" rx="103.63" ry="43.67"/><path fill="#cff935" d="M3837,2447.53c10.27-17.67,17.13-36.27,18.71-55.56-17.81-8.2-32.9-12.22-40.14-11-9.94,1.68-25.73,10.14-40.74,19.41,15,21.46,32.64,41.18,53.11,57.32A37.19,37.19,0,0,0,3837,2447.53Z"/><path fill="#81dd0b" d="M3893.06,2457.71c-3.44,8.31-7.24,16.47-9.81,24.34a212.72,212.72,0,0,1-58.38-32.44l-1.54-1.2c.27-.22.55-.43.82-.66a40.2,40.2,0,0,0,9-10.34q1.27-2.19,2.48-4.41c9.74-17.8,16.19-36.45,17.77-55.74a272.31,272.31,0,0,1,41.28,23.75c-3.59,6.77,5.81,14.87,6.4,22C3901.85,2434.58,3897.8,2446.27,3893.06,2457.71Z"/><path fill="#85e40b" d="M3779,2381.19c-20.84,12.87-40.14,27.29-40.14,27.29-8.42,12.29,15.38,79,49.09,131,15.11-.47,30.25-1.47,43.94-6.78,28.22-11.42,46.49-35.28,55.58-63.13C3841.74,2453.15,3806.1,2420,3779,2381.19Z"/><path fill="#59c116" d="M3960.46,2467.25c-5.42-34.77-34.14-65.08-64.83-86.5a38,38,0,0,0-4,20.38c3.27,47.92-16.33,99.1-62.08,117.62-13.69,5.3-28.83,6.3-43.94,6.78,19.14,29.52,41.46,54.3,62.9,61.68C3907.67,2607.59,3971.52,2538.29,3960.46,2467.25Z"/><path fill="#479a12" d="M3765,2555.3a190.17,190.17,0,0,1-82.92-65.44c-.14,24.23,8.81,50.79,35,77,40,40,82.92,41,113,37.27,33.87-4.21,52.13-17.31,46.58-40.76-.07-.31-.16-.61-.23-.91C3842.09,2576.75,3798.84,2569.08,3765,2555.3Z"/><path fill="#59c116" d="M3811.39,2475.41c-8.15-44.84-67.54-82.69-82.68-82.69,0,0-46.3,42.68-46.63,97.14A190.17,190.17,0,0,0,3765,2555.3c33.84,13.78,77.09,21.45,111.38,7.12C3865.47,2519.1,3819.49,2519.93,3811.39,2475.41Z"/><ellipse cx="3300.19" cy="3319.67" fill="#1c140b" rx="129.39" ry="51.86"/><path fill="#ebff35" d="M3313.69,3105.29c15.59-26.82,26-55.06,28.4-84.35-27-12.44-50-18.55-60.93-16.69-15.09,2.55-39.06,15.39-61.84,29.46,22.8,32.57,49.54,62.52,80.62,87A56.42,56.42,0,0,0,3313.69,3105.29Z"/><path fill="#81dd0b" d="M3398.72,3120.74c-5.22,12.6-11,25-14.89,37a323.14,323.14,0,0,1-88.62-49.25c-.79-.6-1.56-1.21-2.33-1.82l1.24-1a61,61,0,0,0,13.63-15.7q1.93-3.33,3.77-6.69c14.78-27,24.58-55.32,27-84.61a413.43,413.43,0,0,1,62.66,36.05c-5.45,10.28,8.82,22.57,9.72,33.47C3412.06,3085.62,3405.92,3103.38,3398.72,3120.74Z"/><path fill="#85e40b" d="M3225.51,3004.59c-31.63,19.53-60.94,41.42-60.94,41.42-12.77,18.65,23.36,119.94,74.53,198.89,22.94-.73,45.91-2.25,66.7-10.3,42.83-17.34,70.56-53.55,84.36-95.83C3320.83,3113.81,3266.72,3063.49,3225.51,3004.59Z"/><path fill="#59c116" d="M3501,3135.22c-8.22-52.79-51.81-98.79-98.41-131.3a57.52,57.52,0,0,0-6.12,30.92c4.95,72.74-24.8,150.44-94.24,178.55-20.79,8.05-43.76,9.56-66.7,10.29,29.05,44.81,62.94,82.42,95.47,93.62C3420.9,3348.24,3517.82,3243.06,3501,3135.22Z"/><path fill="#479a12" d="M3204.34,3268.86a288.5,288.5,0,0,1-125.87-99.32c-.22,36.77,13.37,77.09,53.1,116.83,60.66,60.66,125.87,62.24,171.47,56.56,51.41-6.39,79.14-26.27,70.71-61.87-.11-.47-.23-.92-.35-1.39C3321.35,3301.43,3255.71,3289.79,3204.34,3268.86Z"/><path fill="#59d116" d="M3274.76,3147.6c-12.38-68.06-102.53-125.52-125.51-125.52,0,0-70.28,64.78-70.78,147.46a288.5,288.5,0,0,0,125.87,99.32c51.37,20.93,117,32.57,169.06,10.81C3356.85,3213.92,3287,3215.18,3274.76,3147.6Z"/><path fill="#59c116" d="M4897.45,1521.74c-21-25.49-45.48-48.45-72.19-68.79-3.64-29.11-10.38-59.93-19.53-86.23q-5.43.83-11,1.87c8.27,23.42,14.37,49.62,18.16,75.24a567.68,567.68,0,0,0-106.58-59.45c-14.6-6.14-29-11.41-43.14-15.78A423.56,423.56,0,0,0,4621,1358l.8.15c6.81-17.35,14.65-32.59,23.26-45.2,55.77-82.23,119.45-27.46,145.8,45.2-14.07,2.76-28,6.4-41.39,10.46-14.09,4.37-28.53,9.64-43.14,15.78q7,2.94,14.06,6.14c53-20.21,119.19-38,172.59-18.32,63.41,25.47,32.08,100.42-2.71,140.93q3.72,4.3,7.2,8.61c45.21-52,73-140.3-12.39-163.81-26.53-6.92-55.05-6.31-83.18-1.77-47.75-127.19-143.77-126.46-191.12,0-32.76-5.3-66.37-5.4-95.26,5.85-72.62,29.59-40.82,113-.32,159.7a469,469,0,0,0,72.19,68.78c3.64,29.11,10.38,59.94,19.53,86.23q5.43-.81,11-1.86c-8.26-23.38-14.36-49.54-18.14-75.12a517.84,517.84,0,0,0,92.39,53.23c-53,20.19-119.11,37.91-172.49,18.28-63.4-25.47-32.08-100.43,2.72-140.94q-3.72-4.29-7.2-8.6c-45.21,52-73,140.29,12.39,163.81,26.53,6.92,55.05,6.31,83.18,1.77,47.73,127.16,143.72,126.46,191.08.08h0C4929,1708.75,4987.16,1631.91,4897.45,1521.74Zm-407.67-125c24.28-36.89,75.27-35.81,117.08-29.83-9.41,27.27-15.73,56.44-19.5,86.17q6.06-4.6,12.36-9.11c3.7-25.43,10.17-52.81,18.18-75.35a458,458,0,0,1,74.28,22c-15.75,7.17-31.63,15.32-47.47,24.47a534,534,0,0,0-66,44.81c-21,16.71-40.42,34.83-56.32,53.3,2.2,2.76,4.51,5.57,6.85,8.29C4496,1483.38,4470.65,1437.35,4489.78,1396.71Zm95.87,178.45c-17-13.86-37.77-32.42-56.17-53.44,7-8.1,14.61-16.23,22.91-24.29q15.91-15.37,33.27-29.13a561,561,0,0,0,0,106.86Zm12.06,9.18a548.16,548.16,0,0,1,0-125.31,546.21,546.21,0,0,1,108.6-62.7q-2.76-1.2-5.52-2.35a514.53,514.53,0,0,1,119.49,69.1q-2.65-2-5.37-4.06a548.47,548.47,0,0,1,0,125.41q6.16-4.59,12.05-9.28a561,561,0,0,0,0-106.78,454.86,454.86,0,0,1,56.14,53.38c-46.9,54.06-111.1,96.75-176.81,125.38q7.06,3,14.06,5.81a562.3,562.3,0,0,0,92.54-53.42c-3.7,25.4-10.15,52.75-18.15,75.27C4724.11,1661.23,4655.68,1627.29,4597.71,1584.34Zm169.88,146.18c-55.77,82.23-119.45,27.46-145.81-45.2,14.07-2.77,28-6.41,41.39-10.47,14.1-4.37,28.54-9.64,43.14-15.77l-2-.84a493.66,493.66,0,0,0,86.5,27.08C4784,1702.67,4776.2,1717.91,4767.59,1730.52Zm38.13-53.79c9.44-27.3,15.77-56.52,19.54-86.29,24.3-18.48,47.53-39.83,64.92-60,26.38,33.72,52.4,77.2,32.67,116.33C4898.81,1684,4846.67,1682.11,4805.72,1676.73Z"/><circle cx="4773.64" cy="1730.19" r="32.06" fill="#19767b"/><circle cx="4926.29" cy="1473.22" r="32.06" fill="#19767b"/><circle cx="4535.87" cy="1369" r="33.4" fill="#93c74b"/><circle cx="4706.32" cy="1521.73" r="41.89" fill="#1ccedb"/><ellipse cx="2590.7" cy="3170.18" fill="#68737a" rx="367.31" ry="125.8"/><path fill="#2ac7cf" d="M2287.59,2915H2285a120.27,120.27,0,0,1-120.26-120.26v-1478a5.5,5.5,0,0,0-11,0h0v1478A131.28,131.28,0,0,0,2285,2926h2.64a5.5,5.5,0,0,0,0-11Z"/><path fill="#2ac7cf" d="M2318,2865h-40.41a82.49,82.49,0,0,1-82.48-82.48V1316.65a5.5,5.5,0,0,0-11,0h0V2782.54a93.48,93.48,0,0,0,93.48,93.48H2318a5.5,5.5,0,0,0,0-11Z"/><rect width="153.98" height="153.98" x="2330.22" y="2473.08" fill="#061a1b"/><rect width="153.98" height="153.98" x="2522.53" y="2473.08" fill="#061a1b"/><path fill="#0b3436" d="M2576.57,1646.5a14,14,0,0,0-19-5.47h0a83.2,83.2,0,0,0-11.55,8.19,132.74,132.74,0,0,0-16.92,16.82,156.81,156.81,0,0,0-26.56,45.6c-7.48,19.62-12.56,43.84-12.56,73q0,8.28.56,17.1a237.13,237.13,0,0,0,11.55,59.15,337.93,337.93,0,0,0,14.35,36.07c7.57,16.51,15.15,31,20.57,44a133.8,133.8,0,0,1,6.38,18.5,68,68,0,0,1,2.26,16.8,54.86,54.86,0,0,1-3.58,19.47c-2.54,6.84-6.65,14.28-13,22.55-24.85,32.29-38.51,62.78-45.88,87.43s-8.51,43.5-8.51,52.72c0,3.69.18,5.85.22,6.24a14,14,0,0,0,27.88-2.48h0s-.11-1.33-.11-3.76c0-7,.85-23,7.33-44.69s18.58-48.9,41.25-78.39a114.92,114.92,0,0,0,17.07-29.86,83.15,83.15,0,0,0,5.33-29.23,94.61,94.61,0,0,0-2.5-21.12c-2.75-12-7.37-23.32-12.59-34.74-3.92-8.57-8.2-17.18-12.44-26.09-6.37-13.37-12.66-27.4-17.66-42.87a209.15,209.15,0,0,1-10-51.51q-.51-7.93-.5-15.3c0-23.05,3.54-41.94,8.71-57.4a136.3,136.3,0,0,1,13.71-29.28,114,114,0,0,1,21.51-25.5,78,78,0,0,1,7.12-5.57c.82-.56,1.43-1,1.8-1.18l.35-.21h0A14,14,0,0,0,2576.57,1646.5Zm-5.44,19Zm0,0Z"/><rect width="49.19" height="493.04" x="2586.69" y="1670.37" fill="#566f70"/><rect width="49.19" height="493.04" x="2657.92" y="1670.37" fill="#566f70"/><rect width="320.79" height="94.49" x="2546.71" y="2128.4" fill="#9c1313"/><path fill="#014145" d="M2400.74,2222.89h534a95,95,0,0,1,95,95v106.26a84.63,84.63,0,0,1-84.63,84.63H2400.74a0,0,0,0,1,0,0V2222.89A0,0,0,0,1,2400.74,2222.89Z"/><polygon fill="#0b3336" points="2657.92 1543.1 2914.72 1660.42 2865.4 1744.64 2657.92 1687.84 2657.92 1543.1"/><polygon fill="#0b3336" points="2902.63 1737.23 2875.09 1746.82 2884.2 1906.42 2918.67 1875.17 2902.63 1737.23"/><polygon fill="#0b3336" points="2950.2 1704.9 2922.66 1714.5 2931.78 1874.1 2966.24 1842.85 2950.2 1704.9"/><circle cx="2881.29" cy="1697.39" r="81.92" fill="#16676b"/><circle cx="2881.29" cy="1697.39" r="49.84" fill="#fed5e0"/><path fill="#17b3bf" d="M2402.06,2222.89h377.21a76.38,76.38,0,0,1,76.38,76.38v125.26a84.22,84.22,0,0,1-84.22,84.22H2316.87a90.18,90.18,0,0,1-90.18-90.18v-20.32a175.37,175.37,0,0,1,175.37-175.37Z"/><rect width="320.79" height="94.49" x="2439.13" y="2128.4" fill="#f04343"/><polygon fill="none" points="2707.93 1640.12 2707.93 1640.12 2707.93 1640.12 2707.93 1640.12 2707.93 1640.12"/><path fill="#28bdc4" d="M2817.63,1917.29a96.89,96.89,0,0,0-10.58-18.13c-6.7-9.25-15.54-18.83-26.82-29a425.86,425.86,0,0,0-41.5-32.49,296.82,296.82,0,0,1-38.93-32c-15.61-15.47-25.74-30.07-32-43.57s-8.67-26-8.68-37.52a87.27,87.27,0,0,1,7.48-34.77c6.78-15.75,17.25-28.89,26-37.95a148.17,148.17,0,0,1,11.11-10.36c1.4-1.16,2.5-2,3.22-2.59l.79-.59.16-.12h0a12.3,12.3,0,0,0,2.52-18.13,14.78,14.78,0,0,0-19.63-2.35h0a122.84,122.84,0,0,0-9.65,7.87,171.8,171.8,0,0,0-31,36.48,131.85,131.85,0,0,0-13.42,28.29,109.14,109.14,0,0,0-5.61,34.23,108,108,0,0,0,4.68,31.28c4.86,16.21,13.81,33.09,27.8,50.22s33,34.57,58.24,52.19a418.94,418.94,0,0,1,35.32,27.26c14.41,12.55,24.06,23.54,29.86,32.76a57.11,57.11,0,0,1,6.09,12.46,31.44,31.44,0,0,1,1.72,9.9,24.51,24.51,0,0,1-2.49,10.8,37.82,37.82,0,0,1-6.42,9.17,70.4,70.4,0,0,1-9.07,8.11,156.34,156.34,0,0,1-22.39,13.76c-12.83,6.66-27.6,13-42.36,19.22s-29.5,12.52-42.54,19.47a123,123,0,0,0-22.69,15.57,128.11,128.11,0,0,0-27.35,33.65c-10.19,17.93-15.72,36.62-18.8,52.95a214.47,214.47,0,0,0-3.67,39c0,5.63.25,9,.27,9.27.56,7.13,7.27,12.48,15,12s13.5-6.7,12.95-13.82h0v0h0c0-.26-.2-2.94-.2-7.4a190.55,190.55,0,0,1,1.66-24.64,175.88,175.88,0,0,1,5.08-24.84c3.69-13.07,9.33-26.61,17.69-38.69a98.75,98.75,0,0,1,14.65-16.89,94.45,94.45,0,0,1,19.43-13.72c11.33-6,25.36-12.06,40-18.29,11-4.67,22.38-9.49,33.36-14.7,8.24-3.9,16.25-8,23.76-12.53a146.35,146.35,0,0,0,15.9-10.89,93.24,93.24,0,0,0,10.28-9.41,62.87,62.87,0,0,0,11.53-16.86,48.76,48.76,0,0,0,4.42-20.26A58.57,58.57,0,0,0,2817.63,1917.29Zm-109.7-279.08Z"/><circle cx="2657.92" cy="1615.47" r="121.76" fill="#156469"/><circle cx="2657.92" cy="1615.47" r="72.37" fill="#fed5e0"/><path fill="#014145" d="M2455.83,2600.48H2939a35.61,35.61,0,0,1,35.61,35.61v452.84a54.78,54.78,0,0,1-54.78,54.78h-464a0,0,0,0,1,0,0V2600.48A0,0,0,0,1,2455.83,2600.48Z"/><rect width="518.78" height="543.23" x="2290.05" y="2600.48" fill="#17b3bf" rx="44.68"/><circle cx="2361.48" cy="3143.74" r="117.12"/><circle cx="2361.48" cy="3143.74" r="49.91" fill="#fff"/><circle cx="2657.92" cy="3143.74" r="117.12"/><circle cx="2657.92" cy="3143.74" r="49.91" fill="#fff"/><circle cx="2361.52" cy="3145.19" r="11.23"/><circle cx="2661.56" cy="3145.19" r="11.23"/><rect width="388.39" height="156.03" x="2391.28" y="2287.35" fill="#feaac0" rx="38.03"/><rect width="38.82" height="83.41" x="2455.83" y="2325.04" fill="none" stroke="#fff" stroke-linecap="round" stroke-linejoin="round" stroke-width="10" rx="17.82"/><rect width="38.82" height="40.57" x="2515.71" y="2367.87" fill="none" stroke="#fff" stroke-linecap="round" stroke-linejoin="round" stroke-width="10" rx="17.82"/><rect width="38.82" height="40.57" x="2515.71" y="2325.96" fill="none" stroke="#fff" stroke-linecap="round" stroke-linejoin="round" stroke-width="10" rx="17.82"/><rect width="38.82" height="83.41" x="2608.57" y="2325.04" fill="none" stroke="#fff" stroke-linecap="round" stroke-linejoin="round" stroke-width="10" rx="17.82"/><rect width="38.82" height="83.41" x="2668.45" y="2325.04" fill="none" stroke="#fff" stroke-linecap="round" stroke-linejoin="round" stroke-width="10" rx="17.82"/><circle cx="2579.54" cy="2354.15" r="5.94" fill="#fff"/><circle cx="2579.54" cy="2394.25" r="5.94" fill="#fff"/><polygon fill="#014145" points="3475.93 2410.82 3532.87 2511.67 3540.35 2510.64 3485.99 2400.26 3475.93 2410.82"/><polygon fill="#1ccedb" points="3527.88 2356.28 3485.99 2400.26 3540.35 2510.64 3556.38 2508.43 3527.88 2356.28"/><path fill="#05484f" d="M3415.28,2368l47,48.56A16.3,16.3,0,0,0,3480,2413l17.92-17.92-48.46-61.3Z"/><path fill="#1499a3" d="M3522.29,2261l-72.82,72.81,48.46,61.3,28.46-28.46a15.41,15.41,0,0,0,3.35-16.78Z"/><polygon fill="#014145" points="3008.23 2017.74 3421.31 2383.82 3445.66 2356.35 3024.71 1999.14 3008.23 2017.74"/><polygon fill="#1e969e" points="3024.71 1999.14 3445.66 2356.35 3486.14 2310.67 3066.01 1952.54 3024.71 1999.14"/><polygon fill="#1ccedb" points="3117.19 1894.79 3066.01 1952.54 3486.14 2310.67 3530.27 2260.87 3117.19 1894.79"/><path fill="#015257" d="M2964.57,1960.78,2917,2013.42l-63.07-57-2.38-47.08,25.22-27.91Z"/><rect width="70.95" height="118.35" x="2908.97" y="1835.61" fill="#1f9aa3" transform="rotate(-47.9 2944.094 1894.732)"/><rect width="70.95" height="118.35" x="2956.55" y="1782.97" fill="#1ccedb" transform="rotate(-47.9 2991.665 1842.1)"/><path fill="#1d9099" d="M3107.28,1802.86l-47.57,52.64-87.8-79.35,25.22-27.91,47.08-2.38Z"/><path fill="#014145" d="M2969.33,1955.51,2917,2013.42l91.24,4.32,42.45-47.91c-7.39-3.18-15.49-4.5-23-5.25C3007.78,1962.85,2987.91,1961.11,2969.33,1955.51Z"/><path fill="#026a70" d="M3107.29,1802.86l-138,152.65c18.58,5.6,38.45,7.34,58.32,9.07,7.54.75,15.64,2.07,23,5.25l66.51-75Z"/><polygon fill="#fff" points="3544.51 2523.54 3492.99 2577.54 3439.78 2664.99 3503.39 2587.37 3544.51 2523.54" opacity=".8"/><polygon fill="#fff" points="3542.93 2526.14 3515.97 2603.43 3499.79 2710.34 3529.05 2605.55 3542.93 2526.14" opacity=".8"/><polygon fill="#fff" points="3544.51 2523.54 3544.65 2612.17 3569.33 2713.34 3557.33 2606.07 3544.51 2523.54" opacity=".8"/><polygon fill="#fff" points="3544.51 2523.54 3575.63 2605.88 3635.33 2677.46 3584.9 2593.01 3544.51 2523.54" opacity=".8"/><polygon fill="#fff" points="3545.48 2522.57 3602.63 2570.38 3683.29 2595.51 3606.33 2553.77 3545.48 2522.57" opacity=".8"/><rect width="95.52" height="80.59" x="2138.93" y="1289.21" fill="#19767b"/><polygon fill="#2b4a61" points="3019.79 641.7 3014.8 619.16 2786.09 641.7 2783.81 641.7 2550.11 641.7 2314.14 641.7 2239.45 872.56 2164.77 1103.42 2085.09 1311.75 2090.08 1334.29 2326.06 1334.29 2562.04 1334.29 2798.02 1334.29 2872.7 1103.42 2945.1 872.56 3019.79 641.7"/><polygon fill="#6fc0fd" points="3014.8 619.16 2781.1 619.16 2778.82 619.16 2545.13 619.16 2309.15 619.16 2234.46 850.02 2159.78 1080.88 2085.09 1311.75 2321.07 1311.75 2557.05 1311.75 2793.03 1311.75 2867.72 1080.88 2940.11 850.02 3014.8 619.16"/><polygon fill="#fafdff" points="2475.61 857.53 2254.99 857.53 2324.82 641.7 2545.44 641.7 2475.61 857.53"/><polygon fill="#6fc0fd" points="2281.11 838.53 2338.64 660.7 2519.32 660.7 2461.79 838.53 2281.11 838.53"/><polygon fill="#fafdff" points="2696.24 857.53 2475.61 857.53 2545.44 641.7 2766.06 641.7 2696.24 857.53"/><polygon fill="#6fc0fd" points="2501.73 838.53 2559.26 660.7 2739.94 660.7 2682.41 838.53 2501.73 838.53"/><polygon fill="#fafdff" points="2914.72 857.53 2694.1 857.53 2763.92 641.7 2984.54 641.7 2914.72 857.53"/><polygon fill="#6fc0fd" points="2720.21 838.53 2777.74 660.7 2958.42 660.7 2900.89 838.53 2720.21 838.53"/><polygon fill="#fafdff" points="2405.79 1073.37 2185.17 1073.37 2254.99 857.53 2475.61 857.53 2405.79 1073.37"/><polygon fill="#6fc0fd" points="2211.29 1054.37 2268.82 876.53 2449.5 876.53 2391.97 1054.37 2211.29 1054.37"/><polygon fill="#fafdff" points="2626.41 1073.37 2405.79 1073.37 2475.61 857.53 2696.24 857.53 2626.41 1073.37"/><polygon fill="#6fc0fd" points="2431.91 1054.37 2489.44 876.53 2670.12 876.53 2612.59 1054.37 2431.91 1054.37"/><polygon fill="#fafdff" points="2844.89 1073.37 2624.27 1073.37 2694.1 857.53 2914.72 857.53 2844.89 1073.37"/><polygon fill="#6fc0fd" points="2650.39 1054.37 2707.92 876.53 2888.6 876.53 2831.07 1054.37 2650.39 1054.37"/><polygon fill="#fafdff" points="2335.97 1289.21 2115.35 1289.21 2185.17 1073.37 2405.79 1073.37 2335.97 1289.21"/><polygon fill="#6fc0fd" points="2141.47 1270.21 2198.99 1092.37 2379.68 1092.37 2322.15 1270.21 2141.47 1270.21"/><polygon fill="#fafdff" points="2556.59 1289.21 2335.97 1289.21 2405.79 1073.37 2626.41 1073.37 2556.59 1289.21"/><polygon fill="#6fc0fd" points="2362.09 1270.21 2419.61 1092.37 2600.3 1092.37 2542.77 1270.21 2362.09 1270.21"/><polygon fill="#fafdff" points="2777.21 1289.21 2556.59 1289.21 2626.41 1073.37 2844.89 1073.37 2777.21 1289.21"/><polygon fill="#6fc0fd" points="2582.7 1270.21 2640.24 1092.37 2820.92 1092.37 2763.39 1270.21 2582.7 1270.21"/><g opacity=".6"><polygon fill="#fafbfc" points="2437.61 1054.37 2626.41 876.53 2607.63 876.53 2442.53 1021.52 2431.91 1054.37 2437.61 1054.37"/><polygon fill="#fafbfc" points="2729.36 838.53 2918.17 660.7 2899.38 660.7 2732.27 811.92 2723.66 838.53 2729.36 838.53"/><polygon fill="#fafbfc" points="2620.84 1152.34 2709.94 1092.37 2726.81 1092.37 2615.06 1170.18 2620.84 1152.34"/><polygon fill="#fafbfc" points="2576.93 1164.6 2568.68 1190.11 2439.4 1268.27 2423.36 1270.21 2576.93 1164.6"/><polygon fill="#fafbfc" points="2785.5 1054.37 2840.48 1025.28 2843.43 1016.16 2775.52 1054.37 2785.5 1054.37"/></g><path fill="#efaa6a" d="M4431.52 3412.44c-41.66.73-83.34 1-125 3.12-23.15 1.71-48.87-.83-69.21 12.36-10.09 5.71-.83 21.63 9.09 15.55a40.91 40.91 0 016.42-3.61c12.93-5.09 27-5 40.71-5.64 33.18-1.77 66.39-2.71 99.62-3.16q19.17-.32 38.33-.62C4443.07 3430.5 4443.23 3412.38 4431.52 3412.44zM4339.81 3360.25c17-4 34.74-2.05 52-1.42 7.81.23 21.3 2.72 21.59-8.68a9.16 9.16 0 00-9-9c-23.11-.1-46.63-3.83-69.4 1.75C4323.81 3345.87 4328.56 3363.34 4339.81 3360.25zM4596.14 3409.37c-10.45-8.68-23.92-15.24-30.08-27.94a22 22 0 01-1.5-9.89c.18-11.61-18-11.67-18 0-1.69 23.88 20 38.41 37.11 50.75C4591.92 3430.26 4604.42 3417.26 4596.14 3409.37zM4550.3 3291.7c-1.81-17.09-29-3.66-40.1-12.06-10-5.9-19.18 9.73-9.08 15.55 12.26 6.89 26.64 5.7 40.18 5.5C4546 3300.7 4550.52 3296.55 4550.3 3291.7zM4359.27 3256.18c12.2 4.15 63.95 8.2 55.79-14.65-5.34-8.64-14-1.42-21.38-.66a88.61 88.61 0 01-21-.14 56.69 56.69 0 01-8.66-1.91C4352.89 3235.59 4348 3253.05 4359.27 3256.18zM4459.71 3153.29c-5.59-5.75-8.31-15.16-15.82-18.55-7.25-2.33-14.49 6.69-10.16 13.22a416.27 416.27 0 0035.62 44.59c3.17 3.51 9.56 3.46 12.73 0a9.19 9.19 0 000-12.72C4474.32 3171.24 4466.81 3162.43 4459.71 3153.29zM4554.59 3204.85c6.45 1.19 13 1.81 19.5 2.64 5.28.25 10.93 3.56 15.95.73a9.15 9.15 0 004.14-5.38c2.34-17-24.28-11.74-34.8-15.35C4548.14 3184.31 4543.31 3201.94 4554.59 3204.85zM4679.14 3322.94c-10.6-.44-50.32-10.78-49.89 5.82.22 4.8 4 9.11 9 9a209.43 209.43 0 0130.55 1.71C4685.07 3345 4692.21 3328.58 4679.14 3322.94zM4753.33 3395.51c-5.8-6.47-8.27-19.18-18.13-20.14a9.07 9.07 0 00-9 9c.27 5.34 5 8.87 7.2 13.5 3.49 4.83 6.22 12.64 13.21 12.61C4754.11 3410.72 4758.52 3401 4753.33 3395.51zM4824.24 3275.75c-3.73-6.73-14.64-5.39-16.45 2.15-1.26 7.94 7.56 16.81 10.89 24 3.73 6.73 14.64 5.39 16.45-2.15C4836.4 3291.85 4827.56 3283 4824.24 3275.75zM4743.76 3257.92c11.69-.09 11.84-17.72 0-18-11.57-.14-42.51-15.15-44.65 3.3.23 8.87 9.14 9.31 16 9.37C4724.73 3254 4734.06 3256.86 4743.76 3257.92zM4682.45 3161c11.66-1 48.42 6.68 45.75-12.81-2.32-7.72-10.26-7-16.53-5.08-9.7 1.08-19.49-.09-29.22-.11C4670.84 3142.88 4670.79 3161 4682.45 3161zM4536.26 3061.39c5.66-5.31 1.41-15.62-6.36-15.37-10.89.2-47.31-10.56-47.5 6.15.22 4.79 4 9.11 9 9 12.9-.27 25.72 1.28 38.5 2.85C4532 3064.28 4534.82 3062.83 4536.26 3061.39zM4501.65 2988.65c9.69-6 21.26-7.64 31.36-12.83 10.08-5.78 1-21.32-9.08-15.54-10.24 4.8-21.74 6.67-31.37 12.83C4482.52 2979 4491.62 2994.6 4501.65 2988.65zM4628.27 3041.21c13.27-.11 26.89-1.62 39.46-6a9.12 9.12 0 006.29-11.08c-4.9-13.09-19.42-2-29-2a144.37 144.37 0 01-16.76 1.09C4616.66 3023.13 4616.61 3041.25 4628.27 3041.21zM4656.33 3107.9c7.45-1.76 9-12.9 2.15-16.45-9.34-4.19-18.63-8.69-26.85-14.85-2.7-2.21-5.27-5-9.06-4.91-7.58-.32-12.14 10.16-6.36 15.36C4626.13 3094.91 4643.69 3107.77 4656.33 3107.9zM4847.17 3147.34c-12.52-1.4-31.79-23.81-40.8-6.32-2.21 8 5.51 11.41 12 12.62 3.82 1.77 7.37 4.05 11.06 6.07C4855.44 3175.76 4863.39 3151.08 4847.17 3147.34zM4959.5 3196.05c-15.52 3.42-33.59 10.37-48.66 2.33-9.95-6-19.14 9.63-9.09 15.54 19.08 11.32 42.49 4.43 62.54-.52C4975.5 3210.41 4970.75 3192.94 4959.5 3196.05zM4986.13 3074.54a9.07 9.07 0 00-9 8.94c-1.28 8.61-3.71 17-4.28 25.72-.19 11.61 17.93 11.66 18 0C4990.23 3098.4 5003.28 3077 4986.13 3074.54zM4932.6 3041c4.8-7.56-4.69-17.1-12.32-12.31-7.94 9.38-19.55 13.46-31.57 14.88a184.72 184.72 0 01-29.47 1c-4.71-.17-9.21 4.26-9 9 1.13 15 26.56 7.83 36.77 8.22C4903.79 3060 4922.22 3055.45 4932.6 3041zM4774.36 3025.85c-5.28-5.69-15.65-1.4-15.36 6.36-.36 5.29 13.67 19.42 19 19a9.07 9.07 0 009-9C4786.44 3034.89 4778.58 3031.12 4774.36 3025.85zM4845 2932.85c11.6.12 11.66-18 0-18-18.89-1.53-38.55-5.37-55.33-14.45-9.94-6-19.14 9.63-9.09 15.54C4800.11 2926.68 4822.91 2931.13 4845 2932.85zM4710.7 2961.57c6.67 4 15.55-2.64 13.22-10.17-3.62-10.06-30.43-13.24-40.27-18.72-7.82-2.7-18-13.77-24.65-3.39C4651 2948.18 4699.05 2954.45 4710.7 2961.57zM4592.63 2869.23c-11.19.47-50.75-2.14-47.18 15.67 3.88 11.52 15.92 3.92 24.18 3.16a152.34 152.34 0 0123-.83C4604.24 2887.37 4604.29 2869.24 4592.63 2869.23zM4645.38 2804.54c14-4 19.82 24.21 33.45 13 8.58-10.38-7.24-19.33-13.83-25.83C4638.71 2774.53 4626.46 2801.39 4645.38 2804.54zM4718.82 2859.83c-11.74-4.21-18 13.36-6 17.1 14.35 3.27 28.61-2.67 42.37-6.13 5.28-2.09 11.85-.9 16.29-4.74a9.08 9.08 0 000-12.73C4759.39 2844.92 4734.05 2862.26 4718.82 2859.83zM4905.85 2943.81a9.15 9.15 0 009 9c19.75.05 40 7.4 59.42 1.11 13.54-6.11 5-22.93-10.82-15.86C4950 2942.52 4906.08 2924.85 4905.85 2943.81zM5013.35 2871.56c-7.66-11.75-32.36-23.4-46.21-26.25-7.49-2.18-14.35 6.54-10.16 13.22 3.44 5.78 11.28 4.44 16.65 7.38 9.46 4.14 18.05 10 26.5 15.81C5006.67 2885.92 5015.73 2879 5013.35 2871.56zM4841.47 2796.3c-5.66 5.31-1.42 15.58 6.37 15.36 6.29-.67 14.06 2 19.19-2.63 5.67-5.31 1.42-15.58-6.36-15.37C4854.38 2794.34 4846.61 2791.66 4841.47 2796.3zM4694.62 2720.63c7.7 4.67 14.92 15.37 23.47 16.9 7.76.24 12-10 6.37-15.37-6.35-5.66-12.91-11.53-20-16.12C4695.87 2701.79 4687.55 2714.22 4694.62 2720.63zM4723.8 2627.74c11.52-.39 34.27 17.44 40 2 1.07-4.7-1.41-9.8-6.28-11.07-11.2-1.72-30.36-13.68-40.13-6.24C4711.77 2617.8 4716 2627.78 4723.8 2627.74zM4791.27 2690.16c17.43 7 34.13-4.08 51-7l-.54.08c7.21-.47 10.64-10.29 5.3-15.22-10.34-7.67-27.83 5.35-39.58 6.23-6.28 1.66-12.53-3.89-18.37-.5C4782.32 2677.48 4783.77 2688.14 4791.27 2690.16zM4906.29 2783.15c10.65-3.1 18.58-13.17 27.94-19.13 6.76-5.33 13.49-10.83 18.71-17.74 6.76-6.91 3.84-22.08-7.69-19.3-4.73 1.3-5.87 5.33-7.09 9.16-5.34 6.33-12 11.41-18.44 16.54-6.63 6.64-21.25 11.63-22.43 21.47A9.07 9.07 0 004906.29 2783.15z"/><polygon fill="#a0d5fd" points="3931.37 881.65 3931.37 1213.54 3946.75 1213.54 3946.75 891.56 3931.37 881.65"/><path fill="url(#a)" d="M4333.45,2187.89c0,187.37-796.83,187.37-796.83,0l348.61-954.45h99.61Z"/><path fill="#ff5100" d="M4031.06,1260.14c0-43.3-42.73-78.39-95.45-78.39s-95.45,35.09-95.45,78.39a65.23,65.23,0,0,0,1.6,14.36h187.7A65.23,65.23,0,0,0,4031.06,1260.14Z"/><polygon fill="#a0d5fd" points="4184.59 936.37 4184.59 1041.7 4197.48 1041.7 4197.48 939.51 4184.59 936.37"/><path fill="url(#b)" d="M4584.17,2016.05c0,187.36-796.83,187.36-796.83,0L4136,1061.59h99.61Z"/><path fill="#ff5100" d="M4281.78,1088.29c0-43.29-42.73-78.39-95.45-78.39s-95.45,35.1-95.45,78.39a65.25,65.25,0,0,0,1.6,14.37h187.7A65.25,65.25,0,0,0,4281.78,1088.29Z"/></svg>