<svg xmlns="http://www.w3.org/2000/svg" data-name="Layer 1" viewBox="0 0 700 550"><path fill="#d5efc8" d="M427.84136,473.65586c16.25-5.08,30.83-10.27,48.37-20.12,18.09-10.16,98.45-58.51,108.9-142.19a159.61541,159.61541,0,0,0-6.66-68.16c-3.23-9.47-9.93-28.49-26.84-47.3-20.7-23.04-44.32-31.97-58.17-37.02-29.14-10.63-53.58-10.07-65.22-9.69-12.56.41-34.73,1.33-59.93,12.34-16.44,7.18-26.66,15.37-41.72,27.61-23.86,19.41-27,27.49-68.74,67.57-11.46,11-20.88,19.67-35.26,28.21-9.97,5.92-18.03,9.23-32.9,15.27-36.55,14.85-46.95657,17.85677-58.91657,26.21677-23.26,16.27-21.75343,34.01323-22.75343,37.83323a75.12694,75.12694,0,0,0-1.77,29.97c3.05,20.07,13.86,33.19,20.57,41.13a113.09822,113.09822,0,0,0,32.9,26.44,210.24676,210.24676,0,0,0,26.96,11.89Z"/><path fill="#bbec6c" d="M479.43227,459.47016l-.49024-.8711C502.8434,445.1723,581.64027,394.8393,592.12074,310.86273a166.32881,166.32881,0,0,0-6.91406-70.77246c-2.97656-8.73144-9.94824-29.17773-27.84766-49.0957C535.43813,166.604,510.41371,157.476,496.96938,152.5727a174.05493,174.05493,0,0,0-67.74708-10.06836c-12.4248.40429-35.55078,1.15625-62.24316,12.81054l-.40039-.916c26.86816-11.73145,51.00879-12.5166,62.61035-12.89453a175.02522,175.02522,0,0,1,68.12207,10.1289c13.52637,4.9336,38.7041,14.11719,60.792,38.69336C576.1393,210.39594,583.15688,230.979,586.154,239.768a167.3994,167.3994,0,0,1,6.959,71.21777C582.57387,395.42816,503.43617,445.98676,479.43227,459.47016Z"/><path fill="#935b50" d="M532.20779,234.481V472.41586H586V234.481a2.58119,2.58119,0,0,0-2.5812-2.58119H534.789A2.58119,2.58119,0,0,0,532.20779,234.481Z"/><rect width="47.855" height="35.543" x="535.176" y="275.186" fill="#e19974" rx="2.581"/><rect width="47.855" height="35.543" x="535.176" y="235.772" fill="#e19974" rx="2.581"/><path fill="#d6694b" d="M579.99184 266.80366a1.59464 1.59464 0 11-2.2533 2.25329 9.55928 9.55928 0 00.561-.89795 2.02763 2.02763 0 01.32531-.46887C578.86708 267.444 579.1808 267.37153 579.99184 266.80366zM577.73854 238.02937a1.59461 1.59461 0 112.2533 2.25317 9.54258 9.54258 0 00-.89808-.561 2.03026 2.03026 0 01-.46887-.32531C578.37892 239.15412 578.30629 238.84028 577.73854 238.02937zM538.216 240.28254a1.5946 1.5946 0 112.25329-2.25317 9.54221 9.54221 0 00-.561.89794 2.03066 2.03066 0 01-.32532.46888C539.34071 239.64228 539.027 239.71479 538.216 240.28254zM540.46925 269.05695a1.59464 1.59464 0 11-2.25329-2.25329 9.48741 9.48741 0 00.89807.561 2.02687 2.02687 0 01.46887.32544C539.82887 267.9322 539.9015 268.246 540.46925 269.05695zM579.99184 306.21857a1.59465 1.59465 0 11-2.2533 2.2533 9.55928 9.55928 0 00.561-.898 2.02868 2.02868 0 01.32531-.469C578.86708 306.859 579.1808 306.78632 579.99184 306.21857zM577.73854 277.44416a1.59465 1.59465 0 112.2533 2.2533 9.54258 9.54258 0 00-.89808-.561 2.03 2.03 0 01-.46887-.32532C578.37892 278.56892 578.30629 278.2552 577.73854 277.44416zM538.216 279.69746a1.59464 1.59464 0 112.25329-2.2533 9.5565 9.5565 0 00-.561.89795 2.029 2.029 0 01-.32532.469C539.34071 279.05708 539.027 279.12971 538.216 279.69746zM540.46925 308.47187a1.59464 1.59464 0 11-2.25329-2.2533 9.54144 9.54144 0 00.89807.561 2.03 2.03 0 01.46887.32532C539.82887 307.34711 539.9015 307.66083 540.46925 308.47187z"/><rect width="47.855" height="35.543" x="535.176" y="314.601" fill="#e19974" rx="2.581"/><rect width="47.855" height="35.543" x="535.176" y="354.016" fill="#e19974" rx="2.581"/><rect width="47.855" height="35.543" x="535.176" y="393.431" fill="#e19974" rx="2.581"/><rect width="47.855" height="35.543" x="535.176" y="432.846" fill="#e19974" rx="2.581"/><rect width="14.713" height="5.421" x="551.747" y="248.703" fill="#d6694b" rx="1"/><rect width="14.713" height="5.421" x="551.747" y="327.533" fill="#d6694b" rx="1"/><rect width="14.713" height="5.421" x="551.747" y="366.948" fill="#d6694b" rx="1"/><rect width="14.713" height="5.421" x="551.747" y="445.778" fill="#d6694b" rx="1"/><rect width="14.713" height="5.421" x="551.747" y="406.363" fill="#d6694b" rx="1"/><rect width="14.713" height="5.421" x="551.747" y="288.118" fill="#d6694b" rx="1"/><path fill="#d6694b" d="M579.99184 345.63349a1.59461 1.59461 0 11-2.2533 2.25318 9.54613 9.54613 0 00.561-.89795 2.02771 2.02771 0 01.32531-.46888C578.86708 346.27375 579.1808 346.20124 579.99184 345.63349zM577.73854 316.85908a1.59465 1.59465 0 112.2533 2.25329 9.48854 9.48854 0 00-.89808-.561 2.02687 2.02687 0 01-.46887-.32544C578.37892 317.98383 578.30629 317.67 577.73854 316.85908zM538.216 319.11237a1.59464 1.59464 0 112.25329-2.25329 9.5565 9.5565 0 00-.561.89795 2.02793 2.02793 0 01-.32532.46887C539.34071 318.472 539.027 318.5445 538.216 319.11237zM540.46925 347.88667a1.59461 1.59461 0 11-2.25329-2.25318 9.54144 9.54144 0 00.89807.561 2.03026 2.03026 0 01.46887.32531C539.82887 346.76191 539.9015 347.07575 540.46925 347.88667zM579.99184 385.04829a1.59464 1.59464 0 11-2.2533 2.25329 9.55928 9.55928 0 00.561-.89795 2.02763 2.02763 0 01.32531-.46887C578.86708 385.68867 579.1808 385.61616 579.99184 385.04829zM577.73854 356.274a1.59461 1.59461 0 112.2533 2.25318 9.54258 9.54258 0 00-.89808-.561 2.03026 2.03026 0 01-.46887-.32531C578.37892 357.39875 578.30629 357.08491 577.73854 356.274zM538.216 358.52717a1.59461 1.59461 0 112.25329-2.25318 9.54336 9.54336 0 00-.561.89795 2.03088 2.03088 0 01-.32532.46888C539.34071 357.88691 539.027 357.95942 538.216 358.52717zM540.46925 387.30158a1.59464 1.59464 0 11-2.25329-2.25329 9.48741 9.48741 0 00.89807.561 2.02625 2.02625 0 01.46887.32544C539.82887 386.17683 539.9015 386.49067 540.46925 387.30158zM579.99184 463.878a1.59465 1.59465 0 11-2.2533 2.25329 9.55928 9.55928 0 00.561-.89795 2.02763 2.02763 0 01.32531-.46887C578.86708 464.51838 579.1808 464.44587 579.99184 463.878zM577.73854 435.10371a1.59465 1.59465 0 112.2533 2.25329 9.52436 9.52436 0 00-.89808-.56116 2.02291 2.02291 0 01-.46887-.32531C578.37892 436.22846 578.30629 435.91462 577.73854 435.10371zM538.216 437.357a1.59464 1.59464 0 112.25329-2.25329 9.5565 9.5565 0 00-.561.898 2.02793 2.02793 0 01-.32532.46887C539.34071 436.71662 539.027 436.78913 538.216 437.357zM540.46925 466.13129A1.59464 1.59464 0 11538.216 463.878a9.52323 9.52323 0 00.89807.56116 2.02291 2.02291 0 01.46887.32531C539.82887 465.00654 539.9015 465.32038 540.46925 466.13129zM579.99184 424.4632a1.59465 1.59465 0 11-2.2533 2.2533 9.54276 9.54276 0 00.561-.89807 2.03026 2.03026 0 01.32531-.46887C578.86708 425.10358 579.1808 425.031 579.99184 424.4632zM577.73854 395.68879a1.59464 1.59464 0 112.2533 2.25329 9.54411 9.54411 0 00-.89808-.561 2.02625 2.02625 0 01-.46887-.32544C578.37892 396.81354 578.30629 396.49982 577.73854 395.68879zM538.216 397.94208a1.59464 1.59464 0 112.25329-2.25329 9.5565 9.5565 0 00-.561.898 2.0253 2.0253 0 01-.32532.46887C539.34071 397.3017 539.027 397.37421 538.216 397.94208zM540.46925 426.7165a1.59464 1.59464 0 11-2.25329-2.2533 9.54144 9.54144 0 00.89807.561 2.03 2.03 0 01.46887.32532C539.82887 425.59174 539.9015 425.90546 540.46925 426.7165z"/><path fill="#8795de" d="M249.67527,291.79192H388.25174a20.803,20.803,0,0,1,20.803,20.803v90.08882a0,0,0,0,1,0,0H228.87226a0,0,0,0,1,0,0V312.59493A20.803,20.803,0,0,1,249.67527,291.79192Z"/><rect width="57.298" height="57.298" x="409.055" y="337.198" fill="#a2aee6"/><path fill="#4f66d0" d="M409.0547 337.19794c.2063 4.77478.30286 9.54969.38294 14.32447.08227 4.7749.0747 9.54968.11657 14.32446-.03918 4.7749-.03515 9.54968-.11486 14.32459l-.13953 7.16223c-.083 2.38745-.13171 4.77478-.24512 7.16223-.11328-2.38745-.162-4.77478-.24512-7.16223l-.1394-7.16223c-.07971-4.77491-.07568-9.54969-.11487-14.32459.04187-4.77478.0343-9.54956.11658-14.32446C408.75185 346.74763 408.84853 341.97272 409.0547 337.19794zM381.61 312.248c-.943.52637-1.87146 1.06153-2.75464 1.66907a31.16725 31.16725 0 00-2.61267 1.84216 33.85872 33.85872 0 00-4.64551 4.30518 22.63053 22.63053 0 00-3.428 5.26025l-.60192 1.46253c-.18128.49536-.27723 1.01684-.42591 1.52624l-.22363.76844-.11682.7893c-.07056.52881-.15405 1.06006-.24622 1.59632a15.4745 15.4745 0 01.90247-6.434 18.73094 18.73094 0 013.38659-5.62586 25.134 25.134 0 014.95472-4.27209A24.6314 24.6314 0 01381.61 312.248zM389.03444 347.2215c-.6134-.88879-1.23425-1.76233-1.92285-2.58374a31.18492 31.18492 0 00-2.08179-2.426 33.85235 33.85235 0 00-4.72656-4.21607 22.63209 22.63209 0 00-5.56189-2.91333l-1.51306-.46045c-.51038-.1333-1.03846-.17944-1.55982-.27917l-.78613-.14966-.79688-.04138c-.53308-.02-1.06982-.05273-1.61242-.09351a15.47443 15.47443 0 016.4906.28772 18.72971 18.72971 0 015.92175 2.83753 25.13063 25.13063 0 014.723 4.52685A24.6296 24.6296 0 01389.03444 347.2215zM338.36525 334.4333a24.63216 24.63216 0 015.71374-3.07666 25.13241 25.13241 0 016.34913-1.5774 18.72952 18.72952 0 016.54846.48438 15.47609 15.47609 0 015.77368 2.97912c-.491-.23437-.97278-.47314-1.44531-.72094l-.7118-.36048-.75647-.26123c-.50183-.17285-.98291-.39563-1.49194-.53381l-1.54162-.35327a22.63165 22.63165 0 00-6.274-.2395 33.85417 33.85417 0 00-6.19763 1.306 31.15446 31.15446 0 00-3.01282 1.069C340.31264 333.5185 339.33949 333.96748 338.36525 334.4333zM362.62831 360.69306a24.63461 24.63461 0 01-2.52051-5.98A25.13173 25.13173 0 01359.14 348.243a18.72576 18.72576 0 011.10364-6.473 15.474 15.474 0 013.51367-5.465c-.28.46655-.56336.92358-.85486 1.37036l-.42651.67444-.33179.72827c-.21973.48316-.48706.94092-.673 1.43457l-.49793 1.5011a22.6303 22.6303 0 00-.83386 6.223 33.85367 33.85367 0 00.71191 6.29358 31.19842 31.19842 0 00.7782 3.10071C361.90248 358.66755 362.25709 359.6789 362.62831 360.69306zM292.13722 312.248c-.94287.52637-1.87146 1.06153-2.75451 1.66907a31.14775 31.14775 0 00-2.61268 1.84216 33.85112 33.85112 0 00-4.6455 4.30518 22.63422 22.63422 0 00-3.4281 5.26025l-.60193 1.46253c-.18116.49536-.2771 1.01684-.42591 1.52624l-.22363.76844-.1167.7893c-.07068.52881-.154 1.06006-.24621 1.59632a15.47254 15.47254 0 01.90246-6.434 18.72831 18.72831 0 013.3866-5.62586 25.13642 25.13642 0 014.95459-4.27209A24.63368 24.63368 0 01292.13722 312.248zM299.56178 347.2215c-.6134-.88879-1.23425-1.76233-1.92285-2.58374a31.15832 31.15832 0 00-2.08191-2.426 33.84555 33.84555 0 00-4.72656-4.21607 22.62959 22.62959 0 00-5.56189-2.91333l-1.51294-.46045c-.51038-.1333-1.03857-.17944-1.55981-.27917l-.78614-.14966-.79687-.04138c-.53321-.02-1.06983-.05273-1.61243-.09351a15.47459 15.47459 0 016.4906.28772 18.72971 18.72971 0 015.92175 2.83753 25.13069 25.13069 0 014.723 4.52685A24.63862 24.63862 0 01299.56178 347.2215zM248.89259 334.4333a24.63122 24.63122 0 015.71363-3.07666 25.1335 25.1335 0 016.34912-1.5774 18.73 18.73 0 016.54858.48438 15.476 15.476 0 015.77368 2.97912c-.49109-.23437-.9729-.47314-1.44531-.72094l-.71191-.36048-.75647-.26123c-.50171-.17285-.98279-.39563-1.49183-.53381l-1.54162-.35327a22.63232 22.63232 0 00-6.27417-.2395 33.85521 33.85521 0 00-6.19751 1.306 31.144 31.144 0 00-3.01282 1.069C250.84 333.5185 249.86684 333.96748 248.89259 334.4333zM273.15565 360.69306a24.63419 24.63419 0 01-2.5205-5.98 25.13143 25.13143 0 01-.9679-6.47009 18.72892 18.72892 0 011.10376-6.473 15.47568 15.47568 0 013.51355-5.465c-.27991.46655-.56335.92358-.85474 1.37036l-.42651.67444-.33179.72827c-.21972.48316-.48718.94092-.673 1.43457l-.49805 1.5011a22.63982 22.63982 0 00-.83386 6.223 33.853 33.853 0 00.712 6.29358 31.19289 31.19289 0 00.7782 3.10071C272.42982 358.66755 272.78432 359.6789 273.15565 360.69306z"/><path fill="#a2aee6" d="M227.27064,337.19791H264.188a0,0,0,0,1,0,0v136.218a0,0,0,0,1,0,0H207.25037a0,0,0,0,1,0,0V357.21819A20.02028,20.02028,0,0,1,227.27064,337.19791Z"/><path fill="#c0d6f2" d="M304.54891,473.41586H264.188v-136.218h20.3406a20.02028,20.02028,0,0,1,20.02028,20.02028v29.90506l161.85191-1.10673-.048-48.81861h16.37659a20.02027,20.02027,0,0,1,20.02027,20.02028V473.41586Z"/><circle cx="414.318" cy="153.324" r="28.034" fill="#ffba55"/><path fill="#d77f4a" d="M414.318,181.85883a28.53418,28.53418,0,1,1,28.5332-28.53418A28.567,28.567,0,0,1,414.318,181.85883Zm0-56.06836a27.53418,27.53418,0,1,0,27.5332,27.53418A27.56508,27.56508,0,0,0,414.318,125.79047Z"/><path fill="#d77f4a" d="M414.318,155.82465a.49971.49971,0,0,1-.5-.5V137.2475a.5.5,0,0,1,1,0v18.07715A.49971.49971,0,0,1,414.318,155.82465Z"/><path fill="#d77f4a" d="M429.87172,159.56488a.49864.49864,0,0,1-.22461-.05273l-18.75684-9.40723a.5005.5005,0,0,1,.44922-.89453l18.75684,9.40723a.50015.50015,0,0,1-.22461.94726Z"/><path fill="#f9977a" d="M401.13855,449.10783s-1.0269,19.71693.58145,20.23426,41.15391,1.03292,33.76759-1.91869l-12.20019-4.14794a11.72561,11.72561,0,0,1-7.89522-9.957l-.65322-6.66037Z"/><path fill="#ffba55" d="M441.08 471.12993v-.07819a3.23663 3.23663 0 00-1.78-2.89032l-21.70471-11.64327a1.07888 1.07888 0 00-1.34809.31537l-8.07459 6.01019a1.07888 1.07888 0 01-1.41762.27706l-5.30032-3.18019a1.07888 1.07888 0 00-1.634.92512v10.26423a1.07888 1.07888 0 001.07888 1.07888h39.10151A1.07888 1.07888 0 00441.08 471.12993zM323.43994 281.1949a35.17345 35.17345 0 00-23.8283 13.60455c-3.012 3.89871-5.70888 8.04763-6.437 12.92015a75.04667 75.04667 0 00.51145 22.89761 1.64086 1.64086 0 001.9262 1.35488l18.76289-3.60825.98109 32.5719s42.97135 22.36865 60.04216-3.13946L364.515 315.14885l12.8718-.74628a1.63513 1.63513 0 001.43387-2.21318l-5.72594-15.06952a24.68767 24.68767 0 00-19.25305-15.75234q-.3957-.0597-.78373-.10683l-11.21254-1.36227z"/><path fill="#e6952a" d="M314.37514 328.36384c-.31861-1.56055-.57788-3.12879-.82825-4.69837-.25159-1.56933-.45459-3.145-.68433-4.71728-.186-1.57788-.39526-3.15283-.55932-4.73364-.16358-1.58094-.31873-3.163-.41345-4.75281.31933 1.5603.57849 3.12866.8291 4.69812.25024 1.56958.4552 3.145.68347 4.71741.18445 1.57812.39575 3.15283.55835 4.73388C314.12453 325.192 314.27943 326.774 314.37514 328.36384zM364.01784 313.84382c-.42041-1.38745-.7826-2.78784-1.13587-4.19019-.35449-1.402-.66113-2.81457-.994-4.22131-.28979-1.41626-.60266-2.82739-.871-4.24841-.2677-1.42115-.52722-2.84412-.72729-4.28.42138 1.38733.7832 2.78772 1.13684 4.18994.353 1.40234.66162 2.81445.99316 4.22156.28833 1.4165.603 2.82727.86988 4.24865C363.55775 310.98505 363.81691 312.408 364.01784 313.84382zM334.92055 353.41413a23.23355 23.23355 0 005.9458-2.2395 34.00776 34.00776 0 005.3053-3.47949 42.34136 42.34136 0 004.672-4.31226c.74805-.75549 1.40821-1.5918 2.12036-2.384l2.00269-2.49719q-.874 1.34142-1.79248 2.6621c-.67371.83094-1.30274 1.70325-2.02 2.50086a30.72908 30.72908 0 01-2.22937 2.32275c-.76.761-1.58838 1.4469-2.41565 2.13489a31.09016 31.09016 0 01-5.45618 3.42566A19.03824 19.03824 0 01334.92055 353.41413zM338.08607 359.49409c1.44861-.50281 2.87586-1.06311 4.29432-1.64063 1.42321-.56482 2.83728-1.15222 4.2351-1.77453 2.80139-1.22937 5.5708-2.53565 8.2345-4.03223a55.11459 55.11459 0 007.70459-4.92761l.91431-.68824.8584-.75451a18.70522 18.70522 0 001.67285-1.55725c.51465-.56018 1.08142-1.082 1.55737-1.67774l1.36572-1.84668a24.91907 24.91907 0 01-6.10876 6.85352 51.16787 51.16787 0 01-7.70288 5.0758 81.79466 81.79466 0 01-8.33338 3.93921A83.8598 83.8598 0 01338.08607 359.49409z"/><path fill="#376f92" d="M342.49946,368.06493s51.01622-19.36,63.57406-9.15676c12.25578,9.95782,8.52779,16.81647,12.6687,87.11472a5.00547,5.00547,0,0,1-4.99072,5.30151H400.96792a5,5,0,0,1-4.85306-3.79673l-12.98575-57.47428s-11.77651.9385-37.22857-3.93657Z"/><path fill="#161819" d="M479.03676,473.90863c-10.37305-1.70605-21.01953-3.0664-31.64551-4.043-11.28418-1.03613-19.94824-1.39648-26.91016-1.68554-13.5625-.56348-21.749-.90332-32.75781-5.55176-8.05078-3.39941-23.03515-9.72656-29.54492-24.74121-4.98535-11.501-3.23438-23.59766-1.95606-32.42969a52.13,52.13,0,0,1,2.24415-9.60547,92.00963,92.00963,0,0,0,3.166-12.93457c2.0293-11.12695,3.36914-18.47754,1.792-27.70508a49.38789,49.38789,0,0,0-8.07812-20.43945,47.96279,47.96279,0,0,0-14.72754-13.77734l.51758-.85547a48.984,48.984,0,0,1,15.03222,14.0625,50.3761,50.3761,0,0,1,8.24219,20.84179c1.60645,9.40137.25391,16.82129-1.79394,28.05274a92.95522,92.95522,0,0,1-3.19727,13.05566,51.36873,51.36873,0,0,0-2.207,9.44629c-1.26172,8.71582-2.98926,20.64942,1.88379,31.88965,6.35058,14.64844,21.09472,20.874,29.01562,24.21777,10.84278,4.57813,18.50293,4.89649,32.41016,5.47461,6.97363.29,15.65137.65039,26.96094,1.68848,10.64941.97852,21.32031,2.3418,31.71582,4.05273Z"/><path fill="#f9977a" d="M335.94578,429.40173s10.57136,21.14759,9.10225,22.2973-44.232,15.66335-37.7048,9.7867l11.05863-8.953a12.94716,12.94716,0,0,0,4.3815-13.32954l-1.86448-7.15043Z"/><path fill="#161819" d="M360.895,329.91829l-.4709-6.25662.1125-.02273-.519-5.591c-.82113-4.32982-5.32775-6.56677-9.536-5.7202l-19.92747,4.00915a7.98439,7.98439,0,0,0-6.13277,9.37245l.949,5.00459,1.8945,6.29268a1.61186,1.61186,0,0,0,2.90474.44487l5.86269-8.88262,14.14-2.84464,8.18251,5.71206A1.63244,1.63244,0,0,0,360.895,329.91829Z"/><path fill="#10394f" d="M351.68251 380.71333a11.434 11.434 0 01.58081-3.59571 14.588 14.588 0 011.5896-3.30237 18.38547 18.38547 0 012.287-2.85351 16.29255 16.29255 0 012.79809-2.32532 30.033 30.033 0 00-4.62683 5.47327 19.727 19.727 0 00-1.65588 3.15149A17.37123 17.37123 0 00351.68251 380.71333zM354.96669 368.31318a10.94018 10.94018 0 00-1.73193 2.505 24.13877 24.13877 0 00-1.24329 2.77723c-.37988.94335-.67651 1.9187-.99963 2.88891l-.86829 2.95715c.04053-.515.11609-1.02539.17346-1.54064l.28955-1.52417a21.40444 21.40444 0 01.89685-2.97767 14.91875 14.91875 0 011.39148-2.79211A7.6041 7.6041 0 01354.96669 368.31318zM383.02724 390.09174a13.13745 13.13745 0 01-.718-4.03979 17.76415 17.76415 0 01.44531-4.10278 22.93458 22.93458 0 011.33972-3.89527 18.90209 18.90209 0 012.06726-3.54065 35.12943 35.12943 0 00-1.68078 3.70325 27.4282 27.4282 0 00-1.19593 3.856 20.10265 20.10265 0 00-.55822 3.98315A19.02445 19.02445 0 00383.02724 390.09174z"/><path fill="#10394f" d="M380.05946,376.72858a12.02363,12.02363,0,0,0,.05616,3.43653,26.2337,26.2337,0,0,0,.702,3.36426c.28064,1.11364.65857,2.20092,1.01392,3.29882l1.19568,3.26355c-.29773-.50012-.56446-1.017-.84851-1.5271l-.738-1.58508a24.89158,24.89158,0,0,1-1.14942-3.31006,17.17605,17.17605,0,0,1-.59106-3.46362A8.71552,8.71552,0,0,1,380.05946,376.72858Z"/><path fill="#f9977a" d="M296.69048,331.76474l1.16706,18.39318c.54,7.38,1.99959,12.92837,6.75,11.43l10.70525-2.09386-2.18036-30.89124Z"/><path fill="#f9977a" d="M300.90162 360.4779L299.033 347.73716l14.0994-20.55062s9.56542-14.12756 21.78812-11.773c0 0 2.35358 1.16032-8.27872 4.70919l7.603 2.36284a4.42158 4.42158 0 013.12525 4.14946 6.63372 6.63372 0 01-4.55063 6.63419l-5.29147-.39243s-3.14475 10.72648-9.3261 7.71783c0 0-.77414 14.31828-2.8891 18.89941zM377.09317 314.40257l-12.8718.74628c-2.00067-1.83174-5.90684-3.28917-8.48753-4.108a13.31481 13.31481 0 00-4.612-.60184 12.94365 12.94365 0 01-5.27707-.53488 2.78743 2.78743 0 00-2.95034.725 2.50144 2.50144 0 00.0309 3.21475c16.69547-2.35463 14.91236 2.15836 14.91236 2.15836 0 1.75365-6.60609 4.6731-9.08342 5.70621a1.57652 1.57652 0 00-.9684 1.47415c.14974 9.11489 14.07432 6.71829 14.07432 6.71829 1.4716 5.85378 10.17928 16.057 10.17928 16.057 6.27367 5.78411 9.64691-.20477 11.32916-5.80392a16.94739 16.94739 0 00-.97214-12.1857z"/><path fill="#dd765e" d="M327.32545 324.95356c1.6897.1748 3.36451.44116 5.04053.70044 1.67139.287 3.344.56653 5.00159.939-1.68994-.17395-3.36463-.44091-5.04053-.70044C330.65553 325.60529 328.98305 325.32514 327.32545 324.95356zM328.69887 328.36384c1.35058.15832 2.68359.40759 4.01782.64978 1.3291.2699 2.65955.53235 3.97217.88721-1.35059-.15735-2.68347-.40723-4.01782-.64979C331.34206 328.981 330.01173 328.718 328.69887 328.36384zM328.69887 330.71845c.99243.18408 1.95886.45728 2.92737.72351.96069.29322 1.92346.57935 2.86.95569-.99255-.18323-1.95886-.457-2.92737-.72351C330.59828 331.38068 329.63563 331.09406 328.69887 330.71845zM348.31166 324.95356c1.53516-.7019 3.10388-1.31738 4.66992-1.93945 1.5763-.596 3.14978-1.19886 4.75733-1.714-1.53492.70263-3.10376 1.3175-4.66993 1.93933C351.49269 323.83515 349.91884 324.43757 348.31166 324.95356zM350.12355 327.89472c1.23328-.58313 2.5-1.07995 3.76416-1.58337 1.27417-.47718 2.54578-.96143 3.8512-1.35779-1.233.584-2.49988 1.0802-3.76416 1.58337C352.70045 327.01386 351.42873 327.4975 350.12355 327.89472zM353.93129 329.713c.80847-.32117 1.64111-.55274 2.47192-.79126.838-.21143 1.6742-.43 2.53479-.55786-.80835.3219-1.64111.553-2.47192.79126C355.62794 329.36628 354.79164 329.5843 353.93129 329.713zM364.515 315.14887c1.70593 1.41052 3.37146 2.86511 5.03088 4.3263l4.933 4.43335 4.84765 4.52636c1.60034 1.52576 3.19483 3.05786 4.74842 4.63477-1.70655-1.40991-3.372-2.86463-5.03162-4.32569l-4.93225-4.43408-4.84705-4.527C367.66347 318.25739 366.06911 316.72517 364.515 315.14887zM299.033 347.73713c.989-1.64014 2.02735-3.24658 3.073-4.84778 1.04468-1.602 2.12976-3.17627 3.19263-4.76575l3.29663-4.69433c1.1178-1.55176 2.2428-3.09864 3.41785-4.61121-.98829 1.64075-2.02674 3.24695-3.07215 4.84839l-3.19348 4.76514c-1.10034 1.56372-2.17871 3.1427-3.29736 4.69384C301.33253 344.67731 300.20741 346.22419 299.033 347.73713z"/><path fill="#f9977a" d="M324.48688,269.65417,320.886,281.16038s9.09473,12.95667,19.789,17.63232a2.97993,2.97993,0,0,0,3.44537-.67812c.93129-1.07336.44395-2.15482-.48133-3.6483a9.24678,9.24678,0,0,1-.94512-7.76768l.88634-2.68783-14.30835-20.75293Z"/><path fill="#dd765e" d="M329.27187,263.25786s-.45325,4.38606-.41986,4.86883c.81181,11.71685,5.7928,23.069,13.45581,22.53806.04873-.00338-.003-2.45262.04553-2.45675a9.14659,9.14659,0,0,1,.34954-1.53684l.87734-2.66042Z"/><path fill="#f9977a" d="M356.3473,263.21363c.81175,11.71685-4.74226,21.64561-12.40523,22.17651s-14.5331-8.5371-15.34486-20.25395,4.91236-20.48535,12.40523-22.1765C349.31452,241.08364,355.53554,251.49679,356.3473,263.21363Z"/><path fill="#f9977a" d="M332.17239,258.2645c.93411,3.60074.07957,6.93785-1.90867,7.45364s-4.35725-1.98507-5.29136-5.58581-2.03413-7.07118-.0459-7.587S331.23829,254.66375,332.17239,258.2645Z"/><ellipse cx="341.719" cy="258.467" fill="#212121" rx="1.333" ry="1.697" transform="rotate(-8.541 341.726 258.474)"/><ellipse cx="353.523" cy="258.515" fill="#212121" rx="1.333" ry="1.697" transform="rotate(-8.541 353.523 258.515)"/><path fill="#212121" d="M337.93636 255.82644a.55927.55927 0 01-.46608-.99158c.16193-.12119 4.00116-2.951 7.24366-2.09592a.55883.55883 0 11-.28477 1.08077c-2.72849-.71771-6.25446 1.88445-6.28937 1.911A.56248.56248 0 01337.93636 255.82644zM356.68667 255.86682a.55965.55965 0 01-.59872-.23766 3.93733 3.93733 0 00-4.91613-1.61442.55912.55912 0 01-.45162-1.023 5.13191 5.13191 0 016.3033 2.02517.55978.55978 0 01-.33683.8499z"/><path fill="#dd765e" d="M348.366,256.83112a6.90839,6.90839,0,0,0,.67175,3.49549,16.47326,16.47326,0,0,0,1.7793,3.10949l.57691.71448a1.56891,1.56891,0,0,1,.38928,1.09021,2.47862,2.47862,0,0,1-1.10486,1.762,4.15624,4.15624,0,0,1-3.72583.29395,4.64874,4.64874,0,0,0,3.34851-.77454,1.95746,1.95746,0,0,0,.74121-1.305.8325.8325,0,0,0-.24792-.59131c-.17981-.21814-.39966-.45874-.595-.70923a12.31842,12.31842,0,0,1-1.72364-3.35632A5.60978,5.60978,0,0,1,348.366,256.83112Z"/><path fill="#212121" d="M337.447 258.83823a4.44093 4.44093 0 011.44424-1.54575 5.56385 5.56385 0 011.97906-.85409 5.802 5.802 0 012.14973-.05434 5.73354 5.73354 0 011.99252.69473c-.70608-.0462-1.37209-.1281-2.03751-.11488a8.90621 8.90621 0 00-1.946.20225 8.15711 8.15711 0 00-1.84748.6277A10.17122 10.17122 0 00337.447 258.83823zM349.52949 257.67111a4.44129 4.44129 0 011.83384-1.05462 5.56415 5.56415 0 012.14241-.23662 5.80443 5.80443 0 012.07138.57807 5.73225 5.73225 0 011.7013 1.24821c-.66154-.25114-1.27419-.52462-1.91436-.707a8.90546 8.90546 0 00-1.91982-.377 8.15773 8.15773 0 00-1.95029.05872A10.1732 10.1732 0 00349.52949 257.67111z"/><path fill="#212121" d="M334.84332,255.12058c-.82674,2.972-1.82,7.19692-1.30625,8.80276l-2.71951-.70512s.102-6.8-1.0213-8.65557c-.45577-.75287-3.40919-2.22133-4.5524-.06344s.781,9.72794,2.86685,10.73087c0,0-3.78151,6.35486-4.16634,6.15761s-2.26267-12.70547-2.26267-12.70547-12.33387-13.40178,4.45643-19.61954c0,0-1.319-6.20574,12.98316-4.28621,0,0,5.13877-9.64537,6.01228.00181,0,0,12.83106-9.32331,9.26687,3.567,0,0,11.3364,4.27171-1.33184,12.29552a59.61264,59.61264,0,0,1-6.04954-2.79683,10.287,10.287,0,0,0-7.6354-1.14913c-1.98012.51223-3.71687,1.60349-3.76171,3.85072A18.53751,18.53751,0,0,1,334.84332,255.12058Z"/><path fill="#77312a" d="M341.99544,269.50379s5.26107,10.0345,9.83693,3.52634"/><path fill="#376f92" d="M322.10575,438.31436l16.51866-.74494a3,3,0,0,0,2.73153-3.88136L327.32541,388.2098l18.57513-2.093-3.40108-18.05189s-16.82792-12.02692-41.59784-7.587c-27.22255,4.87951,3.7899,41.24079,18.30163,75.98319A2.99934,2.99934,0,0,0,322.10575,438.31436Z"/><path fill="#10394f" d="M327.32545,388.20979a17.37888,17.37888,0,0,0-.99279-3.44642,19.73574,19.73574,0,0,0-1.6742-3.14184A30.02672,30.02672,0,0,0,320,376.17524a16.29027,16.29027,0,0,1,2.81153,2.30908,18.37977,18.37977,0,0,1,2.30346,2.84009,14.58972,14.58972,0,0,1,1.60877,3.29321A11.43492,11.43492,0,0,1,327.32545,388.20979Z"/><path fill="#10394f" d="M325.75563 376.17524a7.6015 7.6015 0 011.37439 2.78345 14.92077 14.92077 0 01.56323 3.06836 21.38112 21.38112 0 01.0365 3.10962l-.144 1.54467c-.08765.511-.1565 1.02234-.26026 1.52845l-.01477-3.082c-.04174-1.02172-.05651-2.04113-.16-3.05273a24.15257 24.15257 0 00-.425-3.01306A10.93457 10.93457 0 00325.75563 376.17524zM339.25722 382.31953a17.38325 17.38325 0 00-1.38623-3.30774 19.729 19.729 0 00-2.02771-2.92627 30.02694 30.02694 0 00-5.2594-4.86853 16.28158 16.28158 0 013.06067 1.967 18.3708 18.3708 0 012.61767 2.55347 14.58852 14.58852 0 011.98023 3.084A11.43 11.43 0 01339.25722 382.31953zM334.48622 370.41218a7.603 7.603 0 012.35571 2.0216 14.91257 14.91257 0 011.72144 2.60181 21.40761 21.40761 0 011.253 2.84619l.47315 1.47742c.11975.50439.25695 1.00171.36 1.50806l-1.22217-2.82935c-.43908-.92358-.85229-1.85547-1.34436-2.74548a24.12236 24.12236 0 00-1.57251-2.605A10.93756 10.93756 0 00334.48622 370.41218z"/><rect width="4.949" height="1.693" x="341.588" y="312.151" fill="#161819" transform="rotate(-10.753 344.063 312.997)"/><rect width="4.949" height="1.693" x="335.601" y="313.232" fill="#161819" transform="rotate(-10.753 338.075 314.079)"/><path fill="#10394f" d="M293.83754 379.44147a8.32388 8.32388 0 005.36621-3.40417 14.41273 14.41273 0 001.58447-2.84668l.59644-1.56433c.17-.53577.33838-1.07617.55285-1.61768.00538.57386-.0354 1.14881-.07458 1.72852-.09155.56872-.19959 1.14172-.33728 1.70862a10.06873 10.06873 0 01-1.5177 3.18481 7.36454 7.36454 0 01-2.72876 2.29456A5.59843 5.59843 0 01293.83754 379.44147zM396.07753 368.63642a43.09821 43.09821 0 002.34106 5.49951 16.82145 16.82145 0 003.40662 4.69409 6.1147 6.1147 0 005.12573 1.725 13.13465 13.13465 0 005.32654-2.38708 10.63087 10.63087 0 01-5.1936 3.156 6.08183 6.08183 0 01-3.18457-.13086 7.67558 7.67558 0 01-2.74158-1.61926 14.83743 14.83743 0 01-3.44128-5.10437A22.89906 22.89906 0 01396.07753 368.63642z"/><path fill="#ffba55" d="M305.93079,464.27523l-.02343-.07a3.04052,3.04052,0,0,1,.8475-3.16138l17.40554-17.417a1.14837,1.14837,0,0,1,1.39223-.15187l9.57379,2.78061a1.14965,1.14965,0,0,0,1.44768-.20856l4.14952-4.55491a1.09818,1.09818,0,0,1,1.85011.302l3.07535,9.19069a1.059,1.059,0,0,1-.71533,1.31356l-37.64113,12.59533A1.059,1.059,0,0,1,305.93079,464.27523Z"/><path fill="#c0d6f2" d="M304.54891,441.27787H264.188v-104.08h20.3406c11.05689,0,20.02028,6.84865,20.02028,15.29688v88.78308Z"/><path fill="#8b9d36" d="M164.66425,446.75835c-.37387-.73686-37.37865-74.07278-35.08358-103.57323l-1.23651-.09524c-2.32214,29.84623,33.68,101.20737,35.214,104.23038Z"/><path fill="#8b9d36" d="M128.99983 344.80156a14.51132 14.51132 0 001.56683-5.37628 19.36479 19.36479 0 00-.16873-5.087 19.02869 19.02869 0 00-1.483-4.86763l-.02286-.04822a2.52865 2.52865 0 00-4.78114.79729l-.006.053a19.03067 19.03067 0 00.17693 5.08563 19.3618 19.3618 0 001.49123 4.8663A14.51128 14.51128 0 00128.99983 344.80156zM131.532 363.72133a9.88453 9.88453 0 005.25037-2.36558 13.001 13.001 0 003.38466-4.44829 11.869 11.869 0 001.09824-5.636l-.00358-.06449a2.50346 2.50346 0 00-4.69679-.96834q-.05075.09249-.10195.18458c-.72447 1.329-1.31337 2.58526-1.93206 3.89928a44.97622 44.97622 0 00-1.68982 4.18955A29.46454 29.46454 0 00131.532 363.72133zM129.27526 351.82516a9.88462 9.88462 0 005.25037-2.36559 13.001 13.001 0 003.38466-4.44829 11.869 11.869 0 001.09824-5.636l-.00358-.06448a2.50346 2.50346 0 00-4.69679-.96835q-.05075.09249-.10195.18458c-.72447 1.329-1.31337 2.58527-1.93206 3.89928a44.97734 44.97734 0 00-1.68982 4.18955A29.46466 29.46466 0 00129.27526 351.82516zM129.62183 355.09026a15.34022 15.34022 0 00-1.79954-5.49047 20.85537 20.85537 0 00-3.08621-4.28984 20.48464 20.48464 0 00-4.0601-3.38109l-.09786-.06015a2.50567 2.50567 0 00-3.52133 3.285l.05347.1023a20.484 20.484 0 003.09252 4.284 20.88145 20.88145 0 004.06591 3.37558A15.35116 15.35116 0 00129.62183 355.09026zM136.229 379.78775a15.371 15.371 0 004.25514-3.91765 20.91908 20.91908 0 002.629-4.59144 20.54928 20.54928 0 001.39875-5.10171q.01258-.09876.02443-.19784a2.48269 2.48269 0 00-4.40651-1.82731q-.0618.07845-.12287.15723a20.54865 20.54865 0 00-2.62117 4.59459 20.91955 20.91955 0 00-1.39147 5.10513A15.36159 15.36159 0 00136.229 379.78775zM140.91932 394.04228a17.02773 17.02773 0 004.29961-4.3602 23.92054 23.92054 0 002.65932-4.99724 23.492 23.492 0 001.41734-5.47913q.01008-.08321.01972-.16658a2.48211 2.48211 0 00-4.46839-1.73478q-.04917.06805-.09788.13629a23.50876 23.50876 0 00-2.651 5 23.92722 23.92722 0 00-1.40955 5.48221A17.0178 17.0178 0 00140.91932 394.04228zM146.16546 407.05807a19.46654 19.46654 0 004.82492-4.49 28.29381 28.29381 0 003.23466-5.245 27.79493 27.79493 0 002.03262-5.81733l.0269-.125a2.4815 2.4815 0 00-4.35194-2.06824l-.07982.09966a27.81044 27.81044 0 00-3.22777 5.249 28.29805 28.29805 0 00-2.02465 5.82075A19.467 19.467 0 00146.16546 407.05807zM151.445 420.10715a19.63956 19.63956 0 005.00386-4.33912 28.59988 28.59988 0 003.443-5.15268 28.08056 28.08056 0 002.26233-5.76882l.00007-.00028a2.50444 2.50444 0 00-4.32395-2.25516h0a28.10965 28.10965 0 00-3.436 5.15686 28.62776 28.62776 0 00-2.25483 5.77264A19.646 19.646 0 00151.445 420.10715zM156.1056 430.95948a21.65405 21.65405 0 005.58448-4.19152 32.22353 32.22353 0 004.10406-5.14332 31.64563 31.64563 0 002.98406-5.86382l.0001-.00027a2.49681 2.49681 0 00-4.10193-2.63769h0a31.65031 31.65031 0 00-4.09742 5.14812 32.2279 32.2279 0 00-2.97688 5.86834A21.64015 21.64015 0 00156.1056 430.95948zM161.91 442.72166a23.068 23.068 0 005.17373-5.04237 34.77024 34.77024 0 003.5928-5.81606 34.13882 34.13882 0 002.3962-6.40144l.00009-.00035a2.49231 2.49231 0 00-4.38028-2.14378h0a34.12125 34.12125 0 00-3.58534 5.81982 34.76347 34.76347 0 00-2.38877 6.40513A23.07022 23.07022 0 00161.91 442.72166zM132.8129 369.67941a18.53548 18.53548 0 00-2.84952-5.75021 26.62545 26.62545 0 00-4.01334-4.42962 26.16208 26.16208 0 00-4.89348-3.43057l-.12576-.066a2.48171 2.48171 0 00-3.18008 3.6087l.08127.11637a26.163 26.163 0 004.01892 4.42333 26.626 26.626 0 004.89907 3.42428A18.53654 18.53654 0 00132.8129 369.67941zM136.98043 383.24543a15.86144 15.86144 0 00-2.98962-5.06971 21.78763 21.78763 0 00-4.00174-3.62909 21.39479 21.39479 0 00-4.76694-2.53945l-.05216-.01906a2.51756 2.51756 0 00-2.78631 3.96735l.03561.04257a21.3924 21.3924 0 004.0064 3.62236 21.78966 21.78966 0 004.77157 2.53264A15.8502 15.8502 0 00136.98043 383.24543zM141.50284 396.10446a17.6745 17.6745 0 00-4.01167-4.79366 25.09662 25.09662 0 00-4.81611-3.22819 24.61954 24.61954 0 00-5.42494-2.04343h0a2.51426 2.51426 0 00-2.2287 4.33769h0a24.61239 24.61239 0 004.81974 3.22079 25.08867 25.08867 0 005.42861 2.0361A17.66452 17.66452 0 00141.50284 396.10446zM147.14871 409.94491a18.57909 18.57909 0 00-4.61847-4.47183 26.748 26.748 0 00-5.27348-2.83867 26.29569 26.29569 0 00-5.7696-1.60253l-.14016-.02022a2.4817 2.4817 0 00-1.79189 4.46424l.11519.08226a26.27437 26.27437 0 005.27687 2.8308 26.77273 26.77273 0 005.77294 1.5946A18.60145 18.60145 0 00147.14871 409.94491zM151.8872 421.47456a22.23657 22.23657 0 00-5.8508-3.9908 33.26881 33.26881 0 00-6.28376-2.28469 32.70166 32.70166 0 00-6.61062-.9939l-.0004 0a2.49507 2.49507 0 00-1.19865 4.72748h0a32.67562 32.67562 0 006.28568 2.27665 33.27531 33.27531 0 006.613.98552A22.22671 22.22671 0 00151.8872 421.47456z"/><path fill="#8b9d36" d="M156.59138 431.28669a19.29281 19.29281 0 00-5.68311-3.27216 27.98408 27.98408 0 00-5.93345-1.53017 27.48084 27.48084 0 00-6.1231-.21172h-.0001a2.50621 2.50621 0 00-.69416 4.82743h0a27.48526 27.48526 0 005.93509 1.52161 27.97936 27.97936 0 006.12421.20343A19.28468 19.28468 0 00156.59138 431.28669zM159.97533 439.20236a24.16638 24.16638 0 00-6.91861-2.64272 36.72511 36.72511 0 00-6.97277-.8833 36.07476 36.07476 0 00-7.01272.44756l-.00038.00007a2.4896 2.4896 0 00-.149 4.87485h0a36.09657 36.09657 0 006.97312.8749 36.72575 36.72575 0 007.013-.456A24.1657 24.1657 0 00159.97533 439.20236zM142.41062 445.25076a2.48621 2.48621 0 00.74454 4.80272h.00017a33.49845 33.49845 0 006.70034-.36076 32.88725 32.88725 0 006.49549-1.67662 22.12351 22.12351 0 006.22406-3.43266 22.127 22.127 0 00-6.97132-1.38662 32.89816 32.89816 0 00-6.69824.36864 33.49552 33.49552 0 00-6.495 1.68529z"/><path fill="#5f7d37" d="M146.91352,432.45054c.15579-.9352,15.43655-93.9397,2.77684-125.44234l1.32077-.52959c12.80827,31.87183-2.05427,122.36981-2.69358,126.20654Z"/><path fill="#5f7d37" d="M150.88218 308.5778a16.65021 16.65021 0 01-3.56441-5.34609 22.21884 22.21884 0 01-1.56509-5.6264 21.83351 21.83351 0 01-.051-5.83838l.00844-.06064a2.90139 2.90139 0 015.50784-.77186l.02475.05591a21.83624 21.83624 0 011.55566 5.62776 22.21641 22.21641 0 01.04155 5.83974A16.65033 16.65033 0 01150.88218 308.5778zM154.61834 330.159a11.34161 11.34161 0 01-6.56093-.78343 14.91752 14.91752 0 01-5.23506-3.705 13.61865 13.61865 0 01-3.14082-5.7916l-.01826-.07182a2.87248 2.87248 0 014.80816-2.67557q.08736.08379.17508.167c1.25018 1.20558 2.32693 2.37815 3.45616 3.60369a51.60812 51.60812 0 013.29083 4.00475A33.80839 33.80839 0 01154.61834 330.159zM152.99665 316.36078a11.34161 11.34161 0 01-6.56093-.78343 14.9173 14.9173 0 01-5.23506-3.705 13.61854 13.61854 0 01-3.14082-5.7916l-.01826-.07182a2.87248 2.87248 0 014.80816-2.67557q.08736.08379.17508.167c1.25017 1.20558 2.32693 2.37815 3.45616 3.60369a51.60875 51.60875 0 013.29083 4.00476A33.80825 33.80825 0 01152.99665 316.36078zM153.7404 320.05408a17.60131 17.60131 0 01.08123-6.629 23.92974 23.92974 0 011.90266-5.75737 23.50453 23.50453 0 013.2813-5.09763l.08643-.0995a2.875 2.875 0 014.98452 2.38462l-.02335.13038a23.50307 23.50307 0 01-1.91157 5.75314 23.95928 23.95928 0 01-3.28955 5.09358A17.6141 17.6141 0 01153.7404 320.05408zM155.00329 349.36143a17.63675 17.63675 0 01-6.00538-2.82471 24.0031 24.0031 0 01-4.45713-4.12163 23.57761 23.57761 0 01-3.286-5.10334q-.04774-.1038-.09479-.20816a2.84864 2.84864 0 014.19494-3.516q.09465.06462.18859.12984a23.57847 23.57847 0 014.44964 4.12776 24.00408 24.00408 0 013.27919 5.10961A17.62577 17.62577 0 01155.00329 349.36143zM154.77238 366.57822a19.53779 19.53779 0 01-6.2063-3.29384 27.44771 27.44771 0 01-4.6299-4.55539A26.9556 26.9556 0 01140.5 353.2189q-.03966-.08762-.07889-.17557a2.848 2.848 0 014.29452-3.436q.07723.05758.154.11553a26.97406 26.97406 0 014.62175 4.56132 27.45363 27.45363 0 013.42868 5.51615A19.526 19.526 0 01154.77238 366.57822zM153.50692 382.63025a22.336 22.336 0 01-6.826-3.25519 32.46375 32.46375 0 01-5.34492-4.62871 31.89241 31.89241 0 01-4.226-5.66866l-.07241-.12752a2.84728 2.84728 0 014.05233-3.76093l.12166.08165a31.90921 31.90921 0 015.33874 4.63544 32.46907 32.46907 0 014.21845 5.67514A22.33669 22.33669 0 01153.50692 382.63025zM152.2163 398.73022a22.5344 22.5344 0 01-6.96993-3.02853 32.81556 32.81556 0 01-5.54119-4.456 32.22008 32.22008 0 01-4.46075-5.53654l-.00018-.00028a2.87361 2.87361 0 013.95742-3.95591h0a32.25329 32.25329 0 015.535 4.463 32.84805 32.84805 0 014.45386 5.54331A22.54214 22.54214 0 01152.2163 398.73022zM150.84764 412.21263a24.84576 24.84576 0 01-7.55472-2.66723 36.97463 36.97463 0 01-6.26161-4.21833 36.31059 36.31059 0 01-5.28346-5.39228l-.0002-.00026a2.86484 2.86484 0 013.5828-4.29826h0a36.315 36.315 0 016.256 4.22587 36.97783 36.97783 0 015.27715 5.39969A24.8297 24.8297 0 01150.84764 412.21263zM148.53993 427.08444a26.46792 26.46792 0 01-7.39777-3.7399 39.89575 39.89575 0 01-5.93339-5.1306 39.1713 39.1713 0 01-4.82489-6.183l-.00022-.00035a2.8597 2.8597 0 014.05738-3.85337h0a39.151 39.151 0 015.92651 5.13729 39.88787 39.88787 0 014.818 6.18957A26.47086 26.47086 0 01148.53993 427.08444zM155.26567 337.12146a21.268 21.268 0 011.14123-7.27453 30.55041 30.55041 0 012.86945-6.22928 30.01854 30.01854 0 014.17652-5.43845l.11494-.11555a2.84752 2.84752 0 014.72232 2.85633l-.04893.15533a30.01981 30.01981 0 01-2.87772 6.22433 30.55117 30.55117 0 01-4.18479 5.43349A21.269 21.269 0 01155.26567 337.12146zM155.37015 353.40477a18.19931 18.19931 0 011.52867-6.57781 24.99833 24.99833 0 013.13211-5.349 24.54844 24.54844 0 014.34453-4.41948l.05054-.03879a2.88865 2.88865 0 014.41464 3.38435l-.02433.05885a24.54563 24.54563 0 01-3.13952 5.34325 25.00112 25.00112 0 01-4.35194 4.41361A18.18668 18.18668 0 01155.37015 353.40477zM154.843 369.03627a20.27958 20.27958 0 012.74239-6.62721 28.79589 28.79589 0 014.16144-5.1903 28.2486 28.2486 0 015.23542-4.10285h0a2.88487 2.88487 0 013.93167 3.98155h0a28.2397 28.2397 0 01-4.16795 5.18345 28.78723 28.78723 0 01-5.242 4.09609A20.26845 20.26845 0 01154.843 369.03627zM153.42361 386.12849a21.31816 21.31816 0 013.51732-6.48365 30.69126 30.69126 0 014.79609-4.92124 30.171 30.171 0 015.76434-3.73878l.14647-.07035a2.84752 2.84752 0 013.49706 4.27033l-.0978.12967a30.14844 30.14844 0 01-4.8025 4.91379 30.71955 30.71955 0 01-5.77074 3.73126A21.34379 21.34379 0 01153.42361 386.12849zM152.20265 400.37913a25.5143 25.5143 0 015.03172-6.381 38.1728 38.1728 0 016.09252-4.66236 37.52249 37.52249 0 016.8943-3.36185l.00044-.00015a2.86285 2.86285 0 012.93822 4.76253h0a37.49267 37.49267 0 01-6.09738 4.65422 38.17965 38.17965 0 01-6.89984 3.35351A25.503 25.503 0 01152.20265 400.37913z"/><path fill="#5f7d37" d="M150.42845 412.73791a22.13652 22.13652 0 015.09536-5.53666 32.10875 32.10875 0 015.96859-3.71594 31.53171 31.53171 0 016.62971-2.338l.00011 0a2.87563 2.87563 0 012.42037 5.04548h0a31.5373 31.5373 0 01-5.97333 3.70712 32.103 32.103 0 01-6.63377 2.32926A22.12722 22.12722 0 01150.42845 412.73791zM149.44708 422.56664a27.72831 27.72831 0 016.66428-5.27263 42.13939 42.13939 0 017.32877-3.36536 41.39269 41.39269 0 017.8303-1.92229l.00043-.00006a2.85658 2.85658 0 011.83992 5.28491h0a41.41813 41.41813 0 01-7.33205 3.35628 42.13929 42.13929 0 01-7.83357 1.91312A27.72781 27.72781 0 01149.44708 422.56664zM170.75445 423.14556a2.8527 2.8527 0 01.837 5.51332l-.00018.00007a38.43579 38.43579 0 01-7.45849 1.90985 37.73409 37.73409 0 01-7.68689.399 25.38461 25.38461 0 01-7.99379-1.61656 25.38823 25.38823 0 017.15406-3.9158 37.74691 37.74691 0 017.4589-1.90051 38.43313 38.43313 0 017.68935-.38938z"/><path fill="#c4ce6e" d="M145.7032,451.75387c.30688-.60484,30.6815-60.80114,28.79764-85.016l1.015-.07818c1.90609,24.49867-27.64555,83.074-28.9047,85.55539Z"/><path fill="#c4ce6e" d="M174.97761 368.0647a11.91122 11.91122 0 01-1.2861-4.413 15.89481 15.89481 0 01.1385-4.17554 15.61935 15.61935 0 011.21731-3.99549l.01877-.03958a2.07559 2.07559 0 013.9245.65444l.0049.04347a15.62081 15.62081 0 01-.14523 4.17444 15.893 15.893 0 01-1.224 3.9944A11.91115 11.91115 0 01174.97761 368.0647zM172.89913 383.59462a8.11363 8.11363 0 01-4.30967-1.94174 10.67166 10.67166 0 01-2.77823-3.6513 9.74241 9.74241 0 01-.90146-4.62621l.00293-.05294a2.05492 2.05492 0 013.85527-.79484q.04165.07592.08368.1515c.59467 1.09089 1.07806 2.12207 1.5859 3.20065a36.92032 36.92032 0 011.38705 3.43891A24.18655 24.18655 0 01172.89913 383.59462zM174.75153 373.82988a8.11348 8.11348 0 01-4.30966-1.94174 10.6715 10.6715 0 01-2.77823-3.65129 9.74248 9.74248 0 01-.90147-4.62622l.00294-.05293a2.05492 2.05492 0 013.85527-.79485q.04164.07592.08368.15151c.59466 1.09089 1.078 2.12206 1.58589 3.20065a36.92008 36.92008 0 011.38706 3.4389A24.18573 24.18573 0 01174.75153 373.82988zM174.46706 376.51a12.59169 12.59169 0 011.47711-4.50675 17.11848 17.11848 0 012.53325-3.52122 16.81458 16.81458 0 013.33266-2.77531l.08032-.04937a2.05673 2.05673 0 012.89041 2.69644l-.04389.084a16.8137 16.8137 0 01-2.53843 3.51642 17.14023 17.14023 0 01-3.33742 2.77078A12.60087 12.60087 0 01174.46706 376.51zM169.04367 396.78241a12.617 12.617 0 01-3.49275-3.21572 17.17138 17.17138 0 01-2.158-3.7688 16.86711 16.86711 0 01-1.14814-4.18763q-.01032-.08107-.02-.16239a2.03786 2.03786 0 013.617-1.49992q.05074.06441.10086.12906a16.86719 16.86719 0 012.15154 3.77138 17.17169 17.17169 0 011.14216 4.19045A12.60924 12.60924 0 01169.04367 396.78241zM165.19374 408.483a13.97684 13.97684 0 01-3.52925-3.579 19.635 19.635 0 01-2.18285-4.10188 19.28311 19.28311 0 01-1.16339-4.49743l-.01619-.13674a2.0374 2.0374 0 013.66779-1.424l.08034.11188a19.29653 19.29653 0 012.176 4.10417 19.63991 19.63991 0 011.157 4.5A13.96845 13.96845 0 01165.19374 408.483zM160.88755 419.1667a15.97889 15.97889 0 01-3.96044-3.68549 23.22531 23.22531 0 01-2.65511-4.30527 22.8153 22.8153 0 01-1.66843-4.775l-.02208-.10256a2.03689 2.03689 0 013.5722-1.69768l.06552.08181a22.82726 22.82726 0 012.64945 4.30854 23.2273 23.2273 0 011.66189 4.77784A15.979 15.979 0 01160.88755 419.1667zM156.55392 429.87777a16.12069 16.12069 0 01-4.10731-3.56168 23.47546 23.47546 0 01-2.82611-4.22947 23.04945 23.04945 0 01-1.857-4.73521l-.00006-.00024a2.05572 2.05572 0 013.54923-1.8511h0a23.07341 23.07341 0 012.82036 4.2329 23.498 23.498 0 011.85083 4.73836A16.126 16.126 0 01156.55392 429.87777zM152.72839 438.78569a17.7745 17.7745 0 01-4.58391-3.44052 26.45091 26.45091 0 01-3.36873-4.22179 25.97582 25.97582 0 01-2.44941-4.8132l-.00008-.00022a2.04945 2.04945 0 013.367-2.1651h0a25.97842 25.97842 0 013.36328 4.22573A26.45311 26.45311 0 01151.5 433.18751 17.763 17.763 0 01152.72839 438.78569zM147.964 448.44044a18.93482 18.93482 0 01-4.24675-4.13893 28.54134 28.54134 0 01-2.94909-4.774 28.02182 28.02182 0 01-1.96687-5.25449l-.00007-.00028a2.04577 2.04577 0 013.59546-1.75969h0a28.00717 28.00717 0 012.94295 4.77709 28.534 28.534 0 011.96078 5.25752A18.937 18.937 0 01147.964 448.44044zM171.84773 388.48518a15.21451 15.21451 0 012.339-4.71994 21.85472 21.85472 0 013.29427-3.636 21.47513 21.47513 0 014.01671-2.81592l.10323-.0542a2.03706 2.03706 0 012.61031 2.96213l-.06671.09551a21.47521 21.47521 0 01-3.29885 3.6308 21.85564 21.85564 0 01-4.0213 2.81076A15.21552 15.21552 0 01171.84773 388.48518zM168.4269 399.62057a13.01951 13.01951 0 012.454-4.16136 17.88354 17.88354 0 013.28474-2.97887 17.56173 17.56173 0 013.91285-2.08445l.04282-.01564a2.06648 2.06648 0 012.28708 3.25651l-.02923.035a17.55938 17.55938 0 01-3.28858 2.97333 17.885 17.885 0 01-3.91664 2.07887A13.0103 13.0103 0 01168.4269 399.62057zM164.71477 410.17565a14.50779 14.50779 0 013.2929-3.93478 20.59976 20.59976 0 013.9532-2.64979 20.2083 20.2083 0 014.453-1.67731h0a2.06378 2.06378 0 011.82939 3.56051h0A20.20276 20.20276 0 01174.287 408.118a20.59418 20.59418 0 01-4.456 1.67129A14.49968 14.49968 0 01164.71477 410.17565zM160.08047 421.5363a15.25026 15.25026 0 013.791-3.67061 21.95566 21.95566 0 014.32863-2.33006 21.58379 21.58379 0 014.73586-1.3154l.11505-.0166a2.037 2.037 0 011.47083 3.66438l-.09455.06752a21.56758 21.56758 0 01-4.33141 2.32361 21.97683 21.97683 0 01-4.73861 1.30889A15.26844 15.26844 0 01160.08047 421.5363zM156.191 431.00018a18.2524 18.2524 0 014.80251-3.27577 27.30786 27.30786 0 015.15789-1.87534 26.84349 26.84349 0 015.42619-.81582h.00033a2.048 2.048 0 01.9839 3.88045h0a26.82183 26.82183 0 01-5.15948 1.86874 27.313 27.313 0 01-5.42818.80895A18.24427 18.24427 0 01156.191 431.00018z"/><path fill="#c4ce6e" d="M152.32964 439.05428a15.83624 15.83624 0 014.66487-2.68589 22.96921 22.96921 0 014.87035-1.256 22.5575 22.5575 0 015.026-.17379h.00008a2.05717 2.05717 0 01.56979 3.9625h0a22.56123 22.56123 0 01-4.8717 1.249 22.96644 22.96644 0 01-5.02693.167A15.82954 15.82954 0 01152.32964 439.05428zM149.552 445.55169a19.83648 19.83648 0 015.679-2.16922 30.14529 30.14529 0 015.72346-.725 29.61079 29.61079 0 015.75625.36737l.00031 0a2.04354 2.04354 0 01.12229 4.00143h0a29.62906 29.62906 0 01-5.72375.71814 30.146 30.146 0 01-5.75652-.37433A19.83591 19.83591 0 01149.552 445.55169zM163.96964 450.5164a2.04076 2.04076 0 01-.61115 3.94221h-.00013a27.49616 27.49616 0 01-5.49984-.29612 26.9944 26.9944 0 01-5.3317-1.37622 18.1597 18.1597 0 01-5.10889-2.81763 18.16249 18.16249 0 015.72227-1.13818 27.00388 27.00388 0 015.49811.30259 27.49432 27.49432 0 015.33132 1.38333z"/><path fill="#935b50" d="M165.33122,472.41586h-25.7215l-8.27487-43.9008a1.7449,1.7449,0,0,1,1.70271-2.07651h38.86583a1.7449,1.7449,0,0,1,1.70271,2.07651Z"/><path fill="#d6694b" d="M173.00827,431.68712l.59793-3.172a1.74489,1.74489,0,0,0-1.70271-2.07652H133.03755a1.74489,1.74489,0,0,0-1.70271,2.07652l.59792,3.172Z"/><polygon fill="#d6694b" points="141.666 459.983 136.232 454.498 141.666 449.014 147.099 454.498 141.666 459.983"/><polygon fill="#d6694b" points="152.533 459.983 147.099 454.498 152.533 449.014 157.966 454.498 152.533 459.983"/><polygon fill="#d6694b" points="163.275 459.983 157.841 454.498 163.275 449.014 168.708 454.498 163.275 459.983"/><path fill="#d6694b" d="M534.39979,203.79019h50.00283a0,0,0,0,1,0,0v11.15992a16.92,16.92,0,0,1-16.92,16.92H551.31979a16.92,16.92,0,0,1-16.92-16.92V203.79019A0,0,0,0,1,534.39979,203.79019Z"/><path fill="#8b9d36" d="M553.223,198.78512a14.25048,14.25048,0,0,1-1.73169-3.8634,8.97049,8.97049,0,0,1-.32666-2.9961,3.28592,3.28592,0,0,1,1.084-2.26037,15.35811,15.35811,0,0,0,1.91358-1.90406L557.253,183.596a19.98276,19.98276,0,0,0,2.66479-4.57031l.02344-.05994a.59576.59576,0,0,1,1.06616-.09131,14.04762,14.04762,0,0,1,1.58423,6.04346,27.05113,27.05113,0,0,1-.22607,6.02808c-.13989.9751-.06983,2.03491-.12744,3.05554a3.926,3.926,0,0,1-1.12891,2.62549,8.39752,8.39752,0,0,1-2.689,1.81909,11.04327,11.04327,0,0,1-4.23853.87817,1.08714,1.08714,0,0,1-.939-.5072Z"/><path fill="#5e7c24" d="M544.25226,178.93575l3.45483,8.27369a11.31077,11.31077,0,0,0,1.09839,1.83837,4.43,4.43,0,0,1,.43774.88685,3.77128,3.77128,0,0,1,.14893.93933,7.92794,7.92794,0,0,1-.05811.99768,8.2122,8.2122,0,0,1-.1914,1.06592c-.06763.33837-.19556.74389-.30445,1.18933-.12866.42932-.21362.87133-.36889,1.5177l-.01782.07422a.55684.55684,0,0,1-.47559.42224,4.516,4.516,0,0,1-1.771-.19971,7.55812,7.55812,0,0,1-1.44677-.71265,8.08121,8.08121,0,0,1-1.12061-.94848,7.7412,7.7412,0,0,1-.8457-1.07544,4.22421,4.22421,0,0,1-.69507-2.41931c.00928-.84961.13184-1.692.11719-2.48792.00341-.801.0227-1.5918.06445-2.376.0708-.78942.16479-1.571.2627-2.34668a32.59813,32.59813,0,0,1,1.01171-4.61047.372.372,0,0,1,.46631-.24353A.38179.38179,0,0,1,544.25226,178.93575Z"/><path fill="#50661a" d="M521.03619,184.94625c2.10327.56189,4.14234,1.233,6.187,1.88684l3.03492,1.03235,2.9851,1.1073c.99073.37549,2.04395.62854,3.0752.91834a7.76864,7.76864,0,0,1,2.77124,1.43725,14.56236,14.56236,0,0,1,4.16309,5.47754l.05.11035a.42385.42385,0,0,1-.21118.56079l-.01489.00635a9.32579,9.32579,0,0,1-3.90015.60425,13.26556,13.26556,0,0,1-3.34179-.56213,7.7198,7.7198,0,0,1-2.80835-1.53638c-.82154-.71509-1.62183-1.46509-2.477-2.10681l-2.55079-1.94715-2.48632-2.04858c-1.63257-1.40649-3.26441-2.80737-4.82325-4.33252a.36169.36169,0,0,1,.34717-.60779Z"/><path fill="#5e7c24" d="M517.43048,201.94039c1.852-.61853,3.709-1.10168,5.56567-1.59594l2.78711-.67554,2.791-.57068c.93091-.17175,1.856-.50659,2.78393-.76294a6.13641,6.13641,0,0,1,2.8064-.13342,11.31434,11.31434,0,0,1,2.84326.92749,10.43713,10.43713,0,0,1,2.88184,2.0238.51608.51608,0,0,1,.02441.69959,10.43342,10.43342,0,0,1-2.73291,2.2207,11.31825,11.31825,0,0,1-2.77148,1.12414,6.13529,6.13529,0,0,1-2.8086.06348c-.94384-.19079-1.89013-.46008-2.83081-.56628l-2.824-.37378-2.82764-.47876c-1.88672-.36316-3.77295-.71509-5.66382-1.20239a.36491.36491,0,0,1-.26245-.44446A.36893.36893,0,0,1,517.43048,201.94039Z"/><path fill="#8b9d36" d="M530.97516 207.268a9.4752 9.4752 0 013.00244 1.49695 9.72353 9.72353 0 011.991 1.97095 5.23735 5.23735 0 011.00537 2.41284c.13574.89111.19873 1.81006.40332 2.67065l.55395 2.60437.40894 2.66455c.10547.89722.209 1.79956.26025 2.71826a11.42482 11.42482 0 01-.10766 2.84351.35019.35019 0 01-.65528.08948l-.04492-.08948a41.72318 41.72318 0 00-2.73242-4.34058l-1.45215-2.15991-1.40234-2.18249a25.544 25.544 0 00-1.604-2.095 5.17835 5.17835 0 01-1.04736-2.33362 10.15642 10.15642 0 01.78442-5.97913A.5405.5405 0 01530.97516 207.268zM502.48053 214.12435a20.26385 20.26385 0 014.32519-3.678q1.20045-.76848 2.47657-1.43335c.85571-.42614 1.73632-.78686 2.626-1.15869.89893-.30786 1.77637-.81579 2.69654-1.15088a5.33007 5.33007 0 012.84985-.35485 8.6783 8.6783 0 015.58252 3.03173.51183.51183 0 01-.01025.67884l-.019.02063a11.82515 11.82515 0 01-2.58764 2.09741 12.12855 12.12855 0 01-2.40747 1.14917 5.36684 5.36684 0 01-2.40894.23474 15.31989 15.31989 0 00-2.51514-.23267c-.8269.03614-1.66845.06153-2.50073.15271-.84741.03992-1.69678.12049-2.54346.23865a35.32435 35.32435 0 00-5.15966.97608l-.03516.0094a.3608.3608 0 01-.36914-.58094z"/><path fill="#50661a" d="M521.55109 211.80734a7.50032 7.50032 0 013.34033.68921 8.50086 8.50086 0 012.43237 1.66333 5.28821 5.28821 0 011.40942 2.42492c.25953.92761.40186 1.89771.65015 2.80091l.3269 1.36926.24927 1.38574a26.33468 26.33468 0 01.19312 2.80322 17.82347 17.82347 0 01-.81055 5.43335.36382.36382 0 01-.69067.01221l-.009-.02661a28.50668 28.50668 0 00-1.90283-4.6438 22.39564 22.39564 0 00-1.18774-2.08179l-.61255-1.00378-.67017-.9668a12.1342 12.1342 0 00-1.6101-1.74621 4.63387 4.63387 0 01-1.19678-1.93433 12.65226 12.65226 0 01-.41455-5.69251l.00464-.03466A.51876.51876 0 01521.55109 211.80734zM501.108 228.66708c1.37939-1.18067 2.7959-2.25757 4.19238-3.35376l2.10694-1.59693 2.11914-1.52343a22.33611 22.33611 0 001.988-1.72071 5.188 5.188 0 012.20655-1.19043 10.571 10.571 0 012.65551-.32287 14.58991 14.58991 0 011.49756.09094 14.86948 14.86948 0 011.7334.30884l.02759.0072a.53408.53408 0 01.39795.54858 6.93922 6.93922 0 01-.39795 1.80469 10.68532 10.68532 0 01-.70654 1.47791 9.50748 9.50748 0 01-1.8772 2.2417 5.36424 5.36424 0 01-2.41138 1.21862c-.89892.204-1.82788.32459-2.68384.58106l-2.59057.70093-2.63111.56652c-1.772.32435-3.53588.641-5.35693.80713a.36662.36662 0 01-.39868-.33191A.37565.37565 0 01501.108 228.66708z"/><path fill="#8b9d36" d="M500.028,240.31067c1.37939-1.18067,2.7959-2.25757,4.19238-3.35376l2.10694-1.59693,2.11914-1.52343a22.33611,22.33611,0,0,0,1.988-1.72071,5.188,5.188,0,0,1,2.20655-1.19043,10.571,10.571,0,0,1,2.65551-.32287,14.58991,14.58991,0,0,1,1.49756.09094,14.87159,14.87159,0,0,1,1.7334.30884l.02759.0072a.53409.53409,0,0,1,.398.54859,6.93924,6.93924,0,0,1-.398,1.80468,10.68532,10.68532,0,0,1-.70654,1.47791,9.50748,9.50748,0,0,1-1.8772,2.2417A5.36424,5.36424,0,0,1,513.56,238.301c-.89892.204-1.82788.32459-2.68384.58106l-2.59057.70093-2.63111.56653c-1.772.32434-3.53588.641-5.35693.80712a.36662.36662,0,0,1-.39868-.3319A.37567.37567,0,0,1,500.028,240.31067Z"/><path fill="#5e7c24" d="M519.88067,227.32162l.42432-.05652.36694-.00147c.24634.00367.48975.01539.73438.03248a5.035,5.035,0,0,1,1.21851.33142,4.40388,4.40388,0,0,1,1.76831,1.25219,2.52761,2.52761,0,0,1,.62231,1.82666c-.0227.678-.1792,1.35572-.18994,1.98084a12.15415,12.15415,0,0,1-.70483,3.63061,12.63233,12.63233,0,0,1-1.65284,3.1698.3912.3912,0,0,1-.68383-.09643l-.0066-.01868c-.40063-1.09961-.71264-2.10608-1.15673-3.04175a11.316,11.316,0,0,0-.64234-1.34033c-.19336-.43127-.44141-.83484-.64917-1.23a5.03287,5.03287,0,0,0-.9458-1.04431,1.28222,1.28222,0,0,1-.43579-1.10559,5.7106,5.7106,0,0,1,.39795-1.54785c.09643-.29016.2522-.63867.40161-.99683.22925-.4198.33276-.76868.606-1.2843l.07788-.1471A.604.604,0,0,1,519.88067,227.32162Z"/><path fill="#8b9d36" d="M516.83819,237.75106a7.14109,7.14109,0,0,1,2.68531,2.48389,8.87509,8.87509,0,0,1,1.24389,3.01709,5.96763,5.96763,0,0,1-.1477,3.11853c-.303,1.01758-.76636,1.98047-1.07276,2.94958a24.3937,24.3937,0,0,1-2.65722,5.40528,29.007,29.007,0,0,1-1.7478,2.37658c-.62207.7522-1.31958,1.44385-1.98829,2.12647a.35962.35962,0,0,1-.60937-.323l.00708-.03369c.19678-.93994.43384-1.83606.6206-2.73474.14307-.91724.38331-1.776.45557-2.67969l.186-1.31152.09472-1.31116c.11841-.85046.10254-1.71631.136-2.55359a12.94323,12.94323,0,0,0-.32813-2.5155,7.48573,7.48573,0,0,1-.10742-1.20471,6.93839,6.93839,0,0,1,.15967-1.18738,15.75137,15.75137,0,0,1,.85181-2.48328,21.04966,21.04966,0,0,1,1.55639-2.91064l.03785-.05933A.48254.48254,0,0,1,516.83819,237.75106Z"/><path fill="#50661a" d="M551.90338,197.18722a8.72133,8.72133,0,0,1,1.80786,2.57861,8.213,8.213,0,0,1,.69849,2.454,4.22606,4.22606,0,0,1-.37207,2.3136c-.33716.74011-.75513,1.46643-1.01782,2.2168l-.85572,2.24-1.0039,2.21386a19.37543,19.37543,0,0,1-2.62867,4.27076.35566.35566,0,0,1-.6206-.24842l.00293-.08105a45.46311,45.46311,0,0,0-.18482-4.6322l-.14892-2.33228-.08887-2.32214a20.82555,20.82555,0,0,0-.30688-2.35425,4.14247,4.14247,0,0,1,.29443-2.26416,8.45272,8.45272,0,0,1,1.32886-2.129,9.23057,9.23057,0,0,1,2.40088-2.00915A.57893.57893,0,0,1,551.90338,197.18722Z"/><path fill="#8b9d36" d="M560.09186,200.59823l.40722.10437.33838.12512.66846.25794a6.50347,6.50347,0,0,1,1.03638.61157,4.75693,4.75693,0,0,1,1.37329,1.44116,2.2689,2.2689,0,0,1,.27514,1.70606c-.12036.60485-.3457,1.2279-.40625,1.8164a16.40721,16.40721,0,0,1-.8374,3.59131,7.01155,7.01155,0,0,1-2.11255,3.26074.37269.37269,0,0,1-.59375-.2854l-.00317-.0802a8.46521,8.46521,0,0,0-.78955-2.97412c-.19214-.48047-.38135-.94421-.616-1.41943l-.60571-1.41a8.97786,8.97786,0,0,0-.8728-1.36828,1.84243,1.84243,0,0,1-.30127-1.4607,5.0443,5.0443,0,0,1,.6936-1.70532,7.97876,7.97876,0,0,1,.66016-.95325l.47192-.52233.23608-.26429.30323-.2843.02075-.01929A.70868.70868,0,0,1,560.09186,200.59823Z"/><path fill="#50661a" d="M561.649,200.369a9.857,9.857,0,0,1,.24218-3.34607,10.05183,10.05183,0,0,1,1.02954-2.59265,5.26638,5.26638,0,0,1,1.7959-1.86853c.75293-.47851,1.56128-.90564,2.25049-1.44446l2.10156-1.58374,2.16822-1.5238,4.42944-2.97449.009-.006a.36491.36491,0,0,1,.54346.43567,45.807,45.807,0,0,1-2.38355,4.88965l-1.33471,2.324-1.42407,2.24329c-.49.733-.86133,1.57751-1.292,2.36658a5.28294,5.28294,0,0,1-1.75879,1.93151,9.94316,9.94316,0,0,1-2.53564,1.19751,9.67659,9.67659,0,0,1-3.33374.43372A.5375.5375,0,0,1,561.649,200.369Z"/><path fill="#5e7c24" d="M571.06085 203.52267a10.57975 10.57975 0 01.86231-3.47754 11.877 11.877 0 011.57568-2.64392 6.5534 6.5534 0 012.25683-1.82971c.88721-.44641 1.82325-.83142 2.65552-1.342l2.53052-1.48829 2.59375-1.40429c1.75537-.901 3.502-1.809 5.32935-2.60865a.362.362 0 01.44433.53528l-.00879.01306c-1.13867 1.66492-2.35815 3.22168-3.5686 4.78528l-1.85523 2.29261-1.9187 2.20874c-.65063.72155-1.19751 1.569-1.79345 2.35485a6.43788 6.43788 0 01-2.19214 1.86719 11.85266 11.85266 0 01-2.87354 1.0531 10.86929 10.86929 0 01-3.58667.21936A.509.509 0 01571.06085 203.52267zM571.28473 213.31014a8.847 8.847 0 01.09082 3.103 8.07346 8.07346 0 01-.731 2.37647 4.01437 4.01437 0 01-1.52612 1.67321 22.90389 22.90389 0 00-1.99829 1.256l-1.854 1.38354-1.93261 1.314c-1.32129.84681-2.63428 1.70105-4.04883 2.46558a.37276.37276 0 01-.52442-.46362c.5857-1.49744 1.27271-2.90515 1.95118-4.32031l1.06738-2.079 1.146-2.00953a22.90962 22.90962 0 001.002-2.137 4.01507 4.01507 0 011.47363-1.7196 8.06959 8.06959 0 012.269-1.0166 8.84947 8.84947 0 013.09082-.28992A.5849.5849 0 01571.28473 213.31014z"/><path fill="#50661a" d="M569.89264,222.28793l.43554.05151.37159.08814.73608.19226a6.40036,6.40036,0,0,1,1.186.55664,5.36349,5.36349,0,0,1,1.69677,1.508,3.0355,3.0355,0,0,1,.59937,1.97364c-.02.72631-.14893,1.47021-.13892,2.17065a15.60653,15.60653,0,0,1-.54883,4.22986,10.37713,10.37713,0,0,1-1.92358,3.78174.37809.37809,0,0,1-.66089-.195l-.00342-.02563a14.90988,14.90988,0,0,0-.91186-3.518,16.01261,16.01261,0,0,0-.69531-1.58215c-.21753-.51282-.49048-1.02564-.73316-1.5249a8.58454,8.58454,0,0,0-1.04272-1.41712,2.30676,2.30676,0,0,1-.53614-1.54773,6.42615,6.42615,0,0,1,.36109-1.9425,9.91017,9.91017,0,0,1,.44653-1.13953l.344-.64551.16894-.32776.22876-.3623.02588-.041A.61767.61767,0,0,1,569.89264,222.28793Z"/><path fill="#8b9d36" d="M571.26422,204.711l.41431-.1145.3645-.06506.72412-.13428a8.503,8.503,0,0,1,1.23315-.06445,5.96621,5.96621,0,0,1,1.99683.31579,2.40132,2.40132,0,0,1,1.323,1.06751,10.44811,10.44811,0,0,0,.98877,1.51941c.38452.42028.76977.86511,1.16089,1.27527.37939.45617.77221.85168,1.18164,1.25927a7.09348,7.09348,0,0,0,2.77832,1.93811l.06933.02307a.36742.36742,0,0,1,.07642.66163,6.80893,6.80893,0,0,1-4.33814.57885,17.47763,17.47763,0,0,1-4.04614-1.08423c-.61914-.26086-1.34839-.3894-2.00659-.61047a2.89991,2.89991,0,0,1-1.58423-1.1814,5.53515,5.53515,0,0,1-.82348-2.04113,6.93377,6.93377,0,0,1-.14454-1.281l.04248-.75085.02735-.377.07861-.42834a.63641.63641,0,0,1,.45557-.49866Z"/><path fill="#7e883b" d="M510.89809,245.84125l-.71094-.70313c3.35449-3.39941,7.55273-8.65234,8.502-14.37011a55.73283,55.73283,0,0,0,.71387-9.02832c-.01367-.69141-.041-1.2334-.06445-1.7041a14.17138,14.17138,0,0,1,.06836-2.93067c.21289-1.61621.71093-5.40137,3.27832-7.74414a5.55654,5.55654,0,0,1,3.43261-1.41016,30.93519,30.93519,0,0,0,5.38574-1.334c3.68262-1.23828,5.51661-1.91113,6.97266-3.68359a6.00059,6.00059,0,0,0,1.19824-2.30078,5.59668,5.59668,0,0,1,1.416-2.50684,9.28494,9.28494,0,0,1,8.19629-2.56445,7.31765,7.31765,0,0,1,3.78125,2.248,7.60134,7.60134,0,0,0,3.9082,2.31348,6.34512,6.34512,0,0,0,2.39063.10059,22.77013,22.77013,0,0,1,2.541-.11329,28.30405,28.30405,0,0,1,8.35254,1.39551,2.18708,2.18708,0,0,1,1.49121,1.792,2.9106,2.9106,0,0,1-.43652,2.16309,1.65217,1.65217,0,0,0-.27735,1.31934,55.57171,55.57171,0,0,1,.48438,8.7207c-.0957,4.49414-.66113,6.1084-1.543,7.25488a6.15907,6.15907,0,0,1-1.38476,1.30762,8.31383,8.31383,0,0,0-1.28418,1.126,10.47286,10.47286,0,0,0-2.51661,5.27441l-.98242-.18555a11.44671,11.44671,0,0,1,2.76465-5.7666,9.12627,9.12627,0,0,1,1.42188-1.25,5.23651,5.23651,0,0,0,1.18847-1.11523c.62207-.8086,1.23731-1.98926,1.33594-6.667a54.5452,54.5452,0,0,0-.47461-8.5586,2.6339,2.6339,0,0,1,.40918-1.97265,1.933,1.933,0,0,0,.30273-1.52051,1.17859,1.17859,0,0,0-.80371-.96875,27.27293,27.27293,0,0,0-8.05761-1.34864,20.84475,20.84475,0,0,0-2.44239.10938,7.28688,7.28688,0,0,1-2.70605-.12207,8.66016,8.66016,0,0,1-4.37207-2.56445,6.32761,6.32761,0,0,0-3.29981-1.99317,8.2292,8.2292,0,0,0-7.2666,2.2793,4.631,4.631,0,0,0-1.18457,2.11719,7.01556,7.01556,0,0,1-1.377,2.63183c-1.70313,2.07227-3.8584,2.79688-7.42774,3.9961a31.71493,31.71493,0,0,1-5.542,1.373,4.61966,4.61966,0,0,0-2.9209,1.16211c-2.29687,2.09766-2.76172,5.62891-2.96,7.13672a13.13756,13.13756,0,0,0-.06152,2.75c.02344.47852.05078,1.03027.06543,1.73438a56.8562,56.8562,0,0,1-.72754,9.21191C518.68324,236.90766,514.35512,242.33832,510.89809,245.84125Z"/><path fill="#50661a" d="M512.20734,244.2358l.14379.39051.09082.3435.17725.68335a7.07353,7.07353,0,0,1,.12549,1.16406,4.77968,4.77968,0,0,1-.26734,1.87061,1.985,1.985,0,0,1-1.07153,1.16,12.5699,12.5699,0,0,0-1.5437.74305c-.4585.297-.92285.58911-1.39917.87036l-1.47827.8009c-1.01831.50488-2.02832,1.01709-3.13965,1.4397a.39535.39535,0,0,1-.52466-.4635c.28223-1.155.666-2.22046,1.04126-3.29334l.61255-1.56567c.22022-.50757.45288-1.00427.69116-1.4961a12.54264,12.54264,0,0,0,.54688-1.62353,1.98568,1.98568,0,0,1,1.019-1.20642,4.77813,4.77813,0,0,1,1.82349-.49585,7.07885,7.07885,0,0,1,1.17065-.01917l.7.09168.35205.04761.40528.09472A.74613.74613,0,0,1,512.20734,244.2358Z"/><path fill="#8b9d36" d="M565.37262,227.90267a7.86219,7.86219,0,0,1,2.13232,2.0868,6.87157,6.87157,0,0,1,.99488,2.13635,3.4855,3.4855,0,0,1-.10914,2.13708c-.25585.70508-.60034,1.40259-.78906,2.10718-.21142.70544-.42993,1.40857-.66675,2.11182-.27392.70019-.56005,1.39685-.87622,2.09033a16.90425,16.90425,0,0,1-1.15747,2.04431,3.96792,3.96792,0,0,1-1.93188,1.69519.33635.33635,0,0,1-.40576-.46594l.07226-.14942a3.97928,3.97928,0,0,0,.17945-1.75854c-.03663-.64624-.10132-1.30615-.20386-1.97168-.07984-.66333-.18579-1.3324-.303-2.00012-.08423-.66553-.18506-1.33448-.29224-2.0022a15.00239,15.00239,0,0,0-.54834-2.01672,3.21841,3.21841,0,0,1,.03394-1.99158,7.282,7.282,0,0,1,1.0564-1.99439,9.07833,9.07833,0,0,1,2.1145-2.04418l.00952-.0066A.61439.61439,0,0,1,565.37262,227.90267Z"/><path fill="#d6694b" d="M286.12561,245.05064h-134.532V92.34414h134.532ZM156.374,240.271H281.34523V97.12374H156.374Z"/><rect width="143.967" height="7.155" x="146.876" y="245.093" fill="#935b50" rx="1.291"/><rect width="124.971" height="5.724" x="156.374" y="143.2" fill="#e19974"/><rect width="58.919" height="1" x="168.049" y="188.602" fill="#e19974" transform="rotate(-43.892 197.508 189.102)"/><rect width="48.558" height="1.001" x="169.797" y="167.983" fill="#e19974" transform="rotate(-42.785 194.076 168.483)"/><path fill="#ffba55" d="M215.89212,96.34414s-12.4869,56.42314-55.51816,80.64449c0,0,33.95473,47.46368,37.70174,75.68251H155.59358V96.34414Z"/><path fill="#e6952a" d="M160.37392 177.05a5.44376 5.44376 0 01-2.39014.49963 5.38273 5.38273 0 01-2.39014-.49963 5.38441 5.38441 0 012.39014-.49976A5.44379 5.44379 0 01160.37392 177.05zM165.82265 162.76643c1.63525-2.06128 3.26147-4.12561 4.82934-6.23511 1.59741-2.08533 3.16724-4.19165 4.68909-6.33118 3.05371-4.26977 6.08887-8.55542 8.85071-13.01575 2.81579-4.42236 5.49328-8.93737 7.86059-13.614.63953-1.14624 1.14112-2.3573 1.71912-3.53393l.84045-1.7782.74292-1.819c.47815-1.21863 1.06336-2.40357 1.45581-3.65479l1.265-3.73449a74.18088 74.18088 0 01-5.33313 14.86q-.86408 1.77942-1.7572 3.54627c-.61463 1.16687-1.272 2.31018-1.906 3.46667-.625 1.16223-1.30273 2.29285-1.98523 3.4209-.688 1.12427-1.332 2.277-2.05933 3.37634q-4.27056 6.65754-9.07934 12.93689C172.74293 154.83 169.41347 158.91645 165.82265 162.76643zM168.70265 140.03156c.91858-2.35229 1.93567-4.65649 2.96765-6.95337 1.02173-2.30188 2.114-4.56933 3.20655-6.83654 1.114-2.257 2.22973-4.51294 3.415-6.735l1.78125-3.33154c.62659-1.09436 1.22229-2.204 1.8761-3.28516-.45007 1.18067-.95825 2.33289-1.43554 3.50025l-1.53052 3.45385c-1.02234 2.30152-2.11438 4.56922-3.20813 6.83582-1.11524 2.25635-2.23059 4.51245-3.41663 6.73425C171.18263 135.64082 169.992 137.86018 168.70265 140.03156zM159.06752 140.03156c.36011-3.09912.828-6.17834 1.31226-9.25464.473-3.07837 1.02331-6.14245 1.57385-9.20654.574-3.05969 1.1499-6.11914 1.802-9.16455l.98157-4.5675c.36316-1.51587.6925-3.038 1.08545-4.54834-.16993 1.55139-.40357 3.09106-.60327 4.637l-.70716 4.61792c-.47388 3.07825-1.0238 6.14245-1.57568 9.2063-.57532 3.05945-1.15088 6.11889-1.80371 9.16418C160.49123 133.96271 159.83327 137.007 159.06752 140.03156zM162.44508 193.5052c2.72681 4.27221 5.26123 8.663 7.70508 13.10327 2.44531 4.4403 4.72656 8.97 6.92774 13.5404 2.11975 4.60755 4.1621 9.26123 5.838 14.06055a75.014 75.014 0 012.14 7.31811 24.52536 24.52536 0 01.68689 7.56592 26.30589 26.30589 0 00-1.1626-7.44763c-.66064-2.4314-1.48767-4.817-2.38708-7.17334-1.81262-4.70911-3.83618-9.34058-6.019-13.89831-2.11756-4.58912-4.40576-9.09925-6.70056-13.6073q-1.713-3.38562-3.49219-6.739zM160.37392 210.04511c.20629 3.25049.30285 6.501.38293 9.75135.09143 3.25048.10425 6.501.11682 9.75146-.01123 3.25037-.02453 6.50085-.11511 9.75134L160.619 244.175c-.083 1.62512-.13171 3.25036-.24511 4.87561-.11329-1.62525-.162-3.25049-.24512-4.87561l-.13941-4.87574c-.09069-3.25049-.10388-6.501-.11511-9.75134.01258-3.25049.02539-6.501.11682-9.75146C160.07106 216.54609 160.16774 213.2956 160.37392 210.04511zM165.82265 216.27216c.95483 2.47071 1.74841 4.99512 2.49157 7.53394.7533 2.53674 1.37769 5.10962 1.9502 7.69519A76.17022 76.17022 0 01171.565 239.345c.14733 1.319.2268 2.64709.28588 3.97314l-.04687 1.99439c-.04163.66357-.13928 1.3241-.22131 1.97742l-.0437-1.97754-.17725-1.963c-.15747-1.30529-.3208-2.60583-.55872-3.89953-.46008-2.58631-.94055-5.17029-1.51574-7.73889-.54432-2.57447-1.14026-5.13941-1.71436-7.71289l-.89-3.85547z"/><path fill="#ffba55" d="M221.59358,96.34414s12.4869,56.42314,55.51816,80.64449c0,0-33.95473,47.46368-37.70173,75.68251h42.48211V96.34414Z"/><path fill="#e6952a" d="M277.11171 177.05a5.44461 5.44461 0 012.39026-.49976 5.3847 5.3847 0 012.39013.49976 5.383 5.383 0 01-2.39013.49963A5.44458 5.44458 0 01277.11171 177.05zM271.663 162.76643c-3.5907-3.85-6.92017-7.93641-10.13281-12.10938q-4.795-6.279-9.07923-12.93689c-.72729-1.09936-1.37134-2.25207-2.05945-3.37634-.68237-1.12805-1.3601-2.25867-1.9851-3.4209-.63416-1.15649-1.29151-2.2998-1.906-3.46667q-.89758-1.764-1.75732-3.54627a74.18729 74.18729 0 01-5.333-14.86l1.265 3.73449c.39246 1.25122.97754 2.43616 1.45581 3.65479l.7428 1.819.84058 1.7782c.578 1.17663 1.07959 2.38769 1.71911 3.53393 2.36731 4.67664 5.0448 9.19165 7.8606 13.614 2.76184 4.46033 5.79687 8.746 8.85071 13.01575 1.52185 2.13953 3.09167 4.24585 4.68908 6.33118C268.4015 158.64082 270.02772 160.70515 271.663 162.76643zM268.783 140.03156c-1.28918-2.17138-2.47985-4.39074-3.65564-6.61743-1.186-2.2218-2.30151-4.4779-3.41662-6.73425-1.09387-2.2666-2.18579-4.5343-3.20825-6.83582l-1.5304-3.45385c-.47729-1.16736-.98547-2.31958-1.43555-3.50025.65381 1.08118 1.24952 2.1908 1.8761 3.28516l1.78113 3.33154c1.1853 2.22205 2.30115 4.478 3.415 6.735 1.09265 2.26721 2.18494 4.53466 3.20666 6.83654C266.84743 135.37507 267.86452 137.67927 268.783 140.03156zM278.41823 140.03156c-.76575-3.02453-1.42371-6.06885-2.06531-9.11621-.65295-3.04529-1.22852-6.10473-1.80383-9.16418-.55188-3.06385-1.10169-6.12805-1.57556-9.2063l-.70716-4.61792c-.19983-1.5459-.43335-3.08557-.60339-4.637.39294 1.51037.72229 3.03247 1.08545 4.54834l.98169 4.5675c.652 3.04541 1.228 6.10486 1.802 9.16455.55054 3.06409 1.10083 6.12817 1.57385 9.20654C277.59022 133.85322 278.05812 136.93244 278.41823 140.03156zM275.04066 193.5052l-3.53637 6.72265q-1.7732 3.35632-3.49207 6.739c-2.2948 4.508-4.58313 9.01818-6.70056 13.6073-2.18286 4.55773-4.20642 9.1892-6.019 13.89831-.89954 2.35632-1.72644 4.74194-2.38709 7.17334a26.306 26.306 0 00-1.16272 7.44763 24.52941 24.52941 0 01.687-7.56592 74.98349 74.98349 0 012.14-7.31811c1.6759-4.79932 3.71826-9.453 5.838-14.06055 2.20105-4.57043 4.48242-9.1001 6.92774-13.5404C269.77943 202.16816 272.31386 197.77741 275.04066 193.5052zM277.11171 210.04511c.2063 3.25049.30286 6.501.38293 9.75135.09131 3.25048.10425 6.501.11682 9.75146-.01123 3.25037-.02453 6.50085-.11511 9.75134l-.13952 4.87574c-.083 1.62512-.13172 3.25036-.24512 4.87561-.11328-1.62525-.162-3.25049-.24512-4.87561l-.1394-4.87574c-.0907-3.25049-.10388-6.501-.11511-9.75134.01257-3.25049.02539-6.501.11682-9.75146C276.80885 216.54609 276.90553 213.2956 277.11171 210.04511zM271.663 216.27216l-.86011 3.87049-.89014 3.85547c-.574 2.57348-1.16992 5.13842-1.71423 7.71289-.57519 2.5686-1.05579 5.15258-1.51575 7.73889-.238 1.2937-.40136 2.59424-.55871 3.89953l-.17725 1.963L265.903 247.29c-.08191-.65332-.17957-1.31385-.22119-1.97742l-.047-1.99439c.0592-1.32605.13867-2.65417.28589-3.97314a76.16786 76.16786 0 011.30066-7.84375c.57239-2.58557 1.1969-5.15845 1.95019-7.69519C269.91469 221.26728 270.70814 218.74287 271.663 216.27216z"/><polygon fill="#e19974" points="224.93 240.198 210.793 240.198 206.03 215.164 229.693 215.164 224.93 240.198"/><polygon fill="#d6694b" points="229.149 218.022 229.693 215.164 206.03 215.164 206.574 218.022 229.149 218.022"/><rect width="4.223" height="4.223" x="209.811" y="228.331" fill="#d6694b" transform="rotate(45 211.923 230.442)"/><rect width="4.223" height="4.223" x="215.784" y="228.331" fill="#d6694b" transform="rotate(45 217.896 230.442)"/><rect width="4.223" height="4.223" x="221.688" y="228.331" fill="#d6694b" transform="rotate(45 223.8 230.442)"/><path fill="#558031" d="M223.3679,194.09562s1.24137,17.53747-6.03438,21.25414C217.33352,215.34976,214.81467,208.70071,223.3679,194.09562Z"/><path fill="#849f4c" d="M199.89043,201.629s11.90278,2.05371,17.44309,13.7208C217.33352,215.34976,204.24451,210.9042,199.89043,201.629Z"/><path fill="#a6b862" d="M204.11084,224.6007s6.05338-9.05609,13.22268-9.25094C217.33352,215.34976,216.25421,222.64159,204.11084,224.6007Z"/><path fill="#849f4c" d="M211.57779,196.59539s8.39909,7.66866,5.75573,18.75437C217.33352,215.34976,212.68072,210.41787,211.57779,196.59539Z"/><path fill="#a6b862" d="M217.33352,215.34976s2.9509-10.802,17.86843-13.572C235.202,201.77778,231.84485,211.61322,217.33352,215.34976Z"/><path fill="#849f4c" d="M239.15364,212.526s-11.38165-4.69218-21.82012,2.82373C217.33352,215.34976,231.21035,217.0158,239.15364,212.526Z"/><path fill="#558031" d="M239.0501 223.44993s-5.49567-8.80277-21.71658-8.10017zM193.75971 213.92489s14.94766-5.54253 23.76941 1.15986C217.52912 215.08475 209.15263 219.69861 193.75971 213.92489z"/><path fill="#558031" d="M206.01716,197.876s13.33786,9.43347,11.42452,17.48144C217.44168,215.35743,208.18829,207.93818,206.01716,197.876Z"/><path fill="#849f4c" d="M229.41418,224.73927s-10.99554-1.87718-12.08066-9.38951C217.33352,215.34976,225.36765,215.74769,229.41418,224.73927Z"/><rect width="500" height="2" x="100" y="472.1" fill="#935b50"/></svg>