<svg xmlns="http://www.w3.org/2000/svg" enable-background="new 0 0 6000 4000" viewBox="0 0 6000 4000"><path fill="#bde9ff" d="M4980.219 3132.928c-69.649-19.429-186.699 53.992-247.41 64.592-119.33 20.834-241.167 10.074-361.517 13.441-238.805 6.68-421.644 118.497-633.01 214.211-361.32 163.618-780.754 181.667-1169.36 134.669-187.688-22.699-370.177-65.05-551.027-119.317-159.449-47.844-371.51-107.477-512.365 18.723-38.972 34.917-57.303 56.52-14.282 90.237 62.151 48.71 226.311 28.336 301.209 23.009 228.714-16.267 467.02-22.834 685.497 57.801 119.657 44.163 220.732 128.226 342.266 167.707 141.585 45.995 291.091 13.906 425.426-41.391 212.646-87.533 424.833-176.128 637.872-262.709 211.946-86.136 426.762-181.678 659.357-187.433 113.01-2.796 231.512 34.817 343.12 19.917 68.23-9.109 206.425-97.149 122.025-177.913C5000.053 3140.85 4990.669 3135.844 4980.219 3132.928zM5342.458 2158.79H1043.413c29.677-49.278 59.545-99.996 87.241-155.083 124.517-247.683 10.481-550.61 71.299-821.091 63.722-283.349 290.543-435.922 553.099-495.918 17.495-4.008 35.148-7.588 52.925-10.774 94.052-16.876 193.992-19.162 280.298-64.172 67.595-35.261 121.804-90.033 171.892-146.448 96.743-108.958 187.62-241.232 339.506-273.329 178.028-37.625 359.928 22.235 538.305 58.228 175.934 35.498 342.242 66.39 521.215 36.871 159.226-26.266 315.593-78.076 478.85-54.355 210.137 30.544 385.383 161.185 548.111 288.663 209.438 164.045 221.924 372.403 184.276 622.247-4.706 31.253-9.311 63.171-13.06 95.313-4.245 36.252-7.408 72.808-8.466 109.059-3.175 107.844 12.305 212.962 73.787 299.404 21.087 29.666 45.753 55.954 72.29 80.508 9.029 8.365 18.272 16.516 27.662 24.532 77.119 65.827 164.383 122.513 224.986 205.78 38.323 52.655 65.895 107.145 83.942 162.502C5335.691 2133.369 5339.316 2146.069 5342.458 2158.79z"/><path fill="#78c1e5" d="M5342.458,2158.79c-3.141-12.722-6.767-25.421-10.887-38.064
		c-18.047-55.357-45.619-109.847-83.942-162.502c-49.358-67.817-116.401-118.001-181.245-169.853
		c-64.591-1.679-134.844-2.749-209.014-2.749c-344.322,0-228.957-153.878-626.32-171.969
		c-397.364-18.091-464.358,59.49-984.826,181.956s-654.354,69.137-1415.906,99.919c-285.618,11.545-492.437-59.997-639.389-153.927
		c-3.856,91.326-18.882,179.77-60.275,262.107c-27.695,55.087-57.564,105.806-87.241,155.083H5342.458z"/><path fill="#a7b2b9" d="M2586.291,1187.985l1149.023,814.787l42.376-24.464h38.515l-13.566-22.674l-459.789-767.648h653.804
		c-99.929,396.552-194.015,767.648-194.015,767.648h33.426l-19.86,22.674l39.044,11.664l732.061-801.986h277.098
		c1.032-7.323,2.087-14.619,3.157-21.886h-260.283l274.635-300.867c-3.548-28.823-9.044-56.887-16.835-84.185l-337.328,385.052
		H4060.24l97.959-394.863h703.973c-6.744-21.904-15.015-43.307-24.995-64.206h-663.048l107.651-433.921
		c-17.573-6.508-35.389-12.394-53.46-17.596c-9.796,45.204-54.198,224.842-110.876,451.516H3054.782l-313.541-523.495
		c-17.857-0.533-35.695-0.41-53.506,0.471l317.714,523.024H2014.03c-23.11-16.719-45.567-32.97-67.297-48.702
		c-29.529,5.028-59.399,8.797-89.035,12.994l50.357,35.708h-218.344c-56.134,16.649-110.023,37.917-160.331,64.206h469.214
		l556.847,394.863H1206.744c-1.675,6.511-3.291,13.07-4.787,19.725c-0.162,0.72-0.315,1.441-0.475,2.161H2586.291z
		 M3777.668,1978.285c-4.267-3.062-551.534-396.754-1097.404-790.3h617.338L3777.668,1978.285z M4508.58,1187.985l-633.032,722.593
		l179.266-722.593H4508.58z M4101.378,771.236c-31.298,124.99-65.501,261.002-99.22,394.863h-672.414l-236.503-394.863H4101.378z
		 M2102.836,771.236h941.612l239.858,394.863h-634.384C2458.272,1027.926,2268.052,890.664,2102.836,771.236z"/><path fill="#19767b" d="M5357.724,2320.64c-23.014,385.5-396.193,737.31-782.652,797.115
		c-136.644,22.587-283.409-28.159-415.491,6.026c-337.581,67.55-613.45,339.746-965.627,356.529
		c-351.048,28.085-697.119-106.253-1041.821-134.543c-342.615-27.517-704.793,70.386-1025.542-84.797
		c-253.422-121.516-317.025-402.851-275.704-656.586c28.232-176.6,106.454-299.719,192.516-442.372h4299.056
		C5355.389,2214.457,5360.198,2267.22,5357.724,2320.64z"/><path fill="#bbc9d1" d="M1487.385 1632.038c0 0-12.841 628.145 0 628.145s38.524 0 38.524 0l-19.719-605.772L1487.385 1632.038zM2318.352 1632.038c0 0-12.841 628.145 0 628.145 12.841 0 38.523 0 38.523 0l-19.719-605.772L2318.352 1632.038zM4504.453 1567.845c0 0-12.841 628.145 0 628.145s38.523 0 38.523 0l-19.719-605.772L4504.453 1567.845zM5036.558 2179.967c0 0-25.681 0-38.526 0-1.418 0-2.521-7.622-3.355-21.177-4.143-66.593-2.004-276.504.304-430.878 9.029 8.365 18.272 16.516 27.662 24.532l13.229 406.346L5036.558 2179.967z"/><path fill="#166a6f" d="M905.495 2414.875c-24.248 57.688-43.481 119.587-54.61 189.508-.754 4.74-1.475 9.479-2.15 14.219-4.098 28.427-6.901 57.001-8.309 85.518-11.225 227.148 66.03 450.22 286.164 556.848 47.921 23.21 96.833 40.755 146.504 53.908.475-.188 278.498-110.507 278.498-206.896 0-96.471-72.231-250.241-184.821-434.42C1294.666 2555.609 1062.871 2464.876 905.495 2414.875zM3193.954 3480.314c-79.461 6.406-158.968 4.391-238.395-2.871-87.173-7.971-174.245-22.269-261.047-38.695-35.835-6.777-71.625-13.927-107.359-21.143-146.212-29.508-291.478-60.187-435.021-71.839-54.49-4.425-109.622-5.618-165.103-5.145 130.822-129.663 298.706-287.459 298.706-287.459s91.766 188.577 369.824 208.458C2933.617 3281.503 3165.346 3395.021 3193.954 3480.314z"/><path fill="#aeadae" d="M5357.724,2320.64c-1.183,25.624-4.076,51.18-8.534,76.59
		c-353.341-100.406-712.714-205.702-970.94-281.784c-3.523-9.507-12.655-34.156-16.043-43.333
		c247.608,49.186,745.891,148.165,995.64,197.775C5358.568,2286.809,5358.511,2303.741,5357.724,2320.64z"/><path fill="#e5dfe1" d="M5357.724 2320.64c-308.756-73.061-862.64-204.105-1165.664-275.818l1142.827 77.818C5355.15 2187.324 5360.857 2253.264 5357.724 2320.64zM3037.564 2173.336l-2188.83 445.266c.675-4.74 1.396-9.479 2.15-14.219 18.689-117.413 50.73-276.234 155.53-381.033l1293.945-61.34 567.656-59.309h129.989l33.223 59.309L3037.564 2173.336z"/><path fill="#93c74b" d="M2585.65,2205.111c9.624-13.817,18.236-34.36-10.722-39.373c-19.27,19.27-9.396,39.34-3.436,47.982
		c-8.672-2.965-32.714-8.837-40.949,13.574c28.755,12.652,40.277-4.536,43.271-10.477c0.687,0.838,1.115,1.291,1.115,1.291
		s0.715-0.715,1.87-1.977c8.161,2.225,37.421,7.679,48.019-24.703C2633.843,2163.849,2602.989,2189.325,2585.65,2205.111z"/><path fill="#aeadae" d="M3037.564,2173.336l-11.506,38.515l-2185.633,492.27c1.407-28.517,4.211-57.091,8.309-85.518
		L3037.564,2173.336z"/><path fill="#93c74b" d="M2405.694,1521.745c-14.779-9.62-27.079-24.567-29.25-42.067c-0.42-3.384-0.196-7.384,2.559-9.392
			c1.353-0.986,3.075-1.286,4.737-1.487c18.537-2.244,37.969,4.859,50.689,18.528c8.614,9.257,20.565,30.186,14.799,43.383
			C2442.634,1545.803,2414.661,1527.582,2405.694,1521.745z"/><path fill="#52a756" d="M2456.731,1397.745c2.269-3.353,5.018-6.859,8.972-7.723c5.209-1.138,10.08,2.718,13.907,6.431
			c10.41,10.099,19.892,21.154,28.288,32.981c15.229,21.453,26.975,45.838,30.835,71.862s-0.678,53.795-15.495,75.535
			c-3.395,4.981-7.73,9.897-13.604,11.248c-6.265,1.441-12.63-1.511-18.296-4.547c-14.346-7.688-28.78-16.41-41.996-25.891
			c-9.625-6.905-12.531-22.534-15.104-33.51c-6.462-27.57-5.519-56.843,2.553-83.976
			C2441.263,1425.125,2447.939,1410.739,2456.731,1397.745z"/><path fill="#cec9ca" d="M3768.053,2014.706v16.572L1191.858,1666.52c-0.833-61.414-4.683-123.695-7.127-185.909
			c13.431,5.314,28.225,7.509,42.59,8.883c12.384,1.126,25.894,2.252,37.152,6.755c25.894,7.881,51.788,14.636,77.682,23.642
			c38.278,12.384,76.557,20.265,115.961,30.397c30.397,6.755,59.669-1.126,90.067,3.377c34.901,6.755,65.298,22.517,102.451,19.139
			c11.258-1.126,22.517,1.126,32.649,5.629c41.656,14.636,84.437,18.013,128.345,19.139c15.762,1.126,30.397,12.384,45.033,18.013
			c45.033,15.762,91.192,20.265,133.974,45.033c3.377,2.252,10.132,0,12.384,2.252c39.404,29.272,84.437,37.152,129.471,50.662
			c14.636,4.503,29.271,13.51,45.033,18.013c6.755,1.126,12.384-1.126,19.139,0c43.907,11.258,83.312,27.02,128.345,27.02
			c6.755,0,12.384,3.377,19.139,5.629c55.166,11.258,105.828,11.258,160.994,20.265c15.762,2.252,30.397,9.007,45.033,10.132
			c56.292,2.252,109.206,14.636,166.623,25.894c19.139,3.377,38.278-1.126,57.417,2.252c33.775,4.503,65.298,13.51,96.822,30.397
			c5.629,3.378,12.384,0,19.139,1.126c18.013,3.377,33.775,5.629,51.788,6.755c4.503,0,7.881,5.629,12.384,4.503
			c18.013-1.126,32.649,5.629,52.914,11.258c77.682,23.642,155.365,31.523,236.425,36.027c20.265,1.126,38.278,13.51,57.417,15.762
			c46.159,5.629,92.318-1.126,135.1,22.517c1.126,0-1.126,4.503,0,4.503c18.013,10.132,37.152,18.013,57.417,19.139
			c56.292,4.503,110.332,18.013,166.623,25.894c19.139,3.377,39.404,0,58.543,1.126
			C3736.181,2002.615,3751.571,2009.527,3768.053,2014.706z"/><path fill="#e5dfe1" d="M3768.053,1973.489v41.217c-16.482-5.179-31.872-12.091-49.266-12.958
			c-19.139-1.126-39.404,2.252-58.543-1.126c-56.292-7.881-110.332-21.391-166.623-25.894c-20.265-1.126-39.404-9.007-57.417-19.139
			c-1.126,0,1.126-4.503,0-4.503c-42.781-23.642-88.941-16.887-135.1-22.517c-19.139-2.252-37.152-14.636-57.417-15.762
			c-81.06-4.503-158.742-12.384-236.425-36.027c-20.265-5.629-34.901-12.384-52.914-11.258c-4.503,1.126-7.881-4.503-12.384-4.503
			c-18.013-1.126-33.775-3.378-51.788-6.755c-6.755-1.126-13.51,2.252-19.139-1.126c-31.523-16.887-63.047-25.894-96.822-30.397
			c-19.139-3.377-38.278,1.126-57.417-2.252c-57.417-11.258-110.331-23.642-166.623-25.894
			c-14.636-1.126-29.271-7.881-45.033-10.132c-55.166-9.007-105.828-9.007-160.994-20.265c-6.755-2.252-12.384-5.629-19.139-5.629
			c-45.033,0-84.437-15.762-128.345-27.02c-6.755-1.126-12.384,1.126-19.139,0c-15.762-4.503-30.397-13.51-45.033-18.013
			c-45.033-13.51-90.067-21.391-129.471-50.662c-2.252-2.252-9.007,0-12.384-2.252c-42.782-24.768-88.941-29.272-133.974-45.033
			c-14.636-5.629-29.272-16.887-45.033-18.013c-43.907-1.126-86.689-4.503-128.345-19.139c-10.132-4.503-21.391-6.755-32.649-5.629
			c-37.152,3.377-67.55-12.384-102.451-19.139c-30.397-4.503-59.669,3.377-90.067-3.377
			c-39.404-10.133-77.682-18.013-115.961-30.397c-25.894-9.007-51.788-15.762-77.682-23.642
			c-11.258-4.503-24.768-5.629-37.152-6.755c-14.366-1.374-29.159-3.569-42.59-8.883c-2.589-65.816-3.614-131.553,2.162-196.097
			c2.972-33.257,7.757-66.21,15.063-98.69c2.736-12.182,5.776-24.115,9.119-35.813l365.4,117.672l256.791,82.704L3768.053,1973.489z
			"/><path fill="#52a756" d="M1199.276 1129.704c-9.811-20.686-13.217-43.721-19.364-65.775-6.701-22.784-16.564-50.518-.926-71.641 7.7-10.083 20.102-15.188 31.951-19.724 38.945-18.87 64.399 2.399 81.719 37.094 12.871 22.867 25.776 46.593 28.91 72.647C1324.447 1192.863 1261.756 1249.528 1199.276 1129.704zM1371.517 1134.271c45.383-55.638 117.2-89.297 189.383-83.432 69.778-.532 49.766 14.974 32.422 66.054 22.944-1.301 90.18 5.681 73.25 41.298-36.838 27.752-85.325 31.104-128.473 42.357-37.631 21.995-47.26 46.781-99.243 43.715C1365.98 1238.033 1305.339 1206.399 1371.517 1134.271z"/><path fill="#93c74b" d="M1277.573,1146.228c-2.275-65.194-17.32-154.601,24.527-208.878
				c16.3-20.113,39.967-32.922,57.716-51.766c13.413-16.27,29.684-27.555,46.693-9.559c30.781,27.007,38.87,68.299,43.735,107.215
				c11.648,69.456,25.331,157.115-33.814,208.746c-17.035,12.944-35.474,27.887-58.145,26.1
				c-15.391,0.221-50.862,7.516-60.139-7.241C1286.459,1192.253,1280.397,1167.74,1277.573,1146.228z"/><path fill="#52a756" d="M1728.812,1330.499c-17.729-26.968-40.766-55.241-38.781-89.277
			c-0.122-5.939,3.215-10.796,8.738-12.938c23.346-9.749,55.194-25.676,78.838-10.037c13.339,8.1,26.877,16.36,37.37,27.908
			c21.413,26.245,62.466,105.179,28.151,131.283c-25.421,12.06-58.271,0.545-84.277-5.136
			C1743.898,1368.365,1736.884,1342.907,1728.812,1330.499z"/><path fill="#52a756" d="M2012.314,1352.7c21.82-16.562,46.735-43.924,34.374-72.914
			c-59.869,1.526-122.256-7.721-174.447,27.605c-21.353,9.732-65.302,45.513-26.423,61.254
			C1941.384,1411.391,1928.379,1422.86,2012.314,1352.7z"/><path fill="#93c74b" d="M1812.11 1306.131c-4.783-27.746-6.01-56.023-11.078-83.718-3.895-21.283-10.078-42.724-7.342-64.187 3.186-24.988 18.019-46.736 32.421-67.403 28.438 33.797 52.717 71.089 72.118 110.769 14.794 30.259 26.977 64.084 20.286 97.094-5.908 29.147-29.396 62.425-56.811 75.319C1826.456 1390.585 1816.027 1328.854 1812.11 1306.131zM2162.903 1415.26c38.559-15.995 81.885-20.283 122.831-12.156-14.545 6.538-26.228 18.062-36.701 30.088-10.473 12.026-20.158 24.872-32.272 35.242s-27.253 18.242-43.197 17.98c-1.638-.027-8.039-8.44-9.635-9.858-3.725-3.308-7.703-6.332-11.883-9.043-7.312-4.741-15.458-8.82-19.125-17.287C2124.891 1431.687 2149.522 1420.81 2162.903 1415.26z"/><path fill="#52a756" d="M2142.437,1412.988c-5.828-14.034-13.93-27.498-25.768-37.026
			c-11.768-9.471-26.597-14.518-41.538-16.741c-14.941-2.224-30.135-1.792-45.234-1.355c-0.795,20.434,11.443,38.993,24.7,54.564
			c13.257,15.57,28.41,30.39,35.565,49.547l8.519-0.926c12.259,2.453,24.775,3.619,37.276,3.472c3.107-0.037,6.38-0.203,9.009-1.858
			c4.441-2.796,5.521-8.761,5.54-14.008C2150.552,1436.385,2147.144,1424.321,2142.437,1412.988z"/><path fill="#93c74b" d="M2228.302 1389.349c-.889-17.783-6.097-35.021-10.721-52.215s-8.728-34.887-7.338-52.638c-16.922 23.286-40.991 40.205-64.701 56.527-10.079 6.939-20.446 14.121-27.093 24.395-13.905 21.491-8.021 50.102-15.733 74.51l11.626 9.184c16.564 6.317 34.03 11.182 51.75 10.643 17.72-.539 35.838-7.053 47.48-20.423C2225.262 1425.903 2229.191 1407.132 2228.302 1389.349zM2515.441 1519.55c-2.125-17.371.081-35.093 4.867-51.926 9.153-32.196 27.387-60.931 45.386-89.151 30.455 23.938 49.815 59.244 64.448 95.11 8.26 20.247 15.393 42.104 11.698 63.657-2.559 14.928-10.538 29.005-22.534 38.251-11.996 9.246-27.983 13.382-42.822 10.349-12.744-2.605-30.39-10.728-40.648-19.289C2523.056 1555.883 2517.368 1535.3 2515.441 1519.55z"/><path fill="#52a756" d="M2685.618,1622.891c19.201-6.31,37.476-17.369,48.787-34.118c5.018-7.43,8.521-17.394,4.043-25.162
			c-3.801-6.594-11.918-9.15-19.363-10.729c-14.98-3.177-30.322-4.649-45.633-4.376c-17.209,0.306-34.826,2.968-49.781,11.487
			c-14.955,8.52-26.869,23.729-27.948,40.906c-0.994,15.831,10.573,38.243,28.799,35.48
			C2644.295,1633.382,2666.552,1629.156,2685.618,1622.891z"/><path fill="#dad8d9" d="M3792.934,1977.508c0,16.854-24.881,24.87-24.881,24.87l-2581.16-717.864
			c2.972-33.257,7.757-66.21,15.063-98.69c2.736-12.182,5.776-24.115,9.119-35.813c2.387-8.41,4.931-16.707,7.633-24.87
			c181.732,67.426,345.608,130.382,357.767,142.541c10.403,10.403,120.419,43.716,256.791,82.704
			c231.415,66.143,538.71,148.632,563.997,163.234c40.169,23.192,578.633,181.259,616.37,203.044
			c37.749,21.796,706.268,227.936,754.42,235.963C3816.205,1960.655,3792.934,1960.655,3792.934,1977.508z"/><path fill="#a8908e" d="M2824.28,1732.281l-1576.482-437.312c-3.295-0.914-6.708,1.016-7.622,4.312
			c-0.914,3.295,1.016,6.708,4.312,7.622l1576.482,437.312c3.295,0.914,6.708-1.016,7.622-4.312
			C2829.506,1736.607,2827.575,1733.195,2824.28,1732.281z"/><path fill="#766563" d="M2102.82,1664.715l-0.906,1011.829c0,0,11.298,2.391,27.529,3.487V1665.779
			C2120.385,1662.517,2111.494,1669.074,2102.82,1664.715z"/><path fill="#a8908e" d="M2129.443,1665.779v1014.252c29.815,2.013,76.293-0.35,100.08-29.972v-962.504
			C2200.07,1666.722,2167.565,1651.473,2129.443,1665.779z"/><path fill="#bcd845" d="M1441.951 955.712c-.286-11.574-2.323-22.581-5.474-32.444-3.146-9.874-7.395-18.601-11.979-25.901-4.587-7.31-9.489-13.2-13.969-17.682-4.482-4.489-8.511-7.582-11.394-9.518-2.887-1.941-4.633-2.742-4.633-2.742s-.046 1.079-.137 3.191c-.082 2.083-.179 5.145-.269 9.108-.195 7.948-.327 19.413-.406 34.24-.111 14.875-.078 33.057-.641 55.733-.582 22.706-1.651 49.996-4.847 84.086 12.793-7.894 23.286-17.528 31.444-28.192 8.156-10.664 13.88-22.368 17.511-34.277C1440.782 979.402 1442.245 967.279 1441.951 955.712zM1907.045 1209.633c-1.546-13.366-4.632-26.266-8.915-38.151-4.273-11.891-9.738-22.754-15.799-32.202-6.056-9.458-12.695-17.497-19.193-24.016-6.499-6.53-12.845-11.545-18.35-15.235-5.512-3.693-10.193-6.052-13.445-7.484-3.26-1.431-5.11-1.931-5.11-1.931s.699.793 2.036 2.408c1.336 1.618 3.317 4.062 5.853 7.418 5.053 6.722 12.37 17.075 20.582 32.13 8.17 15.079 17.148 34.935 24.875 60.935 7.735 25.984 14.14 58.172 17.359 97.44 4.965-13.031 8.379-26.663 10.07-40.398C1908.618 1236.822 1908.6 1222.999 1907.045 1209.633zM2231.784 1326.304c-4.063-13.172-9.436-23.691-13.744-30.858-4.316-7.176-7.566-11.02-7.566-11.02s-.548 2.769-.908 8.329c-.36 5.56-.529 13.916.052 25.143.532 11.234 1.891 25.343 3.765 42.508.886 8.578 1.926 17.933 2.627 28.035.367 5.057.57 10.275.596 15.665.003 5.379-.215 10.932-1.081 16.454.846-.71 1.687-1.451 2.519-2.223.416-.396.829-.79 1.24-1.18.383-.423.763-.843 1.141-1.26.755-.853 1.5-1.729 2.232-2.628.688-.912 1.349-1.848 2.004-2.799 1.351-1.898 2.441-3.897 3.559-5.929 1.077-2.037 2-4.124 2.901-6.24 3.42-8.475 5.256-17.307 6.005-25.836C2238.601 1355.339 2235.823 1339.441 2231.784 1326.304zM2636.882 1471.32c-2.96-10.51-7.125-20.275-11.86-29.101-4.738-8.834-10.045-16.747-15.429-23.706-10.79-13.926-21.844-24.02-30.059-30.581-8.232-6.567-13.66-9.621-13.66-9.621s1.14 3.25 4.003 9.585c2.853 6.343 7.456 15.762 14.043 28.36 6.54 12.62 15.207 28.372 24.908 48.021 2.436 4.909 4.844 10.092 7.317 15.527 1.153 2.739 2.471 5.506 3.603 8.386.592 1.434 1.191 2.884 1.797 4.35.566 1.474 1.138 2.964 1.717 4.471 4.556 12.065 8.639 25.389 10.392 40.228 5.039-9.879 7.395-21.407 7.656-32.759C2641.585 1493.087 2639.836 1481.812 2636.882 1471.32z"/><path fill="#a8908e" d="M2680.173,2830.067l-67.581,36.302v556.354c27.279,5.468,54.588,10.855,81.924,16.025
			C2708.848,3295.115,2680.173,2830.067,2680.173,2830.067z"/><path fill="#766563" d="M2587.157,2880.032v537.573c8.475,1.711,16.954,3.418,25.435,5.118v-556.354L2587.157,2880.032z"/><path fill="#e5dfe1" d="M3230.993,2163.615L867.418,3014.542c44.148,107.552,135.692,203.862,254.36,261.338
			c278.725,135.002,590.977,65.178,891.286,66.267l1513.485-1178.533H3230.993z"/><path fill="#d5d4d5" d="M1943.005,3341.316c0,0,402.524-319.3,436.841-339.113s46.549-39.232,46.549-39.232
			s-175.578,105.784-224.597,154.803s-283.112,187.802-350.287,203.854c-67.175,16.052-100.883,28.017-100.883,28.017
			L1943.005,3341.316z"/><ellipse cx="1210.921" cy="3030.226" fill="#474546" rx="132.197" ry="53.608"/><ellipse cx="1777.046" cy="2775.81" fill="#474546" rx="132.197" ry="53.608"/><ellipse cx="1866.404" cy="3109.042" fill="#474546" rx="204.126" ry="82.776"/><ellipse cx="2334.76" cy="2860.183" fill="#474546" rx="160.703" ry="65.168"/><ellipse cx="2727.921" cy="2618.602" fill="#474546" rx="92.354" ry="37.451"/><ellipse cx="2329.943" cy="2547.412" fill="#474546" rx="92.354" ry="37.451"/><ellipse cx="2769.805" cy="2431.306" fill="#474546" rx="60.904" ry="24.698"/><ellipse cx="2927.906" cy="2522.265" fill="#474546" rx="77.351" ry="31.367"/><path fill="#696969" d="M3499.74,2162.01L2012.881,3340.53c46.758,0.072,93.234,1.501,139.255,5.236
			c0.82,0.066,1.641,0.142,2.461,0.21c506.541-396.205,1394.875-1114.007,1481.414-1183.965H3499.74z"/><path fill="#545454" d="M2193.408,3349.644c0,0,323.588-243.639,364.609-284.66
			c41.021-41.021,256.966-216.722,282.149-241.906s65.767-78.501,65.767-78.501v-24.694l-796.547,623.055L2193.408,3349.644z"/><path fill="#93c74b" d="M1117.157 3046.129c0 0-145.667-24.077-108.347-158.909 119.717 30.64 131.221 61.397 131.221 61.397s-38.523-152.89 57.785-161.317c54.174 107.144 48.154 144.463 48.154 144.463s44.543-73.435 105.94-73.435c61.397 0 51.766 9.631 51.766 9.631s-48.154 169.744-122.794 169.744C1214.67 3066.595 1117.157 3046.129 1117.157 3046.129zM1732.656 3106.322c0 0-55.704 58.989-17.18 123.997 77.047 0 115.57-56.581 115.57-56.581s56.581 24.077 111.959 9.631c0-50.562-20.466-50.562-20.466-50.562s93.901 33.708 117.978 9.631c24.077-24.077 50.562-62.601 50.562-62.601s-92.483-37.507-132.425-14.446c48.154-48.154 107.144-74.639 107.144-74.639s-79.455 14.446-121.59 7.223c37.32-74.639 15.473-87.252 15.473-87.252s-78.074 18.632-78.074 64.379c-37.32-93.901-15.65-152.89-15.65-152.89s-102.328 107.143-77.047 204.054c-107.144-25.883-176.967 26.896-176.967 26.896S1660.75 3106.322 1732.656 3106.322zM2231.931 2822.211c0 0-77.047 59.792-65.811 140.049 93.099 8.026 147.674-54.575 147.674-54.575s1.605 44.944 51.365 44.944c16.052-23.275 12.039-53.772 12.039-53.772s119.583 6.421 149.279-34.51c-29.695-40.931-54.575-46.549-54.575-46.549s64.206-58.588 48.155-102.729c-90.691 6.42-140.45 48.986-140.45 48.986s0-117.205-85.073-117.205c-54.575 105.137-38.523 138.845-38.523 138.845s-70.964-44.944-110.121-28.09C2124.386 2821.81 2231.931 2822.211 2231.931 2822.211z"/><path fill="#93c74b" d="M1662.506 2747.572c0 0-50.562 12.039-50.562 79.455 57.693 33.309 142.055-30.097 142.055-30.097s3.633 15.713 27.689 39.77c23.496-23.496 23.496-38.566 23.496-38.566s7.804 74.639 101.705 60.193c36.228-20.916-14.446-78.251-14.446-78.251s66.546-14.446 100.087-57.785c-25.364-25.365-89.252-27.689-89.252-27.689s24.077-131.221-63.805-150.482c-65.008 97.512-71.028 121.59-71.028 121.59s-74.639-72.231-148.075-48.154C1604.72 2686.175 1656.486 2747.572 1662.506 2747.572zM2456.652 2484.729c-57.785 0-71.429 0-71.429 0s-10.434-113.163-26.485-113.163c-41.734 93.901-48.957 146.871-48.957 146.871s-22.472-98.717-67.416-89.888c0 64.206 20.867 97.914 20.867 97.914s-47.352-32.103-69.824-16.052c15.249 28.893 58.588 40.129 58.588 40.129l-3.21 3.21c0 0-17.656 26.485-17.656 63.403 55.377-8.828 83.467-52.167 83.467-52.167s21.352 29.071 57.785 41.734c11.236-48.957-16.019-64.692-16.019-64.692S2447.823 2512.819 2456.652 2484.729zM2702.64 2585.051c0 0-13.296-74.731 24.077-96.309 55.377 71.028 38.523 114.367 38.523 114.367s50.627-29.886 79.455-13.242c-9.631 38.523-79.455 56.983-79.455 56.983s-46.266-2.757-46.266 26.711c-26.711-26.711-18.633-42.763-18.633-42.763s-71.124 5.618-89.195 16.052C2629.507 2589.901 2702.64 2585.051 2702.64 2585.051z"/><path fill="#bcd845" d="M1877.837,3040.325c0,0-32.137-103.908,81.845-129.603
			C1899.907,2996.585,1877.837,3040.325,1877.837,3040.325z"/><path fill="#bcd845" d="M1865.958 2822.211c0 0-56.474 136.653-5.109 226.006-72.232 0-87.528-46.901-71.158-92.286S1840.569 2819.32 1865.958 2822.211zM1611.943 3053.162c0 0 81.773 101.932 261.715 34.515C1694.85 3080.454 1611.943 3053.162 1611.943 3053.162zM1836.905 3117.774c0 0-98.717 31.27-114.367 112.546C1829.739 3190.484 1836.905 3136.001 1836.905 3117.774zM1879.442 3109.042c0 0 58.908-15.777 63.563 74.327C1923.771 3164.135 1893.487 3109.042 1879.442 3109.042zM1905.525 3065.607c0 0 120.919-50.405 185.554 14.23C2006.65 3092.092 1905.525 3065.607 1905.525 3065.607zM1183.477 2947.628c0 0-9.083-136.908 14.339-160.329C1147.629 2824.032 1156.033 2918.639 1183.477 2947.628zM1231.364 2996.184c-2.049 18.817 97.832-116.804 172.312-128.226C1320.035 2851.721 1244.606 2874.594 1231.364 2996.184zM1008.81 2887.22c0 0 68.46 90.906 139.488 101.741C1074.004 3031.854 1008.81 2951.611 1008.81 2887.22zM1777.046 2715.685c0 0 9.244-118.382 62.427-171.565C1839.473 2654.288 1820.962 2715.685 1777.046 2715.685zM1620.37 2617.555c0 0 116.615 106.958 173.597 114.181C1714.513 2766.247 1620.37 2675.125 1620.37 2617.555zM1611.943 2827.027c0 0 64.849-63.99 159.552-59.978C1701.243 2737.728 1616.116 2745.751 1611.943 2827.027zM2335.983 2719.686c-.063-1.937-.224-3.844-.385-5.728-.122-1.884-.303-3.742-.539-5.575-.258-1.833-.513-3.64-.764-5.422-.266-1.782-.58-3.54-.936-5.272-2.696-13.817-6.712-26.215-10.027-35.494-1.746-4.637-3.159-8.422-4.291-11.071-1.115-2.647-1.85-4.129-1.85-4.129s-.782.542-2.147 1.742c-1.366 1.201-3.316 3.063-5.659 5.734-2.308 2.677-4.868 6.191-7.614 10.666-1.295 2.248-2.622 4.738-3.954 7.486-.684 1.373-1.314 2.814-1.914 4.325-.611 1.509-1.218 3.085-1.817 4.728-2.379 6.572-4.319 14.255-5.569 23.059-1.111 8.794-1.642 18.728-.62 29.62.958 10.886 3.201 22.758 7.342 35.207 4.161 12.431 10.221 25.44 18.611 38.282 5.941-12.975 10.437-24.379 13.843-34.811.815-2.596 1.678-5.161 2.36-7.64.351-1.242.676-2.468.978-3.679.315-1.215.628-2.419.938-3.613.591-2.382 1.079-4.707 1.49-6.983.484-2.291.877-4.531 1.183-6.726.275-2.19.578-4.354.804-6.479.231-2.125.324-4.204.442-6.26C2336.19 2727.534 2336.053 2723.566 2335.983 2719.686zM2472.56 2742.576c-2.797-.572-5.535-.928-8.269-1.23-2.731-.297-5.432-.476-8.071-.483-2.647-.027-5.265.041-7.84.208-2.555.214-5.073.519-7.549.905-2.485.367-4.894.887-7.256 1.483-2.36.599-4.691 1.236-6.941 1.999-4.48 1.566-8.803 3.307-12.799 5.429-2.007 1.044-3.971 2.115-5.857 3.257-1.874 1.166-3.69 2.369-5.45 3.6-3.542 2.421-6.732 5.156-9.748 7.833-11.982 10.91-19.576 23.183-23.976 32.49-2.247 4.618-3.658 8.607-4.574 11.358-.909 2.759-1.288 4.34-1.288 4.34s3.899.302 10.718-.529c3.421-.395 7.625-.993 12.417-2.041 4.856-.965 10.3-2.382 16.387-4.205 12.164-3.691 26.597-9.293 43.62-17.527 17.073-8.244 36.636-19.226 60.78-33.204C2495.324 2749.201 2483.709 2744.764 2472.56 2742.576zM2317.036 2842.63c-2.06-.553-5.172-1.266-9.422-1.881-.533-.072-1.082-.146-1.646-.223-.56-.042-1.136-.087-1.729-.132-1.188-.082-2.447-.15-3.779-.2-2.659-.089-5.627-.154-8.861-.028-3.194.223-6.683.565-10.467 1.063-.944.128-1.916.248-2.889.412-.964.195-1.945.394-2.943.596-1.999.42-4.069.886-6.212 1.403-8.553 2.094-18.004 5.515-28.183 10.494-10.025 5.181-20.921 11.774-31.525 20.923-10.658 9.046-21.34 20.271-30.907 34.046-9.517 13.78-17.917 30.119-23.739 48.69 3.769-1.662 7.375-3.307 10.824-4.942 1.744-.807 3.366-1.66 5.101-2.423 1.717-.774 3.397-1.547 5.039-2.321s3.247-1.548 4.816-2.325c.778-.39 1.554-.778 2.326-1.166.771-.386 1.583-.74 2.36-1.112 3.13-1.474 6.12-2.958 8.977-4.462 1.401-.772 2.89-1.462 4.314-2.181 1.428-.716 2.825-1.438 4.19-2.166s2.701-1.462 4.006-2.204c1.313-.735 2.688-1.405 3.984-2.122 2.619-1.413 5.111-2.867 7.52-4.336 2.511-1.38 4.915-2.794 7.223-4.245 1.167-.713 2.256-1.488 3.418-2.177 1.16-.692 2.296-1.394 3.41-2.105 2.245-1.404 4.331-2.924 6.465-4.343 4.341-2.75 8.211-5.839 12.192-8.61 1.957-1.424 3.814-2.932 5.671-4.387 1.901-1.395 3.74-2.824 5.523-4.283.891-.73 1.769-1.467 2.633-2.211.889-.706 1.771-1.407 2.647-2.103 1.744-1.407 3.437-2.839 5.081-4.292.41-.366.818-.73 1.224-1.093.418-.342.835-.684 1.25-1.023.824-.694 1.64-1.382 2.449-2.063 1.609-1.384 3.172-2.784 4.691-4.192 3.11-2.669 6.089-5.286 8.868-7.941 2.837-2.519 5.545-4.918 8.04-7.311.627-.588 1.233-1.199 1.845-1.755.616-.549 1.22-1.088 1.812-1.616 1.184-1.067 2.316-2.112 3.396-3.126 4.284-4.165 7.88-7.342 10.313-9.757 2.443-2.385 3.763-3.819 3.763-3.819S2319.095 2843.184 2317.036 2842.63zM2473.211 2885.355c-7.524-9.869-16.051-18.009-25.099-24.38-18.076-12.881-37.958-19.015-55.725-21.221-17.819-2.215-33.575-.439-44.674 1.887-5.55 1.119-9.979 2.453-13.005 3.427-3.027.983-4.667 1.657-4.667 1.657s2.599 3.278 8.409 8.196c2.9 2.476 6.582 5.431 11.129 8.587 4.529 3.235 9.925 6.67 16.217 10.318 12.606 7.267 28.82 15.069 49.449 22.909 20.661 7.858 45.733 15.663 76.691 24.035C2487.145 2907.064 2480.717 2895.263 2473.211 2885.355zM2734.481 2586.907c-1.077-7.542-3.32-16.456-7.577-26.356-3.113 8.126-4.348 15.542-4.507 22.339-.144 6.784.779 12.957 2.095 18.308 1.313 5.342 2.985 9.861 4.342 13.079.69 1.606 1.277 2.884 1.714 3.758.435.875.705 1.346.705 1.346s.623-1.053 1.43-3.313c.787-2.259 1.753-5.736 2.268-10.571C2735.469 2600.665 2735.56 2594.462 2734.481 2586.907z"/><path fill="#93c74b" d="M2911.452,2464.908c0,0,10.956-75.11,53.227-83.797c30.146,84.87,0.481,120.68,0.481,120.68
			s57.469-12.391,79.576,12.496c-21.291,33.519-93.373,29.011-93.373,29.011s-43.034-17.21-52.329,10.754
			c-16.922-33.773-4.193-46.457-4.193-46.457s-69.265-17.104-89.705-12.904C2840.523,2446.441,2911.452,2464.908,2911.452,2464.908z
			"/><path fill="#bcd845" d="M2942.205,2449.313c-5.518,6.729-9.029,13.376-11.323,19.777
			c-2.277,6.393-3.348,12.541-3.787,18.034c-0.44,5.484-0.278,10.3-0.006,13.781c0.148,1.742,0.303,3.139,0.441,4.107
			c0.136,0.967,0.244,1.499,0.244,1.499s0.924-0.803,2.403-2.693c1.459-1.896,3.473-4.89,5.486-9.316
			c2.017-4.419,4.06-10.277,5.418-17.787C2942.439,2469.216,2943.121,2460.05,2942.205,2449.313z"/><path fill="#93c74b" d="M2775.422,2379.849c0,0,7.924-54.324,38.497-60.607c21.803,61.383,0.348,87.282,0.348,87.282
			s41.565-8.962,57.554,9.038c-15.399,24.243-67.533,20.982-67.533,20.982s-31.125-12.448-37.848,7.778
			c-12.239-24.427-3.032-33.601-3.032-33.601s-50.097-12.37-64.88-9.333C2724.122,2366.493,2775.422,2379.849,2775.422,2379.849z"/><path fill="#bcd845" d="M2803.402 2353.298c-5.518 6.729-9.028 13.377-11.323 19.777-2.277 6.393-3.348 12.541-3.787 18.034-.44 5.483-.278 10.3-.005 13.781.148 1.742.302 3.139.441 4.107.136.967.244 1.499.244 1.499s.923-.802 2.402-2.693c1.459-1.896 3.473-4.89 5.487-9.316 2.017-4.42 4.059-10.277 5.417-17.787C2803.635 2373.202 2804.318 2364.036 2803.402 2353.298zM2351.125 2383.022c-1.527 1.767-3.108 3.559-4.466 5.493-.691.959-1.425 1.909-2.069 2.901-.647 1.009-1.288 2.007-1.921 2.995-5.029 8.076-8.801 16.768-11.846 25.376-6.042 17.275-9.028 34.33-10.593 49.093-1.545 14.786-1.594 27.359-1.315 36.198.288 8.844.935 13.968.935 13.968s.85-2.685 2.288-8.395c1.447-5.709 3.458-14.45 6.007-26.531 2.582-12.071 5.573-27.529 9.863-46.427.552-2.357 1.086-4.78 1.701-7.237.297-1.231.597-2.477.901-3.738.321-1.253.646-2.521.974-3.803.625-2.578 1.391-5.159 2.089-7.834.794-2.63 1.515-5.364 2.414-8.075 1.699-5.471 3.662-11.091 6.126-16.665 2.464-5.552 5.408-11.159 9.418-15.881C2357.863 2376.507 2354.323 2379.59 2351.125 2383.022zM2304.509 2501.966c-.164-6.979-1.369-13.913-3.444-20.421-2.07-6.512-5.001-12.588-8.442-17.967-3.44-5.386-7.382-10.074-11.417-13.996-8.093-7.876-16.449-12.606-22.498-15.2-6.085-2.614-9.899-3.186-9.899-3.186s1.571 1.396 4.672 4.312c3.084 2.93 7.741 7.352 13.472 13.868 5.704 6.527 12.501 15.162 19.006 26.985 6.532 11.793 12.48 26.99 15.977 46.286C2303.812 2515.959 2304.68 2508.945 2304.509 2501.966zM2281.799 2528.12c-4.742-4.717-10.242-8.592-15.93-11.651-11.427-6.138-23.462-9.036-33.832-10.199-10.414-1.164-19.273-.63-25.433.151-6.172.787-9.672 1.824-9.672 1.824s1.9.64 5.85 1.718c3.948 1.094 9.956 2.596 18.135 4.654 8.167 2.088 18.547 4.638 30.952 8.696 6.183 2.073 12.857 4.559 19.853 7.841 3.471 1.682 7.035 3.539 10.609 5.707 3.544 2.201 7.116 4.678 10.619 7.56C2290.496 2538.389 2286.536 2532.822 2281.799 2528.12zM2279.831 2547.177c-3.926.104-9.791.832-17.194 3.736-3.693 1.459-7.765 3.474-12.055 6.331-4.282 2.86-8.8 6.566-13.167 11.488-4.364 4.888-8.531 11.156-11.552 18.868-1.435 3.899-2.598 8.121-3.158 12.642-.521 4.528-.474 9.288.28 14.045 5.088-6.322 10.074-10.94 14.542-14.717 4.484-3.775 8.481-6.815 12.11-9.817 3.63-2.982 6.919-5.903 9.983-8.904 3.064-2.99 5.897-6.041 8.511-9.072 5.216-6.052 9.586-12.028 12.702-16.561 3.109-4.524 4.946-7.583 4.946-7.583S2283.764 2547.081 2279.831 2547.177zM2365.219 2567.218c-2.108-6.009-5.475-11.248-9.321-15.488-3.856-4.254-8.19-7.54-12.483-10.006-8.628-4.943-16.992-6.634-22.922-7.104-5.965-.468-9.582.261-9.582.261s1.056 1.843 3.333 4.966c2.267 3.135 5.785 7.53 10.472 12.957 2.36 2.711 4.952 5.688 7.802 8.962 2.823 3.277 5.902 6.816 8.959 10.79.739 1.006 1.568 1.994 2.298 3.059.384.521.773 1.05 1.167 1.584.37.542.745 1.091 1.124 1.647.194.275.39.552.586.831.179.285.359.572.541.86.375.572.753 1.151 1.137 1.738.353.598.709 1.202 1.07 1.815.186.305.374.611.562.92.167.316.336.633.505.953 1.471 2.527 2.69 5.289 3.938 8.276 1.204 3.001 2.166 6.283 3.05 9.889 5.067-4.787 8.289-11.038 9.475-17.599C2368.132 2579.966 2367.332 2573.201 2365.219 2567.218zM1177.656 3016.847c-1.445-.833-3.804-1.849-7.175-2.347-3.355-.499-7.759-.444-12.805.924-5.036 1.345-10.695 4.017-16.181 8.244-5.491 4.21-10.773 9.945-15.199 16.952-4.437 7.005-8.026 15.259-10.413 24.45-4.797 18.403-4.776 40.477 1.598 64.603 5.137-4.017 9.624-7.9 13.747-11.683 4.152-3.777 7.71-7.453 11.02-11.001 6.449-7.125 11.437-13.762 15.152-19.996 7.464-12.485 10.347-23.101 11.873-32.474.775-4.684 1.233-9.076 1.829-13.258.601-4.131 1.389-8.059 2.526-11.532 1.121-3.438 2.588-6.348 3.845-8.343.617-.978 1.199-1.768 1.606-2.274.409-.519.641-.779.641-.779S1179.096 3017.69 1177.656 3016.847zM1337.364 3038.41c-1.881-6.787-4.818-13.352-8.659-19.367-3.835-6.016-8.56-11.484-13.87-16.103-5.301-4.634-11.139-8.457-17.132-11.434-12.025-5.998-24.494-8.464-35.65-8.835-11.21-.365-21.225 1.356-29.69 3.86-8.481 2.516-15.456 5.827-20.946 9.013-5.494 3.192-9.512 6.273-12.154 8.526-2.643 2.256-3.92 3.689-3.92 3.689s1.041.379 3.041 1.027c1.999.647 4.964 1.557 8.821 2.664 7.686 2.25 19.058 5.096 32.887 9.217 6.891 2.089 14.373 4.526 22.005 7.697 3.812 1.593 7.654 3.368 11.481 5.373 3.821 2.02 7.595 4.308 11.356 6.895 7.447 5.269 14.831 11.836 21.98 21.326 7.198 9.399 13.984 21.837 20.106 37.114 7.97-12.34 12.527-26.005 12.876-39.92C1340.089 3052.201 1339.251 3045.199 1337.364 3038.41z"/><path fill="#bcd845" d="M1205.991,3025.782c-0.952-5.014-2.108-9.859-3.177-14.525c-1.072-4.654-2.051-9.124-2.774-13.082
			c-0.724-3.946-1.21-7.375-1.488-9.823c-0.279-2.45-0.363-3.899-0.363-3.899s-0.872-0.008-2.504,0.353
			c-1.626,0.359-4.011,1.083-6.912,2.552c-2.892,1.468-6.306,3.685-9.853,6.996c-3.54,3.305-7.211,7.715-10.438,13.408
			c-3.23,5.682-5.971,12.658-7.588,20.763c-1.62,8.093-2.089,17.306-0.884,27.125c1.194,9.815,4.063,20.216,8.845,30.564
			c4.774,10.352,11.449,20.641,20.053,30.327c5.251-12.094,9.095-22.529,11.975-31.743c2.915-9.221,4.772-17.16,5.852-24.211
			C1208.902,3046.505,1207.904,3035.865,1205.991,3025.782z"/><g><path fill="#bcd845" d="M4867.274 1115.986c-.477-31.867-5.088-69.478-9.43-89.62-48.048 73.438-55.669 194.909-15.807 278.204C4854.339 1242.05 4870.118 1179.113 4867.274 1115.986zM4224.051 1701.814c11.677-37.441-29.077-62.723-59.702-48.98 1.337 28.198 22.974 55.279 44.889 73.541C4215.891 1719.461 4221.5 1710.784 4224.051 1701.814z"/><path fill="#bcd845" d="M4247.86 1649.713c-2.264-12-11.997-29.464-16.811-36.061-12.264 5.288-25.221 23.326-28.656 39.544 27.592 11.186 29.759 48.311 10.758 68.712.536.951 1.077 1.901 1.623 2.851C4232.698 1703.036 4255.369 1679.543 4247.86 1649.713zM4426.863 1554.758c-39.607-31.6-97.813 1.466-106.694 43.441 38.436 5.287 83.491-16.296 124.445-15.072C4442.029 1571.246 4435.306 1561.469 4426.863 1554.758z"/><path fill="#52a756" d="M4441.013 1597.886c0 6.019-136.036-27.689-136.036-80.659 95.105-45.747 142.056-18.058 142.056-18.058s65.008 4.815 65.008 50.562S4441.013 1597.886 4441.013 1597.886zM4549.361 1530.47c0 0 80.659-99.92 57.785-158.91C4542.138 1389.619 4484.353 1465.462 4549.361 1530.47z"/><path fill="#93c74b" d="M4468.702,1553.343c0,0-127.609-114.367-79.455-217.899c131.221,0,168.54,89.333,168.54,155.421
			C4527.691,1554.547,4468.702,1553.343,4468.702,1553.343z"/><path fill="#52a756" d="M4750.405,1400.453c0,0-121.991-22.472-121.991-96.309c149.279,0,184.592,67.416,184.592,67.416
			l-36.033,16.631L4750.405,1400.453z"/><path fill="#52a756" d="M4665.333,1230.308c-16.947-74.142,139.648,73.837,139.648,73.837s-25.683,36.918-25.683,48.154
			C4779.298,1363.535,4678.174,1286.488,4665.333,1230.308z"/><path fill="#93c74b" d="M4857.37,1238.941c-4.245,36.252-7.408,72.808-8.466,109.059l-88.603,4.301
			c0,0-24.216-117.176,22.336-210.271C4817.358,1176.75,4841.113,1209.872,4857.37,1238.941z"/><path fill="#dad8d9" d="M4869.364,1539.324l-684.281,311.9l-81.645,37.209l-253.515,115.555v-77.052l1002.654-637.795
			c-3.67,42.646-5.257,85.338-3.073,127.106c1.441,27.898,4.56,55.38,9.851,82.152
			C4862.091,1512.247,4865.401,1525.903,4869.364,1539.324z"/><path fill="#e5dfe1" d="M4869.364,1539.324c2.837,9.637,6.012,19.15,9.547,28.529l-683.875,291.151l-64.488,27.448
			l-27.11,1.982l-130.202,9.525c0,0,583.586-326.086,876.268-481.71c1.441,27.898,4.56,55.38,9.851,82.152
			C4862.091,1512.247,4865.401,1525.903,4869.364,1539.324z"/><path fill="#b9b8b8" d="M4552.684,1575.325l293.806-157.473c0,0,5.073,13.688,5.073,26.543
			c-45.12,26.05-92.197,39.667-106.534,54.005c-14.337,14.337-145.187,65.391-187.241,89.67
			c-42.054,24.28-131.714,63.403-131.714,63.403L4552.684,1575.325z"/><path fill="#cec9ca" d="M4886.77,1587.115c-7.172,3.794-14.163,7.633-20.794,11.461
			c-59.106,34.124-662.124,267.317-662.124,267.317l-8.815-6.89l-9.953-7.779l-14.939-11.686c0,0,62.788-37.243,79.461-53.916
			c16.663-16.674,159.046-61.482,181.372-83.807c22.325-22.325,165.452-38.087,197.437-70.072
			c31.985-31.985,131.205-75.757,207.592-119.856c9.412-5.438,17.079-9.863,23.35-13.488c2.736,13.848,6.046,27.504,10.009,40.924
			c2.837,9.637,6.012,19.15,9.547,28.529C4881.354,1574.337,4883.966,1580.766,4886.77,1587.115z"/><path fill="#bcd845" d="M4528.773 1371.213c-30.567-43.068-94.025-56.527-139.511-36.251 49.114 31.764 122.153 60.354 148.213 120.425C4551.079 1428.316 4546.212 1394.988 4528.773 1371.213zM4792.777 1142.307c-58.464 22.569-71.969 112.742-32.134 160.931 9.075-31.888 21.754-56.107 27.9-86.08C4793.323 1194.996 4793.526 1160.708 4792.777 1142.307zM4729.835 1308.247c-8.537-37.034-52.492-53.336-83.259-46.427 6.437 39.272 48.292 68.414 84.469 85.2C4733.937 1332.33 4733.192 1320.633 4729.835 1308.247zM4631.56 1406.816c-41.888-17.37-86.606 32.254-72.245 74.912 45.981-33.019 53.109-13.032 79.611-70.556C4637.353 1409.778 4634.686 1408.141 4631.56 1406.816z"/><path fill="#52a756" d="M4455.3,1522.66c-6.981,9.517-32.207,40.931-10.686,81.863
			c55.497-32.041,59.329-93.612,59.329-93.612S4465.523,1508.723,4455.3,1522.66z"/><path fill="#bcd845" d="M4702.091,1371.561c0,0-39.211,24.473-12.382,70.932c38.941-38.941,64.296-90.648,64.296-90.648
			S4711.893,1361.759,4702.091,1371.561z"/><path fill="#766563" d="M4649.716,1666.41l0.678,757.207c0,0-8.455,1.79-20.602,2.61v-759.02
			C4636.571,1664.764,4643.225,1669.672,4649.716,1666.41z"/><path fill="#a8908e" d="M4629.792,1667.206v759.02c-22.313,1.506-57.094-0.262-74.896-22.43v-720.294
			C4576.938,1667.911,4601.263,1656.5,4629.792,1667.206z"/></g><g><path fill="#696969" d="M4711.237,3085.406c-45.045,14.917-90.652,25.871-136.169,32.345
			c-69.126-77.367-154.036-172.297-158.292-176.541l16.054-94.491c0,0,109.543,72.943,116.253,76.815
			C4554.42,2926.607,4665.664,3039.18,4711.237,3085.406z"/><path fill="#e5dfe1" d="M3884.698,2162.01l57.917,204.34l730.639,730.639c224.391-30.981,432.183-200.387,561.462-387.344
			L4103.956,2162.01H3884.698z"/><ellipse cx="4826.613" cy="2823.078" fill="#474546" rx="125.218" ry="60.193"/><ellipse cx="4629.634" cy="2514.214" fill="#474546" rx="101.178" ry="48.637"/><path fill="#93c74b" d="M4546.875,2857.738c77.253,14.678,155.744,29.423,234.036,22.096
			c16.556-1.549,35.546-5.821,42.901-20.734c7.691-15.596-1.726-34.18-12.938-47.473c-32.21-38.188-90.625-71.012-140.426-53.376
			c-25.641,9.08-49.685,22.664-70.832,39.76C4593.333,2803.092,4547.28,2857.815,4546.875,2857.738z"/><path fill="#93c74b" d="M4700.812,2774.269c-34.613-61.85-62.575-127.419-83.25-195.214
			c80.988,31.093,147.47,97.991,178.058,179.171c4.64,12.316,8.373,26.581,2.165,38.186c-5.644,10.549-18.328,15.769-30.292,15.836
			C4739.924,2812.402,4714.059,2797.941,4700.812,2774.269z"/><path fill="#93c74b" d="M4736.189,2698.002c-10.413-39.515-6.45-82.655,10.988-119.612c1.92-4.069,4.755-8.596,9.243-8.916
			c3.278-0.234,6.189,1.931,8.744,4c26.956,21.827,52.391,45.534,76.058,70.89c20.442,21.902,39.917,45.623,50.441,73.673
			c18.365,48.947-5.528,129.567-71.909,117.636c-23.578-4.238-32.894-28.244-42.648-47.217
			C4761.99,2759.051,4744.683,2730.236,4736.189,2698.002z"/><path fill="#93c74b" d="M5012.883,2791.797c-38.176-32.231-97.195-36.902-139.966-11.077l-23.151,19.511
			c36.977,43.806,104.017,59.005,156.27,35.428c9.113-4.112,18.754-10.703,19.794-20.646
			C5026.791,2805.827,5019.939,2797.754,5012.883,2791.797z"/><path fill="#93c74b" d="M4933.289 2536.105c18.417 40.312 30.854 83.349 36.778 127.271 4.572 33.894-6.378 135.515-66.331 107.857-48.887-22.553-25.954-103.085-14.417-139.898C4899.804 2597.879 4914.569 2565.756 4933.289 2536.105zM4557.23 2334.451c.543-2.28 1.316-4.798 3.372-5.924 2.966-1.624 6.509.603 9.104 2.771 36.045 30.113 63.881 69.956 79.757 114.16 4.965 13.824 8.795 28.912 4.911 43.079-3.555 12.968-19.369 28.597-34.138 25.206-12.938-2.97-25.722-22.589-32.973-32.713-19.315-26.967-31.158-59.261-33.947-92.309C4551.786 2370.575 4553.008 2352.178 4557.23 2334.451z"/><path fill="#93c74b" d="M4650.361 2424.45c6.354-19.908 18.048-38.747 35.587-50.108 7.354-4.763 16.087-8.195 24.759-6.945 11.364 1.638 20.119 10.83 26.43 20.422 15.447 23.481 21.712 53.82 12.718 80.448-8.994 26.628-34.727 47.872-62.833 47.803-18.071-.044-37.959-11.692-43.686-29.72C4637.673 2468.521 4644.956 2441.387 4650.361 2424.45zM4560.111 2442.004c-21.566-8.09-46.153-7.808-67.527.776 8.24 16.336 17.089 32.538 28.898 46.513 11.809 13.975 26.853 25.716 44.364 31.015 12.852 3.889 20.767.411 28.547-9.955 5.462-7.278 11.765-15.894 11.16-25.49C4604.274 2464.553 4576.887 2448.298 4560.111 2442.004z"/><path fill="#bcd845" d="M4809.234 2786.712c0 0 1.204-123.98-45.747-207.657C4716.537 2495.378 4901.932 2660.307 4809.234 2786.712zM4881.014 2695.653c0 0-1.842-85.114 52.275-159.548-16.911 165.134-40.724 227.983-40.724 227.983S4901.027 2724.396 4881.014 2695.653zM4776.614 2810.297c-2.807-2.705-5.688-5.409-8.725-7.872-3.08-2.365-6.254-4.641-9.5-6.822-3.311-2.011-6.711-3.892-10.156-5.695-3.48-1.694-7.067-3.134-10.658-4.562-14.479-5.331-29.891-7.444-44.462-6.678-14.595.766-28.265 4.336-39.98 9.413-11.751 5.076-21.579 11.605-29.415 18.278-7.853 6.685-13.75 13.509-18.068 19.496-4.322 5.996-7.082 11.163-8.76 14.79-1.68 3.632-2.292 5.735-2.292 5.735s1.178-.312 3.512-.93c2.265-.622 5.649-1.552 10.159-2.791 4.438-1.234 9.908-2.762 16.38-4.433 6.468-1.672 13.921-3.511 22.341-5.247 8.424-1.719 17.795-3.385 28.187-4.45 10.399-1.047 21.785-1.547 34.388-.961.789.023 1.581.047 2.379.071.798.071 1.601.143 2.408.215 1.615.138 3.25.262 4.907.372.829.031 1.661.154 2.499.263.838.103 1.681.207 2.528.311 1.696.221 3.423.343 5.161.607 6.947 1.111 14.283 2.28 21.949 4.219 15.361 3.658 32.252 9.172 50.645 17.038C4796.383 2835.191 4787.694 2821.453 4776.614 2810.297zM4647.16 2409.195c-1.942-9.76-6.278-18.719-11.85-26.036-5.571-7.348-12.325-13.071-19.163-17.201-6.852-4.146-13.785-6.738-20.111-8.241-6.34-1.502-12.082-1.938-16.839-1.864-4.762.074-8.546.655-11.12 1.207-2.576.553-3.953 1.074-3.953 1.074s.457.738 1.35 2.069c.892 1.338 2.223 3.276 3.978 5.701 3.494 4.874 8.719 11.675 15.115 19.95 3.19 4.148 6.655 8.681 10.265 13.643 3.592 4.981 7.408 10.323 11.119 16.424 3.714 6.105 7.552 12.845 11.157 20.956 3.556 8.122 6.983 17.613 9.853 29.025 8.81-7.562 14.998-16.77 18.335-26.635C4648.657 2429.411 4649.126 2418.938 4647.16 2409.195zM4724.688 2394.46c-3.217-7.616-6.523-11.821-6.523-11.821s-2.427 2.046-6.028 6.156c-3.611 4.11-8.378 10.299-13.387 18.571-5.04 8.265-10.231 18.642-15.64 30.887-2.704 6.144-5.584 12.635-8.797 19.578-1.672 3.397-3.377 6.989-5.385 10.563-2.014 3.564-4.241 7.23-6.926 10.958 9.903 3.804 20.32 3.462 29.257.644 8.994-2.818 16.562-7.995 22.341-14.001 5.804-6.029 9.882-12.9 12.541-19.758 2.663-6.874 3.926-13.756 4.244-20.197C4731.015 2413.117 4727.896 2402.043 4724.688 2394.46zM4616.274 2502.823c-.913-.854-2.325-2.023-4.297-3.235-3.924-2.388-10.166-5.08-18.872-5.157-4.337-.021-9.287.645-14.635 2.547-5.327 1.899-11.087 5.07-16.518 10.013-5.427 4.896-10.372 11.771-13.54 20.008-3.156 8.239-4.238 17.785-2.864 27.153 9.706-4.621 17.784-7.722 24.332-9.842 6.56-2.131 11.551-3.323 15.421-4.51 3.879-1.172 6.69-2.396 9.117-4.12 2.414-1.705 4.485-3.856 6.495-6.359 3.964-4.981 7.877-11.269 11.116-16.303 3.271-5.163 5.571-8.791 5.571-8.791S4617.189 2503.68 4616.274 2502.823zM4704.687 2529.987c-.648-7.139-3.523-14.014-7.965-19.583-4.417-5.591-10.341-9.768-16.354-12.116-6.026-2.39-12.059-2.995-17.189-2.477-5.154.5-9.437 2.028-12.717 3.743-3.29 1.721-5.606 3.627-7.086 5.063-.742.723-1.276 1.327-1.625 1.75-.35.427-.522.669-.522.669s2 2.073 4.973 5.347c2.959 3.267 6.875 7.782 10.189 12.695 1.674 2.457 3.178 4.973 4.658 7.52 1.5 2.542 2.962 5.206 4.84 8.359 1.863 3.163 4.127 6.919 6.823 11.788 2.698 4.854 5.772 10.82 9.258 18.016 8.288-5.732 14.423-12.313 18.148-19.274C4703.857 2544.53 4705.356 2537.136 4704.687 2529.987z"/></g><g><path fill="#493862" d="M3823.433 1613.536l-39.663 163.725c-21.733 61.397-14.108 143.259-14.108 143.259h104.334l68.62-185.394L3823.433 1613.536zM4164.126 1653.264c-14.68-47.561-25.912-87.664-33.578-123.685h-57.576c-.85 3.098-1.89 6.362-3.148 9.812-5.577 15.287-9.993 34.936-9.993 34.936s-42.123 101.972-27.728 143.857c11.933 34.722 44.624 58.467 51.096 62.203 14.28 8.244 166.401 47.437 166.401 47.437S4194.222 1750.776 4164.126 1653.264z"/><path fill="#fe4775" d="M4478.329,2951.026c0,0-140.211,87.961-318.746,172.748
			c-121.173,23.091-234.353,74.361-346.486,130.946c-9.851,2.466-19.623,4.773-29.328,6.901
			c-73.37-365.974-34.98-874.006-73.787-1128.646c-38.807-254.629,114.25-287.132,114.25-287.132s209.481-110.59,356.346-53.555
			c26.164,10.16,49.759,19.771,95.406,41.401c93.704,115.306,125.304,368.975,125.304,515.401
			C4401.289,2527.263,4478.329,2951.026,4478.329,2951.026z"/><path fill="#ea716e" d="M4089.084,1771.245c-71.265,118.775-215.09,46.542-215.09,46.542
			c20.254-40.226,20.13-93.568,0-159.801l169.145-44.448c-0.451,2.117-0.822,4.976-1.059,8.466
			c-0.811,11.754-0.135,30.623,3.896,52.261C4051.729,1705.136,4064.293,1741.669,4089.084,1771.245z"/><path fill="#b75856" d="M4042.053,1641.627c-12.949,40.52-54.377,58.069-81.498,62.944
			c-43.333,7.791-90.686-15.007-90.686-15.007l141.596-61.673C4010.655,1639.644,4038.023,1619.988,4042.053,1641.627z"/><path fill="#f8877f" d="M3757.221,1499.17c0,0,37.371,191.022,154.495,199.038c105.538,7.223,138.845-69.11,151.686-98.003
			c12.841-28.893,60.996-363.286-124.399-334.489C3753.61,1294.514,3757.221,1422.123,3757.221,1499.17z"/><path fill="#493862" d="M4118.379,1425.734c0-63.804-57.145-203.452-197.715-189.006
			c-140.569,14.446-120.651,125.339-78.783,156.461c0,0,24.328,27.73,78.783,48.195c54.456,20.466,97.795,6.231,111.037,39.939
			c19.129-6.788,54.735-0.801,41.271,48.255h57.576C4122.496,1491.747,4118.379,1458.418,4118.379,1425.734z"/><path fill="#fde81d" d="M2914.207,1571.448c0,0-102.015,59.255-219.994,339.754
				c-117.978,280.499-123.116,255.454-111.518,284.229c36.879,57.667,198.798,148.559,216.254,131.103
				c17.456-17.456,108.347-285.798,126.405-376.448S2914.207,1571.448,2914.207,1571.448z"/><path fill="#f87268" d="M2578.49,2190.497c0,0-83.027,146.299-83.027,200.759c0,54.459,214.22,50.76,241.631,23.35
				c27.411-27.411,59.447-61.182,59.447-102.316c0-19.959-36.632-96.952-89.487-121.792
				C2650.979,2164.143,2578.49,2190.497,2578.49,2190.497z"/><path fill="#fde81d" d="M3584.885,1614.198c0,0,91.677,81.603,130.201,254.958
				c38.523,173.356,48.154,504.016,48.154,504.016l-160.515-117.176L3584.885,1614.198z"/><path fill="#e6a038" d="M3073.27 1312.259c0 0-32.872-12.454-22.176 22.175 10.697 34.63 58.049 75.561 66.877 49.076C3126.8 1357.025 3073.27 1312.259 3073.27 1312.259zM3437.396 1251.888c0 0 24.077-5.377 20.064 43.861s-24.077 56.461-36.116 44.422C3409.306 1328.132 3437.396 1251.888 3437.396 1251.888z"/><path fill="#fde81d" d="M3211.873,1547.636c0,0-269.665-22.873-309.392,34.912s3.612,772.878,18.058,929.38
				s664.531,166.133,703.054,28.893s77.047-883.633-48.154-931.787C3450.237,1560.879,3211.873,1547.636,3211.873,1547.636z"/><path fill="#b6a715" d="M3171.986 1619.37c0 0 29.695 61.798 148.476 55.378C3251.44 1702.838 3171.986 1662.709 3171.986 1619.37zM2946.463 1777.477c0 0-65.811 109.953-55.378 244.785 10.434 133.227 10.434 133.227 10.434 133.227l5.744 173.234 76.118-29.574c0 0-52.134-72.831-52.134-115.469s13.61-89.187 13.61-89.187l-22.472 22.472c0 0 4.497-146.871 14.287-208.669C2946.463 1846.498 2946.463 1777.477 2946.463 1777.477zM3618.216 1839.542c0 0 35.959 130.7 40.05 165.137 15.327-3.284 29.774-17.73 29.774-17.73l9.631-85.073c0 0-30.811 20.064-30.811 42.536C3659.147 1875.391 3618.216 1839.542 3618.216 1839.542z"/><path fill="#ea716e" d="M3181.643,1452.531c0,0-5.885,86.143-3.745,104.334c28.358,53.505,81.327,80.257,140.183,74.372
				c58.855-5.885,76.512-70.091,76.512-70.091s-17.122-120.386-16.052-156.234
				C3310.589,1425.779,3181.643,1452.531,3181.643,1452.531z"/><path fill="#b75856" d="M3248.747,1488.647c0,0,38.3,21.504,83.779,5.268c45.479-16.236,49.561-33.927,49.561-33.927
				l-5.152-28.859C3376.935,1431.129,3292.31,1485.169,3248.747,1488.647z"/><path fill="#f8877f" d="M3052.963,1241.455c0,0,41.734,264.849,215.892,252.008
				c174.158-12.841,189.809-237.16,171.751-376.808S3020.459,1024.359,3052.963,1241.455z"/><path fill="#b3a939" d="M3353.927,1179.654c-84.066,0-326.491,79.168-332.165,81.026l-0.056,0.023
				c-0.034,0.011-0.045,0.011-0.045,0.011l0.011-0.011c0.45-1.239,29.418-80.699,29.418-137.228
				c0-56.978,5.652-86.869,49.221-98.713c1.396-0.383,2.916-0.799,4.571-1.25c50.054-13.668,215.293-59.005,259.876-33.268
				c46.058,26.592,93.771,119.743,110.624,154.655C3492.236,1179.812,3439.006,1179.654,3353.927,1179.654z"/><path fill="#867f2b" d="M3088.276,1110.641c10.437,76.241-8.826,126.803-8.826,126.803l-57.688,23.237l-0.056,0.023
				h-0.034c0.45-1.239,29.418-80.699,29.418-137.228c0-56.978,5.652-86.869,49.221-98.713c1.396-0.383,2.916-0.799,4.571-1.25
				C3094.108,1038.081,3082.062,1065.27,3088.276,1110.641z"/><path fill="#493862" d="M3111.551,1236.639c0,0-35.313,45.701-24.077,82.04c11.236,36.339,1.391,39.388,1.391,39.388
				s-24.265-38.524-36.303-60.714c-12.039-22.19-13.644-33.025-12.039-34.63S3107.538,1222.193,3111.551,1236.639z"/><path fill="#493f5a" d="M3804.136,3259.245c-10.189,5.178-20.378,10.38-30.566,15.615
				c-146.955,75.465-293.504,155.421-455.354,188.126c-120.791,24.408-241.817,25.511-362.653,14.456
				c-11.315-40.282-69.554-251.252-77.165-347.938c-8.421-107.145-21.661-255.215,8.432-343.097
				c30.094-87.883,16.854-149.274,16.854-223.917c0-74.643-5.618-233.768-5.618-233.768s20.063-11.821,74.237-80.441
				c54.175-68.619,126.408-369.588,133.625-498.394c7.228-128.818-7.217-214.291-7.217-214.291s20.062-5.212,48.152,0
				c8.624,8.624,10.831,162.525,10.831,216.7c0,54.164,15.649,231.133,109.554,231.133c93.906,0,132.42-60.187,132.42-189.005
				c0-128.807,18.058-235.952,18.058-235.952l43.344,7.216c0,0,4.819,232.349,63.801,349.12
				c58.994,116.771,142.057,87.871,142.057,87.871s9.637,103.543,9.637,234.77c0,131.216,39.719,388.84,49.357,517.657
				C3734.864,2874.672,3795.49,3183.026,3804.136,3259.245z"/><path fill="#332c3f" d="M3804.136,3259.246c-8.646-76.219-69.272-384.573-78.211-504.136
				c-9.637-128.818-49.357-386.442-49.357-517.658c0-41.552-0.967-80.321-2.287-113.913l-0.218-0.153c0,0-65.206,286.582,0,513.615
				c-13.31,261.67,19.982,343.533,45.471,447.065c13.899,56.457,23.845,139.403,30.016,203.162
				c8.007-4.13,16.013-8.255,24.021-12.367C3783.759,3269.625,3793.948,3264.424,3804.136,3259.246z"/><path fill="#fe4775" d="M3491.168,2596.198c0,0-28.893,49.046-11.236,106.029
				c17.657,56.983,101.629,101.838,163.427,86.589c61.798-15.249,103.83-72.143,103.83-72.143l22.472-300.162l-115.972-71.919
				l7.277,180.579C3591.378,2484.964,3544.545,2528.032,3491.168,2596.198z"/><path fill="#f8877f" d="M3305.774,2294.52l191.054,385.235c0,0,149.237,8.006,149.237-120.386
				c-83.468-97.914-170.145-216.695-170.145-216.695L3305.774,2294.52z"/><path fill="#fff" d="M3076.537,1903.854l202.455,489.274c4.248,10.267,14.264,16.962,25.375,16.962h335.009
				c18.831,0,32.075-18.522,25.987-36.341l-162.47-475.487c-3.678-10.764-13.611-18.146-24.978-18.564l-374.994-13.787
				C3082.933,1865.177,3068.889,1885.373,3076.537,1903.854z"/><path fill="#bca4a2" d="M3060.485,1929.287l202.455,489.274c4.248,10.267,14.264,16.962,25.375,16.962h335.009
				c18.831,0,32.075-18.521,25.987-36.341l-162.47-475.487c-3.678-10.764-13.611-18.146-24.978-18.564l-374.994-13.786
				C3066.881,1890.61,3052.838,1910.806,3060.485,1929.287z"/><path fill="#7b6c6a" d="M3060.485 1929.287l43.995 106.323 0 0 0 0 2.162 5.225c4.427 4.935 17.879 6.418 58.655-34.358 59.39-59.39-40.877-113.751-40.879-113.753l-37.548-1.38C3066.881 1890.61 3052.838 1910.806 3060.485 1929.287zM3481.511 2238.706c0 0-6.956 12.714 3.21 30.158-20.76 20.76 25.017 78.544 63.006 109.576 37.989 31.033 68.314 56.571 80.914 56.571 12.599 0 16.847-8.405 14.723-19.164C3641.24 2405.089 3481.511 2238.706 3481.511 2238.706z"/><path fill="#f8877f" d="M2593.063,2208.987c0,0-142.832,156.873-91.467,290.1
				c51.365,133.227,210.274-16.051,231.141-73.837c20.867-57.785,208.669-383.63,208.669-383.63s104.334-57.785,152.489-46.549
				c48.155,11.236,75.442,19.262,75.442,19.262s32.103-35.313,16.052-51.365c-16.052-16.052-60.242-72.47-99.142-72.47
				c0-26.672,91.183-44.706,91.183-44.706s7.034-20.39-28.926-28.926c-35.959-8.536-150.709,7.243-191.045,30.531
				c-40.336,23.288-93.099,118.781-131.622,157.304C2787.312,2043.225,2624.578,2168.599,2593.063,2208.987z"/><path fill="#493862" d="M3097.975,1246.324c0,0,60.153-45.318,105.471,0s135.823,53.317,173.356,31.647
				c37.533-21.67,61.731-20.133,89.253-20.133s68.1-61.611,39.19-67.696c-28.91-6.085-57.415-37.774-126.436-31.353
				c-69.021,6.421-193.019,18.86-209.472,35.313C3152.884,1210.556,3091.616,1239.965,3097.975,1246.324z"/><path fill="#ddda47" d="M2983.942,1318.502c0,0-33.708-16.052-8.828-40.931c24.88-24.88,111.558-52.97,156.502-87.48
				c44.944-34.511,174.158-58.588,231.944-53.772c57.785,4.815,117.978,13.644,144.463,4.815
				c26.485-8.828,56.18,22.472,44.944,44.141c-11.236,21.67-58.374-1.605-82.665-1.605s-151.717-18.382-184.291,0.425
				c-32.574,18.807-112.048,20.026-151.987,43.085s-112.36,52.799-112.36,73.666S2983.942,1318.502,2983.942,1318.502z"/><path fill="#6c6b18" d="M3044.078,1276.147c0,0-53.983,26.659-43.282,42.533c40.931-3.12,56.814-12.291,56.814-12.291
				S3041.345,1282.214,3044.078,1276.147z"/><path fill="#1f1f1f" d="M3015.242,2863.661c0,0,96.309-16.972,139.648-143.778l39.059,5.529
				c0,0-26.705,150.59-176.232,176.232C2995.178,2868.27,3015.242,2863.661,3015.242,2863.661z"/><path fill="#332c3f" d="M2989.801,3134.407c-51.364-211.297,0-387.422-35.313-700.325
				c25.737-98.925,41.916-191.776,50.541-248.437c-11.183,27.572-22.289,49.419-32.725,62.637
				c-54.175,68.619-74.237,80.441-74.237,80.441s5.618,159.125,5.618,233.768c0,74.643,13.24,136.034-16.854,223.917
				c-30.093,87.883-16.854,235.952-8.432,343.097c7.611,96.686,65.85,307.656,77.165,347.938
				c69.189,6.331,138.442,8.662,207.677,4.928C3095.692,3381.209,3017.129,3246.823,2989.801,3134.407z"/><path fill="#493862" d="M3719.902,1471.882c0,0,25.991,52.881,48.463,52.881c14.446-70.626,72.725-66.524,78.343-94.614
			c5.618-28.09-8.828-42.536-8.828-42.536S3711.876,1418.912,3719.902,1471.882z"/><path fill="#b3a939" d="M3700.207,1364.366c0,0,34.141-175.792,186.63-190.239
			c152.489-14.446,238.534,129.11,238.534,192.967C4118.379,1425.734,3700.207,1364.366,3700.207,1364.366z"/><path fill="#fe4775" d="M3752.54,1886.456c0,0-117.441,42.706-108.712,246.26c8.729,203.553,17.138,364.453,17.138,364.453
			l108.695-9.983v-412.572L3752.54,1886.456z"/><path fill="#a22e4b" d="M3737.95,2260.183c0,0-14.303-56.443-10.557-99.782c3.745-43.339,26.752-96.844,26.752-96.844
			S3773.119,2246.535,3737.95,2260.183z"/><path fill="#023240" d="M4478.329,2898.056c-26.513-103.813-23.271-550.565-36.117-590.69
			c-12.834-40.136-269.659-30.499-293.741-136.439c-24.07-105.941,57.417-360.076,69.025-371.683
			c-36.466-13.172-50.197-18.857-50.197-18.857s-130.781,188.285-130.781,392.949c-81.87,13.24-197.437,33.708-197.437,33.708
			s-42.25-301.25-46.587-354.765c-19.625,9.748-37.795,21.086-55.806,34.021c3.681,72.293,14.75,300.046,9.693,330.369
			c-6.012,36.117-52.059,251.376-52.059,251.376s11.134,235.783,20.76,399.513c8.68,147.529,27.786,293.425,58.487,407.303
			c193.553-99.4,387.804-191.008,618.633-156.648c39.336,5.854,79.416,7.61,119.811,5.618
			C4507.736,3073.325,4497.423,2972.766,4478.329,2898.056z"/><path fill="#305763" d="M3822.735,2726.304c0,0,236.728,31.584,349.817-33.708
			c16.051,271.27,27.288,303.373-154.094,338.686S3822.735,2821.008,3822.735,2726.304z"/><path fill="#fe4775" d="M3810.997,2366.751c0,0-63.808,89.426-46.152,149.048
			c377.209,298.788,547.443,312.485,633.676,262.699c86.232-49.786,140.004-597.944,79.812-742.407
			s-215.062-208.268-215.062-208.268v328.654l-30.526,359.322C4232.746,2515.799,3870.793,2382,3810.997,2366.751z"/><path fill="#f8877f" d="M3792.133,2497.169c0,0-55.521-31.417-99.39-43.397s-165.459-102.23-188.332-139.57
			c-30.792-33.646-22.899-50.355-6.106-40.05c-34.516-48.628-22.1-55.721,19.757-34.238c-21.233-34.667-9.396-45.301,43.155-9.055
			c-11.569-20.045-14.299-34.678-6.805-32.434c27.204,8.147,70.193,56.04,70.193,56.04l-31.108-91.042
			c0,0,76.062,44.096,110.184,89.68c34.123,45.584,104.188,119.135,137.081,138.125
			C3868.45,2444.601,3792.133,2497.169,3792.133,2497.169z"/><path fill="#ddda47" d="M3725.221,1481.542c0,0-88.385,15.22-72.735-60.624s154.094-92.697,234.753-92.697
			c80.658,0,131.221,30.096,184.19,30.096c52.97,0,114.367,25.281,114.367,78.251s-63.629,44.973-63.629,44.973
			s-80.834-56.537-149.454-76.036C3904.092,1386.007,3836.614,1370.149,3725.221,1481.542z"/><path fill="#fff" d="M3972.712 1841.066c0 0 50.362 54.462 69.021 54.462 47.552-89.688 94.704-131.509 94.704-131.509l-61.366-35.43C4075.071 1728.589 3972.712 1807.358 3972.712 1841.066zM3873.996 1785.688c0 0 66.387 38.328 93.281 53.856-2.691 2.137-5.32 4.239-7.887 6.303-44.565 35.831-70.253 60.227-70.253 60.227s-74.929-43.255-78.14-66.53C3835.075 1781.492 3873.996 1785.688 3873.996 1785.688z"/><path fill="#ea716e" d="M3613.973 2223.35l7.967 23.315c0 0 57.306 63.562 56.493 47.855S3613.973 2223.35 3613.973 2223.35zM3012.835 1897.959l73.411-7.462c0 0 0 0 26.076-24.606C3099.451 1865.054 3012.835 1897.959 3012.835 1897.959zM3027.281 1950.086c0 0 43.78-12.869 78.652 7.264s76.177 39.528 76.177 39.528l3.015-5.549c0 0-67.768-48.135-89.531-51.691C3073.83 1936.082 3027.281 1950.086 3027.281 1950.086z"/><polygon fill="#ea716e" points="3006.013 1849.404 3124.418 1814.545 3097.086 1815.426"/><path fill="#cb395e" d="M3621.939 2519.953c0 0 51.413 23.542 41.782 78.117s-36.838 81.782-36.838 81.782 38.795-5.271 47.18-57.705S3673.716 2519.953 3621.939 2519.953zM3529.216 2763.036c0 0 71.503 6.919 96.784-18.362 0 34.511-69.38 33.523-69.38 33.523S3529.216 2775.279 3529.216 2763.036z"/><path fill="#a22e4b" d="M4232.746 2515.799c0 0 51.766 29.837 72.231 82.807-10.834-63.804-41.706-101.436-41.706-101.436l26.114-26.114h-37.378l-11.355-69.883L4232.746 2515.799zM4263.271 2136.323c0 0 59.223-48.918 84.728-48.918-61.481 4.776-68.705 17.617-68.705 17.617s0-36.918 0-56.983c-28.09 52.167-29.695 65.008-29.695 65.008v56.37L4263.271 2136.323z"/><path fill="#a22e4b" d="M4263.271,2136.323l-8.125,115.801c0,0-26.425-7.413-37.114-15.747
			C4241.574,2191.969,4263.271,2136.323,4263.271,2136.323z"/><g><ellipse cx="3189.656" cy="1321.025" fill="#493862" rx="21.268" ry="10.946"/><ellipse cx="3331.711" cy="1321.025" fill="#493862" rx="21.268" ry="10.946"/><path fill="#ea716e" d="M3255.97,1331.971c0,0,3.617,76.104,17.139,68.297c13.522-7.807,3.21-68.297,3.21-68.297H3255.97z
				"/><path fill="#fff" d="M3237.529,1417.389l77.888-2.14c0,0-7.454,35.848-41.869,35.848
				C3239.134,1451.097,3237.529,1417.389,3237.529,1417.389z"/><path fill="#493862" d="M3228.573 1284.619c-7.1-4.099-13.84-6.929-20.185-8.73-6.344-1.802-12.292-2.57-17.772-2.57-6.753-.001-12.782 1.166-17.98 2.92-7.803 2.633-13.732 6.556-17.744 9.838-4.014 3.287-6.13 5.946-6.326 6.194-1.921 2.444-1.497 5.983.948 7.904 2.438 1.916 5.963 1.497 7.887-.93l.002.001.003-.004c.126-.163 3.228-3.929 8.879-7.546 2.825-1.812 6.282-3.593 10.336-4.917 4.056-1.324 8.707-2.2 13.996-2.201 4.431.001 9.317.615 14.698 2.142 5.38 1.527 11.256 3.97 17.63 7.65 2.692 1.554 6.135.632 7.69-2.06C3232.188 1289.616 3231.265 1286.173 3228.573 1284.619zM3384.407 1285.627c-5.745-4.53-12.233-7.464-18.867-9.253-6.641-1.79-13.445-2.457-20.011-2.458-11.517.005-22.332 2.05-30.342 4.074-8.006 2.029-13.199 4.053-13.361 4.116-2.896 1.132-4.326 4.397-3.194 7.292 1.132 2.896 4.397 4.325 7.292 3.194l0 0 0 0c.148-.058 5.017-1.933 12.376-3.776 7.359-1.848 17.217-3.647 27.229-3.642 5.799-.002 11.639.6 17.078 2.069 5.445 1.471 10.471 3.788 14.83 7.224 2.441 1.925 5.981 1.506 7.906-.935C3387.267 1291.092 3386.849 1287.552 3384.407 1285.627z"/></g><path fill="#ea716e" d="M3873.165,1544.735c0,0-4.635,70.438,11.961,77.275s29.477-5.513,29.477-5.513L3873.165,1544.735z"/><path fill="#493862" d="M3951.609 1490.953c-10.247-4.851-19.383-6.797-27.312-6.794-5.944-.002-11.181 1.093-15.626 2.753-6.676 2.492-11.548 6.211-14.768 9.317-3.224 3.113-4.827 5.63-5.012 5.922-1.649 2.635-.85 6.109 1.786 7.758 2.625 1.643 6.08.854 7.737-1.756l.001.001c.034-.064 2.22-3.372 6.5-6.522 2.141-1.58 4.797-3.129 7.998-4.285 3.204-1.155 6.954-1.928 11.383-1.93 6.09.003 13.512 1.467 22.498 5.713 2.81 1.329 6.166.128 7.495-2.682C3955.62 1495.638 3954.419 1492.282 3951.609 1490.953zM3849.179 1513.655c-5.014-1.069-9.621-1.559-13.855-1.56-8.039-.008-14.743 1.796-20.089 4.616-4.011 2.109-7.245 4.762-9.798 7.518-3.833 4.14-6.156 8.485-7.557 11.825-1.398 3.344-1.878 5.704-1.935 5.987-.599 3.051 1.388 6.009 4.439 6.609 3.041.597 5.989-1.376 6.601-4.41l.001 0 .001-.005c.023-.113.348-1.571 1.192-3.627.632-1.543 1.555-3.421 2.84-5.335 1.933-2.879 4.644-5.816 8.479-8.055 3.845-2.232 8.854-3.852 15.825-3.864 3.364 0 7.181.389 11.506 1.312 3.04.648 6.031-1.291 6.679-4.331C3854.159 1517.294 3852.22 1514.303 3849.179 1513.655z"/><ellipse cx="3925.875" cy="1534.101" fill="#493862" rx="12.701" ry="16.587" transform="rotate(-84.197 3925.715 1534.082)"/><ellipse cx="3835.981" cy="1553.721" fill="#493862" rx="16.587" ry="12.701" transform="rotate(-16.947 3835.395 1553.562)"/><path fill="#fff" d="M3887.433,1644.067c0,0,30.254-6.938,51.687-24.415c9.486,23.569,6.845,37.865-4.183,41.511
			C3925,1664.448,3902.728,1668.327,3887.433,1644.067z"/><path fill="#f8877f" d="M4029.105,1482.791c0,0,21.297-37.178,48.183-16.311c26.886,20.867,19.262,94.704-13.644,91.493
			C4030.739,1554.763,4029.105,1482.791,4029.105,1482.791z"/><circle cx="3814.044" cy="1555.699" r="50.562" fill="none" stroke="#fff" stroke-miterlimit="10" stroke-width="6.755"/><circle cx="3924.556" cy="1524.763" r="50.562" fill="none" stroke="#fff" stroke-miterlimit="10" stroke-width="6.755"/><rect width="69.89" height="6.755" x="3969.102" y="1486.291" fill="#fff" transform="rotate(-26.272 4004.437 1489.881)"/><path fill="#fff" d="M3868.396,1513.157c-3.276-0.006-6.079,0.777-8.305,2.016c-1.672,0.925-3.012,2.086-4.061,3.28
			c-1.574,1.794-2.508,3.648-3.073,5.072c-0.563,1.426-0.758,2.435-0.788,2.598l6.644,1.223l0,0h0.001
			c0.028-0.129,0.169-0.717,0.487-1.487c0.476-1.164,1.348-2.694,2.724-3.851c0.691-0.584,1.507-1.091,2.531-1.469
			c1.025-0.376,2.268-0.626,3.841-0.627c1.663,0,3.697,0.286,6.161,1.042l1.98-6.458
			C3873.537,1513.576,3870.836,1513.157,3868.396,1513.157z"/><path fill="#b75856" d="M4073.275,1518.513c0,0-1.332-6.313-4.414-8.093c-3.081-1.779-2.586-15.984-7.513-17.59
			c0,0,6.342,15.059,0,21.402C4073.275,1518.513,4073.275,1518.513,4073.275,1518.513z"/><polygon fill="#ea716e" points="3616.879 2359.61 3499.788 2268.864 3496.828 2276.677"/><path fill="#ea716e" d="M3515.686 2244.002c0 0 93.616 82.434 101.193 82.434 7.576 0-94.505-87.73-94.505-87.73L3515.686 2244.002zM3556.853 2230.239c0 0 72.331 72.121 75.007 69.446 2.675-2.675-65.377-70.727-65.377-70.727S3556.853 2225.961 3556.853 2230.239z"/><path fill="#cb395e" d="M3959.39 1845.847c0 0-15.436 116.221 0 163.306C3965.73 1954.043 3959.39 1845.847 3959.39 1845.847zM3955.029 2024.134c0 0-10.166 48.154-3.21 92.563 6.956 44.409 6.956 44.409 6.956 44.409S3962.52 2031.625 3955.029 2024.134z"/></g><circle cx="5121.413" cy="1561.548" r="117.153" fill="#bde9ff"/><path fill="#fff" d="M3058.367 570.407c0 0 408.969 161.847 752.63 74.639C3342.934 623.377 3118.809 605.303 3058.367 570.407zM2950.475 346.489c0 0 174.578 235.956 507.436 195.025C3210.924 490.952 3082.9 440.39 2950.475 346.489zM4286.759 620.626c0 0 166.868 80.717 410.884 0C4444.064 636.218 4286.759 620.626 4286.759 620.626zM4336.519 458.047c0 0 55.571 127.52 213.484 104.335C4423.197 527.068 4354.176 493.36 4336.519 458.047zM2131.373 930.029c-2.632-16.748 190.306 213.445 343.984 213.445C2339.426 1179.048 2143.024 1004.162 2131.373 930.029zM3314.844 2059.18c0 0-16.854 64.206 26.485 64.206 43.339 0 54.801-27.48 29.311-52.97C3345.149 2044.926 3316.629 2050.252 3314.844 2059.18z"/><path fill="#bde9ff" d="M1095.729,1442.754c0,0,68.723,362.34-52.316,535.531
		c-121.039,173.191-230.189,362.801-230.189,205.395s154.094-249.586,166.935-473.161
		C993,1486.945,1057.206,1257.31,1095.729,1442.754z"/><ellipse cx="727.348" cy="2439.64" fill="#bde9ff" rx="85.875" ry="113.203"/><circle cx="5092.142" cy="3074.454" r="39.727" fill="#bde9ff"/><circle cx="3796.857" cy="2257.895" r="19.189" fill="#758f97"/><circle cx="4091.004" cy="2234.671" r="19.189" fill="#758f97"/><path fill="#93c74b" d="M4696.234,2105.018c0,0-32.021-33.79,0-65.811
		C4752.333,2048.919,4696.234,2105.018,4696.234,2105.018z"/><path fill="#93c74b" d="M4696.234 2102.519c0 0-39.706-17.722-51.527 14.446C4684.836 2134.622 4696.234 2102.519 4696.234 2102.519zM4696.234 2103.163c0 0 73.034-72.232 58.588-28.09S4696.234 2103.163 4696.234 2103.163zM4966.513 2137.924c0 0-32.021-33.79 0-65.811C5022.612 2081.825 4966.513 2137.924 4966.513 2137.924z"/><path fill="#93c74b" d="M4966.513 2135.425c0 0-39.706-17.722-51.527 14.446C4955.114 2167.527 4966.513 2135.425 4966.513 2135.425zM4966.513 2136.068c0 0 73.034-72.232 58.588-28.09C5010.655 2152.12 4966.513 2136.068 4966.513 2136.068zM5266.598 2163.122c12.095-17.364 22.917-43.179-13.474-49.479-24.216 24.216-11.808 49.438-4.318 60.298-10.898-3.727-41.11-11.105-51.46 17.058 36.136 15.9 50.616-5.7 54.377-13.167.862 1.053 1.4 1.622 1.4 1.622s.898-.899 2.351-2.484c10.256 2.796 47.027 9.65 60.345-31.043C5327.161 2111.269 5288.387 2143.284 5266.598 2163.122zM1087.722 2422.824c12.094-17.364 22.916-43.179-13.474-49.479-24.216 24.216-11.807 49.438-4.318 60.298-10.898-3.727-41.11-11.105-51.46 17.058 36.136 15.9 50.616-5.7 54.378-13.167.862 1.053 1.401 1.622 1.401 1.622s.898-.898 2.351-2.484c10.256 2.796 47.027 9.65 60.345-31.043C1148.285 2370.971 1109.511 2402.987 1087.722 2422.824zM1512.791 2360.985c12.094-17.364 22.916-43.179-13.474-49.479-24.216 24.216-11.807 49.438-4.318 60.298-10.898-3.727-41.11-11.105-51.46 17.058 36.136 15.9 50.616-5.7 54.377-13.167.862 1.053 1.401 1.622 1.401 1.622s.898-.898 2.351-2.484c10.256 2.797 47.027 9.65 60.345-31.043C1573.354 2309.133 1534.58 2341.147 1512.791 2360.985zM1980.476 2314.382c12.094-17.364 22.916-43.179-13.474-49.479-24.216 24.216-11.807 49.438-4.318 60.298-10.898-3.727-41.11-11.105-51.46 17.058 36.136 15.9 50.616-5.7 54.377-13.167.863 1.053 1.401 1.622 1.401 1.622s.898-.898 2.351-2.484c10.256 2.796 47.027 9.65 60.345-31.043C2041.039 2262.53 2002.265 2294.545 1980.476 2314.382zM2360.492 2238.158c9.624-13.817 18.236-34.36-10.722-39.373-19.27 19.27-9.396 39.34-3.436 47.982-8.672-2.966-32.713-8.837-40.949 13.573 28.755 12.652 40.277-4.536 43.271-10.477.687.838 1.115 1.291 1.115 1.291s.715-.715 1.87-1.977c8.161 2.225 37.421 7.679 48.019-24.703C2408.685 2196.897 2377.83 2222.373 2360.492 2238.158zM2284.544 2185.11c9.624-13.817 18.236-34.36-10.722-39.373-19.27 19.27-9.396 39.34-3.436 47.982-8.672-2.965-32.713-8.837-40.949 13.574 28.755 12.652 40.277-4.536 43.271-10.478.687.838 1.115 1.291 1.115 1.291s.715-.715 1.87-1.977c8.161 2.225 37.421 7.679 48.019-24.703C2332.737 2143.848 2301.883 2169.324 2284.544 2185.11zM2509.322 2152.062c9.624-13.817 18.236-34.36-10.722-39.373-19.27 19.27-9.396 39.34-3.436 47.982-8.672-2.965-32.713-8.837-40.949 13.573 28.755 12.652 40.277-4.536 43.271-10.477.687.838 1.115 1.291 1.115 1.291s.715-.715 1.87-1.977c8.161 2.225 37.421 7.679 48.019-24.703C2557.515 2110.801 2526.66 2136.276 2509.322 2152.062zM1860.51 2193.594c12.094-17.364 22.916-43.179-13.474-49.479-24.216 24.216-11.807 49.438-4.318 60.298-10.898-3.727-41.11-11.105-51.46 17.058 36.136 15.9 50.616-5.7 54.377-13.167.863 1.053 1.401 1.622 1.401 1.622s.898-.898 2.351-2.484c10.256 2.796 47.027 9.65 60.345-31.043C1921.072 2141.741 1882.298 2173.756 1860.51 2193.594zM1475.461 2208.27c12.094-17.364 22.916-43.179-13.474-49.479-24.216 24.216-11.807 49.438-4.318 60.298-10.898-3.727-41.11-11.105-51.46 17.058 36.136 15.9 50.616-5.7 54.377-13.167.863 1.053 1.401 1.622 1.401 1.622s.898-.898 2.351-2.484c10.256 2.797 47.027 9.65 60.345-31.043C1536.024 2156.417 1497.25 2188.432 1475.461 2208.27zM1087.722 2235.124c12.094-17.364 22.916-43.179-13.474-49.479-24.216 24.216-11.807 49.438-4.318 60.298-10.898-3.727-41.11-11.105-51.46 17.058 36.136 15.9 50.616-5.7 54.378-13.167.862 1.053 1.401 1.622 1.401 1.622s.898-.898 2.351-2.484c10.256 2.797 47.027 9.65 60.345-31.043C1148.285 2183.272 1109.511 2215.287 1087.722 2235.124z"/></svg>