<svg xmlns="http://www.w3.org/2000/svg" data-name="Layer 1" viewBox="0 0 700 550"><path fill="#f9e0c0" d="M263.33181,473.59525c-16.25-5.08-30.83-10.27-48.37-20.12-18.09-10.16-98.45-58.51-108.9-142.19a159.61541,159.61541,0,0,1,6.66-68.16c3.23-9.47,9.93-28.49,26.84-47.3,20.7-23.04,44.32-31.97,58.17-37.02,29.14-10.63,53.58-10.07,65.22-9.69,12.56.41,34.73,1.33,59.93,12.34,16.44,7.18,26.66,15.37,41.72,27.61,23.86,19.41,27,27.49,68.74,67.57,11.46,11,20.88,19.67,35.26,28.21,9.97,5.92,18.03,9.23,32.9,15.27,36.55,14.85,46.95657,17.85676,58.91657,26.21676,23.26,16.27,21.75343,34.01324,22.75343,37.83324a75.12694,75.12694,0,0,1,1.77,29.97c-3.05,20.07-13.86,33.19-20.57,41.13a113.09822,113.09822,0,0,1-32.9,26.44,210.24676,210.24676,0,0,1-26.96,11.89Z"/><path fill="#f4c5a2" d="M211.74082,459.40961c-24.00293-13.4834-103.14062-64.042-113.68066-148.48438a167.39942,167.39942,0,0,1,6.959-71.21777c2.99707-8.78906,10.01367-29.37012,28.05078-49.44141,22.08789-24.57617,47.26563-33.75976,60.792-38.69335A175.06061,175.06061,0,0,1,261.985,141.44379c11.60059.37793,35.74121,1.16308,62.61035,12.89453l-.40039.916c-26.69336-11.6543-49.81836-12.40625-62.24316-12.81055a174.05739,174.05739,0,0,0-67.748,10.06836c-13.44433,4.90332-38.46875,14.03125-60.38965,38.42187C115.9127,210.854,108.943,231.29926,105.96641,240.02973a166.32876,166.32876,0,0,0-6.91407,70.77246c10.48145,83.97656,89.27832,134.30957,113.17871,147.73633Z"/><path fill="#8b9d36" d="M582.47556,382.4395a3.94811,3.94811,0,0,1-.47847,1.65267,77.60341,77.60341,0,0,0-4.37636,9.3367c-1.14822,3.455,10.4308,8.491,10.4308,8.491.03832-2.65454,2.71759-6.20721,2.71759-6.20721,3.52159-2.84976-.30621,7.61255-.30621,7.61255l8.65086,3.82589,3.44495-4.76278-2.64095-2.1081c-1.53137-2.73269,2.22011-.11707,3.25337,0,1.03358.11708,3.44527-9.01805,3.44527-9.01805s-11.71328-10.5403-8.15338-10.89168,8.84243,4.45033,9.64612,4.33326c.59965-.08467.30621-6.18767.115-9.27173a8.26516,8.26516,0,0,0-2.77522-5.77116,24.03354,24.03354,0,0,0-8.249-4.16425c-1.60769-2.57654,6.66033-1.52257,6.66033-1.52257-12.28708-11.94581-18.48825.70275-18.48825.70275-15.88529-4.138-17.03351,7.26133-17.03351,7.26133,3.21538-4.21634,6.27749-2.49854,6.27749-2.49854a13.56165,13.56165,0,0,0-6.20117,6.24612c-2.22011,7.26133,5.58875,15.75216,5.58875,15.75216.11463-3.33775,4.36359-7.78808,6.77527-9.662C582.2843,380.60463,582.51388,381.56106,582.47556,382.4395Zm-.03177-7.10518c-.77192,2.52459-3.85334,3.50056-4.938,2.75222-1.08436-.74818-1.12921-3.65655-.05732-6.26566,1.0015-2.43993,3.66831-2.9214,4.753-2.17306C583.28579,370.396,583.29856,372.52363,582.44379,375.33432Z"/><path fill="#5e7c24" d="M585.37217,364.67682a37.15028,37.15028,0,0,1,3.67822,4.2688A26.10826,26.10826,0,0,1,591.672,373.958a44.90162,44.90162,0,0,1,1.70117,5.38794c.481,1.81213.94532,3.63733,1.33448,5.47742a87.04824,87.04824,0,0,1,1.55176,11.16174,29.853,29.853,0,0,0,.97509,5.49463,37.41767,37.41767,0,0,0,1.8335,5.29846,31.14258,31.14258,0,0,1-3.30127-10.7406c-.227-1.86707-.39209-3.72461-.6792-5.57092-.2793-1.8462-.61963-3.68506-1.00977-5.51184-.36767-1.832-.80908-3.646-1.271-5.46192-.45606-1.81457-.96436-3.60876-1.59522-5.35815a26.04734,26.04734,0,0,0-2.42187-5.01465A42.898,42.898,0,0,0,585.37217,364.67682Z"/><path fill="#5e7c24" d="M589.88145 370.62812a14.54975 14.54975 0 013.86621.60009 28.11631 28.11631 0 013.68017 1.35779 33.5557 33.5557 0 013.437 1.8794c.55127.34936 1.08106.731 1.61914 1.09643.51416.40234 1.03272.796 1.5293 1.217-2.27441-1.26806-4.5039-2.55859-6.854-3.608-1.15869-.557-2.35254-1.03308-3.561-1.47229A26.63541 26.63541 0 00589.88145 370.62812zM595.11484 388.74115a9.47868 9.47868 0 013.07032 1.303 7.72706 7.72706 0 011.31347 1.06738 2.39845 2.39845 0 01.76367 1.51709 3.64811 3.64811 0 00-1.09912-1.1427q-.64892-.46581-1.32812-.90112C596.93076 389.99555 596.00449 389.431 595.11484 388.74115zM593.34141 380.39887c-.86084 1.14734-1.71045 2.293-2.5337 3.45495-.81982 1.16309-1.64257 2.32325-2.36474 3.54419a30.68085 30.68085 0 00-2.05664 3.70972 16.62769 16.62769 0 00-1.35889 4.01941 11.74586 11.74586 0 01.90332-4.21448 24.76333 24.76333 0 011.96582-3.85486 37.10655 37.10655 0 012.51856-3.50268A30.59661 30.59661 0 01593.34141 380.39887z"/><path fill="#8b9d36" d="M603.93685,416.98888l-3.21535,2.967s-3.13879-3.31831-3.48329-1.015c0,0,.49761,2.30329,1.11006,2.49848,0,0-7.69387,6.18767-9.24413,1.09309a49.14431,49.14431,0,0,0-2.35409-6.67564s-1.72251.93693-.22967,8.31528c0,0-5.95438-1.74978-8.16551-4.95985a2.29632,2.29632,0,0,1-.389-1.28081c-.0213-1.83518-.26318-7.00034-2.35476-5.0611,0,0-1.20576.58559-.28709,4.509,0,0-4.84584-5.46308-2.54407-8.82079a3.35733,3.35733,0,0,1,4.11677-1.08625c1.34571.58416,3.84262,1.66,8.47527,3.6413A92.45638,92.45638,0,0,0,603.93685,416.98888Z"/><path fill="#5e7c24" d="M593.34141 421.5174c-.76368-1.53186-1.42188-3.0802-2.16114-4.58313a22.43384 22.43384 0 00-1.189-2.19141 3.51855 3.51855 0 00-1.74951-1.65784 1.95941 1.95941 0 011.22363.43714 5.26626 5.26626 0 01.93359.92663 11.81806 11.81806 0 011.35938 2.20276A18.37094 18.37094 0 01593.34141 421.5174zM582.88389 419.097c-.39551-1.46131-.68457-2.9137-1.03321-4.34717-.17285-.71582-.36572-1.42249-.59033-2.11682a4.61208 4.61208 0 00-1.05566-1.89038 3.38793 3.38793 0 011.52 1.69714 11.55928 11.55928 0 01.75146 2.15833A15.27193 15.27193 0 01582.88389 419.097zM529.37137 365.90961s7.73215 1.10952.84212 6.575c0 0-1.76079 1.48348-7.50248 3.20119C522.711 375.68576 519.11288 360.03736 529.37137 365.90961z"/><path fill="#50661a" d="M522.711,375.68573c-.00147-.52624.03076-1.05444.05664-1.58642.08935-.52112.14209-1.05591.28222-1.57117a10.7772,10.7772,0,0,1,1.22656-2.97083,8.844,8.844,0,0,1,2.18018-2.37768,6.53877,6.53877,0,0,1,2.91455-1.27,9.25229,9.25229,0,0,0-2.59863,1.66113,10.89875,10.89875,0,0,0-1.94922,2.32654,14.37207,14.37207,0,0,0-1.293,2.77283c-.17627.48388-.29248.989-.45361,1.48535C522.94785,374.66,522.8541,375.17328,522.711,375.68573Z"/><path fill="#5e7c24" d="M539.18433,334.29381s-8.5723-5.4615-11.13986,6.66537c0,0,4.44872-3.82925,4.50765-1.61407a16.97926,16.97926,0,0,0-3.227,5.74969,6.29574,6.29574,0,0,0,.62009,4.64846c1.08966,1.98312,3.29121,5.87839,3.67816,5.702.51806-.23612,1.75193-5.24253,3.981-6.392s-.54852,9.88544-.54852,9.88544,4.97627,4.73832,5.53806,4.26874,1.74837-3.5309,1.91269-1.249l-.73144,2.321,3.88026,1.63012,3.59384-5.695s-6.32577-5.0174-3.14577-4.60285c0,0,2.95884,1.17374,4.01556,2.80515,0,0,4.84338-7.57015,2.82246-9.27145a57.35608,57.35608,0,0,0-6.19441-4.1011,2.903,2.903,0,0,1-1.054-1.02849c-.285-.49105-.34055-1.01439.85243-.88343,2.14736.23573,6.37838,1.36345,7.74625,3.38909,0,0,1.28141-8.26436-2.85232-11.91423a9.54566,9.54566,0,0,0-6.078-1.49146s1.13056-2.2413,4.66291-.86187C552.02444,332.254,546.90845,325.62645,539.18433,334.29381Z"/><path fill="#50661a" d="M535.34287 347.8703a16.57993 16.57993 0 011.57813-5.295 9.92605 9.92605 0 011.58593-2.3197 3.11709 3.11709 0 012.51221-1.14222 3.53192 3.53192 0 00-2.13525 1.47522 14.52653 14.52653 0 00-1.38721 2.27515C536.69883 344.47541 536.04258 346.1651 535.34287 347.8703zM552.95078 351.95014c-.6416-.81409-1.32373-1.57984-2.01758-2.32264a17.90886 17.90886 0 00-2.23632-2.0382 9.88791 9.88791 0 00-2.58057-1.48035 7.11732 7.11732 0 00-2.97461-.37866 5.43664 5.43664 0 013.12451-.1012 8.17993 8.17993 0 012.82227 1.44873 12.325 12.325 0 012.22363 2.22205A12.9048 12.9048 0 01552.95078 351.95014z"/><path fill="#50661a" d="M544.91221,335.39765a4.00689,4.00689,0,0,0-2.6753-1.34742,5.96393,5.96393,0,0,0-1.51806.0492c-.25049.04114-.498.10327-.74658.15039l-.73194.218.11182-.24707c1.10693,2.51489,2.06055,5.08227,2.91162,7.687.856,2.60156,1.65137,5.22461,2.32129,7.88049.66357,2.6565,1.31787,5.31714,1.7998,8.01306.52979,2.68555.93409,5.39441,1.27051,8.10828-.55029-2.68-1.08838-5.3573-1.70019-8.01819q-.90894-3.99279-1.958-7.94824c-.7251-2.62976-1.46582-5.255-2.28809-7.85584-.84033-2.59253-1.69092-5.19091-2.69238-7.72033l-.07715-.19434.189-.053a8.87281,8.87281,0,0,1,1.55224-.31946,6.21787,6.21787,0,0,1,1.585.04236A3.9687,3.9687,0,0,1,544.91221,335.39765Z"/><path fill="#50661a" d="M542.26182,358.841a4.5471,4.5471,0,0,1,.4707-3.03113,2.336,2.336,0,0,1,1.2417-1.08667,2.02091,2.02091,0,0,1,1.56494.20862,2.9841,2.9841,0,0,0-1.37158.25549,2.44126,2.44126,0,0,0-.87891.94653A14.22049,14.22049,0,0,0,542.26182,358.841Z"/><path fill="#c4ce6e" d="M570.86469,421.51739s1.52394-5.26049,5.39241-2.28652a7.76331,7.76331,0,0,1,2.68087,4.113c.69766,2.51766,1.30072,7.08012-.41769,13.55487,0,0-3.96024-5.4789-6.89-7.41739C568.32612,427.29515,566.19478,422.29817,570.86469,421.51739Z"/><path fill="#8b9d36" d="M570.86484 421.5174a8.82008 8.82008 0 013.105 3.085 27.27883 27.27883 0 012.08057 3.88733c.54639 1.36218 1.061 2.73547 1.46777 4.14148.187.70776.39649 1.40808.56446 2.11926.14551.71765.312 1.42834.4375 2.14832l-1.47266-4.11268c-.50049-1.36218-1.00391-2.72-1.58838-4.04235a34.41824 34.41824 0 00-1.90722-3.87928 15.09722 15.09722 0 00-1.18457-1.80151A6.63306 6.63306 0 00570.86484 421.5174zM565.28131 348.44294s-.12905-5.48371 4.44661-3.861a7.62955 7.62955 0 013.78718 3.07789c1.42021 2.17875 3.36442 6.33357 3.673 13.03393 0 0-5.41527-3.97855-8.7864-4.90872C564.59984 354.736 561.0703 350.64491 565.28131 348.44294z"/><path fill="#5e7c24" d="M565.28135,348.44293a8.67676,8.67676,0,0,1,3.8833,1.96924,26.89766,26.89766,0,0,1,3.14892,3.05323,43.333,43.333,0,0,1,2.64063,3.48339c.39062.61463.7998,1.21558,1.17334,1.83936.35351.63684.7251,1.26062,1.06055,1.90564l-2.63526-3.45483c-.88525-1.14039-1.77246-2.27527-2.72558-3.35193a33.90165,33.90165,0,0,0-2.98047-3.09766,14.84449,14.84449,0,0,0-1.67041-1.34509A6.51476,6.51476,0,0,0,565.28135,348.44293Z"/><path fill="#8b9d36" d="M530.74672,421.51739s-1.52394-5.26049-5.39241-2.28652a7.76323,7.76323,0,0,0-2.68086,4.113c-.69767,2.51766-1.30073,7.08012.41768,13.55487,0,0,3.96025-5.4789,6.89-7.41739C533.2853,427.29515,535.41663,422.29817,530.74672,421.51739Z"/><path fill="#5e7c24" d="M530.74668,421.5174a6.633,6.633,0,0,0-1.50244,1.54553,15.15871,15.15871,0,0,0-1.18506,1.80151,34.49685,34.49685,0,0,0-1.90674,3.87928c-.58447,1.32238-1.08838,2.68017-1.58838,4.04235l-1.47314,4.11268c.126-.72.29248-1.43067.438-2.14832.168-.71118.37695-1.4115.56445-2.11926.40674-1.406.92139-2.7793,1.46777-4.14148a27.32639,27.32639,0,0,1,2.08008-3.88733A8.81744,8.81744,0,0,1,530.74668,421.5174Z"/><path fill="#50661a" d="M553.30332,445.62055c-3.32617-64.05176-13.04883-77.60743-18.54883-79.98731a5.02522,5.02522,0,0,0-5.17383.52149l-.418-.49024a5.67042,5.67042,0,0,1,5.83105-.62988c6.89258,2.96191,15.77441,19.3418,18.95215,80.55273Z"/><path fill="#50661a" d="M551.79941 445.71137l-.60742-.21485c5.64942-16.0166-3.75879-78.90527-3.85449-79.53906l.63672-.0957C548.36582 368.45453 557.50254 429.54242 551.79941 445.71137zM555.46152 445.68207l-.625-.15625c.21582-.86621 5.36817-21.25684 12.35547-24.39844a4.18287 4.18287 0 013.82227.10449l-.29883.57032a3.52793 3.52793 0 00-3.25879-.08789C560.75156 424.72992 555.51328 445.47309 555.46152 445.68207z"/><path fill="#50661a" d="M553.8043 437.101c-.2041-3.48926-4.86328-85.52832 6.66211-90.668 1.51074-.67188 3.20605-.07325 5.043 1.7832l-.457.45312c-1.63183-1.64648-3.08593-2.19726-4.32324-1.64843-11.12305 4.96-6.332 89.19238-6.28222 90.043zM546.15 445.68207c-.05176-.209-5.291-20.95312-11.99512-23.96777a3.534 3.534 0 00-3.25879.08789l-.29882-.57032a4.18885 4.18885 0 013.82226-.10449c6.98731 3.1416 12.13965 23.53223 12.35547 24.39844z"/><path fill="#50661a" d="M552.8082 444.99848l-.63476-.11524c4.373-23.96777 10.93261-32.65429 15.665-35.7207 3.18847-2.06738 5.46386-1.541 5.55957-1.51563l-.15235.626c-.0205-.00684-2.14355-.47559-5.10156 1.459C563.53281 412.74848 557.12852 421.31488 552.8082 444.99848zM550.50938 445.019l-.625-.15625c14.63867-58.7832 18.65234-62.02539 18.8164-62.13378l.35742.53515-.17871-.26758.19824.25391C568.91172 383.39594 564.83848 387.47992 550.50938 445.019zM547.59824 445.62055c-1.33691-25.65137-15.75781-48.75977-15.90332-48.99024l.54492-.34375c.14649.23145 14.65625 23.47754 16.001 49.30078z"/><path fill="#d6694b" d="M570.78813,438.7841v5.34632a1.85289,1.85289,0,0,1-1.83438,1.87085H532.201a1.85289,1.85289,0,0,1-1.83439-1.87085v-4.927a1.85339,1.85339,0,0,1,1.81387-1.87074l36.75276-.41935A1.85239,1.85239,0,0,1,570.78813,438.7841Z"/><polygon fill="#e19974" points="569.034 446.001 567.727 473.595 534.293 473.595 532.121 446.001 569.034 446.001"/><path fill="#5e7c24" d="M534.17517,401.58151a6.899,6.899,0,0,0,.67628,5.25077c1.25039,2.20563,3.77048,6.53253,4.22341,6.31126.6062-.29276,2.08617-6.04455,4.68912-7.4564,2.59641-1.41837-.7336,11.26926-.7336,11.26926s5.74169,5.15308,6.39866,4.58694c.657-.55947,2.06062-4.099,2.23288-1.50939l-.87409,2.67408,4.49785,1.67221,4.22964-6.64961s-7.30483-5.40692-3.611-5.08811c0,0,3.42595,1.19725,4.638,2.99956,0,0,5.70338-8.84236,3.36833-10.67723a62.50855,62.50855,0,0,0-7.17712-4.37885,3.161,3.161,0,0,1-1.06536-.91084c-.42084-.58552-.69528-1.3534.86786-1.2492,2.488.169,7.40016,1.2492,8.96953,3.48739,0,0,1.56314-9.46045-3.20229-13.41644a10.88791,10.88791,0,0,0-7.04971-1.40534s1.33356-2.60259,5.42271-1.2036c0,0-5.88187-7.29374-14.94112,2.93426,0,0-9.90747-5.80372-13.00821,8.11372,0,0,5.2059-4.56756,5.257-2.04963A20.51144,20.51144,0,0,0,534.17517,401.58151Zm15.96193-10.8202c.40838-1.02156,2.45623-1.926,4.23618-.71577,1.90113,1.28827,3.17083,3.31185,2.7559,4.3269-.40807,1.0214-2.95994,1.78261-4.61871.40983C550.66666,393.24683,549.72248,391.7762,550.1371,390.76131Z"/><path fill="#50661a" d="M545.73691,388.82221a37.0054,37.0054,0,0,0-.332,4.60949,21.53386,21.53386,0,0,0,.58252,4.548c.35205,1.49.80127,2.958,1.30127,4.417.49658,1.46289,1.00537,2.91467,1.57324,4.34583a80.05951,80.05951,0,0,0,3.79053,8.42578,25.342,25.342,0,0,1,2.49658,8.932,31.48615,31.48615,0,0,0-1.13476-4.48083,24.44116,24.44116,0,0,0-1.80371-4.22681,70.31481,70.31481,0,0,1-3.94873-8.418c-.5542-1.45007-1.04981-2.92285-1.52832-4.39343a35.86919,35.86919,0,0,1-1.22852-4.50012,21.573,21.573,0,0,1-.41406-4.65381A30.98134,30.98134,0,0,1,545.73691,388.82221Z"/><path fill="#50661a" d="M545.2999 395.00531a25.05017 25.05017 0 00-2.03662 2.49536q-.93823 1.30042-1.7749 2.66748c-.56836.90528-1.08643 1.84168-1.60889 2.7793l-1.53467 2.85156a21.59682 21.59682 0 011.0835-3.07324 23.86654 23.86654 0 011.51221-2.89563 20.69185 20.69185 0 011.93115-2.64184A11.746 11.746 0 01545.2999 395.00531zM549.80186 409.87665a21.1384 21.1384 0 01-.98829 2.55212c-.18164.40809-.353.8158-.51953 1.22413a3.29683 3.29683 0 00-.28906 1.28613 1.97 1.97 0 01-.19678-1.41516 6.13046 6.13046 0 01.41553-1.35315A7.11987 7.11987 0 01549.80186 409.87665zM547.29111 403.32343a25.30722 25.30722 0 016.73682 1.99231 17.79989 17.79989 0 013.07861 1.74646 9.12257 9.12257 0 012.47657 2.50988 13.94418 13.94418 0 00-2.75293-2.09 28.60079 28.60079 0 00-3.06836-1.5802c-1.0459-.48718-2.1211-.91724-3.20069-1.34119z"/><path fill="#c4ce6e" d="M514.88258,379.15385s-7.46811-11.15592-16.80819,2.01815c0,0,7.31491-2.20688,6.24232.483a21.73694,21.73694,0,0,0-6.84,5.16732,8.22337,8.22337,0,0,0-1.65506,5.91114c.28407,2.96476.91553,8.82105,1.47089,8.81715.74356-.00523,4.80816-5.35061,8.07638-5.53325s-5.76035,11.56823-5.76035,11.56823,3.526,8.35757,4.44256,8.09567,3.92046-3.29854,2.9399-.472l-2.07565,2.39252,3.815,4.03929,7.252-4.90476s-5.00143-9.41695-1.39933-7.2123c0,0,2.94485,2.997,3.37093,5.522,0,0,9.71929-6.48415,8.17222-9.61067a76.81841,76.81841,0,0,0-5.30666-8.2329,3.94138,3.94138,0,0,1-.74055-1.7861c-.09694-.75349.09437-1.438,1.47543-.63038,2.4552,1.43568,6.95046,5.06038,7.54645,8.22552,0,0,5.80315-9.22945,2.72638-15.82856a12.74925,12.74925,0,0,0-6.52392-5.05274s2.51348-2.08265,6.0404,1.469C531.34375,383.5992,528.6251,372.89954,514.88258,379.15385Z"/><path fill="#8b9d36" d="M514.88242,379.15387c-1.08349,3.43176-1.97607,6.91467-2.75,10.42066-.769,3.50647-1.45312,7.03283-1.92822,10.59045q-.80714,5.32124-1.14356,10.70178c-.28369,3.5813-.30175,7.17395-.33007,10.77429a92.57109,92.57109,0,0,1-.16455-10.80126,106.379,106.379,0,0,1,1.00146-10.76746c.53076-3.567,1.209-7.11353,2.085-10.61084A80.82677,80.82677,0,0,1,514.88242,379.15387Z"/><path fill="#8b9d36" d="M513.01865 385.0921a8.81822 8.81822 0 012.03614 2.12549 14.61262 14.61262 0 011.43652 2.58472 16.619 16.619 0 01.8999 2.81006 15.36611 15.36611 0 01.36963 2.91345c-.28564-.93835-.5542-1.8656-.85449-2.77966-.30322-.9126-.63086-1.81226-1.00684-2.69055a26.08824 26.08824 0 00-1.26709-2.56849A17.15443 17.15443 0 00513.01865 385.0921zM509.91123 399.86811a18.258 18.258 0 00-3.05762 2.35376 16.396 16.396 0 00-2.41357 2.99987 6.05012 6.05012 0 01.71728-1.872 7.37849 7.37849 0 014.75391-3.48168z"/><path fill="#160b07" d="M368.86,298.11867c1.65705-5.07869,2.86756-12.47184.78571-22.51065A31.523,31.523,0,0,0,359.537,267.12c1.5849-.24758,2.87037-.381,4.06968-.69325,7.967-2.07391,16.28191-13.13831,13.74143-21.761-2.21413-7.5151-11.872-10.45311-14.22167-11.16805a18.30075,18.30075,0,0,0-17.58947,3.08607,20.86071,20.86071,0,0,0-6.45291,9.11213c-1.37663,3.50695-1.266,3.805-4.25046,7.45326-3.30418,4.03916-5.731,5.57779-7.14728,9.65621-.89679,2.58274-.15521,6.49439.57932,9.33755-4.93177,5.89878-6.28224,13.05488-6.63726,14.94236-1.52817,8.1257.0677,17.37744.48889,19.8192.94046,5.45253,2.25162,8.9741.59026,13.43963-1.47567,3.96655-3.71706,4.43151-5.8465,7.78523-3.965,6.2446-3.81634,16.63679,1.05566,22.36879,7.98929,9.39967,27.97366,5.43667,34.07429-3.9576,4.1094-6.32813-1.176-10.35473,1.79432-21.92149C356.99947,312.10249,364.77649,310.63428,368.86,298.11867Z"/><path fill="#6c7fd8" d="M344.82734,274.48876a7.85613,7.85613,0,0,0-11.27015,6.64916,284.92529,284.92529,0,0,1-22.97755,95.9782c-10.3258,23.79065-18.83426,31.06-18.83426,31.06s9.42036-6.93894,17.762,2.313,21.55865,7.49326,21.55865,7.49326l14.175-143.29343Z"/><path fill="#065082" d="M298.13315,400.15436a11.22354,11.22354,0,0,1,9.07081.51074,17.95226,17.95226,0,0,1,3.73632,2.74585c.54517.54859,1.08716,1.10315,1.64014,1.62171a16.60682,16.60682,0,0,0,1.79687,1.41394,29.17684,29.17684,0,0,0,8.324,3.7257,19.85936,19.85936,0,0,0,9.05469.75269l.012.04431a12.683,12.683,0,0,1-4.60522.41236,23.97229,23.97229,0,0,1-4.5835-.75989,25.26987,25.26987,0,0,1-8.39673-3.901,16.77949,16.77949,0,0,1-1.77124-1.51026c-.55249-.55163-1.0437-1.13989-1.58032-1.686a12.591,12.591,0,0,0-3.761-2.58252,14.19435,14.19435,0,0,0-4.38037-1.12927,15.45978,15.45978,0,0,0-4.54346.38574Z"/><polygon fill="#c38f86" points="337.289 473.381 360.73 394.354 354.199 392.417 330.119 473.595 337.289 473.381"/><polygon fill="#c38f86" points="385.705 473.381 392.874 473.595 368.795 392.417 362.263 394.354 385.705 473.381"/><rect width="6.812" height="85.906" x="358.139" y="387.705" fill="#c38f86"/><rect width="75.283" height="11.36" x="326.612" y="383.728" fill="#935b50" rx="5.68" transform="rotate(180 364.253 389.408)"/><path fill="#f9977a" d="M367.40951,272.85805l2.65172,2.05174L366.8665,288.072l-18.94623-.864-8.45373-13.01815s14.07559-.94463,16.05062-7.44526Z"/><path fill="#a2aee6" d="M404.24079,269.85523l11.03305.50312a1.27729,1.27729,0,0,0,1.32693-1.12857l3.0376-26.14942a1.27727,1.27727,0,0,0-1.21055-1.42332l-10.92086-.498a1.27727,1.27727,0,0,0-1.32628,1.12317l-3.14981,26.1443A1.27727,1.27727,0,0,0,404.24079,269.85523Z"/><path fill="#f9977a" d="M420.63488,273.80338a50.823,50.823,0,0,0,3.38394-17.00853s-1.20514-6.46354-11.09236-4.82093a3.10187,3.10187,0,0,0-2.529,2.38127c-.37531,1.68794-.51687,4.0864,1.04463,5.70194l5.583,5.52-.45092,3.88172a.84822.84822,0,0,1-1.01337.73617c-1.17108-.24377-3.13691-.51023-3.74959.27389a1.242,1.242,0,0,0,.5965,2.06017Z"/><path fill="#dd765e" d="M420.983 256.07672a5.65609 5.65609 0 00-2.28052-1.39318 18.72879 18.72879 0 00-2.59741-.72046c-1.77-.371-3.58057-.54407-5.40747-.79346.45874-.04712.91845-.05872 1.37964-.08911.46069-.0105.92114.0133 1.3833.01843a17.95369 17.95369 0 012.75537.32849 11.72518 11.72518 0 012.65283.87146A4.50572 4.50572 0 01420.983 256.07672zM420.84336 259.139a11.38241 11.38241 0 00-2.35449-1.6449 15.54968 15.54968 0 00-2.62866-1.08667 19.06746 19.06746 0 00-2.792-.594c-.949-.13867-1.90991-.17139-2.88574-.22913.47974-.07849.96558-.13647 1.45337-.1864.488-.00061.98071-.04126 1.471-.00378a12.35338 12.35338 0 012.91284.49011 10.89684 10.89684 0 012.68335 1.24963A7.49832 7.49832 0 01420.84336 259.139zM418.90122 261.352c-1.39331-.67871-2.73633-1.40088-4.116-2.038-.68335-.33289-1.38525-.61267-2.09155-.874a6.25057 6.25057 0 00-2.21655-.43786 4.381 4.381 0 012.33252.0332 11.05368 11.05368 0 012.20654.783 16.82819 16.82819 0 012.03223 1.13355A14.46238 14.46238 0 01418.90122 261.352z"/><path fill="#f9977a" d="M404.30921 302.07894l8.09846-29.54985 8.22722 1.27429c-1.89627 41.58422-8.65668 45.32445-8.65668 45.32445-4.79793 5.36622-31.81948-15.69526-31.81948-15.69526l-.99849-25.20831C380.45492 276.749 404.30921 302.07894 404.30921 302.07894zM336.41311 300.28645S319.064 319.551 317.80366 318.04623l-16.614 6.44291-.5593-5.6554a11.72611 11.72611 0 011.40578-6.82833c4.52615-8.19144 17.28464-29.1716 32.06118-34.88656z"/><path fill="#ffba55" d="M322.595,312.24206l-12.49149-9.33077a2.98594,2.98594,0,0,1-.612-4.16273,115.80724,115.80724,0,0,1,16.58108-18.56443,25.097,25.097,0,0,1,8.6209-4.92069c3.1343-1.03994,7.31533-2.14781,10.68037-2.0496A14.80994,14.80994,0,0,0,358.8,283.85023c11.01014.809,8.60953-10.99218,8.60953-10.99218s10.58191,2.24839,13.85071,4.5503c2.70053,1.90172,14.79324,14.0115,18.57,17.81392a1.7015,1.7015,0,0,1,.05832,2.33622l-10.66012,11.88372a3.62193,3.62193,0,0,1-5.10806.28351l-2.8286-2.52489.0006-.00413c-.67084,3.69-.03678,18.70119-3.01081,24.52444l-42.818,2.92485s1.48569-19.14423-2.732-29.94089l-6.09252,7.09141A2.98029,2.98029,0,0,1,322.595,312.24206Z"/><path fill="#dd765e" d="M366.58361,267.72028s-5.15181,3.76383-11.06645-.97562c0,0,1.9606,8.29062,11.89235,6.11339A5.90544,5.90544,0,0,1,366.58361,267.72028Z"/><path fill="#f9977a" d="M371.83673,249.37428c-1.93461-9.506-8.76918-16.14032-15.26541-14.81825-5.014,1.02043-8.35785,6.48377-8.73467,13.294a1.853,1.853,0,0,0-1.55743-.226c-1.411.52435-1.70811,3.22788-.6636,6.03844.88185,2.373,2.43717,4.0572,3.74962,4.21051,2.74044,7.453,8.601,12.24915,14.212,11.10727C370.07343,267.65806,373.77136,258.88022,371.83673,249.37428Z"/><path fill="#dd765e" d="M364.01328,248.60626a6.15244,6.15244,0,0,0,.31372,3.32349,13.70347,13.70347,0,0,0,1.45777,3.037l.49267.70044a1.33612,1.33612,0,0,1,.27344.94519,2.18635,2.18635,0,0,1-1.05737,1.49548,3.94652,3.94652,0,0,1-3.41871.13965,4.23584,4.23584,0,0,0,3.219-.43066,1.96376,1.96376,0,0,0,.84155-1.24451c.07471-.4563-.41406-.85022-.72973-1.348a12.49109,12.49109,0,0,1-1.41114-3.18079A5.40049,5.40049,0,0,1,364.01328,248.60626Z"/><path fill="#160b07" d="M353.86531 250.966a.45864.45864 0 01-.24354-.74359c.11487-.13539 2.857-3.30221 6.5769-2.64846a.45873.45873 0 11-.15871.90363c-3.2082-.5637-5.69438 2.31-5.71922 2.3391A.45885.45885 0 01353.86531 250.966zM365.91257 247.57441a.45888.45888 0 01-.05733-.87595 8.85329 8.85329 0 015.54636-.08743.4588.4588 0 01-.30529.86532 8.00793 8.00793 0 00-4.91626.08068A.45908.45908 0 01365.91257 247.57441zM354.83433 252.97235a5.11353 5.11353 0 011.283-1.243 5.1883 5.1883 0 011.65991-.74731 3.673 3.673 0 011.8352.07519 3.56692 3.56692 0 011.51587.95972 5.51608 5.51608 0 00-1.60278-.61755 3.74417 3.74417 0 00-1.6499.03027 5.86388 5.86388 0 00-1.57544.59973A11.15463 11.15463 0 00354.83433 252.97235z"/><circle cx="358.97" cy="252.132" r="1.029" fill="#160b07"/><circle cx="368.762" cy="250.909" r="1.029" fill="#160b07"/><path fill="#160b07" d="M365.33408,251.96417a5.10745,5.10745,0,0,1,1.283-1.243,5.18959,5.18959,0,0,1,1.65967-.74731,3.67254,3.67254,0,0,1,1.83545.07519,3.56342,3.56342,0,0,1,1.51562.95972,5.51607,5.51607,0,0,0-1.60254-.61768,3.74627,3.74627,0,0,0-1.6499.0304,5.86446,5.86446,0,0,0-1.57544.59973A11.15632,11.15632,0,0,0,365.33408,251.96417Z"/><path fill="#dd765e" d="M346.11313,250.91181a2.31513,2.31513,0,0,1,.47608-1.15833,1.03922,1.03922,0,0,1,.59253-.38452.97265.97265,0,0,1,.72949.12012,2.5514,2.5514,0,0,1,.84033.98449,4.59927,4.59927,0,0,1,.416,1.15992c-.26563-.32-.4668-.66492-.71338-.96985a2.717,2.717,0,0,0-.77-.77649.63554.63554,0,0,0-.843.1112A4.48641,4.48641,0,0,0,346.11313,250.91181Z"/><path fill="#dd765e" d="M347.79624,254.02521a4.86573,4.86573,0,0,0,.12622-1.11475,6.857,6.857,0,0,0-.06494-1.10009c-.05176-.73877-.23389-1.46009-.32275-2.23877a4.78719,4.78719,0,0,1,.51709,1.04638,6.20585,6.20585,0,0,1,.26147,1.14478A3.11645,3.11645,0,0,1,347.79624,254.02521Z"/><circle cx="347.273" cy="256.568" r="2.042" fill="#ffcb33"/><path fill="#dd2f22" d="M359.0967,261.87214s5.73047,3.58924,8.98224-.3882"/><circle cx="363.37" cy="246.242" r=".989" fill="#dd2f22"/><path fill="#dd2f22" d="M362.54941,238.44281a.68834.68834,0,0,1-.64843-.458l-.65723-1.84765a.68818.68818,0,1,1,1.29688-.46094l.65722,1.84766a.68894.68894,0,0,1-.64844.91894Z"/><path fill="#f9dd95" d="M343.82789,258.58437a2.17148,2.17148,0,0,0-1.76857-3.52328,2.174,2.174,0,0,0-1.95187-3.46347c.03278-.03636.07037-.06579.101-.10468a2.18313,2.18313,0,1,0-3.68976-2.26956,2.173,2.173,0,0,0-3.94924.512c-.03944-.03593-.07191-.0769-.11459-.11052a2.18319,2.18319,0,1,0-1.29254,3.88728,9.663,9.663,0,0,1,3.12315,4.37221,2.18306,2.18306,0,0,0,3.0659-.36393,2.183,2.183,0,1,0,3.42965,2.70183,2.15818,2.15818,0,0,1,3.04686-1.63791Z"/><circle cx="330.723" cy="251.335" r=".56" fill="#f4906e"/><circle cx="334.725" cy="250.081" r=".56" fill="#f4906e"/><circle cx="333.231" cy="254.024" r=".56" fill="#f4906e"/><circle cx="333.016" cy="251.717" r=".56" fill="#f4906e"/><circle cx="336.347" cy="251.878" r=".56" fill="#f4906e"/><circle cx="338.593" cy="249.932" r=".56" fill="#f4906e"/><circle cx="340.471" cy="253.895" r=".56" fill="#f4906e"/><circle cx="338.222" cy="253.548" r=".56" fill="#f4906e"/><circle cx="335.838" cy="254.333" r=".56" fill="#f4906e"/><circle cx="335.523" cy="256.541" r=".56" fill="#f4906e"/><circle cx="338.236" cy="255.829" r=".56" fill="#f4906e"/><circle cx="338.883" cy="259.189" r=".56" fill="#f4906e"/><circle cx="342.287" cy="257.27" r=".56" fill="#f4906e"/><circle cx="340.268" cy="257.43" r=".56" fill="#f4906e"/><circle cx="363.041" cy="258.074" r=".989" fill="#ffcb33"/><path fill="#160b07" d="M361.661,236.11248c-1.42851.34255-2.2188,1.43791-3.7994,3.62857-3.05317,4.23165-4.86184,10.0507-6.97495,11.08216a1.30374,1.30374,0,0,1-.77259.15691c-.82653-.12087-1.15957-1.19134-2.07839-2.69765-.69436-1.13834-.99646-1.33409-1.40121-1.97183a9.20235,9.20235,0,0,1-.41478-8.30183,9.74987,9.74987,0,0,1,5.36111-4.73068c4.81415-2.06166,9.467-.26078,10.647.19593,7.08938,2.74392,10.11611,9.76249,9.86556,9.969C371.79881,243.68584,366.42217,234.9708,361.661,236.11248Z"/><path fill="#6c7fd8" d="M345.37384,273.21383c13.41453,7.96278,30.64358,29.41181,35.184,35.234a4.21433,4.21433,0,0,1,.83969,3.26882c-.28007,1.72115.146,20.24774.067,21.56723-.39434,6.587,2.67093,8.1988,15.5458,19.25609,0,0-38.4845,15.79184-51.795-6.01512-8.65508-16.35155-11.66087-70.95353-11.66087-70.95353C335.77193,270.68455,345.37384,273.21383,345.37384,273.21383Z"/><path fill="#f9977a" d="M407.58327,452.93068s-.69226,8.91174,21.89976,17.36987a1.172,1.172,0,0,1,.78934,1.02952c.03042,1.17211-1.76794,2.82483-14.84593-.11576a82.78341,82.78341,0,0,0-19.22747-2.00379h0a3.39113,3.39113,0,0,1-3.496-3.89491l1.46687-12.08786Z"/><path fill="#ffba55" d="M392.19034,467.38717a.95465.95465,0,0,1,1.15922-.675,171.41927,171.41927,0,0,0,20.47685,4.079,12.135,12.135,0,0,1,3.29443-4.64684,2.56169,2.56169,0,0,1,2.74712-.35589l5.148,2.44a.4188.4188,0,0,1-.0119.76093,3.0734,3.0734,0,0,0-1.52719,2.48954,21.40372,21.40372,0,0,0,6.04947-.58919.954.954,0,0,1,1.22156.54516.93591.93591,0,0,1-.55024,1.21261,19.26762,19.26762,0,0,1-5.75089.717c-4.49456.09954-12.00414-.41982-23.80223-2.99082l.07269,3.28211-8.05306-.44227S392.08923,467.77326,392.19034,467.38717Z"/><path fill="#f9977a" d="M447.89386,452.93068s-.69227,8.91174,21.89976,17.36987a1.172,1.172,0,0,1,.78933,1.02952c.03042,1.17211-1.76794,2.82483-14.84593-.11576a82.78336,82.78336,0,0,0-19.22747-2.00379h0a3.39113,3.39113,0,0,1-3.496-3.89491l1.46686-12.08786Z"/><path fill="#ffba55" d="M432.50093,467.38717a.95465.95465,0,0,1,1.15922-.675,171.4185,171.4185,0,0,0,20.47685,4.079,12.135,12.135,0,0,1,3.29442-4.64684,2.56169,2.56169,0,0,1,2.74712-.35589l5.148,2.44a.41879.41879,0,0,1-.0119.76093,3.07341,3.07341,0,0,0-1.52718,2.48954,21.4038,21.4038,0,0,0,6.04947-.58919.954.954,0,0,1,1.22156.54516.93592.93592,0,0,1-.55024,1.21261,19.2677,19.2677,0,0,1-5.75089.717c-4.49456.09954-12.00415-.41982-23.80224-2.99082l.07269,3.28211-8.053-.44227S432.39982,467.77326,432.50093,467.38717Z"/><path fill="#6c7fd8" d="M461.57051,438.99359l-24.92856-69.345a22.7,22.7,0,0,0-14.10878-12.01569c-9.80126-2.87505-25.321-6.90824-39.07032-8.20535,0,0-33.03373.41815-48.92337-7.94482,0,0-19.653,27.17965,2.927,45.16,0,0,9.55825,8.45538,33.15588,4.68407a15.5627,15.5627,0,0,1,14.05352,4.768,16.13814,16.13814,0,0,1,4.01379,12.70984s-.5805,26.545-4.11082,42.06542c-.42561,1.87112,2.33079,4.10129,6.60878,6.36775a56.28965,56.28965,0,0,0,65.33225-9.44012,23.96077,23.96077,0,0,0,5.07145-6.27991A2.97808,2.97808,0,0,0,461.57051,438.99359Z"/><path fill="#065082" d="M427.37 372.28363c-.95288-.8717-1.93628-1.7041-2.92383-2.52624-.99243-.81629-1.99292-1.62281-3.0498-2.34827a25.9886 25.9886 0 00-3.24512-2.04419 13.48107 13.48107 0 00-3.57861-1.36658 10.76888 10.76888 0 013.72485 1.07361 22.34777 22.34777 0 013.3457 1.99085A33.45831 33.45831 0 01427.37 372.28363zM432.089 370.51349q-1.31139-1.04169-2.67114-1.99866a31.16385 31.16385 0 00-2.79345-1.79028 19.14343 19.14343 0 00-2.96851-1.44678 11.68166 11.68166 0 00-3.21558-.75879 8.88111 8.88111 0 013.32373.44959 16.59487 16.59487 0 013.07276 1.38757A23.78448 23.78448 0 01432.089 370.51349zM448.485 409.43183a64.35778 64.35778 0 01-4.1665 5.8059c-.76367.91541-1.5271 1.83265-2.34522 2.70276a15.159 15.159 0 01-2.6875 2.36316 24.35126 24.35126 0 002.44336-2.58154c.762-.90894 1.52344-1.8186 2.2583-2.75147C445.494 413.13434 446.94419 411.25226 448.485 409.43183zM448.485 417.79474a45.964 45.964 0 01-5.0686 5.35486c-.93042.80615-1.866 1.6095-2.86475 2.33313a21.2888 21.2888 0 01-3.1477 1.92944 51.60253 51.60253 0 005.72827-4.57885C444.96543 421.21247 446.70615 419.492 448.485 417.79474zM344.7562 385.84125c1.55127.0459 3.10034.05359 4.64722.05176 1.54687-.01355 3.09253-.03919 4.63281-.14441a37.12636 37.12636 0 004.5918-.51123 11.3327 11.3327 0 004.33276-1.50952 9.957 9.957 0 01-4.26709 1.83044 31.85153 31.85153 0 01-4.63183.61475c-1.55469.07055-3.11036.10254-4.66358.046C347.84556 386.164 346.29575 386.04267 344.7562 385.84125zM353.50376 387.91632c1.58228-.07715 3.15259-.05053 4.7207-.10315.78418-.00317 1.56568-.04382 2.34619-.0896a9.35931 9.35931 0 002.30787-.3767 6.20112 6.20112 0 01-2.27247.70227c-.78759.11474-1.58105.15258-2.37231.1892A27.04291 27.04291 0 01353.50376 387.91632zM419.60728 406.24018c.79907 3.48925 1.66357 6.96191 2.55883 10.42468.90528 3.4602 1.83936 6.91321 2.90235 10.32617 1.03271 3.42126 2.176 6.81165 3.53393 10.1134a40.44293 40.44293 0 002.30542 4.82532 10.57384 10.57384 0 003.44312 4.0127 10.66857 10.66857 0 01-3.62232-3.9065 40.164 40.164 0 01-2.42773-4.80359 100.91694 100.91694 0 01-3.63916-10.11682q-1.54725-5.14782-2.81177-10.37134C421.00864 413.26312 420.25376 409.76142 419.60728 406.24018zM346.52085 348.60041c1.52783 1.957 3.12964 3.854 4.7666 5.718q2.43788 2.811 5.01 5.5a90.80646 90.80646 0 0011.04395 9.92334 43.40749 43.40749 0 006.23388 3.99512 19.57262 19.57262 0 006.99585 2.2251 10.544 10.544 0 003.647-.28211 9.31666 9.31666 0 003.26416-1.64209 15.27173 15.27173 0 004.3767-5.89685 15.3709 15.3709 0 01-4.24853 6.061 9.45434 9.45434 0 01-3.32666 1.71618 10.805 10.805 0 01-3.73584.32593 19.88083 19.88083 0 01-7.13281-2.19043 43.5215 43.5215 0 01-6.32837-3.97168 91.15756 91.15756 0 01-10.99365-10.069A122.97011 122.97011 0 01346.52085 348.60041zM408.46592 378.268l1.18188 11.17016 1.21949 11.16309q.6101 5.58087 1.36767 11.14246c.2522 1.85339.52686 3.7041.85718 5.54431.16015.921.33545 1.8396.55151 2.74878.10938.45385.22583.907.375 1.34936a2.775 2.775 0 00.65381 1.21729 2.795 2.795 0 01-.70288-1.19983c-.16626-.43921-.3-.88928-.42676-1.3407-.25049-.904-.46045-1.81848-.65527-2.73547-.37354-1.83728-.68433-3.68567-.97656-5.53638-.57447-3.70313-1.02588-7.42249-1.46607-11.142-.40405-3.72375-.79272-7.44873-1.12158-11.17932Q408.822 383.87482 408.46592 378.268z"/><rect width="500" height="2" x="91.533" y="472.595" fill="#935b50"/><path fill="#065082" d="M377.24985 322.754c-1.07324-2.0946-2.21093-4.155-3.37915-6.19666q-1.73-3.07488-3.564-6.08862c-2.45313-4.012-5.05274-7.9364-7.86695-11.69946a85.71078 85.71078 0 00-9.12182-10.71875 45.7174 45.7174 0 00-5.38672-4.52051 23.40109 23.40109 0 00-6.20361-3.28894c4.54345 1.38269 8.37573 4.39258 11.78686 7.60547a85.794 85.794 0 019.26709 10.67017c2.78565 3.80456 5.35059 7.7633 7.7666 11.80615C372.96934 314.363 375.22666 318.5025 377.24985 322.754zM369.19 327.49567q-2.358-3.27081-4.657-6.58154l-4.56324-6.645-4.48169-6.70032q-2.22546-3.36054-4.38647-6.76477 2.35877 3.27007 4.65747 6.58105l4.56275 6.64551 4.48095 6.70068Q367.02867 324.09162 369.19 327.49567zM342.847 296.26605c.5957 3.27076 1.27319 6.52417 1.99927 9.76465.73364 3.23865 1.51562 6.46668 2.44287 9.653a82.49915 82.49915 0 003.21387 9.40674 33.72617 33.72617 0 002.22607 4.4331 11.94872 11.94872 0 003.23242 3.72229 12.045 12.045 0 01-3.40844-3.61084 33.54825 33.54825 0 01-2.35035-4.41418 76.28434 76.28434 0 01-3.32251-9.42017A144.47361 144.47361 0 01342.847 296.26605z"/><path fill="#f9977a" d="M337.785,331.23545s.75672-3.7396,7.51393-8.755,12.60953-8.24206,8.77887-3.71253l-2.97625,3.40332s6.6193-1.40025,10.48959-2.57979a5.01025,5.01025,0,0,1,5.6485,1.90686c1.11285,1.676.81283,3.2611-3.37094,5.47916-6.25741,3.31742-9.36324,4.48014-11.148,4.84707l-.019.004a21.88267,21.88267,0,0,1-7.50224.38Z"/><path fill="#dd765e" d="M347.17344 323.33661a6.74831 6.74831 0 011.87524-.8772 7.11667 7.11667 0 011.00635-.23022 4.482 4.482 0 011.04663-.05786 10.0919 10.0919 0 01-1.90332.78125A8.62758 8.62758 0 01347.17344 323.33661zM355.96152 323.58454c1.55689-.65967 3.13013-1.226 4.68872-1.83 1.56446-.59412 3.11158-1.19141 4.6333-1.92175a11.61991 11.61991 0 01-2.1333 1.37317 21.39263 21.39263 0 01-2.3164 1.03c-.79077.29638-1.58936.56872-2.40381.78955A21.40439 21.40439 0 01355.96152 323.58454zM357.19468 325.75373c1.751-.59412 3.49878-1.13648 5.20849-1.77686.85962-.3064 1.69849-.65979 2.52271-1.03992a9.48269 9.48269 0 002.31372-1.4386 6.5426 6.5426 0 01-2.12793 1.78907 15.63479 15.63479 0 01-2.52954 1.17273 23.33916 23.33916 0 01-2.6582.80407A20.58627 20.58627 0 01357.19468 325.75373zM358.82529 327.49567l4.34107-1.51282c.71924-.25293 1.42456-.53747 2.13672-.81116.70776-.28527 1.40014-.60205 2.10913-.91809a13.782 13.782 0 01-4.07032 2.21375 19.83826 19.83826 0 01-2.2268.65588A14.98211 14.98211 0 01358.82529 327.49567z"/><path fill="#f9977a" d="M302.03613,312.00538c4.10123-7.42246,14.75106,4.802,15.77657,6.0428l26.48793,5.74558-1.13341,7.56689s-30.54457-.89715-36.5644-1.77729a6.18616,6.18616,0,0,1-1.97308-.71631,10.25008,10.25008,0,0,1-4.31232-13.30747C300.99145,314.08834,301.63745,312.72688,302.03613,312.00538Z"/><rect width="8.637" height="136.999" x="267.625" y="336.596" fill="#935b50" transform="rotate(-180 271.944 405.096)"/><rect width="259.546" height="6.624" x="251.09" y="329.972" fill="#935b50" rx="1.489" transform="rotate(-180 380.863 333.284)"/><rect width="8.637" height="136.999" x="484.775" y="336.596" fill="#935b50" transform="rotate(-180 489.094 405.096)"/><path fill="#c38f86" d="M263.8121,336.59588H497.32389a2.97795,2.97795,0,0,1,2.97795,2.97795V358.262a0,0,0,0,1,0,0H260.83415a0,0,0,0,1,0,0V339.57382A2.97795,2.97795,0,0,1,263.8121,336.59588Z" transform="rotate(-180 380.568 347.429)"/><path fill="#065082" d="M458.58945,430.67267a68.90158,68.90158,0,0,1-7.522,6.819,72.39038,72.39038,0,0,1-8.33887,5.806,71.22306,71.22306,0,0,1-9.05932,4.59314,63.631,63.631,0,0,1-9.625,3.229,44.04751,44.04751,0,0,1-10.0857,1.23438c-.84863-.02771-1.70166.03125-2.54712-.06812l-2.54028-.22155a42.52917,42.52917,0,0,1-4.99707-1.00257,39.7326,39.7326,0,0,1-4.84082-1.593,45.61464,45.61464,0,0,1-4.552-2.28309,47.89836,47.89836,0,0,1-8.22632-5.94311l.02783-.03211a46.13144,46.13144,0,0,0,17.69727,9.45,42.09931,42.09931,0,0,0,4.94214,1.00537l2.51416.22583c.83691.101,1.68188.04394,2.52246.07385a46.70619,46.70619,0,0,0,10.0332-1.073,54.14063,54.14063,0,0,0,9.61377-3.15,72.089,72.089,0,0,0,8.95508-4.72058,95.61443,95.61443,0,0,0,15.99756-12.37854Z"/><path fill="#ffba55" d="M454.60771 440.08938l.00009-.00006a.94506.94506 0 00.28992-1.3047h0a.94506.94506 0 01.28993-1.30469l.20134-.12813a.94507.94507 0 011.3047.28992h0a.94505.94505 0 001.30469.28993h0a.94507.94507 0 011.3047.28992l.12813.20135a.94505.94505 0 01-.28993 1.30469h0a.94506.94506 0 00-.28992 1.30469h0a.94506.94506 0 01-.28992 1.30469l-.20135.12813a.94506.94506 0 01-1.30469-.28992h0a.94507.94507 0 00-1.3047-.28993l-.00009.00006a.94505.94505 0 01-1.30469-.28993l-.12813-.20134A.94506.94506 0 01454.60771 440.08938zM447.71046 445.49845l.00009-.00006a.94506.94506 0 00.28993-1.30469h0a.94507.94507 0 01.28993-1.3047l.20134-.12813a.94507.94507 0 011.3047.28993h0a.94506.94506 0 001.30469.28992h0a.94506.94506 0 011.3047.28993l.12813.20134a.94506.94506 0 01-.28992 1.30469h0a.94506.94506 0 00-.28992 1.30469h0a.94506.94506 0 01-.28992 1.30469l-.20135.12814a.94506.94506 0 01-1.30469-.28993h0a.94507.94507 0 00-1.3047-.28992l-.00009.00005a.94506.94506 0 01-1.30469-.28992l-.12813-.20135A.94506.94506 0 01447.71046 445.49845zM439.72347 450.90753l.00009-.00006a.94506.94506 0 00.28992-1.30469h0a.94506.94506 0 01.28992-1.30469l.20135-.12813a.94506.94506 0 011.30469.28992h0a.94505.94505 0 001.30469.28993h0a.94506.94506 0 011.30469.28992l.12814.20135a.94506.94506 0 01-.28993 1.30469h0a.94506.94506 0 00-.28992 1.30469h0a.94505.94505 0 01-.28993 1.30469l-.20134.12813a.94507.94507 0 01-1.3047-.28992h0a.94505.94505 0 00-1.30469-.28993l-.00009.00006a.94505.94505 0 01-1.30469-.28993l-.12813-.20134A.945.945 0 01439.72347 450.90753zM430.78289 454.22392l.0001 0a.94506.94506 0 00.6996-1.13879h0a.94507.94507 0 01.69959-1.1388l.23213-.05545a.94506.94506 0 011.13879.69959h0a.94506.94506 0 001.13879.69959h0a.94506.94506 0 011.13879.6996l.05545.23212a.94506.94506 0 01-.69959 1.13879h0a.94507.94507 0 00-.6996 1.1388h0a.94506.94506 0 01-.6996 1.13879l-.23212.05546a.94506.94506 0 01-1.13879-.6996h0a.94507.94507 0 00-1.1388-.6996l-.0001 0a.94506.94506 0 01-1.13879-.6996l-.05546-.23212A.94507.94507 0 01430.78289 454.22392zM422.37666 455.95761h.00011a.945.945 0 00.82737-1.04963h0a.94507.94507 0 01.82738-1.04964l.237-.02806a.945.945 0 011.04963.82738h0a.94506.94506 0 001.04964.82737h0a.94506.94506 0 011.04963.82738l.02807.237a.94506.94506 0 01-.82738 1.04963h0a.94508.94508 0 00-.82738 1.04964h0a.945.945 0 01-.82737 1.04963l-.237.02807a.94507.94507 0 01-1.04963-.82738h0a.94506.94506 0 00-1.04963-.82738l-.00011 0a.94506.94506 0 01-1.04963-.82738l-.02806-.237A.94506.94506 0 01422.37666 455.95761zM412.26464 456.516h.0001a.94506.94506 0 00.9467-.94342h0a.94505.94505 0 01.9467-.94342l.23865.00041a.94506.94506 0 01.94343.9467h0a.945.945 0 00.94342.94669h0a.94506.94506 0 01.94342.9467l-.00041.23866a.94505.94505 0 01-.9467.94342h0a.94507.94507 0 00-.9467.94342h0a.94506.94506 0 01-.94669.94342l-.23866-.00042a.945.945 0 01-.94342-.94669h0a.94506.94506 0 00-.94343-.9467h-.0001a.94506.94506 0 01-.94342-.9467l.00041-.23866A.94506.94506 0 01412.26464 456.516zM402.78151 455.14844l.00011 0a.94506.94506 0 001.07037-.80037h0a.94506.94506 0 011.07038-.80036l.23621.03409a.94506.94506 0 01.80036 1.07037h0a.94506.94506 0 00.80036 1.07037h0a.94506.94506 0 01.80036 1.07037l-.03409.23621a.94507.94507 0 01-1.07038.80037h0a.945.945 0 00-1.07037.80036h0a.94506.94506 0 01-1.07037.80037l-.23621-.0341a.94506.94506 0 01-.80037-1.07037h0a.94507.94507 0 00-.80036-1.07038h-.00011a.94506.94506 0 01-.80036-1.07037l.03409-.23621A.94507.94507 0 01402.78151 455.14844zM394.21153 452.154l.0001 0a.94507.94507 0 001.20463-.57893h0a.945.945 0 011.20462-.57892l.2252.079a.94506.94506 0 01.57893 1.20463h0a.94505.94505 0 00.57893 1.20462h0a.94508.94508 0 01.57893 1.20463l-.079.2252a.94505.94505 0 01-1.20462.57893h0a.94506.94506 0 00-1.20463.57893h0a.94507.94507 0 01-1.20463.57893l-.2252-.079a.94506.94506 0 01-.57893-1.20462h0a.945.945 0 00-.57892-1.20462l-.0001 0a.94505.94505 0 01-.57893-1.20462l.079-.22521A.94506.94506 0 01394.21153 452.154zM386.97 446.87634l.00009.00006a.94506.94506 0 001.29674-.32366h0a.94506.94506 0 011.29674-.32366l.2046.12287a.94507.94507 0 01.32366 1.29674h0a.94506.94506 0 00.32365 1.29674h0a.94505.94505 0 01.32366 1.29673l-.12287.2046a.94505.94505 0 01-1.29673.32366h0a.94506.94506 0 00-1.29674.32366h0a.94507.94507 0 01-1.29674.32366l-.2046-.12287a.94506.94506 0 01-.32366-1.29674h0a.94506.94506 0 00-.32365-1.29674l-.00009 0a.94506.94506 0 01-.32366-1.29674l.12287-.2046A.94506.94506 0 01386.97 446.87634zM325.26018 413.52932h.00011a.94506.94506 0 001.0287-.85326h0a.94507.94507 0 011.02871-.85326l.23762.02216a.94506.94506 0 01.85326 1.0287h0a.94507.94507 0 00.85326 1.02871h0a.94507.94507 0 01.85326 1.02871l-.02216.23762a.94506.94506 0 01-1.0287.85326h0a.94506.94506 0 00-1.0287.85326h0a.94506.94506 0 01-1.02871.85325l-.23762-.02215a.94507.94507 0 01-.85326-1.02871h0a.94506.94506 0 00-.85326-1.0287h-.0001a.94507.94507 0 01-.85326-1.02871l.02216-.23763A.94505.94505 0 01325.26018 413.52932zM316.99591 410.86724l.0001 0a.94506.94506 0 001.22012-.54552h0a.94507.94507 0 011.22012-.54552l.22294.08518a.94507.94507 0 01.54552 1.22012h0a.94505.94505 0 00.54552 1.22012h0a.94507.94507 0 01.54552 1.22012l-.08518.22294a.94506.94506 0 01-1.22012.54552h0a.94505.94505 0 00-1.22012.54552h0a.94507.94507 0 01-1.22012.54552l-.22294-.08518a.94506.94506 0 01-.54552-1.22012h0a.94506.94506 0 00-.54552-1.22012l-.0001 0a.94507.94507 0 01-.54552-1.22012l.08518-.22294A.94507.94507 0 01316.99591 410.86724zM308.46376 404.88963l.0001 0a.94507.94507 0 001.22012-.54552h0a.94505.94505 0 011.22012-.54552l.22294.08518a.94507.94507 0 01.54552 1.22012h0a.94506.94506 0 00.54551 1.22012h0a.94507.94507 0 01.54552 1.22012l-.08518.22294a.94506.94506 0 01-1.22012.54551h0a.94507.94507 0 00-1.22012.54552h0a.94506.94506 0 01-1.22012.54552l-.22294-.08518a.945.945 0 01-.54552-1.22011h0a.94506.94506 0 00-.54552-1.22011l-.0001 0a.94507.94507 0 01-.54552-1.22012l.08518-.22294A.94506.94506 0 01308.46376 404.88963zM299.72724 400.8775l.0001 0a.94507.94507 0 001.22012-.54552h0a.94506.94506 0 011.22012-.54552l.22294.08518a.945.945 0 01.54552 1.22011h0a.945.945 0 00.54552 1.22011h0a.945.945 0 01.54552 1.22011l-.08518.22294a.94505.94505 0 01-1.22012.54552h0a.94507.94507 0 00-1.22012.54552h0a.94505.94505 0 01-1.22012.54552l-.22294-.08518a.94506.94506 0 01-.54552-1.22012h0a.94506.94506 0 00-.54552-1.22012l-.00009 0a.94506.94506 0 01-.54552-1.22012l.08518-.22294A.945.945 0 01299.72724 400.8775z"/><path fill="#065082" d="M334.24033,383.72785a22.75808,22.75808,0,0,1-4.39355-5.39917,24.77663,24.77663,0,0,1-2.71778-6.43921,24.318,24.318,0,0,1-.81445-6.93909,25.93612,25.93612,0,0,1,.30127-3.4812c.17285-1.15076.51-2.27173.75586-3.40295a33.15236,33.15236,0,0,0-.72974,6.88684,25.2326,25.2326,0,0,0,.898,6.82666,25.74931,25.74931,0,0,0,2.58911,6.38549A26.21741,26.21741,0,0,0,334.24033,383.72785Z"/><path fill="#ffba55" d="M273.95116,326.04607v.36982a3.5573,3.5573,0,0,0,3.556,3.556h10.68222a3.5573,3.5573,0,0,0,3.556-3.556V312.02121a3.5573,3.5573,0,0,0-3.556-3.556H277.50716a3.5573,3.5573,0,0,0-3.556,3.556v14.02486Z"/><path fill="#065082" d="M266.99575,313.20169V324.9792a1.0653,1.0653,0,0,0,1.0668,1.0668h5.88858v-2.1336h-4.82178v-9.64391h4.82178v-2.1336h-5.88858A1.06541,1.06541,0,0,0,266.99575,313.20169Z"/><rect width="4.42" height="4.42" x="278.429" y="315.828" fill="#e6952a" rx=".711" transform="rotate(-180 280.638 318.038)"/><rect width="1.002" height="7.362" x="280.137" y="308.465" fill="#e5caf3"/><rect width="150.552" height="80.295" x="104.976" y="366.618" fill="#c38f86" rx="3.872" transform="rotate(-180 180.253 406.765)"/><path fill="#ab695d" d="M249.444 405.934H111.06113a3.58509 3.58509 0 01-3.58105-3.581V373.99652a3.58509 3.58509 0 013.58105-3.581H249.444a3.5851 3.5851 0 013.58105 3.581V402.353A3.5851 3.5851 0 01249.444 405.934zm-140.96387-3.581a2.58442 2.58442 0 002.58105 2.581H249.444a2.58442 2.58442 0 002.58105-2.581v0a2.58442 2.58442 0 01-2.58105 2.581H111.06113A2.58442 2.58442 0 01108.48008 402.353zm2.58105-29.9375a1.58249 1.58249 0 00-1.58105 1.581V402.353a1.58249 1.58249 0 001.58105 1.581H249.444a1.58249 1.58249 0 001.58105-1.581V373.99652a1.58249 1.58249 0 00-1.58105-1.581zM249.444 442.98871H111.06113a3.58509 3.58509 0 01-3.58105-3.58105V411.05023a3.58509 3.58509 0 013.58105-3.58105H249.444a3.5851 3.5851 0 013.58105 3.58105v28.35743A3.5851 3.5851 0 01249.444 442.98871zm-140.96387-3.58105a2.58442 2.58442 0 002.58105 2.58105H249.444a2.58442 2.58442 0 002.58105-2.58105v0a2.58442 2.58442 0 01-2.58105 2.58105H111.06113A2.58442 2.58442 0 01108.48008 439.40766zm2.58105-29.93848a1.58249 1.58249 0 00-1.58105 1.58105v28.35743a1.58249 1.58249 0 001.58105 1.58105H249.444a1.58249 1.58249 0 001.58105-1.58105V411.05023a1.58249 1.58249 0 00-1.58105-1.58105z"/><path fill="#935b50" d="M220.58958 390.50228a6.983 6.983 0 108.42845-6.82955 1.61577 1.61577 0 00.18767-.745 1.63337 1.63337 0 00-3.26673 0 1.61679 1.61679 0 00.18766.7453A6.99247 6.99247 0 00220.58958 390.50228zm2.36656 0a4.61639 4.61639 0 114.61639 4.61639A4.62153 4.62153 0 01222.95614 390.50228zM125.016 390.50228a6.983 6.983 0 108.42859-6.82955 1.61576 1.61576 0 00.18766-.745 1.6333 1.6333 0 00-3.2666 0 1.61577 1.61577 0 00.18767.745A6.99285 6.99285 0 00125.016 390.50228zm2.36656 0a4.61639 4.61639 0 114.61639 4.61639A4.62153 4.62153 0 01127.38259 390.50228zM220.58958 425.13432a6.983 6.983 0 108.42885-6.83036 1.6335 1.6335 0 10-2.89207 0A6.99288 6.99288 0 00220.58958 425.13432zm2.36656 0a4.61639 4.61639 0 114.61639 4.61639A4.62176 4.62176 0 01222.95614 425.13432zM125.016 425.13432a6.983 6.983 0 108.42885-6.83036 1.61577 1.61577 0 00.1874-.7445 1.6333 1.6333 0 00-3.2666 0 1.61567 1.61567 0 00.18727.7445A6.99286 6.99286 0 00125.016 425.13432zm2.36656 0a4.61639 4.61639 0 114.61639 4.61639A4.62176 4.62176 0 01127.38259 425.13432z"/><polygon fill="#935b50" points="244.734 446.912 244.734 472.478 243.219 472.478 234.508 446.912 244.734 446.912"/><polygon fill="#935b50" points="115.36 446.912 115.36 472.478 116.875 472.478 125.587 446.912 115.36 446.912"/><path fill="#ffba55" d="M223.987 273.13908H150.34272a2 2 0 01-2-2V191.4117a2 2 0 012-2h87.28846a2 2 0 012 2v66.67506zM237.63121 273.13909a2 2 0 002-2V258.08678L223.987 273.13909z"/><path fill="#e6952a" d="M163.9868 198.79149a1.49976 1.49976 0 01-1.5-1.5v-14.3999a1.5 1.5 0 013 0v14.3999A1.49976 1.49976 0 01163.9868 198.79149zM153.9868 198.79149a1.49976 1.49976 0 01-1.5-1.5v-14.3999a1.5 1.5 0 013 0v14.3999A1.49976 1.49976 0 01153.9868 198.79149zM173.9868 198.79149a1.49976 1.49976 0 01-1.5-1.5v-14.3999a1.5 1.5 0 013 0v14.3999A1.49976 1.49976 0 01173.9868 198.79149zM183.9868 198.79149a1.49976 1.49976 0 01-1.5-1.5v-14.3999a1.5 1.5 0 013 0v14.3999A1.49976 1.49976 0 01183.9868 198.79149zM193.9868 198.79149a1.49976 1.49976 0 01-1.5-1.5v-14.3999a1.5 1.5 0 013 0v14.3999A1.49976 1.49976 0 01193.9868 198.79149zM203.9868 198.79149a1.49976 1.49976 0 01-1.5-1.5v-14.3999a1.5 1.5 0 013 0v14.3999A1.49976 1.49976 0 01203.9868 198.79149zM213.9868 198.79149a1.49976 1.49976 0 01-1.5-1.5v-14.3999a1.5 1.5 0 013 0v14.3999A1.49976 1.49976 0 01213.9868 198.79149zM223.9868 198.79149a1.49976 1.49976 0 01-1.5-1.5v-14.3999a1.5 1.5 0 013 0v14.3999A1.49976 1.49976 0 01223.9868 198.79149zM233.9868 198.79149a1.49976 1.49976 0 01-1.5-1.5v-14.3999a1.5 1.5 0 013 0v14.3999A1.49976 1.49976 0 01233.9868 198.79149z"/><polygon fill="#e6952a" points="239.562 258.015 223.918 258.159 224.057 273.211 239.562 258.015"/><circle cx="202.487" cy="214.291" r="6.48" fill="#e6952a"/><circle cx="220.467" cy="214.291" r="6.48" fill="#e6952a"/><circle cx="165.076" cy="230.291" r="6.48" fill="#e6952a"/><circle cx="183.987" cy="230.291" r="6.48" fill="#e6952a"/><circle cx="202.487" cy="230.291" r="6.48" fill="#e6952a"/><circle cx="220.467" cy="230.291" r="6.48" fill="#e6952a"/><circle cx="165.076" cy="246.291" r="6.48" fill="#e6952a"/><circle cx="183.987" cy="246.291" r="6.48" fill="#e6952a"/><circle cx="202.487" cy="246.291" r="6.48" fill="#e6952a"/><circle cx="220.467" cy="246.291" r="6.48" fill="#e6952a"/><circle cx="165.076" cy="261.291" r="6.48" fill="#e6952a"/><path fill="#af2f2f" d="M180.221,239.95221a37.72657,37.72657,0,0,1,4.32032,6.00977c.61792,1.06225,1.22192,2.13281,1.76123,3.2417a26.75929,26.75929,0,0,1,1.45,3.42675,26.791,26.791,0,0,1-2.31567-2.91235c-.71583-1.00415-1.36719-2.04663-2.00464-3.09741A37.70872,37.70872,0,0,1,180.221,239.95221Z"/><path fill="#af2f2f" d="M187.75254,239.95221a37.70938,37.70938,0,0,1-3.21118,6.66846c-.63745,1.05078-1.28882,2.09326-2.00464,3.09741a26.76079,26.76079,0,0,1-2.31568,2.91235,26.75791,26.75791,0,0,1,1.45-3.42675c.5393-1.10889,1.14331-2.17945,1.76123-3.2417A37.74222,37.74222,0,0,1,187.75254,239.95221Z"/><path fill="#e5e1e5" d="M484.89632,329.96017l-59.34448.14275,14.54857-44.47122,58.43107-.14055a2,2,0,0,1,1.90568,2.62185L487.3405,328.14609A2.59373,2.59373,0,0,1,484.89632,329.96017Z"/><path fill="#baafb9" d="M440.383,285.63109a2.1852,2.1852,0,0,0-2.01126,1.55049L425.728,325.44719l-37.9192.09121a2.42686,2.42686,0,0,0-2.34692,1.64988,2.33181,2.33181,0,0,0,2.25033,3.00565l38.94608-.09369a2,2,0,0,0,1.8878-1.35343l13.79358-40.3763A2.07024,2.07024,0,0,0,440.383,285.63109Z"/><path fill="#935b50" d="M392.79738 328.49926l-2.97442.00716a.6453.6453 0 01-.0031-1.2906l2.97441-.00715a.6453.6453 0 11.00311 1.29059zM405.70332 328.46822l-2.97441.00715a.6453.6453 0 01-.00311-1.29059l2.97442-.00716a.6453.6453 0 11.0031 1.2906z"/><ellipse cx="463.426" cy="308.465" fill="#9e9797" rx="6.892" ry="1.704" transform="rotate(-.138 463.433 308.472)"/><rect width="195.401" height="62.528" x="327.296" y="81.416" fill="#c0d6f2" rx="3.102"/><rect width="180.513" height="11.166" x="334.74" y="129.801" fill="#a2aee6" rx="1"/><path fill="#dae8f7" d="M334.90645,146.13567H510.73428a1,1,0,0,0,.95136-.6919l2.35229-7.26344a1,1,0,0,0-.95135-1.3081H337.25875a1,1,0,0,0-.95136.69191l-2.35229,7.26343A1,1,0,0,0,334.90645,146.13567Z"/><path fill="#a2aee6" d="M512.46139,109.64409H334.73971a.5.5,0,0,1,0-1H512.46139a.5.5,0,0,1,0,1Z"/><rect width="17.865" height="8.188" x="489.386" y="92.023" fill="#dae8f7" rx="1"/><path fill="#dae8f7" d="M467.78878 152.4709a70.41428 70.41428 0 003.05481 10.01276 76.36428 76.36428 0 004.34814 9.49451 61.89183 61.89183 0 0012.62513 16.44644 54.48822 54.48822 0 008.28515 6.25177 58.84474 58.84474 0 009.40528 4.41687c.81921.28537 1.65466.52554 2.48193.791l1.24438.38959 1.26783.304 2.54028.60016 2.57629.428c1.71106.3501 3.4563.43839 5.19141.63721.86755.11707 1.74292.08771 2.61523.13675l2.62207.1098A59.08577 59.08577 0 01505.258 199.821a53.37193 53.37193 0 01-9.62183-4.3627 55.1518 55.1518 0 01-8.49414-6.29721 60.72826 60.72826 0 01-12.62732-16.82495A68.87657 68.87657 0 01467.78878 152.4709zM366.04671 152.4709a68.87626 68.87626 0 01-6.726 19.86521 60.72826 60.72826 0 01-12.62732 16.825 55.1518 55.1518 0 01-8.49414 6.29721 53.37184 53.37184 0 01-9.62182 4.3627 59.08586 59.08586 0 01-20.7887 2.66876l2.62207-.1098c.87231-.049 1.74768-.01968 2.61523-.13675 1.73511-.19882 3.48035-.28711 5.19141-.63721l2.57629-.428 2.54029-.60016 1.26782-.304 1.24439-.38959c.82727-.26547 1.66271-.50564 2.48193-.791a58.84464 58.84464 0 009.40527-4.41687 54.48879 54.48879 0 008.28516-6.25177 61.89158 61.89158 0 0012.62512-16.44644 76.36428 76.36428 0 004.34814-9.49451A70.413 70.413 0 00366.04671 152.4709zM430.52669 157.37566a71.5172 71.5172 0 016.46766 21.942 108.568 108.568 0 01.95764 11.45188 49.20654 49.20654 0 01-.25391 5.76526 38.428 38.428 0 01-1.08264 5.685c-2.05542 7.51059-7.15308 13.93741-13.45374 18.36756a35.33388 35.33388 0 01-21.86462 6.55624 36.16768 36.16768 0 01-11.28747-2.55462 34.613 34.613 0 01-5.21021-2.56876 26.06025 26.06025 0 01-4.58191-3.59555 22.01717 22.01717 0 01-3.58545-4.60394c-.45813-.85974-.86645-1.75067-1.27319-2.63572l-.496-1.37536-.40064-1.403a26.0641 26.0641 0 01-.35046-11.55053 16.3943 16.3943 0 012.13794-5.425 10.80156 10.80156 0 014.325-3.91864 13.14014 13.14014 0 0111.3324.30258 11.90609 11.90609 0 014.309 3.85153 9.9608 9.9608 0 011.81811 5.44208 9.42381 9.42381 0 01-1.6438 5.45465 11.932 11.932 0 01-4.26367 3.7724 11.87266 11.87266 0 004.16174-3.84009 9.23862 9.23862 0 001.5011-5.37988 9.65394 9.65394 0 00-1.87427-5.23874 11.4777 11.4777 0 00-4.23046-3.626 12.61425 12.61425 0 00-10.83582-.16958 10.13308 10.13308 0 00-4.00793 3.725 15.66817 15.66817 0 00-1.97571 5.204 22.79074 22.79074 0 00-.38635 5.6091 27.24135 27.24135 0 00.82019 5.57 20.09581 20.09581 0 005.55676 9.58661 25.14064 25.14064 0 004.43091 3.44876 33.67456 33.67456 0 005.07129 2.47436 35.31815 35.31815 0 0010.991 2.447 34.38232 34.38232 0 0021.29285-6.30378 33.55274 33.55274 0 0013.23755-17.83361 37.70036 37.70036 0 001.12585-5.55448 48.51372 48.51372 0 00.31763-5.67956 110.606 110.606 0 00-.81177-11.40171A71.272 71.272 0 00430.52669 157.37566z"/></svg>