<svg xmlns="http://www.w3.org/2000/svg" width="452.142" height="390.548" viewBox="0 0 452.142 390.548">
  <g id="Group_173073" data-name="Group 173073" transform="translate(-225 -3956)">
    <path id="Path_38949" data-name="Path 38949" d="M472.946,200.413c-.209-1.59-.5-3.171-.771-4.761a66.292,66.292,0,0,0-4.913-16.119,27,27,0,0,0-2.856-5.17,31.067,31.067,0,0,0-12.758-10.473,18.09,18.09,0,0,0-3.713-1.162,74.942,74.942,0,0,0-7.741-.9,35.78,35.78,0,0,0-12.672,1.276,63.976,63.976,0,0,0-8.893,3.228c-.362.162-.714.514-1.342.286a20.474,20.474,0,0,1,.448-3.047,16.662,16.662,0,0,0,.695-5.132,5.333,5.333,0,0,0,0-.552,1.714,1.714,0,0,1,1.409-1.9,10.14,10.14,0,0,0,2.656-1.3c1.019-.714,2.028-1.428,3.066-2.095a8.749,8.749,0,0,0,3.228-3.513,15.691,15.691,0,0,0,1.819-8.245,22.946,22.946,0,0,0-2.437-8.893c-.828-1.59-1.723-3.142-2.59-4.76-.2-.352-.533-.657-.5-1.123.124,0,.248-.086.343-.048a1.257,1.257,0,0,0,1.742-.562,1.277,1.277,0,0,0-.533-1.628l-.143-.124a84.021,84.021,0,0,0-11.73-9.692,58.287,58.287,0,0,0-14-7.188c-.3-.1-.7-.124-.838-.581l2.257-.876a9.75,9.75,0,0,0,1.028-.428c.5-.276.952-.647.857-1.3a1.466,1.466,0,0,0-1.114-1.123,6.068,6.068,0,0,0-.743-.1,33.027,33.027,0,0,0-5.713-.476,35.417,35.417,0,0,0-8.674.771,61.381,61.381,0,0,0-17.614,7.226,23.241,23.241,0,0,0-6.389,5.617,29.514,29.514,0,0,0-4.256,8,20.944,20.944,0,0,0-1.257,4.065,2.647,2.647,0,0,0,.657,2.561,12.066,12.066,0,0,1,1.247,1.847,7.617,7.617,0,0,1,1.123,2.733,58.713,58.713,0,0,1,1.133,8.835,91.513,91.513,0,0,0,.733,9.264c.352,2.571.666,5.151,1.019,7.731.171,1.228.314,2.466.571,3.666a29.258,29.258,0,0,0,12.044,18.337,24.231,24.231,0,0,0,12.12,4.761,4.951,4.951,0,0,1,.952.152c.324.1.752-.086.952.457l-5.008,5.16a149,149,0,0,0-10.473,11.578c-2.142,2.723-4.361,5.389-6.474,8.14-1.847,2.409-3.637,4.865-5.332,7.379a3.914,3.914,0,0,1-1.9,1.58q-6.084,2.285-12.149,4.6a15.234,15.234,0,0,1-3.047.781c-3.17.5-4.637-.847-5.713-2.742-.457-.809-.828-1.666-1.342-2.437a4.818,4.818,0,0,1-.809-2.78q-.4-29.01-.847-58.011-.3-21.479-.524-42.949c0-3.6-.057-7.2-.1-10.787q-.219-15.234-.447-30.467-.171-10.787-.324-21.565a11.689,11.689,0,0,0-.067-1.295A1.076,1.076,0,0,0,335.111,53c-.609-.048-1.238,0-1.9,0q-44.53.143-89.069.267c-35.228.086-70.455.057-105.626.219q-56.174.248-112.348.248h-2.98A1.219,1.219,0,0,0,21.955,54.9a9.9,9.9,0,0,0-.048,1.3v7.245q-.19,52.9-.381,105.807-.124,40.445-.19,80.929-.114,42.016-.276,84.052v1.666a1.114,1.114,0,0,0,1.19,1.162h1.676l32.371-.228,84.232-.476q45-.3,90-.628,53.375-.333,106.731-.6h1.3c1.028-.086,1.419-.486,1.476-1.533v-1.295c-.048-2.171-.114-4.342-.143-6.512q-.352-26.659-.7-53.365c0-2.114-.181-1.9,1.9-1.857,3.285.067,6.579.086,9.854-.152,4.075-.286,8.15-.685,12.225-1.038,1.009-.314,1.647-.181,1.276,1.1a139.59,139.59,0,0,0-2.38,18.214c-.314,4.76-.514,9.521-.762,14.282-.257,5.027,0,10.035.228,15.043.171,3.808.666,7.617.857,11.492a113.105,113.105,0,0,0,2.19,15.776c.676,3.456,1.523,6.884,2.018,10.378q1.009,7.084,2.095,14.148a31.784,31.784,0,0,0,.847,4.361c1.228,4.113,3.523,7.16,8.074,8.017,2.371.447,4.713,1.057,7.112,1.323.838.086.866.1.79.885-.219,2.152-.533,4.3-.657,6.465-.19,3.409-.7,6.779-1.1,10.159-.362,3.066-.876,6.132-1.181,9.207-.371,3.808-.638,7.617-.876,11.492-.4,6.617-.752,13.234-1.1,19.851-.1,1.828,0,1.9,1.819,1.7a1.274,1.274,0,0,0,.343-.133h0c.314-5.941.609-11.882.952-17.823.228-3.894.447-7.788.79-11.673.286-3.209.733-6.4,1.133-9.6.552-4.484,1.209-8.959,1.419-13.482.086-1.9.3-3.808.514-5.713.086-.819.228-.952,1.066-.952,4.4.048,8.788-.362,13.177-.638a81.033,81.033,0,0,0,9.521-1.352c1.152-.2,2.3-.438,3.466-.647.752-.143.752-.143,1.133.533a36.244,36.244,0,0,0,5.617,7.617,9.254,9.254,0,0,0,4.837,2.942l.352.114c.952.314.952.4.952,1.295,0,.3-.057.619-.057.952-.048,3.228-.133,6.446-.124,9.673a19.528,19.528,0,0,0,1.476,7.426,6.331,6.331,0,0,0,2.552,3.1,2.447,2.447,0,0,0,3.685-1.19,1.781,1.781,0,0,0,.048-.895.9.9,0,0,0-1.019-.609,2.294,2.294,0,0,0-.952.59.724.724,0,0,1-1.009,0,4.685,4.685,0,0,1-1.428-2.142,17.784,17.784,0,0,1-1.133-5.808c0-4.522,0-9.045.257-13.567s.524-8.9.79-13.329c0-.752,0-.771.819-.952,3.113-.809,6.236-1.59,9.35-2.418,4.894-1.314,9.788-2.666,14.691-4,.657-.181.79-.124.952.457a9.741,9.741,0,0,1,.248,1.276,127.1,127.1,0,0,1,.733,17.442q-.114,4.761-.1,9.521a97.614,97.614,0,0,1-.952,13.329c-.628,4.665-1.371,9.312-2.39,13.9a107.319,107.319,0,0,1-3.989,13.329c-.428,1.162-.895,2.3-1.342,3.456a3.7,3.7,0,0,0,1.818.152.676.676,0,0,0,.676-.524c.086-.228.209-.447.3-.676a119.608,119.608,0,0,0,4.523-14.31c1.047-4.275,1.7-8.626,2.38-12.968a106.006,106.006,0,0,0,1.295-16.1c0-4.027.057-8.064.1-12.092a77.88,77.88,0,0,0-.381-9.654c-.3-2.514-.59-5.018-.885-7.569.343-.181.666-.362,1-.524a8.569,8.569,0,0,0,4.465-5.208,28.833,28.833,0,0,0,1.323-5.4c.847-5.827,1.447-11.682,1.9-17.547.543-6.665.609-13.377.5-20.07-.143-9.293-.276-18.595-.771-27.878-.238-4.58-.333-9.169-.6-13.748-.466-7.912-1.381-15.8-2.285-23.669q-.847-7.3-1.742-14.586c-.4-3.256-.781-6.512-1.4-9.74-.476-2.494-.952-4.979-1.39-7.483-.314-1.961-.6-3.923-1.028-5.855-.067-.3-.219-.59,0-.876a2.161,2.161,0,0,1,1.228.343c1.076.457,2.142.952,3.256,1.342,4.056,1.295,7.055-.314,8.74-3.561a7.426,7.426,0,0,0,.7-2.3,43.683,43.683,0,0,0,.428-12.406ZM420.971,135.47a17.309,17.309,0,0,1,4.294,5.513,1.971,1.971,0,0,1,.267.686.552.552,0,0,1-.267.447.581.581,0,0,1-.5,0,2.494,2.494,0,0,1-.533-.733,17.68,17.68,0,0,0-5.256-6.141,44.748,44.748,0,0,0-5.151-3.618,12.081,12.081,0,0,0-3.037-1.352.543.543,0,0,1-.3-.409c0-.267.219-.409.6-.514.419.143.952.286,1.447.5a20.111,20.111,0,0,1,3.409,1.9,52.149,52.149,0,0,1,5.037,3.723Zm-8.9-.124a.581.581,0,0,1-.39.562,1.733,1.733,0,0,1-1.095-.086,27.83,27.83,0,0,1-8.35-4.665,3.113,3.113,0,0,1-1.019-1.3.552.552,0,0,1,.143-.666.4.4,0,0,1,.628.086c1.247,1.9,3.266,2.79,5.122,3.808a12.845,12.845,0,0,0,4.456,1.761.647.647,0,0,1,.5.5Zm-13.7-23.964c.1-.3.476-.343.952-.1s.866.467,1.285.733a61.477,61.477,0,0,1,13.558,11.7c.314.381.619.762.952,1.162a1.9,1.9,0,0,1,.171.476c-.086.143-.124.3-.209.333s-.419.114-.5,0a12.436,12.436,0,0,1-1.143-1.209,62.907,62.907,0,0,0-12.73-11.263c-.619-.409-1.266-.762-1.9-1.162-.267-.124-.571-.286-.428-.676Zm-24.136,3.18a1.439,1.439,0,0,1,.333-.133,43.15,43.15,0,0,1,8.883-1.152,27.965,27.965,0,0,1,5.8.847,34.553,34.553,0,0,1,6.3,2.19,22.746,22.746,0,0,1,2.076,1.219.745.745,0,0,1,.428.952c-.1.267-.514.3-.952,0a20.336,20.336,0,0,0-3.808-1.9,28.563,28.563,0,0,0-17.661-1.333,2.523,2.523,0,0,1-1.266.171.438.438,0,0,1-.362-.371.419.419,0,0,1,.229-.486ZM396.7,124.9a.7.7,0,0,1-.314.419.952.952,0,0,1-.533,0,90.517,90.517,0,0,1-9.416-1.752,5.428,5.428,0,0,1-.857-.314.5.5,0,0,1-.343-.581c.076-.3.333-.3.543-.3l2.913.638c2.218.5,4.456.876,6.712,1.171a8.772,8.772,0,0,1,1.076.248.343.343,0,0,1,.229.476Zm-6.969,60.344a23.631,23.631,0,0,1-12.987-5.446,26.878,26.878,0,0,1-10.13-17.947,177.388,177.388,0,0,1-1.9-18.652,40.938,40.938,0,0,0-1.419-9.34A10.34,10.34,0,0,0,362.007,131a.6.6,0,0,1,.1-.828,10.14,10.14,0,0,1,.828-.733,43.884,43.884,0,0,1,9.769-5.656,16.348,16.348,0,0,1,7.988-1.162c.1.447-.248.514-.5.647a18.168,18.168,0,0,0-3.808,2.59,5.912,5.912,0,0,0-1.457,1.9,1.514,1.514,0,0,0,1.276,2.18,5.151,5.151,0,0,0,1.657-.143c1.9-.39,3.866-.847,5.827-1.1a20.946,20.946,0,0,1,10.93,1.314,7.028,7.028,0,0,1,.647.352c.181.4-.152.514-.39.666a7.714,7.714,0,0,0-1.228.4,1.19,1.19,0,0,0-.152,2.009,5.056,5.056,0,0,0,1.323.657,25.554,25.554,0,0,1,10.568,7.312c.286.324.581.638.885.952a3.637,3.637,0,0,0,4.256.885,10.92,10.92,0,0,0,3.113-1.628c1.609-1.3,3.323-1.152,5.065-.447a5.227,5.227,0,0,1,3.418,3.808,8.569,8.569,0,0,1-2.257,7.874,2.742,2.742,0,0,1-1.457.743,2.5,2.5,0,0,0-1.952,2.418,19.235,19.235,0,0,0-.1,2.218,11.969,11.969,0,0,1-.381,3.313,32.873,32.873,0,0,0-.952,5.713,1.742,1.742,0,0,1-.9,1.495,76.28,76.28,0,0,0-11.3,8.426c-3.209,2.723-6.55,5.3-9.521,8.331a.838.838,0,0,1-1.143.238,5.5,5.5,0,0,0-2.409-.5ZM335.939,333.021l-81.071.457q-61.82.371-123.649.762-53.184.343-106.359.733c-1.838,0-1.676.133-1.676-1.7L23.5,228.186q.171-53.089.333-106.178l.209-58.383c0-2.295.076-4.58.133-6.865,0-.724.143-.838.885-.866h1.676L196.5,55.484l135.741-.362h1.295c.476,0,.647.276.647.714,0,1.733,0,3.475.048,5.208q.257,19.423.514,38.855.333,25.85.638,51.69.371,29.106.752,58.192c0,2.161.1,4.323.152,6.493-.19,0-.371.048-.409,0-3.075-4.494-6.331-8.864-9.245-13.463-.828-1.314-1.685-2.6-2.561-3.875a32.144,32.144,0,0,1-2.856-5.2,33.912,33.912,0,0,0-1.771-3.466,4.837,4.837,0,0,0-4.3-2.761,2.266,2.266,0,0,1-1.742-.9,12.777,12.777,0,0,1-2.59-4.675c-.638-1.9-1.257-3.885-1.819-5.855a36.179,36.179,0,0,0-2.428-6.208l-1.9-3.808a20.508,20.508,0,0,0-2.4-3.742,47.951,47.951,0,0,0-3.6-3.808,11.52,11.52,0,0,0-6.941-3.237,6.417,6.417,0,0,1-3.532-1.4,2.733,2.733,0,0,0-3.742-.219,2.856,2.856,0,0,0-.952,1.714.856.856,0,0,1-.229,0c-3.266-1.752-6.75-3.085-9.864-5.132A15.348,15.348,0,0,0,268.73,148a4.342,4.342,0,0,0-4.342.876,2.542,2.542,0,0,0-.409,3.656,10.866,10.866,0,0,0,2.038,2.142,81.351,81.351,0,0,0,8.645,6.1.476.476,0,0,1,.048.7,3.328,3.328,0,0,0-.552.114,4.389,4.389,0,0,0-3.094,5.532,2.142,2.142,0,0,1-.114,1.9,2.685,2.685,0,0,0,.228,3.151,4.227,4.227,0,0,1,.657,4.142,4.218,4.218,0,0,0,1.228,4.094,8.378,8.378,0,0,0,2.9,1.961,6.494,6.494,0,0,1,2.161,1.4,10.854,10.854,0,0,0,3.123,1.971c3.456,1.676,6.865,3.428,10.159,5.408a3.618,3.618,0,0,1,1.514,1.533c.619,1.285,1.3,2.533,2.009,3.808a1.809,1.809,0,0,1,.248,1.4,10.473,10.473,0,0,0,.895,6.665c1.038,2.38,2.076,4.761,3.132,7.141,2.733,6.1,5.065,12.377,7.464,18.6,2.494,6.465,5.056,12.9,7.912,19.213,1.3,2.856,2.361,5.846,3.866,8.626a30.2,30.2,0,0,0,4.342,6.455,16.186,16.186,0,0,0,10,5.218l3.132.39c1.047.124,1.085.162,1.123,1.276,0,.8,0,1.609.048,2.418.048,5.636.067,11.282.143,16.919q.286,20.08.628,40.16C337.891,333.269,338.1,333.012,335.939,333.021ZM296.16,191.482a4.311,4.311,0,0,0-.676-.3,28.411,28.411,0,0,1-4.246-2.275,84.064,84.064,0,0,0-8.645-4.684c-.781-.371-1.533-.8-2.285-1.238a3.247,3.247,0,0,1-1.771-2.656.844.844,0,0,0-.057-.371,9.035,9.035,0,0,0-2.647-5.2,16.35,16.35,0,0,1-2.58-2.913,3.485,3.485,0,0,1-.619-1.333.847.847,0,0,1,.143-.514c.1-.152.276-.162.466-.057.771.4,1.542.8,2.323,1.171a8.654,8.654,0,0,1,2.485,1.9,8.762,8.762,0,0,0,.771.8.724.724,0,0,0,.866,0,.828.828,0,0,0,.362-.952,2.323,2.323,0,0,0-.666-1.095,10.473,10.473,0,0,0-3.028-2.418,23.988,23.988,0,0,1-2.142-1.114,2.485,2.485,0,0,1-1.181-3.028,2.1,2.1,0,0,1,2.675-1.628,10.519,10.519,0,0,1,2.742,1.095c.952.486,1.847,1.009,2.79,1.466a1.142,1.142,0,0,0,1.5-.257,1.685,1.685,0,0,0,0-1.752,8.565,8.565,0,0,0-.666-.647,25.649,25.649,0,0,0-5.436-3.808,69.417,69.417,0,0,1-9.3-6.436,9.026,9.026,0,0,1-1.685-1.723.79.79,0,0,1,.219-1.257,2.237,2.237,0,0,1,1.9-.381,10.149,10.149,0,0,1,2.771,1.047c1.333.79,2.618,1.647,3.98,2.38,2.018,1.066,4.1,2.028,6.132,3.075a42.532,42.532,0,0,1,5.246,3.151,13.158,13.158,0,0,0,3.475,1.723,25.839,25.839,0,0,1,4.446,1.828,1.494,1.494,0,0,0,.524.181.952.952,0,0,0,.952-.467.819.819,0,0,0-.1-1.028,3.294,3.294,0,0,0-1.362-.952c-1.095-.438-2.161-.952-3.275-1.285a17.678,17.678,0,0,1-3.2-1.466,4.256,4.256,0,0,1-1.742-1.9c-.171-.343-.3-.686.076-.952s.7-.1,1.028.067a2.924,2.924,0,0,1,.571.467,5.408,5.408,0,0,0,3.17,1.39,2.434,2.434,0,0,1,.733.076,11.34,11.34,0,0,1,6.541,3.2,24.041,24.041,0,0,1,5.713,7.9,20.516,20.516,0,0,0,.952,2,35.4,35.4,0,0,1,2.856,7.407c.381,1.3.752,2.618,1.171,3.9a16.642,16.642,0,0,0,2.952,5.627,2.039,2.039,0,0,1,.19.59c-1.371.419-2.723.809-4.065,1.238a53.244,53.244,0,0,0-8.369,3.5,7.551,7.551,0,0,0-1.847,1.533c-.3.3-.438.752-.895.9-.581-.371-.6-1.057-.952-1.476.124-.533.619-.476.857-.752a.857.857,0,0,0-.152-1.295Zm-19.623-10.9a4.189,4.189,0,0,1-2.59-2.076,2.38,2.38,0,0,1,.133-2.609,6.76,6.76,0,0,1,2.456,4.684Zm151.594,206.1c-.086,1.047-.152,2.1-.248,3.151a.457.457,0,0,1-.638.448,6.664,6.664,0,0,1-3.009-1.352,29.572,29.572,0,0,1-6.37-7.912v-.19c.1-.248.352-.314.581-.381l10.426-2.733C428.607,380.9,428.359,383.787,428.131,386.682Zm42.5-175.891c-.1.733-.228,1.466-.381,2.2a4.7,4.7,0,0,1-5.989,3.723c-.952-.314-1.847-.685-2.761-1.076-3.247-1.371-6.436-2.856-9.778-4.018a68.238,68.238,0,0,0-15.3-3.7,19.423,19.423,0,0,0-12.863,3.313,3.315,3.315,0,0,0-.571.467.961.961,0,0,0,.667,1.628,2.4,2.4,0,0,0,1.552-.533,15.423,15.423,0,0,1,3.151-1.561,17.137,17.137,0,0,1,8.388-1.057,54.13,54.13,0,0,1,9.607,2.066c2.609.781,5.17,1.7,7.731,2.609.752.257,1.466.638,2.209.952.571,3.808,1.1,7.484,1.7,11.2.486,2.99,1.095,5.97,1.542,8.969s.733,5.77,1.085,8.655q.448,3.6.847,7.207c.371,3.256.724,6.522,1.085,9.778.209,1.847.438,3.694.638,5.541.866,7.769,1.181,15.567,1.561,23.365q.781,16.071.819,32.143c0,4.532,0,9.055-.171,13.577-.152,3.7-.581,7.407-.952,11.1-.257,2.656-.59,5.294-.9,7.94a48.69,48.69,0,0,1-1.409,7.284,6.969,6.969,0,0,1-4.922,5.094c-1,.314-2.028.552-3.037.828-4.894,1.342-9.778,2.7-14.672,4.008-7.617,2.038-15.3,4.075-22.974,6.017a96.622,96.622,0,0,1-11.682,2.142c-4.427.562-8.883.743-13.329.952a47.6,47.6,0,0,1-14.282-1.771,6.665,6.665,0,0,1-4.189-3.142,11.749,11.749,0,0,1-1.647-4.3c-.7-4.342-1.4-8.674-1.961-13.034-.476-3.742-1.162-7.464-1.961-11.159a123.1,123.1,0,0,1-2.809-17.776c-.39-5.808-.828-11.616-1.181-17.433a121.95,121.95,0,0,1,.3-15.6c.19-2.856.343-5.713.5-8.569a114.6,114.6,0,0,1,1.371-12.711c.343-2.076.724-4.142,1.038-6.217.1-.647.371-1.019,1.019-1.114a97.038,97.038,0,0,0,12.568-3.256c8.017-2.3,16.033-4.637,24.06-6.931,1.485-.419,3.009-.7,4.522-1.047a4.932,4.932,0,0,0,1.714-.657,1.285,1.285,0,0,0,.409-1.79.9.9,0,0,0-1.114-.4c-1.628,1.057-3.551,1.019-5.322,1.533-3.808,1.095-7.617,2.142-11.425,3.237l-20.661,5.989a50.026,50.026,0,0,1-10.559,1.78c-3.342.229-6.665.609-10.007.838a95.118,95.118,0,0,1-15.967-.067,38.655,38.655,0,0,1-4.046-.571,14.653,14.653,0,0,1-9.292-6.6,48.988,48.988,0,0,1-4.618-8.864c-2.076-5.037-4.227-10.035-6.322-15.062-1.8-4.342-3.456-8.74-5.1-13.149-2.276-6.084-4.913-12.025-7.531-17.966-.524-1.19-1.019-2.39-1.457-3.618-.952-2.694-.143-4.979,1.723-6.979a3.4,3.4,0,0,1,.895-.657,51.576,51.576,0,0,1,13.4-4.818,3.808,3.808,0,0,1,.952-.1,3.237,3.237,0,0,1,3.028,1.79c.219.447.514.847.733,1.295,1.047,2.171,2.228,4.284,3.447,6.36a.857.857,0,0,1-.143,1.152,15.834,15.834,0,0,1-6.522,4.465c-1.285.447-2.59.819-3.885,1.247a3.409,3.409,0,0,0-1.485.733.952.952,0,0,0-.3,1.009,1,1,0,0,0,.952.724,5.35,5.35,0,0,0,1.028-.19c1.238-.39,2.475-.79,3.694-1.209a16.185,16.185,0,0,0,6.827-4.342,8.907,8.907,0,0,1,.952-.847c.514,0,.628.438.828.724q4.427,6.427,8.835,12.863c2.1,3.066,3.961,6.284,5.827,9.521.276.486.533.952.847,1.447a6.836,6.836,0,0,0,6.5,3.18,13.6,13.6,0,0,0,3.98-.828l13.006-4.951c4.161-1.581,8.3-3.228,12.492-4.76,5.2-1.847,10.216-4.085,15.234-6.341,2.6-1.171,5.179-2.371,7.76-3.561a10.384,10.384,0,0,0,1.466-.8.98.98,0,0,0-.8-1.79,1.5,1.5,0,0,0-.533.162c-2.7,1.5-5.617,2.571-8.436,3.808-4.637,2.057-9.235,4.2-14.015,5.913-2.971,1.066-5.922,2.161-8.883,3.247a.267.267,0,0,1-.4,0,39.038,39.038,0,0,1,3.485-4.761q3.513-4.332,6.95-8.712a99.334,99.334,0,0,1,7.522-8.483c3.6-3.675,7.169-7.379,10.768-11.044.819-.838,1.676-1.657,2.571-2.418,3.942-3.294,7.8-6.712,11.873-9.845a51.414,51.414,0,0,1,21.413-9.8,25.925,25.925,0,0,1,8.483-.5c1.9.238,3.808.238,5.713.486a23.117,23.117,0,0,1,12.13,5.56,30.267,30.267,0,0,1,8.493,12.006,79.566,79.566,0,0,1,4.418,15.729A42.845,42.845,0,0,1,470.633,210.791Z" transform="translate(203.941 3903.022)"/>
    <path id="Path_38950" data-name="Path 38950" d="M171.977,271c-2.247,0-4-1.457-5.979-2.247a15.469,15.469,0,0,1-3.151-1.638,7.893,7.893,0,0,0-5.351-1.752c-.276,0-.6.171-.8-.171a4.76,4.76,0,0,1,.409-1.619,6.912,6.912,0,0,0,.229-2.571,3.437,3.437,0,0,0-2.533-3.1,5.39,5.39,0,0,0-2.39-.209c-3.9.571-7.017,2.3-8.75,6.036a2.922,2.922,0,0,1-.257.4c-.276.067-.39-.086-.514-.219a5.435,5.435,0,0,0-.524-.524,1.78,1.78,0,0,0-2.647.238,8.5,8.5,0,0,0-1.066,1.514c-.6,1.009-1.143,2.047-1.742,3.056a7.725,7.725,0,0,1-.885,1.19.381.381,0,0,1-.619,0c-.419-.552-.79-1.123-1.19-1.685a11.245,11.245,0,0,0-1.752-2.152,2.171,2.171,0,0,0-3.409.219,17.147,17.147,0,0,0-1.181,1.676c-.486.714-.952,1.447-1.457,2.142-.314.438-.733.39-.952-.1a24.993,24.993,0,0,1-2.361-9.521,7.474,7.474,0,0,0-.352-2.38.952.952,0,0,0-.952-.7,1.066,1.066,0,0,0-1.019.676,1.9,1.9,0,0,0-.171.895,18.2,18.2,0,0,0,.181,2.038c.267,2.19-.324,2.771-3.047,3.494-.771.209-1.552.362-2.342.5-3.009.476-6.017.952-9.035,1.295-1.7.19-3.409.7-5.16.343a1.2,1.2,0,0,0-.724.124,6.342,6.342,0,0,1-2.171.466c-2.856.381-2.095.419-2.552-2.152a7.616,7.616,0,0,1,.057-.952,1.971,1.971,0,0,0-.552-1.285.952.952,0,0,0-1.457.181,2.171,2.171,0,0,0-.171,1.295c.1.743.2,1.476.276,2.218.124,1.133.1,1.162-.952,1.266-1.419.133-2.856.267-4.246.428a.952.952,0,0,0-.866,1.028.847.847,0,0,0,.8.876c.952.133,1.847.19,2.771.276a5.6,5.6,0,0,0,1.323,0,1.447,1.447,0,0,1,1.619,1.266c.076.628.152,1.228.209,1.838a4.58,4.58,0,0,0,.524,1.9,1.438,1.438,0,0,0,1.9.533,3.666,3.666,0,0,0,1.466-1.714l1.761-3.685c.209-.438.447-.876.7-1.3a.486.486,0,0,1,.8,0c.486.628.952,1.266,1.419,1.9a14.08,14.08,0,0,0,2.542,2.856,8.788,8.788,0,0,0,4.551,2.142,3.275,3.275,0,0,0,3.513-1.9,1.028,1.028,0,0,0-.162-1.352c-.39-.352-.8-.333-1.333.086a.418.418,0,0,0-.124.133c-.781,1.066-1.809.952-2.856.533a9.827,9.827,0,0,1-1.78-.952,11.425,11.425,0,0,1-2.98-3.275.5.5,0,0,1,.381-.847c3.066-.409,6.132-.781,9.188-1.238,2.571-.381,5.16-.714,7.5-2.161.2.647.362,1.238.562,1.809.447,1.219.952,2.428,1.361,3.647a3.808,3.808,0,0,0,1.171,1.7,1.971,1.971,0,0,0,2.323.1,6.15,6.15,0,0,0,1.657-1.78c.486-.724.952-1.476,1.4-2.19.229-.352.409-.762.847-.9a2.923,2.923,0,0,1,1.162,1.171c.428.609.809,1.247,1.257,1.847a6.187,6.187,0,0,0,1.123,1.219,2,2,0,0,0,2.418.114,4.532,4.532,0,0,0,1.533-1.59c.724-1.228,1.419-2.466,2.142-3.694.171-.3.276-.714.8-.7.152.3.343.628.486.952a27.612,27.612,0,0,1,1.371,4.037,2.094,2.094,0,0,0,.543,1.152,1.114,1.114,0,0,0,1.2.229.952.952,0,0,0,.609-.857,2.237,2.237,0,0,0-.1-.952,7.2,7.2,0,0,1-.324-3.113c.133-4.922,5.417-7.569,8.816-7.093a1.428,1.428,0,0,1,1.295,1.352,3.58,3.58,0,0,1-.152,1.647c-.248.771-.476,1.542-.79,2.276a19.606,19.606,0,0,1-2.085,3.923,3.246,3.246,0,0,0-.733,1.685,1.219,1.219,0,0,0,.733,1.19,1.057,1.057,0,0,0,1.171-.324,8.669,8.669,0,0,0,.619-.952c.181-.324.314-.676.5-1a4.151,4.151,0,0,1,5.57-1.79c.562.248,1.1.552,1.647.847,1.257.676,2.494,1.381,3.761,2.028s2.561,1.219,3.856,1.818a3.875,3.875,0,0,0,2.714.209,1.009,1.009,0,0,0,.733-1.143.724.724,0,0,0-.79-.514Zm-75.045,1.028a.371.371,0,0,1-.3.124c-.076,0-.19-.124-.2-.209-.057-.428-.076-.847-.1-1.276-.133-1.78,0-1.9,1.961-1.619a17.945,17.945,0,0,1-1.352,2.98Zm124.582-111.5c-.8,0-1.6.143-2.4.209s-1.609.152-2.409.209c-.362,0-.6-.171-.562-.543.086-1.047.181-2.1.314-3.142.343-2.58.743-5.141,1.047-7.731a1.362,1.362,0,0,1,1.1-1.285c.352-.1.733-.133,1.085-.238a3.189,3.189,0,0,0,.838-.381.857.857,0,0,0,.371-.952.885.885,0,0,0-.79-.676,3.752,3.752,0,0,0-.952,0c-2.447.352-4.894.733-7.341,1.095-1.285.19-2.571.381-3.856.552-.5.067-.7-.086-.752-.562-.143-1.361-.286-2.713-.39-4.065-.171-2.228-.3-4.456-.476-6.665a10.844,10.844,0,0,0-.286-1.647c-.19-.819-.638-1.257-1.181-1.2s-.952.647-.752,1.619a31.329,31.329,0,0,1,.428,4.761c0,1.295.171,2.59.257,3.894s.152,2.342.209,3.523c0,.562-.152.752-.724.857a1.818,1.818,0,0,0-.552.057c-2.342.267-4.675.552-7.017.762a12.378,12.378,0,0,1-3.161.3,8.065,8.065,0,0,1-.086-2.237c0-2.475.086-4.951.114-7.426a11.365,11.365,0,0,0-.067-1.485.39.39,0,0,0-.371-.352,3.2,3.2,0,0,0-.733,0c-.809.086-.866.133-.885.876v4.646q-.057,2.78-.143,5.57c0,.619-.162.752-.762.819s-1.238.076-1.857.143a.543.543,0,0,0-.533.619,2.168,2.168,0,0,0,.048.552c.086.752.209.876.952.819.5,0,.952-.114,1.476-.152s.666.143.686.638c0,1.114,0,2.228.048,3.342.067,2.047.152,4.085.229,6.132,0,.762-.086.885-.8.952-1.552.067-3.1,0-4.646.19a39.217,39.217,0,0,1-8.521-.209,21.451,21.451,0,0,1-4.884-1.085,10.74,10.74,0,0,1-1.685-.762,1.152,1.152,0,0,1-.552-1.438,6.893,6.893,0,0,1,.952-2.19c1.476-2.142,2.913-4.313,4.465-6.4s2.856-4.361,4.913-6.008a.838.838,0,0,0-.181-1.285,1.181,1.181,0,0,0-1.4,0,6.349,6.349,0,0,0-1.066,1.019c-1.028,1.238-2.066,2.475-3.028,3.808a78.6,78.6,0,0,0-6.331,9.15,1.238,1.238,0,0,1-.086.514,2.648,2.648,0,0,1-.476.5.638.638,0,0,1-.133-.666c-1.076-5.713-2.4-11.425-2.856-17.185a1.562,1.562,0,0,0-.1-.362.9.9,0,0,0-1.619-.181,1.9,1.9,0,0,0-.248,1.428c.3,2.39.562,4.761.952,7.179.647,4.275,1.485,8.569,2.418,12.749a7.3,7.3,0,0,1,.219,1.276,42.766,42.766,0,0,0,.781,5.5,37.264,37.264,0,0,0,1.038,4.894,3.313,3.313,0,0,0,3.094,2.514,27.778,27.778,0,0,0,3.332.143c3.4-.076,6.808-.124,10.207-.324,4.008-.248,8.026-.552,12.016-.952,4.3-.476,8.569-1.162,12.872-1.733,2.856-.381,5.77-.733,8.655-1.085a3.59,3.59,0,0,0,1.59-.438.9.9,0,0,0,.4-.952.952.952,0,0,0-.59-.657,2.018,2.018,0,0,0-1.276-.057,25.221,25.221,0,0,1-4.065.267,4.817,4.817,0,0,1-.866.276q-6.9.943-13.786,1.9c-1.6.219-3.2.371-4.76.533-.59.057-.79-.1-.847-.7-.209-2.085-.39-4.18-.581-6.274a.628.628,0,0,1,.619-.752c1.352-.171,2.694-.381,4.046-.486,4.446-.333,8.893-.609,13.329-.952,1.771-.143,1.733-.057,1.723,1.438a8.778,8.778,0,0,0,1.19,4.227h0a.952.952,0,0,1,.171.076c.486.333,1.009.571,1.5.1s.257-1.028,0-1.552l-.086-.171a7.036,7.036,0,0,1-.676-3.608c0-.6.124-.762.733-.828.952-.1,1.971-.181,2.961-.229a6.227,6.227,0,0,0,2.171-.447,1.1,1.1,0,0,0,.752-1.152A.969.969,0,0,0,221.515,160.53Zm-52.489,1.628,2.095,1.219c-.124.39-.324.39-.5.409C169.074,163.948,169.026,163.9,169.026,162.158Zm23,10.8a14.246,14.246,0,0,1-1.476.171c-5,.324-10.007.581-15.024.6-1.114,0-2.228-.086-3.342-.114a1.314,1.314,0,0,1-1.362-1.038c-.248-.885-.476-1.79-.647-2.7-.238-1.266-.409-2.542-.619-3.808.324-.152.371-.209.428-.209,5.265,0,10.473-.581,15.786-.524,1.79,0,3.589-.1,5.379-.143.638,0,.743.1.809.724q.333,3.142.628,6.284C192.638,172.689,192.5,172.889,192.029,172.955Zm22.612-18.09c-.248,1.771-.467,3.561-.686,5.341-.114.952-.133.952-1.143,1.066-1.723.143-3.456.267-5.189.39l-11.863.819c-.428,0-.866.057-1.295.057s-.619-.143-.647-.676c-.1-1.6-.2-3.209-.3-4.818h-.057V152.4c0-.7.162-.857.847-.952.248,0,.5-.048.743-.067a80.545,80.545,0,0,0,8.3-.952c3.713-.724,7.522-.7,11.2-1.647a1.589,1.589,0,0,1,.371,0c.362,0,.562.162.5.571-.248,1.809-.543,3.666-.809,5.484Zm-7.788,115.328a165.321,165.321,0,0,0,15.7-16.852,2.628,2.628,0,0,1,2.2-1.047c3.085-.152,6.179-.4,9.264-.638.819-.057,1.428-.638,1.361-1.219s-.628-.952-1.409-.952-1.485.143-2.228.19c-1.971.152-3.951.3-5.922.428a.324.324,0,0,1-.267-.514c.238-.362.5-.7.762-1.057.838-1.143,1.685-2.295,2.514-3.447a2.009,2.009,0,0,0,.486-1.181.952.952,0,0,0-.533-.895.809.809,0,0,0-.876.076,2.857,2.857,0,0,0-.743.809c-1.162,2.076-2.856,3.742-4.246,5.627a1.609,1.609,0,0,1-1.419.686c-1.371,0-2.732.048-4.094.1-5.075.219-10.149.457-15.234.686a7.113,7.113,0,0,1-1.1,0,.534.534,0,0,1-.419-.3c-.076-1.038-.457-2.133,0-3.1a2.228,2.228,0,0,0-.362-2.409.838.838,0,0,0-.952-.409.952.952,0,0,0-.771.724,5.837,5.837,0,0,0-.133,1.285c0,1.181.057,2.352.067,3.532,0,.828-.086.952-.952,1l-4.265.352c-.676.067-1.342.181-2.018.257-.447.048-.676-.143-.752-.609a2.8,2.8,0,0,0-.067-.743c-.248-2.342-.486-4.684-.752-7.017a21.211,21.211,0,0,0-.371-2.2.809.809,0,0,0-.828-.619.885.885,0,0,0-.847.619,2.237,2.237,0,0,0-.086.952c.209,2.285.362,4.58.686,6.846a55.307,55.307,0,0,1,.733,8.864c0,.619.076,1.238.114,1.857.1,1.485.229,2.961.3,4.446.124,2.666.219,5.322.333,7.988.067,1.685.638,2.323,2.352,2.5a15.784,15.784,0,0,0,2.6.048q5.465-.352,10.93-.771,7.779-.6,15.557-1.247c1.98-.162,3.942-.476,5.913-.628s4-.847,6.065-.5c.486.086.885-.486.847-1.009a1.209,1.209,0,0,0-.838-1.114,3.208,3.208,0,0,0-1.647-.086c-2.456.3-4.913.59-7.379.847q-4.713.467-9.435.885c-2.713.238-5.427.448-8.15.647-.333,0-.724.171-1.095-.276a15.74,15.74,0,0,1,1.419-1.428Zm-3.732.514c-.486.448-.6,1.276-1.342,1.409a16.03,16.03,0,0,1-2.038.19c-1.9.124-3.808.248-5.713.343a11.135,11.135,0,0,1-1.485-.057.552.552,0,0,1-.552-.6v-2.237c-.267-4.513-.438-9.026-.952-13.529-.276-2.542-.476-2.209,1.9-2.409q2.314-.2,4.627-.343c1.028-.057,1.076,0,1.114.952.057,1.552.1,3.1.152,4.646.067,1.9.1,3.808.209,5.76.076,1.295.267,2.59.39,3.885a2.58,2.58,0,0,0,.467,1.2,1.323,1.323,0,0,0,2.085.124c.324-.333.467-.876.152-1.171a3.647,3.647,0,0,1-.847-2.752q-.352-5.2-.428-10.4v-1.676c0-.552.152-.771.743-.809,1.666-.114,3.342-.248,5.008-.324,3.656-.162,7.3-.3,10.959-.428h2.685a2.028,2.028,0,0,1-.7,1.266,134.976,134.976,0,0,1-9.949,10.787C207.443,266.623,205.311,268.7,203.121,270.708Z" transform="translate(200.742 3899.165)"/>
    <path id="Path_38951" data-name="Path 38951" d="M261.733,310.051a5.28,5.28,0,0,0-1.095-.2c-1.476-.143-2.961-.248-4.437-.381-.752-.057-.885-.143-.952-.866-.162-2.037-.743-4.027-.457-6.1a.762.762,0,0,0-.6-.828.952.952,0,0,0-1.009.286,1.447,1.447,0,0,0-.409,1.009c0,.686,0,1.362.057,2.037.1,1.342.238,2.666.371,4.1H251.25c-1.552-.1-3.094-.219-4.637-.343-1.066-.076-1.162-.152-1.371-1.124-.286-1.39-.552-2.79-.838-4.189a2.18,2.18,0,0,0-.514-1.171.9.9,0,0,0-1.009-.257.838.838,0,0,0-.6.847,5.044,5.044,0,0,0,.171.952c.286,1.5.571,3,.857,4.513-1.961.2-3.161.076-10.825-1.133a1.818,1.818,0,0,1,.457-1.123l2.333-3.58a.771.771,0,0,0-.1-1.019.9.9,0,0,0-1.162-.228,3,3,0,0,0-1,1.076q-1.238,1.857-2.447,3.732a1.1,1.1,0,0,1-1.219.609c-.952-.181-1.838-.3-2.752-.466l-8.217-1.552a.781.781,0,0,1-.714-.733c-.1-.952-.19-1.971-.3-2.952a3.188,3.188,0,0,0-.19-.952.857.857,0,0,0-.743-.476.819.819,0,0,0-.771.428,1.809,1.809,0,0,0-.209.885c0,.809.1,1.609.162,2.409,0,.5-.143.676-.638.609a7.716,7.716,0,0,1-.952-.171,61.1,61.1,0,0,1-6.6-1.847l-.181-.076a.952.952,0,0,0-.733,1.695,5.891,5.891,0,0,0,1.9.781c2.276.609,4.532,1.247,6.817,1.828a.771.771,0,0,1,.686.724c.162,1.352.324,2.7.5,4.056a.543.543,0,0,1-.486.657c-.486.1-.952.143-1.466.209-1.419.19-2.856.371-4.237.571a2.314,2.314,0,0,0-1.047.343,1.009,1.009,0,0,0,.057,1.7,1.9,1.9,0,0,0,1.9.124,2.923,2.923,0,0,1,1.171-.5c1.238-.1,2.475-.248,3.7-.352.571,0,.733.1.857.733.238,1.276.457,2.552.7,3.808a4.694,4.694,0,0,0,.248.885,1.047,1.047,0,0,0,2.018-.524,4.9,4.9,0,0,0-.181-.714c-.228-1.285-.457-2.561-.657-3.808-.076-.486.1-.7.581-.743,1.476-.152,2.952-.314,4.437-.409a4.951,4.951,0,0,1,2.076,0c-.409.752-.743,1.409-1.123,2.028a2.342,2.342,0,0,0-.362,1.038.952.952,0,0,0,1.295.876,2.513,2.513,0,0,0,1.028-1.038,23.3,23.3,0,0,0,1.295-2.256,2.038,2.038,0,0,1,2.028-1.3c.248,0,.5-.067.743-.086l8.7-.79a2.389,2.389,0,0,0,1.571-.438c.657-.619,1.409-.286,2.123-.267a.628.628,0,0,1,.543.447c.124.343.2.714.324,1.066.314.952.619,1.9.952,2.79a3.808,3.808,0,0,0,1.057,1.514,1,1,0,0,0,1.342.133c.447-.333.524-.714.238-1.3s-.647-1.2-.952-1.828a5.094,5.094,0,0,1-.676-2.475c.3,0,.543-.057.79-.048l5.37.362c.952.067,1.038.162,1.181,1.066s.324,2.076.5,3.113a5.009,5.009,0,0,0,.7,1.9.876.876,0,0,0,.952.428.952.952,0,0,0,.743-.952,7.176,7.176,0,0,0-.152-1.1c-.209-1.095-.438-2.18-.647-3.275-.152-.819,0-.952.876-.895l3.885.343a7.538,7.538,0,0,0,.952.067,1.124,1.124,0,0,0,1.066-.876,1.171,1.171,0,0,0-.7-1.028Zm-35.294.5c-2.409.181-4.808.448-7.207.686-.362,0-.619-.086-.676-.447-.162-1.1-.314-2.209-.447-3.313a2.246,2.246,0,0,1,.114-.638c3.475.628,6.922,1.219,10.349,1.9a2.009,2.009,0,0,1-2.133,1.809Z" transform="translate(195.076 3891.212)" fill="#010000"/>
    <path id="Path_38952" data-name="Path 38952" d="M62.956,311.642a9.425,9.425,0,0,0-2.523-2.685,14.2,14.2,0,0,0-3.942-2.028c-1.228-.409-2.485-.762-3.808-1.171a12.211,12.211,0,0,0-.133-1.771.931.931,0,0,0-1.838-.038,5.818,5.818,0,0,0-.067.952c-.057.657-.1.743-.79.714a17.217,17.217,0,0,0-3.5.343,5.389,5.389,0,0,0-3.389,1.7,2.609,2.609,0,0,0-.657,2.58,5.331,5.331,0,0,0,1.733,2.58.952.952,0,0,0,1.39-1.19c-.238-.362-.552-.676-.781-1.038-.666-1.019-.467-1.676.657-2.218.219-.1.457-.162.7-.248a11.557,11.557,0,0,1,4.037-.362.6.6,0,0,1,.686.667q.219,6.312.419,12.625c0,.514-.229.743-.733.876-.952.257-1.9.581-2.856.895a2.371,2.371,0,0,0-1.133.619,1.019,1.019,0,0,0,.8,1.7c.486-.1.952-.3,1.419-.428a8.368,8.368,0,0,1,2.637-.647,8.741,8.741,0,0,0,.571,1.809,1.133,1.133,0,0,0,1.247.571,1,1,0,0,0,.7-1.162c-.057-.428-.181-.847-.238-1.276-.1-.714,0-.828.657-1.085a34.213,34.213,0,0,0,4.941-2.123A12.653,12.653,0,0,0,62,318.764a5.57,5.57,0,0,0,.952-7.122Zm-1.98,5.056a6.494,6.494,0,0,1-1.638,1.5,21.9,21.9,0,0,1-5.522,2.542,1.1,1.1,0,0,1-.419-.067,5.153,5.153,0,0,1-.114-.686c-.152-3.647-.3-7.3-.438-10.949,0-.847.143-.952.952-.743a16.243,16.243,0,0,1,5.389,2.4,6.931,6.931,0,0,1,2.161,2.5,3.132,3.132,0,0,1-.362,3.494ZM71.1,214.9a5.513,5.513,0,0,0-2.971-2.666,10.054,10.054,0,0,0-4.913-.676c-.543.048-1.076.333-1.676,0A13.862,13.862,0,0,1,62,210.205a3.808,3.808,0,0,0-1.561-4.38,6.179,6.179,0,0,0-3.123-1.076,28.992,28.992,0,0,0-3.151,0c-.724,0-1.257,0-1.695-.743a.885.885,0,0,0-1.533.1,1.114,1.114,0,0,0-.229.5c0,.7-.419.952-.952,1.181a13.22,13.22,0,0,0-1.323.666,7.293,7.293,0,0,0-2.618,2.285,3.113,3.113,0,0,0-.3,3.332,8.2,8.2,0,0,0,3.447,3.266.885.885,0,0,0,1.057-1.295,10.346,10.346,0,0,0-.952-.952,15.776,15.776,0,0,1-1.457-1.419,1.428,1.428,0,0,1-.086-1.9,4.827,4.827,0,0,1,3.1-1.971v1.961a48.4,48.4,0,0,0,.895,8.855,22.212,22.212,0,0,0,2.6,7.207c-2.342.086-4.38.229-6.255-.866a.954.954,0,0,0-.171-.067,1.028,1.028,0,0,0-.952,1.761,4.913,4.913,0,0,0,2.323,1.066,17.966,17.966,0,0,0,7.2,0,24.755,24.755,0,0,0,11.863-5.351,10.863,10.863,0,0,0,2.742-3.247A4.542,4.542,0,0,0,71.1,214.9Zm-2.076,3.2a6.941,6.941,0,0,1-1.3,1.78,21.156,21.156,0,0,1-8.378,4.97l-.885.267a2.18,2.18,0,0,1-2.856-1.047,6.769,6.769,0,0,1-.724-1.495,34.409,34.409,0,0,1-1.6-6.474c-.248-1.847-.362-3.694-.562-5.541,0-.952-.086-1.98-.1-2.971,0-.352.209-.533.552-.609a10.016,10.016,0,0,1,4.76.048H58.1c1.809.543,2.342,1.771,1.447,3.418a7.864,7.864,0,0,1-2.856,3.075c-.476.3-.952.571-1.409.895a1.285,1.285,0,0,0-.524.952,1.066,1.066,0,0,0,1.285,1.162,6.579,6.579,0,0,0,1.761-.952A11.292,11.292,0,0,1,66.669,214a4.523,4.523,0,0,1,1.5.7,2.5,2.5,0,0,1,.847,3.4Zm-4.389-43.5a3.37,3.37,0,0,0-1.228-2.018,2.142,2.142,0,0,1-.876-1.133c-.809-2.142-1.647-4.265-2.466-6.4a3.933,3.933,0,0,1-.124-.809c.724-.124,1.381-.276,2.047-.343a4.675,4.675,0,0,0,1.742-.59.952.952,0,0,0,.438-1.123.819.819,0,0,0-.847-.59,15.082,15.082,0,0,0-1.838.209c-.609.076-1.352.171-2.028.219a.524.524,0,0,1-.552-.39c-.248-.762-.524-1.514-.781-2.276-.838-2.39-1.657-4.76-2.514-7.179-.381-1.047-.724-2.133-2.066-2.39-.19,0-.314-.352-.5-.5a1.057,1.057,0,0,0-1.8.4,11.425,11.425,0,0,0-.59,1.9q-1.285,5.513-2.533,11.035c-.162.733-.3,1.361-1.171,1.7s-.885,1.019-.209,1.619a1.133,1.133,0,0,1,.447,1.247c-.428,2.123-.809,4.256-1.181,6.389a7.255,7.255,0,0,0-.086,2.447,1.181,1.181,0,0,0,.952.952,1.143,1.143,0,0,0,1.143-.438,1.171,1.171,0,0,0,.333-1.361,2.571,2.571,0,0,1-.152-1.8q.5-2.923,1.028-5.846a1.2,1.2,0,0,1,.257-.686c.7-.543,1.228-1.371,2.247-1.476s2.2-.381,3.313-.447c.847-.057,1.79-.724,2.495-.171s.666,1.552.952,2.361a70.4,70.4,0,0,0,2.752,6.665,12.443,12.443,0,0,0,1.171,1.9,1.257,1.257,0,0,0,1.657.343A1.323,1.323,0,0,0,64.631,174.6Zm-8.34-12.016-5.475.952a2,2,0,0,1-.514-.086,5.446,5.446,0,0,1,.343-2.2c.362-1.9.781-3.742,1.171-5.608a.7.7,0,0,1,.543-.647,1.9,1.9,0,0,0,1.533-1.038c.114.143.286.267.343.428.819,2.456,1.619,4.913,2.418,7.379C56.815,162.238,56.7,162.5,56.291,162.581Zm118.556-53.013a9,9,0,0,0-.6-1.352,41.188,41.188,0,0,0-4.761-7.084,6.447,6.447,0,0,0-.952-.952c-1.381-1.133-2.59-1-3.618.457-.533.762-.952,1.571-1.457,2.371a27,27,0,0,1-3.323,4.694,9.787,9.787,0,0,1-2.418,2,5.037,5.037,0,0,1-5.884-.6,10.578,10.578,0,0,1-1.9-2.237,13.127,13.127,0,0,0-1.085-1.5,1.685,1.685,0,0,0-2.856,0,12.815,12.815,0,0,0-1.085,1.495c-.752,1.057-1.495,2.133-2.276,3.171a6.351,6.351,0,0,1-1.019,1.066c-1.009.857-1.542.79-2.276-.257a10.569,10.569,0,0,1-1.314-2.647c-.343-1.057-.676-2.123-1.038-3.18a5.646,5.646,0,0,0-.59-1.342,1.247,1.247,0,0,0-2.161,0A7.418,7.418,0,0,0,133.6,105a23.8,23.8,0,0,1-1.638,3.532,8.083,8.083,0,0,1-2.361,2.752,2.63,2.63,0,0,1-4.1-.9,6.921,6.921,0,0,1-.857-2.047,10.56,10.56,0,0,0-.543-1.771,1.209,1.209,0,0,0-2.2-.143c-.143.2-.067.571-.5.647a9.351,9.351,0,0,1-.371-.885,4.684,4.684,0,0,0-.762-1.466,2.323,2.323,0,0,0-3.808-.333,6.141,6.141,0,0,0-1.209,1.628A11.768,11.768,0,0,0,114,111.015a6.589,6.589,0,0,0,.571,2.856,2.856,2.856,0,0,0,4.284,1.428,7.493,7.493,0,0,0,1.181-.885,10.112,10.112,0,0,0,2.1-2.8c.238-.419.3-.952.8-1.219.438.19.476.657.686,1,1.809,2.856,4.532,3.418,7.312,1.514a9.349,9.349,0,0,0,2.009-1.9A14.635,14.635,0,0,0,134.763,108a1.9,1.9,0,0,1,.59-.9,3.408,3.408,0,0,1,.59,1.342,15.119,15.119,0,0,0,1.761,3.666c1.457,2.047,3.285,2.314,5.237.743a12.283,12.283,0,0,0,2.237-2.475c.619-.847,1.181-1.733,1.78-2.6.447-.657.647-.676,1.057-.057a12.673,12.673,0,0,0,2.78,3.218,7.017,7.017,0,0,0,7.845.771,9.635,9.635,0,0,0,2.523-1.9,31.58,31.58,0,0,0,4.761-6.579,3.58,3.58,0,0,1,1.114-1.542,7.219,7.219,0,0,1,.8.724A40.768,40.768,0,0,1,172.3,109a4.812,4.812,0,0,1,.229.5.409.409,0,0,1-.248.59,1.724,1.724,0,0,0-.5.248.952.952,0,0,0,.324,1.628,2.619,2.619,0,0,0,.543.114C174.494,112.339,175.37,111.329,174.847,109.568Zm-54.917,1.571a6.3,6.3,0,0,1-2.256,2.38.771.771,0,0,1-1.1-.324,4.437,4.437,0,0,1-.419-2.418,7.8,7.8,0,0,1,1.514-4.76c.39-.5.809-.457,1.133.114a4.97,4.97,0,0,1,.676,2.466c0,.362-.067.8.3,1.009.771.467.5.971.162,1.533ZM94.27,85.147a13.053,13.053,0,0,0-5.808-3.808,29.972,29.972,0,0,0-4.979-1.219c-.171-.828-.3-1.561-.486-2.276a.952.952,0,0,0-.952-.714,1.009,1.009,0,0,0-.895,1.009,3.877,3.877,0,0,0,0,.743c.133,1.419-.181,1.257-1.133,1.333a11.083,11.083,0,0,0-4.246,1.228A7.207,7.207,0,0,0,72.915,84a5.208,5.208,0,0,0-.267,5.465,3.494,3.494,0,0,0,.676.866.952.952,0,0,0,1.466-.952,3.561,3.561,0,0,0-.267-.5,3.647,3.647,0,0,1,1.181-4.9A8.426,8.426,0,0,1,80.76,82.4c.381,0,.543.219.562.571v1.485c.076,6.255.124,12.511.238,18.775,0,1.019.067,1.98-.952,2.58-.1.057-.162.19-.229.286a1.342,1.342,0,0,0,.5,2.161,8.571,8.571,0,0,0,.885.343c0,.581.086,1.133.114,1.685a100.733,100.733,0,0,0,1.5,13.844,30.849,30.849,0,0,0,1.409,5.379,6.007,6.007,0,0,0,1.066,1.9,1.752,1.752,0,0,0,2.98-.171,4.265,4.265,0,0,0,.647-3.018.952.952,0,0,0-.781-.952,1.009,1.009,0,0,0-1.133.733c-.057.171,0,.381-.086.552s.1.524-.238.533a.638.638,0,0,1-.5-.543c-.362-1.314-.79-2.609-1.066-3.942a116.564,116.564,0,0,1-1.78-15.852,2.18,2.18,0,0,1,.162-1.447,1.066,1.066,0,0,0,.124-.895c-.171-.524.076-.79.486-1.057.828-.533,1.628-1.123,2.447-1.685a29.82,29.82,0,0,0,4.694-3.923,16.186,16.186,0,0,0,4-6.4A8.4,8.4,0,0,0,94.27,85.147Zm-.752,8.245a13.414,13.414,0,0,1-1.419,2.59c-2.085,3.075-5.027,5.17-8.369,7.379-.2-7.2-.324-14.034-.333-20.832a2.323,2.323,0,0,1,1.39,0,20.814,20.814,0,0,1,4.4,1.419A10.949,10.949,0,0,1,91.519,85.4a6.541,6.541,0,0,1,2,7.988Z" transform="translate(202.929 3901.866)" fill="#010101"/>
    <path id="Path_38953" data-name="Path 38953" d="M412.1,150.084a1.828,1.828,0,0,0-2.59-.333,1.419,1.419,0,0,0-.638.838,4.922,4.922,0,0,0-1.1,2.856,3.523,3.523,0,0,0,.343,1.99,1.9,1.9,0,0,0,2.923.781,2.561,2.561,0,0,0,1.171-1.581,3.694,3.694,0,0,0,.7-2.39,3.485,3.485,0,0,0-.8-2.161Zm-1.628,3.056-.152.362c-.314.143-.581.533-.952.276a.952.952,0,0,1-.428-.952,2.522,2.522,0,0,1,.7-1.838c1,.276,1,.276,1.066,1.609C410.682,152.826,410.52,152.949,410.473,153.14Zm1.285,1.476c-.857.162-.952.124-1.057-.714h0a3.954,3.954,0,0,0,.371-.3c.6.1.724.486.724,1.019Z" transform="translate(185.419 3898.406)" fill="#0f0c0c"/>
    <path id="Path_38954" data-name="Path 38954" d="M396.914,150.721a1.685,1.685,0,0,0-1.847-.952A2.971,2.971,0,0,0,393,151.2a8.293,8.293,0,0,0-.885,5.179,2.161,2.161,0,0,0,1.533,1.9,2.247,2.247,0,0,0,2.152-.781,5.055,5.055,0,0,0,.8-1,5.979,5.979,0,0,0,.895-3.342,4.684,4.684,0,0,0-.581-2.437Zm-2.352,4.246a.638.638,0,0,1-.952-.19,6.748,6.748,0,0,1-.19-.686c.076-.39.114-.752.209-1.1a.6.6,0,0,1,.5-.467.7.7,0,0,1,.743.419,1.847,1.847,0,0,1-.314,2.028Zm1.1.876a.485.485,0,0,1-.409-.267.409.409,0,0,1,.343-.524c.267,0,.438.086.552.771-.009-.124-.286,0-.486.019Z" transform="translate(186.173 3898.388)" fill="#040303"/>
    <path id="Path_38955" data-name="Path 38955" d="M416.889,172.777a1.171,1.171,0,0,0-1.238-.647,13.329,13.329,0,0,0-1.638.267,68.349,68.349,0,0,0-8.674,2.713,35.421,35.421,0,0,1-5.789,1.961,2.949,2.949,0,0,0-.524.2,1.114,1.114,0,0,0-.838,1.095,1.3,1.3,0,0,0,.733,1.19,3.132,3.132,0,0,0,1.952.5,3.085,3.085,0,0,1,2.247.543,5.284,5.284,0,0,0,2.856.819,5.951,5.951,0,0,0,2.856-.562c.552-.267,1.1-.552,1.638-.866a14.68,14.68,0,0,0,3.18-2.552c1.019-1.085,2.009-2.19,3.018-3.285a1.142,1.142,0,0,0,.219-1.371Zm-4.561,2.761A12.768,12.768,0,0,1,408,178.9a4.066,4.066,0,0,1-4.046-.171c-.143-.086-.228-.267-.419-.486a72.36,72.36,0,0,1,8.855-3.1c-.019.2,0,.333-.1.4Z" transform="translate(185.877 3897.316)" fill="#020101"/>
    <path id="Path_38956" data-name="Path 38956" d="M401,459.146c.314-5.941.609-11.882.952-17.823.219-3.894.448-7.788.79-11.673.286-3.209.733-6.4,1.133-9.6.552-4.484,1.209-8.959,1.419-13.482.086-1.9.3-3.808.514-5.713.086-.819.228-.952,1.066-.952,4.4.048,8.788-.362,13.177-.638a81.029,81.029,0,0,0,9.521-1.352c1.152-.2,2.3-.438,3.466-.647.752-.143.752-.143,1.133.533a36.248,36.248,0,0,0,5.617,7.617,9.255,9.255,0,0,0,4.837,2.942l.352.114c.952.314.952.4.952,1.295,0,.3-.057.619-.057.952-.048,3.228-.133,6.446-.124,9.673a19.528,19.528,0,0,0,1.476,7.426,6.331,6.331,0,0,0,2.552,3.1,2.447,2.447,0,0,0,3.685-1.19,1.78,1.78,0,0,0,.048-.9.9.9,0,0,0-1.019-.609,2.3,2.3,0,0,0-.952.59.724.724,0,0,1-1.009,0,4.684,4.684,0,0,1-1.428-2.142,17.783,17.783,0,0,1-1.133-5.808c0-4.522,0-9.045.257-13.567s.524-8.9.79-13.329c0-.752,0-.771.819-.952,3.113-.809,6.236-1.59,9.35-2.418,4.894-1.314,9.788-2.666,14.691-4,.657-.181.79-.124.952.457a9.738,9.738,0,0,1,.248,1.276,127.1,127.1,0,0,1,.733,17.443q-.114,4.76-.1,9.521a97.61,97.61,0,0,1-.952,13.329c-.628,4.665-1.371,9.312-2.39,13.9a107.3,107.3,0,0,1-3.989,13.329c-.428,1.162-.895,2.3-1.342,3.456a3.055,3.055,0,0,1-1.466.133H402.419A2.924,2.924,0,0,1,401,459.146Z" transform="translate(185.742 3887.046)" fill="#0b132b"/>
    <path id="Path_38957" data-name="Path 38957" d="M380.32,280.245a1.3,1.3,0,0,1,.847-.3c.581,0,.762.171.724.771a.8.8,0,0,1-.3.638.877.877,0,0,1-.067-.343c.057-.533-.181-.724-.7-.685A1.907,1.907,0,0,1,380.32,280.245Z" transform="translate(186.733 3892.151)" fill="#367373"/>
    <path id="Path_38958" data-name="Path 38958" d="M448.836,394.05c-.267,3.19-.514,6.074-.743,8.969-.086,1.047-.152,2.1-.248,3.151a.457.457,0,0,1-.638.448,6.665,6.665,0,0,1-3.009-1.352,29.573,29.573,0,0,1-6.37-7.912v-.19c.1-.248.352-.314.581-.381Z" transform="translate(183.978 3886.686)" fill="#0b132b"/>
    <path id="Path_38959" data-name="Path 38959" d="M383.987,228h.4a.39.39,0,0,1-.4.3.324.324,0,0,1-.248-.152C383.672,228,383.787,227.942,383.987,228Z" transform="translate(186.57 3894.64)" fill="#855c5c"/>
    <path id="Path_38960" data-name="Path 38960" d="M231.07,209.157a.7.7,0,0,1,.409.752.847.847,0,0,1-.5.733,3.742,3.742,0,0,1-1.066.276c-2.952.314-5.913.571-8.874.9-3.19.371-6.379.819-9.578,1.209-2.028.238-4.065.447-6.093.638s-4.2.343-6.293.5a32.861,32.861,0,0,1-5.389,0,11.711,11.711,0,0,1-5.113-1.466.952.952,0,0,0-1.181.057c-2.085,1.552-4.189,3.094-6.293,4.608a1.1,1.1,0,0,0-.524,1.095c.209,1.657.4,3.323.609,4.979.067.476.4.552.819.486,1.342-.229,2.694-.409,4.037-.657q5.656-1.047,11.368-1.809c4.6-.6,9.207-1.181,13.8-1.9,6.246-.952,12.482-1.9,18.623-3.38a5.1,5.1,0,0,1,1.647-.229,1.057,1.057,0,0,1,.952.8.952.952,0,0,1-.609,1.019,17.365,17.365,0,0,1-3.58.952q-6.627,1.428-13.329,2.371c-3.989.562-7.969,1.143-11.949,1.714-3.742.533-7.484,1.009-11.216,1.581-3.247.5-6.474,1.076-9.7,1.619a6.166,6.166,0,0,1-.952.133,1.676,1.676,0,0,1-1.9-1.581c-.114-.609-.171-1.228-.238-1.847-.238-2.276-.562-4.532-.676-6.827-.114-2.466-.543-4.922-.781-7.388-.371-3.885-.686-7.769-1.038-11.654-.181-2.095-.39-4.189-.581-6.293-.1-1.171-.181-2.342-.248-3.513a2.561,2.561,0,0,1,.229-1.457.876.876,0,0,1,.895-.533,1.032,1.032,0,0,1,.819,1.066,30.125,30.125,0,0,0,.381,4.989c.562,5.989,1.162,11.958,1.742,17.938.19,1.971.343,3.942.514,5.874.419.181.657,0,.952-.219,1.59-1.171,3.19-2.342,4.76-3.542.514-.381.552-.533.229-1.076a18.871,18.871,0,0,1-2.114-6.874,42.622,42.622,0,0,0-1.276-6.37,1.3,1.3,0,0,1-.086-.533.952.952,0,0,1,.6-.866.866.866,0,0,1,1.009.238,3.142,3.142,0,0,1,.686,1.5c.3,1.333.562,2.666.838,4s.543,2.923.866,4.37a10.69,10.69,0,0,0,.609,1.9c.952,2.247.809,1.99,2.4.724q3.485-2.78,6.931-5.608c.524-.419.533-.581.114-1.038s-.866-.885-1.3-1.314a25.811,25.811,0,0,1-2.932-3.589,2.123,2.123,0,0,1-.343-.847.876.876,0,0,1,.438-.952.828.828,0,0,1,1.028.076,4.057,4.057,0,0,1,.724.838,22.937,22.937,0,0,0,3.97,4.4c.552.514.59.5,1.238,0,2.514-2.009,5.027-4.027,7.55-6.027a8.358,8.358,0,0,1,1.4-.9.771.771,0,0,1,.952.276.952.952,0,0,1,.057,1.047,1.238,1.238,0,0,1-.362.409c-.39.314-.79.6-1.171.952-2.514,2.009-5.008,4.046-7.379,6.208,0,.552.457.743.752,1.019,1.514,1.457,3.056,2.856,4.589,4.332a6.04,6.04,0,0,1,.657.647.781.781,0,0,1,.133.866.847.847,0,0,1-.876.552,2.856,2.856,0,0,1-.876-.257,6.2,6.2,0,0,1-1.619-1.238c-1.342-1.276-2.675-2.571-4.027-3.808-.514-.5-.657-.514-1.095-.152-2.742,2.218-5.465,4.446-8.207,6.665a4.075,4.075,0,0,0,2.247,1.057,27.04,27.04,0,0,0,7.617.219c3.7-.333,7.4-.7,11.1-1.047a6.372,6.372,0,0,1,.733,0c5.018-.524,10.016-1.247,15.053-1.657C228.185,209.214,229.6,208.8,231.07,209.157Z" transform="translate(196.539 3896.697)"/>
    <path id="Path_38961" data-name="Path 38961" d="M150.908,212.989a19.452,19.452,0,0,1-4.094,3.808,13.759,13.759,0,0,1-5.96,2.418c-3.38.419-4.76-1.428-4.76-4.132v-.743a.524.524,0,0,0-.647-.486,5.884,5.884,0,0,0-.952.133,41.608,41.608,0,0,0-9.616,3.808,3.627,3.627,0,0,0-1.723,1.609,1.981,1.981,0,0,1-.952.952,1.134,1.134,0,0,1-1.733-1.114,1.619,1.619,0,0,1,.552-1.143,1.8,1.8,0,0,0,.5-1.9,7.959,7.959,0,0,0-1.676-3.675c-.067-.076-.209-.086-.4-.162-.267.619-.524,1.238-.8,1.847a11.026,11.026,0,0,1-3.5,4.484,8.074,8.074,0,0,1-2.295,1.181,5.779,5.779,0,0,1-4.494-.476c-.714-.362-1.381-.819-2.095-1.19-1.076-.552-1.466-.476-2.266.4-.248.276-.467.581-.714.857a14.7,14.7,0,0,1-1.028,1.076c-1.666,1.523-3.113,1.238-4.085-.838a21.9,21.9,0,0,1-.952-2.418c-.5-1.466-.952-2.932-1.419-4.408a3.808,3.808,0,0,1-.19-.895.952.952,0,0,1,.59-.876.79.79,0,0,1,.952.267,6.065,6.065,0,0,1,1.181,2.485,23.059,23.059,0,0,0,1.59,4.76c.3.647.552.695,1.066.152s.952-1.123,1.476-1.676a3.251,3.251,0,0,1,4.465-.885c.724.362,1.419.771,2.1,1.19a4,4,0,0,0,4.827-.428,9.435,9.435,0,0,0,2.923-3.989c.276-.628.476-1.276.752-1.9.628-1.4,1.723-1.666,3-.762a6.008,6.008,0,0,1,1.59,1.8,10.473,10.473,0,0,1,1.409,3.58c.514.324.838-.076,1.19-.248a44.312,44.312,0,0,1,9.35-3.523,6.293,6.293,0,0,1,1.828-.229,2.085,2.085,0,0,1,2.19,1.9,8.506,8.506,0,0,1,0,1.1,10.6,10.6,0,0,0,.048,1.1c.152,1.028.552,1.371,1.609,1.4a6.815,6.815,0,0,0,2.188-.361,14.281,14.281,0,0,0,5.647-3.457,14.869,14.869,0,0,0,1.381-1.5,6.114,6.114,0,0,1,.79-.781,1.361,1.361,0,0,1,1.714-.124c.457.324.952.647,1.342.952.952.743,1.79,1.533,2.733,2.228a15.425,15.425,0,0,0,3.694,2.114c.714.276.952.79.847,1.257s-.743.8-1.523.657a7.083,7.083,0,0,1-2.209-.952,29.3,29.3,0,0,1-3.913-3.009C151.974,213.855,151.489,213.474,150.908,212.989Zm43.949,89.431c0-5.265.248-9.521.067-13.805a2.667,2.667,0,0,1,.067-.733.952.952,0,0,1,.771-.7.885.885,0,0,1,.952.486,3.237,3.237,0,0,1,.3,1.619v20.07c0,1.609.057,3.228.152,4.827a15.654,15.654,0,0,0,.381,2.571,3.037,3.037,0,0,0,2.533,2.4,27.971,27.971,0,0,0,7.769.248c5.874-.371,11.711-1.1,17.576-1.619,7.893-.7,15.8-1.285,23.726-1.571.676,0,1.352-.1,2.028-.114a.781.781,0,0,1,.733.476.838.838,0,0,1-.133,1.028,1.838,1.838,0,0,1-.752.514,5.265,5.265,0,0,1-1.276.219c-2.533.133-5.075.219-7.617.381-3.456.219-6.922.457-10.368.743-4.513.362-9.016.743-13.51,1.19-3.58.352-7.15.724-10.74.885a43.515,43.515,0,0,1-6.865-.1,7.8,7.8,0,0,1-2.485-.7,4.894,4.894,0,0,1-2.514-2.856,12.816,12.816,0,0,1-.657-3.808C194.771,309.855,194.886,305.628,194.857,302.419ZM113,171.525c-.371-.314-.333-.781-.39-1.2-.19-1.409-.352-2.856-.524-4.237a2.674,2.674,0,0,1,0-.552,1.019,1.019,0,0,1,.809-.952.952.952,0,0,1,.952.457c.124.209.219.448.324.667l.3.552c.181-.219.324-.409.486-.581a1.466,1.466,0,0,1,2.475.143c.2.286.229.885,0,1.038a6.76,6.76,0,0,1-2.095,1.085c-.267.057-.543-.324-.952,0l.238,2.066c.486.257.762-.076,1.057-.229a8.8,8.8,0,0,1,4.465-1.047c1.428,0,2.856.057,4.284,0a12.872,12.872,0,0,0,6.379-1.9c-.343-.371-.714-.209-1.019-.267s-.866-.114-1.276-.229a4.207,4.207,0,0,1-1.009-.457,9.193,9.193,0,0,1-1.019-.8c-.286-.238-.552-.5-.819-.752-.543,0-.562.6-.952.809a.885.885,0,0,1-1.352-.7,2.218,2.218,0,0,1,1.266-2.1,1.9,1.9,0,0,1,2.085.267,8.815,8.815,0,0,1,.819.762,3.475,3.475,0,0,0,3.9.952c1.114-.362,2.228-.752,3.323-1.171a5.713,5.713,0,0,1,1.99-.4c.724,0,1.371.124,1.59.952a.514.514,0,0,0,.543.4,18.358,18.358,0,0,0,6.065-.6,8.225,8.225,0,0,0,1.352-.619,2.714,2.714,0,0,0,1.428-1.847,8.121,8.121,0,0,1,.362-1.247,1.076,1.076,0,0,1,1.9-.19,2.752,2.752,0,0,1,.409.819,27.356,27.356,0,0,1,1.057,5.456q0,.186,0,.371c0,.7-.238,1.085-.686,1.162a1.009,1.009,0,0,1-1.257-.8c-.152-.533-.257-1.085-.362-1.638-.067-.362-.086-.733-.133-1.095-.143,0-.3-.1-.352-.067-2.218,1.847-4.875,2.323-7.617,2.466a28.1,28.1,0,0,1-2.971,0,7.617,7.617,0,0,0-4.208,1.228,38.573,38.573,0,0,1-3.4,1.9,16.357,16.357,0,0,1-6.665,1.533H121.4a9.054,9.054,0,0,0-5.713,1.209.877.877,0,0,1-.362.067A1.9,1.9,0,0,1,113,171.525Z" transform="translate(200.37 3897.94)" fill="#010101"/>
    <path id="Path_38962" data-name="Path 38962" d="M59.339,279.969a22.154,22.154,0,0,1-7.017-1.009c-4.3-1.495-6.208-4.761-6.122-8.94a13.948,13.948,0,0,1,3.313-8.693,10.016,10.016,0,0,1,6.2-3.808,4.76,4.76,0,0,1,3.808.952,1.428,1.428,0,0,1,.638,1.266.885.885,0,0,1-.447.771.7.7,0,0,1-.866,0c-1.9-1.771-3.808-1.1-5.551.143A11.53,11.53,0,0,0,48.4,271.276a6.017,6.017,0,0,0,4.113,5.446,15.472,15.472,0,0,0,4.7.952,21.614,21.614,0,0,0,7.55-.562,2.446,2.446,0,0,1,.952-.067.952.952,0,0,1,.819.657,1.066,1.066,0,0,1-.343,1.162,3.808,3.808,0,0,1-1.371.524A33.816,33.816,0,0,1,59.339,279.969ZM101.964,90.5c-.076-3.2-.143-5.494-.19-7.779a7.616,7.616,0,0,1,.1-1.476.847.847,0,0,1,.809-.657.857.857,0,0,1,.952.467,2.628,2.628,0,0,1,.333,1.971,4.027,4.027,0,0,0-.114,1.647c.086,1.79.219,3.58.267,5.379a110.444,110.444,0,0,0,1.1,13.5,67.735,67.735,0,0,0,2.666,11.368,26.307,26.307,0,0,0,1.123,2.742,6.751,6.751,0,0,0,2.152,2.752,3.694,3.694,0,0,1,.781.762.838.838,0,0,1-.067,1.038.79.79,0,0,1-.809.343,3.552,3.552,0,0,1-1.028-.4,6.893,6.893,0,0,1-2.58-2.856,27.83,27.83,0,0,1-2.228-5.713,79.4,79.4,0,0,1-2.542-12.91C102.183,97.022,102.1,93.357,101.964,90.5Z" transform="translate(202.737 3901.701)" fill="#020202"/>
    <path id="Path_38963" data-name="Path 38963" d="M227.016,200.653c-.352-.257-.657-.048-.952-.057a8.379,8.379,0,0,1-1.466-.1,1.047,1.047,0,0,1-.762-.952.952.952,0,0,1,.8-.885c.657-.143,1.323-.229,2.009-.352a4.874,4.874,0,0,0-.171-1.9,7.179,7.179,0,0,1-.171-2.59.857.857,0,0,1,.7-.762.952.952,0,0,1,1.095.476,2.856,2.856,0,0,1,.39,1.6,5.359,5.359,0,0,0,0,1.1c.209,2.009.219,2.018,2.218,1.752l9.75-1.333a4.934,4.934,0,0,1,.952-.076.952.952,0,0,1,.952.781,1.038,1.038,0,0,1-.647,1.2,3.1,3.1,0,0,1-.714.162c-3.742.533-7.464,1.171-11.235,1.466a2,2,0,0,0-.448.209c.076,1.295.343,2.618.552,3.942a14.687,14.687,0,0,1,.209,1.466.952.952,0,0,1-.686.952,1.038,1.038,0,0,1-1.114-.467,4.437,4.437,0,0,1-.552-1.761A27.906,27.906,0,0,0,227.016,200.653ZM112.774,171.586a4.151,4.151,0,0,0,2.418.752.876.876,0,0,1-.638.324.391.391,0,0,0-.438.457c.1.952-.543,1.342-1.238,1.619a11.8,11.8,0,0,1-2.142.552,21.9,21.9,0,0,1-7.007-.171c-1.276-.209-2.542-.448-3.808-.7a4.856,4.856,0,0,0-3.228.467,10.607,10.607,0,0,1-1.009.457,2.161,2.161,0,0,1-2.856-.876,15.557,15.557,0,0,1-2-4.951,1.076,1.076,0,0,1,1.247-1.371c.6.133,1.219.7,1.133,1.276a5.294,5.294,0,0,0,.857,3.151c.457.952.543.952,1.542.5a5.918,5.918,0,0,0,.619-.371,2.142,2.142,0,0,1,1.114-.7,4.846,4.846,0,0,1,.533-.133c.952,0,1.9-.267,2.771.381a28.258,28.258,0,0,0,7.131,1.047,12,12,0,0,0,4.561-.619C112.888,172.471,112.888,172.481,112.774,171.586Zm116.337-8.645a3.9,3.9,0,0,0,2.923-.619c.524-.324,1.076-.619,1.619-.952a4.342,4.342,0,0,1,4.256-.143.952.952,0,0,1,.162.1,6.884,6.884,0,0,0,6.065.5c1.171-.381,2.352-.762,3.513-1.181a3.009,3.009,0,0,1,1.257-.267.994.994,0,0,1,.552,1.771,3.809,3.809,0,0,1-.828.419,40.4,40.4,0,0,1-5.655,1.733,7.15,7.15,0,0,1-4.7-.514,3.7,3.7,0,0,1-.343-.143,3.427,3.427,0,0,0-4.294.076,8.57,8.57,0,0,1-1.98.952,3.628,3.628,0,0,1-2.371.238c-.752-.229-1.143.124-1.457.724a1.714,1.714,0,0,1-.467.571.876.876,0,0,1-1.038.076.781.781,0,0,1-.4-.952C226.626,163.4,227.435,162.522,229.111,162.941Z" transform="translate(200.602 3897.878)" fill="#030202"/>
    <path id="Path_38964" data-name="Path 38964" d="M232.884,209.518a31.191,31.191,0,0,0-6.579.686,2.18,2.18,0,0,1-.552.057,19.517,19.517,0,0,0-4.941.467,40.183,40.183,0,0,0-4.76.581,10.063,10.063,0,0,1-2.571,0,26.162,26.162,0,0,1,4.38-.666,7.961,7.961,0,0,0,2.4-.5,11.882,11.882,0,0,1-2.066-5.189,59.16,59.16,0,0,1-1.2-9.949v-1.114c.067-.809.628-1.371,1.266-1.285s1.352.895,1.123,1.476c-.838,2.114-.057,4.161.181,6.208a26.117,26.117,0,0,0,2.028,8.121,2.342,2.342,0,0,1-.076,1.79c2.713-.3,5.294-.581,7.883-.847.857-.1,1.723-.171,2.59-.219A.776.776,0,0,1,232.884,209.518Z" transform="translate(194.724 3896.335)" fill="#040404"/>
    <path id="Path_38965" data-name="Path 38965" d="M105.132,170.157l-.819,1.038a1.076,1.076,0,0,1-.8.4c-.552,0-1.047-.381-.895-.895.571-2,1.961-3.447,4.246-1.99a3.142,3.142,0,0,1,1.257,1.333.762.762,0,0,1-.076.866.847.847,0,0,1-.952.314,3.912,3.912,0,0,1-.79-.467A2.38,2.38,0,0,0,105.132,170.157Z" transform="translate(200.036 3897.507)" fill="#090707"/>
    <path id="Path_38966" data-name="Path 38966" d="M207.237,90.744a1.77,1.77,0,0,1-.057.476.8.8,0,0,1-.771.666.79.79,0,0,1-.895-.486A8.359,8.359,0,0,1,205,88.945a1.009,1.009,0,0,1,.762-1.095,1.123,1.123,0,0,1,1.152.714,5.17,5.17,0,0,1,.324,2.18Z" transform="translate(195.131 3901.352)" fill="#120f0f"/>
    <path id="Path_38967" data-name="Path 38967" d="M207.476,110.489a2.8,2.8,0,0,1-.552-.286,2.057,2.057,0,0,1-.724-1.457,1,1,0,0,1,.666-1.009.952.952,0,0,1,1.009.286,2.266,2.266,0,0,1,.609,1.7A.952.952,0,0,1,207.476,110.489Z" transform="translate(195.073 3900.402)" fill="#1d1b1b"/>
    <path id="Path_38968" data-name="Path 38968" d="M254.014,200.545a3.594,3.594,0,0,1-.286.666.809.809,0,0,1-1.124.209,1.59,1.59,0,0,1-.486-2.085.952.952,0,0,1,1.647,0,1.99,1.99,0,0,1,.248,1.209Z" transform="translate(192.883 3896.035)" fill="#202222"/>
    <path id="Path_38969" data-name="Path 38969" d="M421.913,384.782a45.888,45.888,0,0,1-7.407-.3c-2.342-.257-4.694-.371-7.036-.5a2.856,2.856,0,0,1-1.742-.514,1.019,1.019,0,0,1-.419-1.133.952.952,0,0,1,1.009-.647,6.576,6.576,0,0,1,.952.048l10.368.79c1.609.124,3.218.086,4.827.057,3.97-.076,7.912-.5,11.854-.876a23.718,23.718,0,0,0,2.932-.448c3.742-.819,7.531-1.495,11.178-2.675a38.862,38.862,0,0,0,10.978-5.294c.657-.467,1.342-.885,2.037-1.295a2.533,2.533,0,0,1,.857-.324,1.038,1.038,0,0,1,1.057.6.952.952,0,0,1-.133,1.038,3.419,3.419,0,0,1-.552.5,50.08,50.08,0,0,1-12.082,6.427,56.016,56.016,0,0,1-6.608,1.819c-2.285.543-4.589,1.019-6.884,1.495a27.363,27.363,0,0,1-2.752.4A91.65,91.65,0,0,1,421.913,384.782ZM398.51,324a.952.952,0,0,1,.866.628,9.748,9.748,0,0,1,.247,1.276A39.3,39.3,0,0,0,410.1,347.222a39.989,39.989,0,0,0,12.9,9.207,7.211,7.211,0,0,1,1.3.714,1.039,1.039,0,0,1-.79,1.857,6.154,6.154,0,0,1-1.219-.419A43.53,43.53,0,0,1,407.565,347.8a40.787,40.787,0,0,1-9.521-18.642,33.638,33.638,0,0,1-.5-3.685,2.086,2.086,0,0,1,.1-.9.828.828,0,0,1,.876-.571Z" transform="translate(185.909 3890.041)" fill="#010101"/>
    <path id="Path_38970" data-name="Path 38970" d="M449.955,256.129a.876.876,0,0,1,.952.533,2.773,2.773,0,0,1,.181.9A34.675,34.675,0,0,0,461,278.989a54.337,54.337,0,0,0,9.378,7.836,5.425,5.425,0,0,1,1,.8,1.047,1.047,0,0,1,0,1.219.952.952,0,0,1-.952.343,2.208,2.208,0,0,1-.7-.228,10.675,10.675,0,0,1-1.276-.752,53.993,53.993,0,0,1-12.949-12.377,34.027,34.027,0,0,1-5.551-12.063,28.059,28.059,0,0,1-.885-5.475,6.394,6.394,0,0,1,.1-1.476A.952.952,0,0,1,449.955,256.129Z" transform="translate(183.44 3893.292)" fill="#020101"/>
    <path id="Path_38971" data-name="Path 38971" d="M468.755,250.515a35.654,35.654,0,0,1-1.076,8.788c-1.009,4.342-2.342,8.569-3.656,12.834a5.876,5.876,0,0,1-.771,1.9,1.124,1.124,0,0,1-1.295.476,1.047,1.047,0,0,1-.638-1.2,10.5,10.5,0,0,1,.343-1.057c1.523-4.894,3.047-9.788,4.17-14.805a47.159,47.159,0,0,0,.952-8.645,9.094,9.094,0,0,0-.2-2.209.952.952,0,0,1,.7-1.133,1.028,1.028,0,0,1,1.2.638,3.418,3.418,0,0,1,.257,1.447C468.764,248.534,468.755,249.525,468.755,250.515Z" transform="translate(182.854 3893.804)" fill="#020202"/>
    <path id="Path_38972" data-name="Path 38972" d="M458.894,226.2a14.729,14.729,0,0,1,4.332.562,5.962,5.962,0,0,1,1.9,1.047,1.648,1.648,0,0,1,.581.952.885.885,0,0,1-.9,1.1,2.3,2.3,0,0,1-1.047-.333,10.473,10.473,0,0,0-6.665-1.095c-.552.067-1.095.162-1.647.248a2.514,2.514,0,0,0-2.028,1.066.724.724,0,0,1-.952.219,1.028,1.028,0,0,1-.628-.847,1.5,1.5,0,0,1,.562-1.476,5.969,5.969,0,0,1,2.018-.876,25.348,25.348,0,0,1,4.475-.571Z" transform="translate(183.309 3894.725)" fill="#040404"/>
    <path id="Path_38973" data-name="Path 38973" d="M418.356,148.692a1.19,1.19,0,0,1-.724,1.009.838.838,0,0,1-1-.276,13.8,13.8,0,0,1-1.019-1.314,8.835,8.835,0,0,0-5.922-3.456,4.132,4.132,0,0,0-2.2.143,3.554,3.554,0,0,1-.885.219.876.876,0,0,1-1.009-.619,1,1,0,0,1,.428-1.123,4.114,4.114,0,0,1,1.371-.552,7.664,7.664,0,0,1,3.123,0,10.768,10.768,0,0,1,7.284,4.646A2.275,2.275,0,0,1,418.356,148.692Z" transform="translate(185.524 3898.731)" fill="#060505"/>
    <path id="Path_38974" data-name="Path 38974" d="M393.623,142a12.493,12.493,0,0,1,3.475.533,3.342,3.342,0,0,1,.847.362,1.047,1.047,0,0,1,.409,1.133.952.952,0,0,1-.952.762,4.761,4.761,0,0,1-1.076-.181,13.148,13.148,0,0,0-2.923-.438c-2.171.086-3.97.79-5,2.856a4.54,4.54,0,0,1-.619.952.957.957,0,0,1-1.609-.943,4.271,4.271,0,0,1,.3-.676C387.911,143.361,390.386,142.143,393.623,142Z" transform="translate(186.455 3898.758)" fill="#050404"/>
    <path id="Path_38975" data-name="Path 38975" d="M403.227,170.328a5.122,5.122,0,0,1-4.389-3.456,2.085,2.085,0,0,1,.162-1.266,4.513,4.513,0,0,1,2.685-2.4.985.985,0,0,1,.809,1.79c-.409.286-.838.524-1.219.838a.771.771,0,0,0-.057,1.152,2.39,2.39,0,0,0,2.761.952c.952-.314,1.466,0,1.628.619s-.181,1.019-.952,1.39A3.723,3.723,0,0,1,403.227,170.328Z" transform="translate(185.848 3897.746)" fill="#070505"/>
    <path id="Path_38976" data-name="Path 38976" d="M438.64,152.335a3.751,3.751,0,0,1-.657,2.485,1.981,1.981,0,0,1-.714.543.952.952,0,0,1-1.219-.952.524.524,0,0,1,.057-.171,4.342,4.342,0,0,0,.209-3.561.952.952,0,0,1,.609-1.19,1.028,1.028,0,0,1,1.228.552A5.245,5.245,0,0,1,438.64,152.335Z" transform="translate(184.063 3898.402)" fill="#0a0909"/>
    <path id="Path_38977" data-name="Path 38977" d="M165.634,319.4a5.921,5.921,0,0,0-2.161-1.7,9.178,9.178,0,0,0-5.046-.952c-1.228.1-2.456.276-3.685.428a5.771,5.771,0,0,1-5.027-1.266c-.952-.876-1.78-.743-2.78.171-.638.59-1.247,1.209-1.9,1.809a8.368,8.368,0,0,1-1.9,1.438,3.123,3.123,0,0,1-3.647-.219c-.352-.257-.7-.514-1.038-.79a2.628,2.628,0,0,0-3.694.181,15.028,15.028,0,0,0-1.9,2.237c-.238.324-.4.79-.952.781a11.025,11.025,0,0,0-2.295-2.609,4.6,4.6,0,0,0-4.9-.533,7.617,7.617,0,0,0-2.38,1.742l-1.171,1.238a7.216,7.216,0,0,1-.876-2.095,6.474,6.474,0,0,0-.876-1.828,1.476,1.476,0,0,0-2.276-.19,7.663,7.663,0,0,0-.809,1.009c-.514.7-1.009,1.409-1.523,2.1a6.142,6.142,0,0,1-1.761,1.638,1.3,1.3,0,0,1-1.7-.133c-.333-.286-.609-.619-.952-.952a16.164,16.164,0,0,0-1.228-1.133,2.39,2.39,0,0,0-3.361.057,12.08,12.08,0,0,0-1.057,1.038c-.428.448-.838.952-1.266,1.362s-.724.362-.952-.19a39.713,39.713,0,0,1-1.523-4.38,8.274,8.274,0,0,0-.638-1.533.952.952,0,0,0-1.162-.314.838.838,0,0,0-.562.876,4.342,4.342,0,0,0,.162,1.276c.6,1.695,1.238,3.361,1.9,5.037a4.913,4.913,0,0,0,.447.819c.885,1.361,1.98,1.542,3.266.486a15.427,15.427,0,0,0,1.314-1.3c.428-.448.828-.952,1.276-1.352s.7-.381,1.133,0c.628.6,1.219,1.228,1.847,1.828a3.418,3.418,0,0,0,4.132.352,9.7,9.7,0,0,0,2.209-1.971c.476-.571.895-1.19,1.352-1.771.238-.3.571-.267.7.086a30.47,30.47,0,0,0,1.561,4.161,6.546,6.546,0,0,1-.828.267l-5.874.866c-5.941.9-11.911,1.552-17.88,2.2-1.723.19-3.428.5-5.151.714a3.313,3.313,0,0,0-1.533.59,1.219,1.219,0,0,0-.324,1.5.952.952,0,0,0,1.409.381,5.247,5.247,0,0,1,1.752-.562l7.007-.819c4.37-.524,8.74-1,13.091-1.6,4.713-.657,9.416-1.457,14.129-2.142,4.1-.6,8.207-1.2,12.377-1.676,4.979-.581,9.959-1.143,14.986-1.257,3.285-.086,6.56-.228,9.845-.352a5.8,5.8,0,0,0,2.009-.276,1.723,1.723,0,0,0,.7-2.771Zm-36.751,3.751c-2.247.229-4.446.79-6.922.952a9.216,9.216,0,0,1,3.313-3.6,2.523,2.523,0,0,1,3.085.257,5.255,5.255,0,0,1,1.542,1.971A1.181,1.181,0,0,1,128.883,323.156Zm5.57-.781a5.713,5.713,0,0,1,1.9-2.38.7.7,0,0,1,.857.086c.686.5,1.352,1.019,2.19,1.647C137.718,322.1,136.157,322.166,134.453,322.375Zm23.146-1.819c-1.9.1-3.808.1-5.713.181s-3.7.229-5.551.352c-.5.114-1.057.39-1.276-.39,1.247-.809,2.161-2.018,3.313-2.9a1.143,1.143,0,0,1,.39.1,6.988,6.988,0,0,0,5.57,1.428c1.295-.171,2.58-.3,3.875-.438a7.817,7.817,0,0,1,4.494.79c.209.1.467.2.409.609a52.322,52.322,0,0,1-5.513.267Z" transform="translate(200.726 3890.457)"/>
    <path id="Path_38978" data-name="Path 38978" d="M411.241,153.78l-.371.3Z" transform="translate(185.27 3898.194)" fill="#0f0e0e"/>
  </g>
</svg>
