<svg xmlns="http://www.w3.org/2000/svg" width="494.002" height="470.355" viewBox="0 0 494.002 470.355">
  <g id="Group_173074" data-name="Group 173074" transform="translate(-1185 -3919)">
    <path id="Path_39018" data-name="Path 39018" d="M476.2,288.36c.14,0,.35,0,.4.09a14.39,14.39,0,0,1,2,4.27c.05.15-.11.43-.25.54a.52.52,0,0,1-.76-.15,19.878,19.878,0,0,1-1.86-4.13.46.46,0,0,1,.47-.62Z" transform="translate(1173.501 3896.133)" fill="#1e1b1b"/>
    <path id="Path_39019" data-name="Path 39019" d="M486.25,287.29a.52.52,0,0,1-.69.34,13,13,0,0,1-1.31-.74c-.87-.51-1.75-1-2.61-1.54a.71.71,0,0,1-.14-.57.38.38,0,0,1,.47-.33,8.42,8.42,0,0,1,4.22,2.43C486.27,287,486.23,287.15,486.25,287.29Z" transform="translate(1173.501 3896.133)" fill="#1c1212"/>
    <path id="Path_39020" data-name="Path 39020" d="M480.66,290.33c.12.06.36.1.47.24a16.25,16.25,0,0,1,1.94,3.57c.12.31-.08.54-.33.7a.44.44,0,0,1-.58-.11,14.158,14.158,0,0,1-2-3.76C480.08,290.74,480.21,290.41,480.66,290.33Z" transform="translate(1173.501 3896.133)" fill="#201c1c"/>
    <path id="Path_39021" data-name="Path 39021" d="M486.29,291.74c-.06.38-.48.62-.69.49a8,8,0,0,1-2.72-2.38.43.43,0,0,1,0-.4,1.261,1.261,0,0,1,.56-.26.55.55,0,0,1,.4.13c.77.64,1.54,1.29,2.28,2C486.28,291.4,486.27,291.66,486.29,291.74Z" transform="translate(1173.501 3896.133)" fill="#262424"/>
    <path id="Path_39042" data-name="Path 39042" d="M488.5,273.13l.49-.44a.83.83,0,0,1,.39.67c0,.19,0,.41-.24.46a.45.45,0,0,1-.34-.18,4.264,4.264,0,0,1-.3-.51Z" transform="translate(1173.501 3896.133)" fill="#934802"/>
    <path id="Path_38979" data-name="Path 38979" d="M148.91,359.41a.65.65,0,0,0-.73-.33,7.99,7.99,0,0,0-.81.32,2.13,2.13,0,0,1-.66.16,3.659,3.659,0,0,0-.93.08,1,1,0,0,0-.39.24,3.368,3.368,0,0,0-.29.35s-.13.17-.13.18a2.872,2.872,0,0,1-.31.29,1.19,1.19,0,0,1-.38.17h-.67a1.23,1.23,0,0,0-.46.18,5.739,5.739,0,0,0-.69.78.57.57,0,0,1-.59.16c-.2-.08-.4-.19-.6,0-.5.62-.41,1.56-1.17,2-1,.65-1.08.7-1.73-.23a27.34,27.34,0,0,0-6-6.27A28,28,0,0,0,118.9,352c-.81-.11-.86-.17-.91-.92-.07-1.23-.09-2.47-.18-3.7-.06-.95-.31-1.22-1.17-1.17-2.61.16-5.21.37-7.81.56a1,1,0,0,0-1,1c-.09.94-.09,1.89-.14,2.83a5.92,5.92,0,0,1-.18,2.13c-.36.74-1.37.71-2.09,1a27.76,27.76,0,0,0-5.9,48.51c.85.61.84.63.53,1.58q-2.52,7.86-5,15.71a5.87,5.87,0,0,0-.45,1.9,2.43,2.43,0,0,0,1.76,2.44,2.48,2.48,0,0,0,3-1.14,8.7,8.7,0,0,0,.55-1.42c.45-1.37.87-2.76,1.33-4.13.39-1.18.4-1.18,1.66-1.26,3.91-.23,7.81-.48,11.72-.7q6.74-.36,13.47-.68c1.21-.06,1.24,0,1.73,1.16.66,1.61,1.28,3.23,1.95,4.83a6.352,6.352,0,0,0,.84,1.51,2.44,2.44,0,0,0,2.76.73,2.5,2.5,0,0,0,1.66-2.54,5.4,5.4,0,0,0-.37-1.46c-.41-1.08-.86-2.15-1.3-3.22-1.58-3.89-3.14-7.79-4.75-11.67a.86.86,0,0,1,.35-1.25,15.687,15.687,0,0,0,1.41-1,27.38,27.38,0,0,0,10.92-22.41,26.23,26.23,0,0,0-2.78-11.74c-.75-1.55-1-1.34.57-2.34,2.14-1.35,4.31-2.67,6.46-4,.43-.27.84-.56,1.24-.87a.56.56,0,0,0,.13-.86Zm-39.58-9c.08-2.37-.17-2.19,2.32-2.34,1.29-.08,2.58-.2,3.88-.28.57,0,.8.15.81.72,0,1,.45,2.2-.09,3s-1.88.28-2.85.44c-1.14.19-2.28.31-3.43.45-.54.07-.76-.15-.74-.74.02-.5.07-.93.1-1.29Zm-5.94,60.11c.51-1.63,1-3.08,1.43-4.51.17-.52.47-.66,1-.47a30.67,30.67,0,0,0,4.8,1.3,27.44,27.44,0,0,0,13.49-.91c.34-.11.68-.25,1-.34a.55.55,0,0,1,.7.35,13.229,13.229,0,0,1,1.15,3.23c-1.62.26-21.4,1.4-23.57,1.31ZM141.67,378v1.52a26,26,0,0,1-21.26,25.79,25.15,25.15,0,0,1-17.48-2.73A25.48,25.48,0,0,1,90,385.37a26.18,26.18,0,0,1,46.51-21.45,12.75,12.75,0,0,1,.74,1.07.65.65,0,0,1-.22.94l-.18.13c-1.9,1.19-3.8,2.39-5.72,3.56-.69.42-.84.37-1.46-.31-.35-.37-.65-.78-1-1.14-5.1-5.05-11.15-6.74-17.95-4.45S100,371,99.14,378.13a17.17,17.17,0,1,0,34.2.63,17.67,17.67,0,0,0-1.76-6.47c-.44-.93-.43-1,.47-1.53q2.58-1.63,5.17-3.22c1.11-.67,1.27-.64,1.81.47a25.11,25.11,0,0,1,2.64,9.99Zm-24.36,1a.65.65,0,0,0,.93.24c.64-.31,1.25-.68,1.88-1a2.49,2.49,0,0,1,.19,2.89,3.91,3.91,0,0,1-4.59,2.34,4,4,0,0,1-3-4.21,3.86,3.86,0,0,1,3.94-3.55,4,4,0,0,1,1.88.42c.88.47.73.9.14,1.24a12.563,12.563,0,0,0-1.08.71.75.75,0,0,0-.29.92Zm1.84-4.39a5.49,5.49,0,1,0,2.72,3.09.71.71,0,0,1,.32-.92l5.53-3.45c.61-.37,1.24-.72,1.85-1.08,4.33,5.55,2.33,15.38-4,20.12A15.62,15.62,0,1,1,107.43,367c8-5.38,17.64-2.09,21.43,4-2.59,1.7-5.25,3.28-7.87,4.92a16.581,16.581,0,0,0-1.84-1.28ZM93.1,273.25a12,12,0,0,0-1.36-1.4q-10-9.54-20-19.06c-1.42-1.35-2.85-2.69-4.26-4a3.27,3.27,0,0,0-2.46-1.2,1.48,1.48,0,0,1-1.14-.52c-.51-.5-1-1-1.61-1.54.51-.58,1-1.1,1.46-1.66a20.06,20.06,0,0,0-15.87-33.19,20.67,20.67,0,0,0-16,7.55,19.94,19.94,0,0,0,2.43,28.54,21.06,21.06,0,0,0,24.4,1.42c.43-.27.85-.54,1.27-.84a.64.64,0,0,1,.95.06c.46.46.92.92,1.39,1.37a.88.88,0,0,1,.34.76c-.27,1.42.52,2.32,1.44,3.2q12.23,11.61,24.43,23.24a7.641,7.641,0,0,0,1.15,1,2.52,2.52,0,0,0,3.19-.31,2.48,2.48,0,0,0,.25-3.42ZM47.26,249.8c-6.61-.21-12-2.86-15.71-8.48a18.22,18.22,0,0,1,1.53-22,19.66,19.66,0,0,1,23.08-5.27A18.21,18.21,0,0,1,63.86,241C60,246.81,54.33,249.63,47.26,249.8Z" transform="translate(1173.501 3896.133)"/>
    <path id="Path_38980" data-name="Path 38980" d="M151.94,86.65a7.84,7.84,0,0,0-.83-.23A9.24,9.24,0,0,1,147,83.65c-2.67-2.86-3.77-9.18-2.6-12.3a6.448,6.448,0,0,0,.32-1,.88.88,0,0,0-1.22-1c-.94.37-1.87.77-2.8,1.17a5.58,5.58,0,0,1-3.42.25,8.83,8.83,0,0,1-5.24-3.27,3.8,3.8,0,0,1-.87-3.64,1.54,1.54,0,0,0,.06-.43c0-.42-.49-.86-.87-.71s-.92.42-1.38.63a30.626,30.626,0,0,1-3.35,1.54c-3.76,1.21-7.5,1.63-11.06-.68a.88.88,0,0,0-1.38.49,3.841,3.841,0,0,0-.21,1.06,5.08,5.08,0,0,1-1,2.61,14,14,0,0,1-6.36,5.09,3.59,3.59,0,0,1-3.15,0,6.29,6.29,0,0,0-1.21-.46.82.82,0,0,0-1,1,9.309,9.309,0,0,0,.52,1.42,4.31,4.31,0,0,1,.07,3.18,8.42,8.42,0,0,1-1.66,3C98,83,96.75,84.45,94.75,84.9a.82.82,0,0,0-.27,1.41,5.689,5.689,0,0,0,.71.5,6.85,6.85,0,0,1,3,4.33,10.08,10.08,0,0,1-1.43,8.49c-.16.24-.36.45-.51.7a.74.74,0,0,0,.42,1.06,5.56,5.56,0,0,0,1.26.27,6,6,0,0,1,2.29.63,14.29,14.29,0,0,1,6.55,6.44,5.31,5.31,0,0,1,.19,4.6c-.11.27-.21.54-.33.8a156.264,156.264,0,0,0-6.16,16.93,53,53,0,0,0-2,8.45,3.3,3.3,0,0,0,0,1.5.92.92,0,0,0,1.2.62,13.381,13.381,0,0,0,1.63-1.06,30.5,30.5,0,0,1,4.33-2.89c1-.52,1.07-.54,1.83.34,1.78,2,3.51,4,5.27,6.08a13.623,13.623,0,0,0,1,1.15,1,1,0,0,0,1.77-.32,11.111,11.111,0,0,0,.51-1.88,51,51,0,0,1,2.6-9.63c1.4-3.42,2.91-6.79,4.6-10.08.12-.23.14-.56.69-.65a22.63,22.63,0,0,1,2.93,4.12c2.85,5.05,5.62,10.13,7,15.83.25,1.05,1.25,1.24,2,.42a7,7,0,0,0,.86-1.24c.8-1.46,1.57-2.94,2.35-4.41.23-.44.28-1,.82-1.26a23.591,23.591,0,0,1,4.31,1.33c1.12.52,2.22,1.08,3.33,1.6s2,.07,1.93-1.3a3.1,3.1,0,0,0,0-.43c-.36-2.07-.57-4.18-1.09-6.2a72.85,72.85,0,0,0-7.33-18.3,3.83,3.83,0,0,1-.37-3.29,10.86,10.86,0,0,1,4.08-5.73c1.12-.83,2.26-1.63,3.78-1.14a.77.77,0,0,0,.85-.94,11.37,11.37,0,0,0-.7-1.34,8.2,8.2,0,0,1-.81-5.7,12.38,12.38,0,0,1,1.33-3.66,5.71,5.71,0,0,1,2.63-2.79,2.819,2.819,0,0,0,.38-.21.8.8,0,0,0-.24-1.4Zm-10.55,30.51a72.09,72.09,0,0,1,5.67,15.92c.27,1.27.42,2.56.68,4.2a24.091,24.091,0,0,1-2.32-1c-1.83-.9-3.85-1.25-5.74-2a1,1,0,0,0-1.27.56c-.24.44-.44.91-.64,1.38a27,27,0,0,1-2.31,4.39c-.62-.06-.62-.56-.74-.92a70.5,70.5,0,0,0-6.07-13c-1.08-1.9-2.55-3.53-3.75-5.33s-1.57-2-2.65.2c-1.93,3.9-3.81,7.81-5.39,11.87a43.72,43.72,0,0,0-2.18,7.95c-.06.35-.12.71-.21,1.06a.432.432,0,0,1-.79.15c-1.25-1.41-2.48-2.84-3.72-4.26-.62-.71-1.25-1.41-1.86-2.12a1.73,1.73,0,0,0-2.34-.43c-1.21.66-2.38,1.39-3.56,2.09-.55.32-1,.87-1.64,1-.35-.32-.2-.68-.13-1,.57-2.54,1.23-5.06,2-7.54q2.54-7.86,5.56-15.54a3.82,3.82,0,0,1,3.53-2.7,20.73,20.73,0,0,1,10.76,2.06,7.78,7.78,0,0,1,1.86,1.47,1,1,0,0,0,1.51-.13c.24-.27.43-.59.66-.86a9.22,9.22,0,0,1,7.15-3.57,27.19,27.19,0,0,1,3.25.15,3,3,0,0,1,2.41,1.64C139.88,114.36,140.71,115.73,141.39,117.16Zm5.43-16.6c-.09.33-.39.43-.64.54a12.66,12.66,0,0,0-7.14,8c-.29.92-.32.93-1.19.69a14,14,0,0,0-6.24-.2,9.93,9.93,0,0,0-4.85,2.32c-.65.57-1.27,1.19-2,1.82a21.08,21.08,0,0,0-7.82-3,16.22,16.22,0,0,0-6.9,0c-.77.18-.84.12-1.06-.61a14.73,14.73,0,0,0-9.19-9.74l-.8-.32c-.06,0-.1-.11-.23-.26.84-2.27,1.77-4.64,1.42-7.22A10.77,10.77,0,0,0,97,86c2.41-2.08,4.74-4.13,5.54-7.31,0-.07.07-.13.07-.2.24-2.88.24-2.88,3-3.29A15,15,0,0,0,111,72a12.19,12.19,0,0,0,3.72-5.64c5.08,1.89,9.88,1.22,14.6-1.34a9.34,9.34,0,0,0,2.81,4.85,12.16,12.16,0,0,0,4.76,2.49c1.92.52,3.7-.12,5.57-.62-.45,6.55.82,12.26,7,15.9-2.88,3.91-4.55,8.07-2.64,12.92Z" transform="translate(1173.501 3896.133)" fill="#010000"/>
    <path id="Path_38981" data-name="Path 38981" d="M429.54,144.68h-4.4c-.28-.66-.56-1.32-.83-2a57.79,57.79,0,0,0-5.51-10.58,33.73,33.73,0,0,0-5.17-6.14,18.22,18.22,0,0,0-8.64-4.78c-.22,0-.37-.19-.42-.52a14.78,14.78,0,0,0,6.51-5.49,24.611,24.611,0,0,0,2.13-3.78,37.931,37.931,0,0,0,3.05-11.5c.08-.72.13-1.45.25-2.16a5.28,5.28,0,0,1,.33-2.13l7.42-.34a11,11,0,0,0,1.51-.14c.15,0,.33-.29.37-.47a.55.55,0,0,0-.45-.64,19.6,19.6,0,0,0-2.17,0c-6.3.23-12.6.49-18.91.7q-16,.54-32,1a9.94,9.94,0,0,0-1.09,0A1.19,1.19,0,0,0,371,96a.931.931,0,0,0-.27.53.42.42,0,0,0,.38.45,8,8,0,0,0,1.3.06q4.35-.1,8.69-.24c1.7,0,1.69,0,2,1.49.31,1.34.58,2.69,1,4a37.61,37.61,0,0,0,6,12.44,17.24,17.24,0,0,0,8.22,6.18c.15.1.47.16.14.43h-.1a.92.92,0,0,1-.32.18,18.93,18.93,0,0,0-8,5.84,32.82,32.82,0,0,0-3.86,5.77,51.461,51.461,0,0,0-3.93,9.64c-.23.76-.44,1.53-.68,2.29a.78.78,0,0,1-.8.58c-1.6,0-3.19,0-4.79.09a16.6,16.6,0,0,0-1.72.13.64.64,0,0,0-.54.6.54.54,0,0,0,.53.56,8,8,0,0,0,1.09.05l18.48-.4,33.5-.71a19.741,19.741,0,0,0,2.17-.13.593.593,0,0,0,.63-.7C430.07,144.66,429.83,144.7,429.54,144.68Zm-40.53-34c0-.06-.08-.12-.11-.18a43,43,0,0,1-4.6-13.06c-.11-.58.07-.8.64-.85h.65l16.19-.5,11.63-.42c2-.07,2-.09,1.79,1.84a43.387,43.387,0,0,1-2,10.22c-.16.48-.31,1-.49,1.43-.5,1.25-.5,1.16-1.92,1.22a44.141,44.141,0,0,0-5.37.35c-1.66.27-3.43,0-5.14.24a.8.8,0,0,1-.42-.09,3.73,3.73,0,0,0-3.15,0,3.8,3.8,0,0,1-3,.15,2.09,2.09,0,0,0-1.49.11,6.77,6.77,0,0,1-1.46.42,1.58,1.58,0,0,1-1.76-.87Zm7.56,8.08a17,17,0,0,1-6-5.66c1.28-.48,2.34-1,3.64-.6a4,4,0,0,0,2.56-.19,3.73,3.73,0,0,1,2.93-.08,2.62,2.62,0,0,0,1.91.05,5.32,5.32,0,0,1,2.35-.13,3.83,3.83,0,0,0,1.72,0c1.55-.53,3.15-.17,4.71-.42a2.61,2.61,0,0,1,.79.12c.24.44,0,.74-.16,1.05a16.621,16.621,0,0,1-3.94,4.85,8.93,8.93,0,0,1-10.51,1.02Zm-9.12,14.89a27.731,27.731,0,0,1,5.72-7.58,15.26,15.26,0,0,1,5.53-3.32,4.65,4.65,0,0,1,1.06-.1,5.66,5.66,0,0,1,1.08,4.43c-.06.5,0,1.13.53,1.27.75.19.94-.51,1.09-1a19.582,19.582,0,0,1,1.69-4.82,6.61,6.61,0,0,1,2.32.46h0a14.47,14.47,0,0,1,7.09,5.12c1,1.36,2,2.71,2.94,4.06-.12.54-2.44.49-2.71.47a7.43,7.43,0,0,0-3,.26.79.79,0,0,1-.42.08,9.19,9.19,0,0,0-4.67.53,1.76,1.76,0,0,1-1.26-.06,3.72,3.72,0,0,0-3.08,0,2.54,2.54,0,0,1-.94.15,8.78,8.78,0,0,0-4.07.28,1.68,1.68,0,0,1-1-.17,3.48,3.48,0,0,0-2.74.05,1.85,1.85,0,0,1-1.48.14,3.12,3.12,0,0,0-3.08.38,2.361,2.361,0,0,1-.58.15c-.42-.31-.13-.56-.02-.77Zm34.41,11.17-24.77.54-12.39.3h-1.77a47.168,47.168,0,0,1,3.1-9.07,1,1,0,0,1,.83-.61,4.41,4.41,0,0,0,1.25-.37,3.54,3.54,0,0,1,3.09-.4c.93.35,1.82-.37,2.75-.4s1.79.7,2.75.37a7,7,0,0,1,3.42-.23c.95.16,1.84-.46,2.76-.45s1.84.65,2.76.37a37.379,37.379,0,0,1,5.56-.69c2.08-.29,4.18-.14,6.26-.37a1.39,1.39,0,0,1,1.38.86,55.76,55.76,0,0,1,4.06,8.15c.22.53.41,1.07.65,1.71a2.79,2.79,0,0,1-1.69.3Z" transform="translate(1173.501 3896.133)" fill="#010101"/>
    <path id="Path_38982" data-name="Path 38982" d="M450.65,249.34a5.8,5.8,0,1,0-1.638,4.131,5.84,5.84,0,0,0,1.638-4.131ZM444.72,254a4.52,4.52,0,1,1,4.206-4.409A4.52,4.52,0,0,1,444.72,254Z" transform="translate(1173.501 3896.133)" fill="#090605"/>
    <path id="Path_38983" data-name="Path 38983" d="M491.28,275.93a15.82,15.82,0,0,0-3-7.39c-3.53-5-8.29-7.55-14.49-7.14a17.323,17.323,0,0,0-2.56.43,1.3,1.3,0,0,1-1.5-.54c-1-1.27-2-2.5-3-3.74a110.269,110.269,0,0,0-24.38-22.45,62.861,62.861,0,0,0-15.4-7.42,8.251,8.251,0,0,0-1.47-.34.74.74,0,0,0-.92.87c.17,1,.33,2,.57,3A51,51,0,0,0,430,243.28a122.4,122.4,0,0,0,23.15,30.81c.42.41.84.8,1.27,1.2a.69.69,0,0,1,.13,1l-.57.93a8.85,8.85,0,0,0-1,6.92,17.56,17.56,0,0,0,12.9,13.38,2.561,2.561,0,0,0,.86.12.72.72,0,0,0,.53-.28.64.64,0,0,0-.05-.6,2.47,2.47,0,0,0-.63-.57,13.471,13.471,0,0,1-4.31-5.36,10,10,0,0,1,.26-9.07c.94.5,1.79.89,2.59,1.38a3,3,0,0,0,3.27,0c.68-.38,1.39-.72,2.05-1.06.5.25.5.74.69,1.12a4,4,0,0,0,2.56,2.19c.41.12.83.27,1.25.36a8.859,8.859,0,0,1,4.13,1.82,2.61,2.61,0,0,0,1.4.49.67.67,0,0,0,.76-.26.71.71,0,0,0-.09-.61,7.53,7.53,0,0,1-1.25-3.66c-.09-.5-.14-1-.27-1.49a8.31,8.31,0,0,0-2.41-4.3c-.42-.36-1.23-.46-1.26-1.05a3.69,3.69,0,0,1,.59-1.59,3.76,3.76,0,0,0-.25-4.08.79.79,0,0,1-.16-.84c2-.8,4-.37,5.91.19,3.25.93,5.45,3.19,7.26,5.91.28.42.5.88.77,1.3a.67.67,0,0,0,.76.3.72.72,0,0,0,.5-.65A8,8,0,0,0,491.28,275.93ZM429.6,239.52a34.63,34.63,0,0,1-3.37-10.05,3.308,3.308,0,0,1,.17-.61,70.292,70.292,0,0,1,9.16,3.76c1,.52,1.13.82.74,1.9a6.2,6.2,0,0,1-.76,1.55,10.15,10.15,0,0,1-5,3.67C430.17,239.87,429.8,239.93,429.6,239.52Zm23.9,32.82c-5.88-4.2-20-23.34-22.91-31.06.39-.46,1-.53,1.48-.79,2.56-1.35,4.75-3.05,5.62-6,.15-.49.43-.53,1-.16a99.483,99.483,0,0,1,12.17,8.72,121.882,121.882,0,0,1,15.93,16.59,6.881,6.881,0,0,1,.46.69C466.2,261.56,455.42,271,453.5,272.34Zm8.2,20.31c.38.62.77,1.23,1.15,1.84a.63.63,0,0,1-.91,0,16.1,16.1,0,0,1-7.69-10.58,7.91,7.91,0,0,1,1-6.46c.43-.63.66-.7,1.2-.28,1.43,1.12,2.84,2.24,4.27,3.35a.86.86,0,0,1,.37,1.11,15.9,15.9,0,0,0-.57,1.64,11.21,11.21,0,0,0,1.18,9.38Zm5.71-10.56A1.43,1.43,0,0,1,466,282c-.88-.5-1.8-.94-2.66-1.47A54.531,54.531,0,0,1,455,274a3.531,3.531,0,0,1-.43-.63l13.76-11.93c.21.31.37.54.54.77,2.14,2.92,4.12,5.95,6.08,9a3.59,3.59,0,0,1,.09,4A15.22,15.22,0,0,1,467.41,282.09Zm7.53-1.09c-.09.31-.25.28-.4,0a1.08,1.08,0,0,1-.89-.9c-.28-.23-.18-.45.05-.62s.32.06.4.22a1,1,0,0,1,.57.76.4.4,0,0,1,.27.54Zm2.82-.35a11.134,11.134,0,0,1,.61,1.85c.21,1,.32,2,.52,3.25a31.561,31.561,0,0,0-4.47-1.4,2.83,2.83,0,0,1-2.46-2.86c0-.21.05-.44.31-.47a.59.59,0,0,1,.4.08,9.61,9.61,0,0,0,2.61,1.9c.64.28,1.14-.09,1.1-.81a6.68,6.68,0,0,0-1.09-3,3.729,3.729,0,0,1-.31-.78.419.419,0,0,1,.28-.23.73.73,0,0,1,.4.11,4.38,4.38,0,0,1,2.1,2.36Zm10.74-7.52a13.18,13.18,0,0,0-5.48-3.77,12.1,12.1,0,0,0-7-.52,1.13,1.13,0,0,1-1.44-.59c-.85-1.34-1.76-2.65-2.65-4-.2-.3-.45-.57-.35-1a1.91,1.91,0,0,1,1.35-.5,14.81,14.81,0,0,1,14,6.11,12.651,12.651,0,0,1,2.07,3.8C489.1,273.13,488.91,273.26,488.5,273.13Z" transform="translate(1173.501 3896.133)" fill="#020101"/>
    <path id="Path_38984" data-name="Path 38984" d="M427.51,403.45c-.17-.55-.39-1.09-.61-1.62-1.25-2.93-2.47-5.87-3.77-8.78a1.51,1.51,0,0,1,.31-1.91,14.19,14.19,0,0,0,3.48-6.66,9.68,9.68,0,0,0-5.36-11.22,22.791,22.791,0,0,0-2.43-.9c-1.61-.55-3.3-.36-5-.49-.25-.55-.51-1.07-.74-1.6l-3.74-8.78c-.23-.53-.47-1.06-.75-1.57a.63.63,0,0,0-1.07-.19,20.514,20.514,0,0,0-1.49,1.58L385.78,384.6c-.29.33-.57.66-.86,1a.527.527,0,0,1-.92,0,1.81,1.81,0,0,0-2.19-.4c-.88.32-1.8.56-2.66.93-3.9,1.72-7.81,3.44-11.68,5.22a30.792,30.792,0,0,0-3.2,1.84,3.84,3.84,0,0,0-1.85,3.69,6.476,6.476,0,0,0,.1,1.08,3.35,3.35,0,0,1-1.07,3.43,6.08,6.08,0,0,0-1.35,6.66,4.64,4.64,0,0,0,4.9,3.15,4.2,4.2,0,0,0,1.07-.17,1,1,0,0,1,1.31.41,12.91,12.91,0,0,0,2,2,2.86,2.86,0,0,0,3,.56c1.71-.58,3.47-1,5.21-1.51,1-.26,1.14-.2,1.5.68a65,65,0,0,0,7.47,12.7,24.917,24.917,0,0,0,2.1,2.49,5.19,5.19,0,0,0,6,1.34,4.15,4.15,0,0,0,2.36-6.44,9.65,9.65,0,0,0-3-3.08c-.55-.34-1.11-.67-1.66-1a3.5,3.5,0,0,1-1.76-3.05,11.8,11.8,0,0,0-2.28-7.11v-.3l1.53-.67A2.07,2.07,0,0,0,391,406.4c.1-.55-.18-1.3.44-1.58a4.68,4.68,0,0,1,1.69-.17H394q15.56-.11,31.09-.23a12.588,12.588,0,0,0,1.943-.15.58.58,0,0,0,.477-.819Zm-2-23.81a9,9,0,0,1,.13,4.71,13.18,13.18,0,0,1-2.8,5.57,4.9,4.9,0,0,1-.65.54c-1.48-2.71-6.86-15.53-7.13-17a9.51,9.51,0,0,1,10.42,6.18Zm-59.65,30.08a3.39,3.39,0,0,1-3.43-.55,4.18,4.18,0,0,1-1.4-3.49,5.51,5.51,0,0,1,1.31-3.35.92.92,0,0,1,.54-.32c.27-.05.28.23.34.41.27.9.5,1.81.83,2.68.44,1.14,1,2.25,1.47,3.36a1.81,1.81,0,0,1,.31,1.26Zm23,3.32a13.924,13.924,0,0,1,.42,3.21,4.66,4.66,0,0,0,2.28,4c.54.36,1.11.67,1.65,1a8.41,8.41,0,0,1,2.71,2.76,2.82,2.82,0,0,1-1.69,4.45,14.315,14.315,0,0,1-1.79.37,3.16,3.16,0,0,1-1.93-.66,13.291,13.291,0,0,1-1.87-1.8,74.11,74.11,0,0,1-8-12.83,9.707,9.707,0,0,1-.43-1c-.19-.49-.06-.75.5-1,1.75-.67,3.51-1.32,5.26-2a1,1,0,0,1,1.16.29,7,7,0,0,1,1.69,3.17Zm.94-7.49a1.54,1.54,0,0,1-1.16,1.61,116.668,116.668,0,0,1-13.49,4.76c-1.05.27-2.08.58-3.12.89a1.9,1.9,0,0,1-1.83-.36,10.108,10.108,0,0,1-2.33-2.55A24.32,24.32,0,0,1,364,399.41c-.1-.79-.19-1.58-.25-2.38a2.72,2.72,0,0,1,1.38-2.74c1.19-.69,2.36-1.42,3.6-2,3.54-1.64,7.11-3.22,10.67-4.82l.81-.32c2.68-1,3.1-1.06,4.57,1.43,2.73,4.62,5.17,9.4,5,14.67-.02,1-.04,1.65-.02,2.3Zm35.48-2.48h-1.53l-30.89.23a7.907,7.907,0,0,1-1.29-.07.65.65,0,0,1-.42-.42,6.471,6.471,0,0,1-.09-1.08,20.62,20.62,0,0,0-1.62-6.95,62.643,62.643,0,0,0-3.93-7.86q11.05-12.54,22.15-25.08a2.21,2.21,0,0,1,.62-.33l5.14,12,11.67,27.37c.2.47.42.93.61,1.4s-.03.72-.46.79Z" transform="translate(1173.501 3896.133)" fill="#010101"/>
    <path id="Path_38985" data-name="Path 38985" d="M249,410.61a33,33,0,1,0,23.374,9.7A33.11,33.11,0,0,0,249,410.61Zm-.37,64.74a31.911,31.911,0,1,0-.05,0Z" transform="translate(1173.501 3896.133)" fill="#010100"/>
    <path id="Path_38986" data-name="Path 38986" d="M504.89,253.34a47.44,47.44,0,0,0-14.24-27.5c-10.41-10-22.94-14.58-37.37-14-1,.05-2,.21-3,.31a.67.67,0,0,1-.78-.57c-.06-.21-.09-.42-.13-.64a197,197,0,0,0-12.71-42.57c-1.39-3.27-2.91-6.47-4.42-9.69-.26-.55-.27-.93.24-1.29.29-.21.56-.46.84-.69a49.22,49.22,0,0,0-38-86.68,48.29,48.29,0,0,0-25.93,11.8l-1,.87a.68.68,0,0,1-1,.05c-.42-.29-.83-.59-1.25-.87a202.89,202.89,0,0,0-41.48-22.16,199.441,199.441,0,0,0-33-9.85A3.46,3.46,0,0,1,289,47.84a45,45,0,0,0-18.66-19.49c-8.52-4.73-17.66-6.61-27.27-4.81C229.75,26,220.4,33.69,214.91,46.05a13.842,13.842,0,0,0-.62,1.62,1.51,1.51,0,0,1-1.39,1.14c-1.44.21-2.86.5-4.27.8a208.16,208.16,0,0,0-50.21,17.13c-2.18,1.07-1.57,1.08-3.35-.38-12.78-10.45-27.28-14-43.37-10.34A49,49,0,0,0,74,104.18a48.3,48.3,0,0,0,7.25,25.38l.88,1.45a2.37,2.37,0,0,1-.15.47l-1.11,1.61A202.539,202.539,0,0,0,50.7,197.74c-.48,1.81-.48,1.81-2.34,2.29a49.19,49.19,0,0,0-3.83,94.08c1.37.48,2.76.87,4.16,1.26a1.09,1.09,0,0,1,.85.86c.09.35.19.69.28,1a200,200,0,0,0,24.75,58.35c1.33,2.13,1.27,1.38,0,3.36-7.71,11.54-10.38,24.16-7.59,37.73a49.25,49.25,0,0,0,78.32,29q.52-.38,1-.81a1,1,0,0,1,1.37-.17c.38.23.76.44,1.14.64A202.718,202.718,0,0,0,194,443.43c1.61.42,3.21.86,4.84,1.3a10.33,10.33,0,0,1,.13,1.13,45.149,45.149,0,0,0,1.34,9.68A49.2,49.2,0,0,0,297.09,449c.13-1.37.23-2.74.3-4.12a.94.94,0,0,1,.71-1c.34-.1.7-.15,1-.25a208.213,208.213,0,0,0,49.94-20.33c2.41-1.37,1.76-1.48,3.46.79,9.64,12.87,22.55,19.66,38.59,20.35a46.629,46.629,0,0,0,20.55-3.9,49.09,49.09,0,0,0,28.77-55.94,48.17,48.17,0,0,0-18-28.4c-.49-.38-1.14-.63-1.4-1.33,2.27-3.65,4.47-7.31,6.52-11.05s4-7.56,5.81-11.43,3.61-7.9,5.15-12,3-8,4.45-12l.92.22a48.6,48.6,0,0,0,22.62.52A49.16,49.16,0,0,0,504.89,253.34ZM402,70.85A47.92,47.92,0,1,1,368.02,84.8,48,48,0,0,1,402,70.85ZM220,40.29a34.69,34.69,0,0,1,24.55-15.21,38.81,38.81,0,0,1,27.53,6.37c10.73,7,17.18,17,19.58,29.59.32,1.7.39,3.45.55,5.18,0,.26.11.57-.19.78-.44,0-.55-.37-.75-.64a54.431,54.431,0,0,0-10-10.19A20,20,0,0,0,274.59,53a46.14,46.14,0,0,0-18.45-2,107.218,107.218,0,0,0-19.23,3.35,66,66,0,0,0-7.64,2.47,29.65,29.65,0,0,0-7.48,4.36,5.509,5.509,0,0,1-.85.68,12.42,12.42,0,0,0-5,5.6c-.46.89-.89,1.8-1.49,3a13,13,0,0,1-.89-4.72C212.85,56.51,214.72,47.93,220,40.29ZM355.58,227c.49,2.64.89,5.29,1.35,7.93a1.17,1.17,0,0,1-.39,1.17c-.32.29-.63.59-1,.87a22.2,22.2,0,0,0-3.11,3,11.81,11.81,0,0,1-6.37,3.94,1.58,1.58,0,0,0-.42.09c-.67.22-1,.63-.82,1.06a1,1,0,0,0,1.3.53,12.58,12.58,0,0,0,6.13-3.1c.73-.7,1.41-1.45,2.08-2.22a20.46,20.46,0,0,1,3-2.71c1.55,5.28,3.23,10.34,3.31,15.78a83.473,83.473,0,0,1-.82,13.22A111.715,111.715,0,0,0,358.48,280c-.12,5.88.81,11.56,4,16.65a19.594,19.594,0,0,1,1.06,1.9,5,5,0,0,1-.85,5.66c-.74.91-1.92.94-2.86,1.46a.54.54,0,0,1-.4-.12,4.412,4.412,0,0,1-.58-.64,24,24,0,0,0-7.85-6.44,36.6,36.6,0,0,1-3.37-2,2.11,2.11,0,0,0-.78-.35.79.79,0,0,0-.58.17.57.57,0,0,0-.09.78,2.35,2.35,0,0,0,.6.62,22.2,22.2,0,0,0,2.92,1.86,25,25,0,0,1,8,6.57A21,21,0,0,1,361,312a79.9,79.9,0,0,1,3.22,12.17,19.691,19.691,0,0,1,.1,5.63,28.151,28.151,0,0,0-.06,6.29,13.33,13.33,0,0,1-2.82,9.78,17,17,0,0,1-7,5.41,32.8,32.8,0,0,0-3.32,1.61,19.62,19.62,0,0,1-6.09,2.25c-.49.09-1.06.41-1.41-.06s.09-.82.29-1.2l2.5-4.58a3.39,3.39,0,0,0,.68-1.58c0-.37-.07-.73-.5-.85a.65.65,0,0,0-.75.3c-.67,1-1.33,2.07-1.93,3.15s-1.27,2.44-1.9,3.66c-.48.93-.58,1-1.5.66s-1.87-.76-2.81-1.15c-.59-.24-.94-.16-1.11.25a.88.88,0,0,0,.39,1.13,7.779,7.779,0,0,0,1.12.65c.46.21.93.39,1.41.58,1.18.46,1.24.67.61,1.66a5.53,5.53,0,0,1-2.06,1.9c-3.33,1.73-6.72,2.19-10.2.42a14.927,14.927,0,0,1-2.86-1.55,1.11,1.11,0,0,1-.4-1.31c.67-2.89,1.2-5.81,1.61-8.75a55.5,55.5,0,0,0,.18-9.56,53.49,53.49,0,0,0-4.3-19,25.557,25.557,0,0,0-1.38-2.71,2.46,2.46,0,0,0-1.38-1.33c-1.32-.33-1.39-1.55-1.87-2.46a3.13,3.13,0,0,1-.11-2.74,8.74,8.74,0,0,1,2.23-3.17,13.481,13.481,0,0,1,4.84-2.85,5.37,5.37,0,0,1,4.23.16c3,1.41,6.17,2.5,9.28,3.69a20.5,20.5,0,0,1,5.11,2.85,8.569,8.569,0,0,0,1.47.91.71.71,0,0,0,.94-.31.63.63,0,0,0-.13-.79,9,9,0,0,0-1-.88,22.45,22.45,0,0,0-6-3.41c-3-1.17-6.13-2.22-9.08-3.63a6.81,6.81,0,0,0-5.49-.13,14.45,14.45,0,0,0-6.54,4.51,1,1,0,0,1-1.3.38c-2.38-.87-4.8-1.64-7.18-2.51a57.189,57.189,0,0,0-13.08-3.12,38.169,38.169,0,0,0-8.68.05q-9,1-17.93,2c-2.23.26-4.45.61-6.67.94A102.2,102.2,0,0,1,249,306.8a81.352,81.352,0,0,1-10-.42,76.291,76.291,0,0,0-16.06-.27c-2.26.24-2.35.36-2.15-1.88A28.829,28.829,0,0,0,219.42,294a61.231,61.231,0,0,0-5-12.72c-1.46-2.75-2.85-5.54-4.22-8.34-1.72-3.52-3.45-7-5.44-10.4a2.65,2.65,0,0,1-.25-2.65,13.7,13.7,0,0,0,1-6,61.438,61.438,0,0,0-.6-6.48c-.74-5.45-1.94-10.85-2-16.38v-4.35c0-6.38.21-12.76.08-19.14A93.13,93.13,0,0,0,200.28,188a77.377,77.377,0,0,1-1.47-7.67c-.06-.43-.06-.91-.64-1s-.78.41-.81,1.07a21.64,21.64,0,0,0,.65,4.73c.48,2.63,1.1,5.24,1.61,7.87a93.449,93.449,0,0,1,1.72,19.24c-.07,4.79-.1,9.57-.14,14.36a60.36,60.36,0,0,0,.46,10.41,3.531,3.531,0,0,1,0,.65c-.51.06-.65-.31-.82-.6-3-5-6.23-9.79-9.39-14.65-3.83-5.89-7.38-12-10.78-18.12,0-.06-.06-.13-.1-.19-.19-.4-.39-.81-.93-.74s-.69.78-.39,1.47c.23.53.51,1,.78,1.55,4.07,7.53,8.54,14.81,13.3,21.93,2.26,3.37,4.29,6.89,6.52,10.28a25.08,25.08,0,0,1,3.57,10.17,36.719,36.719,0,0,1,.39,6.29,13.329,13.329,0,0,1-.43,3,1,1,0,0,1-.59.7,21.081,21.081,0,0,1-2-3.8c-.59-1.32-1.12-2.67-1.7-4a6.12,6.12,0,0,0-1.61-2.29c-1.67-1.43-3.4-.88-3.92,1.27a8.76,8.76,0,0,0,0,3.46c.11.64.21,1.28.31,1.92.2.48.36.93-.45.89a53.645,53.645,0,0,0-5.25-6,14.687,14.687,0,0,0-1.45-1.29,2.3,2.3,0,0,0-3.74,1,6.52,6.52,0,0,0-.19,4.85,33.823,33.823,0,0,0,1.6,4c.92,2,1.93,3.86,2.91,5.79.34.51.3.84-.41.84q-2-2.19-3.91-4.39a12.9,12.9,0,0,0-3.09-2.71c-.74-.44-1.53-1-2.43-.46a2.451,2.451,0,0,0-1,2.46,9.91,9.91,0,0,0,.7,3.17,41.318,41.318,0,0,0,2.88,6.32c.86,1.51,1.68,3,2.57,4.65-1.52,1.37-1.4,3.05-1,4.82a22,22,0,0,0,1.61,4.49,121.194,121.194,0,0,0,6.38,11.62c1.07,1.73,2,3.54,3.23,5.16a4.48,4.48,0,0,1,.21,5.28,26.9,26.9,0,0,0-2.18,5.66,56.9,56.9,0,0,1-3.53,8.87,147.321,147.321,0,0,0-6.75,15.78,40.211,40.211,0,0,0-2.46,10.55,13.153,13.153,0,0,1-.31,1.49,1.49,1.49,0,0,1-1,1.09,18.76,18.76,0,0,1-4.57,1.35,7.21,7.21,0,0,1-4.74-1.27,10.52,10.52,0,0,1-2.6-2.29c-2-2.41-3.91-4.85-5.74-7.38a11.78,11.78,0,0,1-2.3-6.89,38.18,38.18,0,0,0-.41-5.85,29.441,29.441,0,0,0-2.32-7,1.16,1.16,0,0,0-.41-.49.89.89,0,0,0-.6-.09.55.55,0,0,0-.45.64,10,10,0,0,0,.56,1.65,26.27,26.27,0,0,1,1.92,11.05c0,.12-.1.24-.21.51a30.379,30.379,0,0,1-5.21-3.78,11.929,11.929,0,0,1-1.65-2.28,6.73,6.73,0,0,1-.42-6.45c1.7-3.76,3.38-7.54,5.09-11.29a36.592,36.592,0,0,0,2.9-7.25,5.16,5.16,0,0,0,.21-.84.69.69,0,0,0-.44-.68.6.6,0,0,0-.77.19,5.149,5.149,0,0,0-.49,1.19,24,24,0,0,1-1.52,3.84c-2.14,4.2-4,8.51-5.93,12.82a2.39,2.39,0,0,1-1,1.49,20.451,20.451,0,0,1-.51-3.72,86.689,86.689,0,0,0-.81-12.36,19.06,19.06,0,0,1,.12-5.64,4.35,4.35,0,0,0,.08-1.93.63.63,0,0,0-.63-.5.73.73,0,0,0-.52.3,5.37,5.37,0,0,0-.4,1.46,30.918,30.918,0,0,0-.36,5.85,1.315,1.315,0,0,1-.14.39c-.05.13-.3.11-.4.06a9.89,9.89,0,0,0-5-1.34,1.78,1.78,0,0,1-1.68-1.17,12.56,12.56,0,0,1-1.45-7.14c.16-1.22.24-2.45.31-3.68a9.92,9.92,0,0,0-1.4-6,5.85,5.85,0,0,1-.94-3.51,6.7,6.7,0,0,1,1.21-3.66c2.61-3.54,5.54-6.7,9.59-8.65a37.841,37.841,0,0,0,9.33-6.33c.8-.73,1.67-1.38,2.48-2.11a4.171,4.171,0,0,0,.82-1,.72.72,0,0,0-.1-.59.58.58,0,0,0-.75-.26,6,6,0,0,0-.87.65c-2.33,1.84-4.54,3.84-7,5.49a43.268,43.268,0,0,1-5,2.84.71.71,0,0,1-.27-.87,18.76,18.76,0,0,1,1.53-4.29,46.111,46.111,0,0,0,3.18-8.31c1.08-3.76,2-7.55,2.92-11.36a25.331,25.331,0,0,1,1.94-5.52,7.64,7.64,0,0,1,4.38-4c.81-.3,1.62-.58,2.46-.88.74,1.09,1.4,2.13,2.12,3.11.54.74,1.05.88,1.42.51a1.1,1.1,0,0,0-.06-1.37c-.64-1.05-1.33-2.07-1.93-3.15a16.92,16.92,0,0,1-2.22-6.76,12.71,12.71,0,0,1,.67-5.78,40.6,40.6,0,0,1,7.31-12.26,8.841,8.841,0,0,1,1.26-1.19c.26-.21.54-.08.67.24a3.45,3.45,0,0,1,.2.62c1,5.19,2.66,10.23,4,15.35a10.51,10.51,0,0,0,.52,1.42.77.77,0,0,0,.86.51.85.85,0,0,0,.57-1c-.12-.57-.29-1.12-.44-1.68-1.11-4.13-2.31-8.24-3.32-12.39a191.115,191.115,0,0,1-3.71-20.3,19.34,19.34,0,0,1,1.77-11.22,71.65,71.65,0,0,1,7.59-12.15,33.49,33.49,0,0,1,4.36-4.55,15.9,15.9,0,0,1,5-3.09A85.552,85.552,0,0,1,194,154.2a2.1,2.1,0,0,1,2,.38,24.43,24.43,0,0,0,8.57,4.1c2.86.8,5.76,1.44,8.62,2.23a104.89,104.89,0,0,1,20.25,7.8,44.5,44.5,0,0,1,11.43,8.93,21,21,0,0,1,5.17,9.43,69,69,0,0,1,2.25,16.55c.11,8,.25,16.09.35,24.14,0,4.42.41,8.83.75,13.24q.33,4.33.56,8.68c.33,6.37.58,12.74.95,19.11.17,3,.54,5.92.84,8.87a9.34,9.34,0,0,0,.34,1.48.79.79,0,0,0,.83.57.87.87,0,0,0,.83-.59,7.67,7.67,0,0,0,.47-2.55v-2.61a67.93,67.93,0,0,1,.63-8.67c.49-4,1.05-8.05,1.5-12.08.24-2.16.31-4.34.47-6.51.48-6.73.51-13.47.46-20.22v-5.44c.08-5.58-.11-11.17-.42-16.74a163.309,163.309,0,0,0-1.73-17.08,29.1,29.1,0,0,0-2-6.88q-2.31-5.26-4.64-10.54c-.14-.33-.26-.67-.38-1s.11-.61.54-.51c1.37,1.19,2.59,2.53,4,3.65a5.68,5.68,0,0,0,6.51.5,10,10,0,0,0,2-1.32c3-2.62,6.34-4.84,9.55-7.2a56.57,56.57,0,0,0,8.85-8,19.1,19.1,0,0,0,3.24-4.86,10.6,10.6,0,0,0,1-4.42c0-3.47,0-7-.27-10.43a60.373,60.373,0,0,0-1.34-9.46,4.471,4.471,0,0,1-.06-.79c.45-.35.74,0,1,.09,1.8.75,3.59,1.56,5.41,2.26a14.19,14.19,0,0,1,7.43,6.41,11.38,11.38,0,0,1,.49,10.85,17.661,17.661,0,0,1-2.36,3.63,39.18,39.18,0,0,1-10,8.68c-2.1,1.29-4.17,2.62-6.26,3.92a36.28,36.28,0,0,0-6.56,5.35,8.36,8.36,0,0,0-2.05,3.29,2.67,2.67,0,0,0,.23,2.5c1.71,2.39,2.14,5.18,2.59,8,.75,4.66.92,9.37,1.22,14.07.27,4.42.6,8.83.73,13.25.17,6.08.3,12.17.11,18.27-.08,2.24-.07,4.49-.11,6.74s.01,4.73.01,7.12c-.09,6.24.18,12.47.59,18.69.15,2.24.32,4.48.46,6.73.25,4,1,7.9,1.57,11.84.27,1.79.48,3.59.75,5.38a15.139,15.139,0,0,0,.48,2.12.87.87,0,0,0,1,.63.79.79,0,0,0,.68-.74c.12-1,.22-2,.29-3a12.825,12.825,0,0,0,0-2,41.3,41.3,0,0,1,.55-10.17,94.614,94.614,0,0,0,1.15-11c.38-6.81.83-13.61.55-20.43-.14-3.26-.44-6.51-.68-9.76-.15-1.95-.32-3.9-.48-5.85-.62-7.95-1.41-15.89-1.67-23.86a161.629,161.629,0,0,1,.12-17.61,47,47,0,0,1,.49-6.28c.1-.43.13-.87.26-1.28.72-2.27.69-2.26,2.92-2.49a38.5,38.5,0,0,0,9.91-2.36,104,104,0,0,1,18.81-5.25,38.74,38.74,0,0,1,14.48-.2c4.35.85,8.66,1.77,12.62,3.88a30.909,30.909,0,0,1,4.62,2.86,17.43,17.43,0,0,1,5.56,7.64c.74,2,1.4,4,2,6a22,22,0,0,1,.84,4.7,88.107,88.107,0,0,1,.76,11.71,61.457,61.457,0,0,1-.48,8.46c-.14.85-.28,1.71-.46,2.56a40.189,40.189,0,0,0-.11,15.69ZM193.67,298.68c-1.14-1.93-2.34-3.83-3.51-5.75a113.089,113.089,0,0,1-5.65-10.52,15.86,15.86,0,0,1-1.31-3.9,7.159,7.159,0,0,1-.16-1.72,1.43,1.43,0,0,1,2.11-1.08,7.46,7.46,0,0,1,1.8,1.55,42.57,42.57,0,0,1,4.61,5.77c1.5,2.23,3,4.47,4.47,6.69a12.767,12.767,0,0,0,1.18,1.56.83.83,0,0,0,1.15.25.82.82,0,0,0,.13-1.15c-.11-.19-.24-.36-.36-.54l-5.08-7.58a46.451,46.451,0,0,0-5.17-6.44,5.56,5.56,0,0,0-3.26-2,1.21,1.21,0,0,1-1-.77,79.127,79.127,0,0,1-4.74-9.76c-.44-1.24-1.19-2.48-.52-3.89a6,6,0,0,1,3.06,2.28c2.74,3,5.43,6,8.15,9.05a84.767,84.767,0,0,1,6.46,9c.74,1.08,1.44,2.18,2.16,3.27.28.42.56.85.88,1.24s.61.63,1.11.39.5-.7.16-1.32-.6-1-.92-1.48q-3.09-4.59-6.19-9.19a20.994,20.994,0,0,1-1.37-2.22c-2.4-4.79-4.86-9.54-7.07-14.43a8.19,8.19,0,0,1-.48-5.09.92.92,0,0,1,1.61-.6,14.3,14.3,0,0,1,1.27,1.19,67.11,67.11,0,0,1,9.54,12.64c1.84,2.94,3.62,5.93,5.45,8.89a4.43,4.43,0,0,0,1.19,1.53.69.69,0,0,0,1,0,.62.62,0,0,0,.19-.77c-.23-.45-.49-.89-.76-1.32-1.72-2.77-3.48-5.51-5.15-8.31a22.94,22.94,0,0,1-3.06-8.53c-.18-1.22-.34-2.44-.45-3.66a8.47,8.47,0,0,1,.09-1.74.66.66,0,0,1,1.14-.37,6.26,6.26,0,0,1,.93,1.19,11.421,11.421,0,0,1,.83,1.77,70.589,70.589,0,0,0,5.2,10.49c2.28,3.88,4.21,7.93,6.17,12,.89,1.82,1.75,3.66,2.75,5.42a64.6,64.6,0,0,1,6.68,18.29,20.841,20.841,0,0,1,.15,5c-.09,2.94.35,2.65-2.68,2.81a3.08,3.08,0,0,1-2.36-.72,11.07,11.07,0,0,0-6.87-2.34,54,54,0,0,0-9.75.68c-.7.11-1.41.18-2.13.27C195.38,301.61,195.4,301.6,193.67,298.68Zm1.71,7.65a11.832,11.832,0,0,1,2.35-.42,51.753,51.753,0,0,1,7.15-.51,13.66,13.66,0,0,1,7.39,1.25,2.58,2.58,0,0,1,1.66,2.52,18,18,0,0,1-.46,3.66,78.27,78.27,0,0,0-1.07,13c-.06,5.5-.16,11-.16,16.51a4,4,0,0,1-1.64,3.36,21.42,21.42,0,0,1-10.2,4.51,1.266,1.266,0,0,0-.43.05,14.74,14.74,0,0,1-8.1-.75,39,39,0,0,0-7-1.45c-1.43-.22-2.86-.45-4.29-.7-.72-.13-.79-.25-.74-1a33.81,33.81,0,0,1,1.25-6.38,69.422,69.422,0,0,1,3.16-8.77c1.56-3.74,3.11-7.48,5-11.06a43.3,43.3,0,0,0,3.23-9.65c.14-.55.31-1.11.41-1.68a3.06,3.06,0,0,1,2.49-2.49Zm18.28,38a5.691,5.691,0,0,0,.24-1.92c0-4.64,0-9.28.1-13.91.05-3.05.12-6.09.34-9.13.17-2.37.55-4.74.93-7.1a19,19,0,0,0,.34-3.77,95.459,95.459,0,0,1,19.26-.91c1.8.12,3.61.31,5.41.51a68.229,68.229,0,0,0,13,.07c4.69-.39,9.33-1.21,14-1.79,7.61-1,15.21-2.07,22.89-2.52a41.59,41.59,0,0,1,9.71.85,78.486,78.486,0,0,1,11.62,3.5c1.23.43,2.46.84,3.69,1.28.27.1.59.3.51.61-.54,2.18.24,4.1,1.35,6-1.92.61-3.69,1.23-5.5,1.72-4.83,1.31-9.41,3.31-14.08,5.06a9.261,9.261,0,0,0-3.16,1.86,4.56,4.56,0,0,1-2.12,1c-6.29,1.66-12.64,3.11-19,4.56-9.09,2.08-18.12,4.45-27.11,7-4.67,1.29-9.25,2.88-14,3.92-2.26.49-4.57.8-6.83,1.29-3.18.68-6.34,1.46-9.51,2.2a15.1,15.1,0,0,1-1.49.3c-.54.1-.78-.14-.59-.67Zm10.2.19a141.1,141.1,0,0,0,14.21-3.1c4.43-1.34,8.89-2.6,13.35-3.84,8.71-2.44,17.51-4.53,26.33-6.55,4.59-1,9.14-2.23,13.71-3.34.42-.1.85-.17,1.38-.27a8.749,8.749,0,0,1,.68,2.67A151.871,151.871,0,0,0,297,346.45c.67,2.51,1.64,4.94,2.49,7.41a2.38,2.38,0,0,1-1.58.53,75.922,75.922,0,0,1-14.53.79,113,113,0,0,1-23.32-3.85,150.867,150.867,0,0,0-17.88-3.59c-2-.27-4-.42-6.06-.56a106,106,0,0,1-11.65-1.35c-.82-.16-1.63-.38-2.52-.59a3.46,3.46,0,0,1,1.91-.71ZM299.21,348a45,45,0,0,1-1.45-5.23c-1.05-4.74-2.11-9.47-2.85-14.26-.06-.36-.11-.72-.14-1.08a1.41,1.41,0,0,1,.56-1.33,11.13,11.13,0,0,1,2.82-1.61c4.26-1.63,8.47-3.39,12.84-4.71,2.21-.67,4.41-1.42,6.63-2.08,1.15-.34,1.37-.21,1.95.77a7.229,7.229,0,0,1,.49,1,54.891,54.891,0,0,1,3.86,12.19,48.7,48.7,0,0,1,.83,10.69,37.141,37.141,0,0,1-1.08,11.12c-.23,1-.35,2-.54,3a1,1,0,0,1-.87.85c-.57.12-1.15.21-1.72.29l-7.1,1c-1.65.24-3.3.5-4.95.7a10.611,10.611,0,0,1-3,0,3.56,3.56,0,0,1-2.86-2.09c-.28-.59-.54-1.18-.76-1.79C301,352.88,300.07,350.43,299.21,348ZM236.77,129.4c-.4.68-.85,1.35-1.28,2a10.92,10.92,0,0,0-1.72,7.66,26.5,26.5,0,0,0,5.59,13.69c2.21,2.77,4.46,5.52,6.69,8.28.14.06.18.13.15.2s-.07.12-.11.12l-3.25-1.18c-4.13-1.58-8.37-2.82-12.58-4.13-1-.32-2.06-.7-3.07-1.1-4.58-1.81-9.24-3.4-13.93-4.88a26.719,26.719,0,0,1-6.19-2.6,10.519,10.519,0,0,1-1.73-1.29,2.16,2.16,0,0,1-.21-3.28,7.821,7.821,0,0,1,1.21-1.23,32.671,32.671,0,0,1,6.31-4.23,115.412,115.412,0,0,1,11.21-5.25c1.07-.42,2.11-1,3.15-1.46a47.191,47.191,0,0,1,7.71-2.92,1.57,1.57,0,0,1,2.07,1,.76.76,0,0,1-.02.57Zm1.19.9c.92.19,1.32.84,1.86,1.3a30.8,30.8,0,0,0,12.27,6.73,25.85,25.85,0,0,0,23.36-4.72,31.71,31.71,0,0,0,7.1-7.87c.27-.42.57-.82.87-1.23h.37c.2.62.45,1.26.63,1.93a53.332,53.332,0,0,1,1.58,11.3c.15,3,.14,5.94.13,8.91a10.86,10.86,0,0,1-2.72,6.72,40.34,40.34,0,0,1-6.54,6.65c-2,1.63-4.1,3.23-6.23,4.72-1.91,1.33-3.74,2.74-5.53,4.21a17.722,17.722,0,0,1-2.45,1.8,4.2,4.2,0,0,1-5.22-.38,56.347,56.347,0,0,1-5.15-5q-5.82-6.46-11.25-13.26a24.52,24.52,0,0,1-5.15-10.64c-.23-1.14-.41-2.28-.55-3.43a7.8,7.8,0,0,1,.74-4.44c.56-1.14,1.25-2.23,1.92-3.33Zm-3.81-4.3c-4.45,1.33-8.57,3.48-12.82,5.3A77,77,0,0,0,208,138.2a33.432,33.432,0,0,0-3.27,2.52c-2.78,2.48-2.61,5.28.42,7.42a20.69,20.69,0,0,0,5.42,2.71c3.63,1.24,7.28,2.41,10.91,3.65,1.37.46,2.72,1,4.06,1.53,3.09,1.26,6.31,2.12,9.47,3.16,2.88.95,5.81,1.82,8.6,3a10.92,10.92,0,0,1,6.33,5.91c1.71,4.15,3.57,8.24,5.4,12.34a32.35,32.35,0,0,1,2.4,9.21A236.2,236.2,0,0,1,259.55,222c-.06,5.29.12,10.59-.05,15.88a177.437,177.437,0,0,1-1.5,20.57c-.25,1.65-.37,3.31-.58,5-.12.93-.3,1.85-.45,2.78-.14.21-.28.2-.42,0a11.369,11.369,0,0,1-.37-3.23c-.18-4.49-.29-9-.53-13.47-.18-3.41-.56-6.8-.76-10.2-.28-4.77-.57-9.55-.61-14.34q-.09-11.41-.35-22.83a67.88,67.88,0,0,0-2.23-15.46,25.19,25.19,0,0,0-7.21-11.93,52.41,52.41,0,0,0-17.58-11,112.321,112.321,0,0,0-17.55-5.6,41.8,41.8,0,0,1-8.08-2.52,18.8,18.8,0,0,1-5.78-3.79c-2.22-2.18-2.51-4.77-1.71-7.62a9,9,0,0,1,1.52-2.86,28.929,28.929,0,0,1,5.13-5.3,67.31,67.31,0,0,1,25.29-13c1.33-.35,2.67-.66,4-.94a6.93,6.93,0,0,1,1.51-.09,1.21,1.21,0,0,1,1.09.58c.68,1.1,1.41,2.18,2.11,3.25C234.27,126,234.22,126,234.15,126Zm87.33,35.26c-.87.1-1.74.15-2.6.26a102.94,102.94,0,0,0-22.05,5.66,37.85,37.85,0,0,1-8.16,2.19,5.09,5.09,0,0,1-2.22,0,10.19,10.19,0,0,1,2.53-2.9c2.63-2.27,5.31-4.48,8.11-6.56A132.307,132.307,0,0,0,309,149.78a25.12,25.12,0,0,0,3.05-3.39c.16-.22.28-.52.63-.51s.42.37.53.62a17.8,17.8,0,0,0,4.15,5.79,21.881,21.881,0,0,1,3.75,5.05,9,9,0,0,1,1.08,3,.69.69,0,0,1-.71.95Zm-10.23-16.85a20.12,20.12,0,0,1-3.5,4.14A164.708,164.708,0,0,1,294,160.23c-2.31,1.74-4.55,3.6-6.7,5.54a16.53,16.53,0,0,0-5.46,12.14c-.29,6.88-.5,13.76-.23,20.65.33,8.27,1,16.5,1.77,24.73a190.72,190.72,0,0,1,1,26.72c-.24,4.63-.47,9.27-.88,13.89-.28,3.09-.86,6.16-1.3,9.25-.12.21-.25.23-.4,0a17.831,17.831,0,0,1-.77-4.69,266.134,266.134,0,0,1-1.31-27.8v-8.49c0-2.17.12-4.34.18-6.52,0-1.88.12-3.77.08-5.65-.1-5.87-.22-11.75-.4-17.62-.07-2.46-.32-4.92-.5-7.38-.25-3.54-.47-7.08-.78-10.62a50.442,50.442,0,0,0-1.23-7.72,11.21,11.21,0,0,0-1.75-4.18,2.07,2.07,0,0,1-.09-2.43,7.8,7.8,0,0,1,1.41-1.92,35.711,35.711,0,0,1,6.22-5.07q4.5-2.835,9-5.75a36.189,36.189,0,0,0,8.52-8.32,13.58,13.58,0,0,0,2.41-12.32A11.3,11.3,0,0,0,301,133a16.61,16.61,0,0,0-8.22-6.48,45,45,0,0,1-6.2-2.62,5.63,5.63,0,0,1-2.1-1.47l2.07-5c.56.2.74.7,1.08,1a11.38,11.38,0,0,0,1,.85c.41.29.88.51,1.28.81a10.94,10.94,0,0,0,4,1.71c9,2.19,14.66,8,17.79,16.55a10.542,10.542,0,0,1,.37,1.47,5.88,5.88,0,0,1-.82,4.62ZM289.1,118c-1.26-1.3-2.05-2.7-1.49-4.68a35.912,35.912,0,0,0,1.07-7.74c0-.43.05-.85.08-1.24.19-.09.32-.21.41-.19,1.92.54,3.4-.26,4.72-1.52a17.706,17.706,0,0,0,1.68-1.85,24.86,24.86,0,0,1-.35,12.15,10.93,10.93,0,0,1-2.84,5,2.2,2.2,0,0,1-3.28.07Zm5.71-21a11.169,11.169,0,0,1-.94,2.88,5.07,5.07,0,0,1-2.6,2.52,1.73,1.73,0,0,1-2.4-.8,6.28,6.28,0,0,0-.9-1.72.74.74,0,0,0-1-.16.69.69,0,0,0-.38.73c.88,3.54.31,7.06-.23,10.56a36.23,36.23,0,0,1-3.28,10.32,31.75,31.75,0,0,1-6.71,9.29A24.67,24.67,0,0,1,248,135a33.24,33.24,0,0,1-12.85-11.11,42.89,42.89,0,0,1-6-12.26c-.76-2.41-.93-2.52-3.06-1.14a2.58,2.58,0,0,1-3.19-.08,17.57,17.57,0,0,1-5-5.06,29.59,29.59,0,0,1-4.67-13.86,10.91,10.91,0,0,1,.6-4.49,8.58,8.58,0,0,1,1.92-3.13c1.41-1.47,3.23-1.71,4.65-.5.47.4.95.76,1.55.43.75-.4.46-1.08.39-1.73a111.823,111.823,0,0,1-1.11-16c0-.51.06-1,.09-1.52a2.56,2.56,0,0,1,1.12-2c.82-.6,1.63-1.21,2.48-1.75a31.16,31.16,0,0,1,6.86-3.23,96.251,96.251,0,0,1,17.31-4.12c2.07-.3,4.16-.58,6.25-.78,1.59-.15,3.19-.15,4.78-.22a45.07,45.07,0,0,1,13.3,1.89,3.17,3.17,0,0,1,1.94,1.53,38.279,38.279,0,0,1,4.15,10.47,72.92,72.92,0,0,1,1.82,10.48c.16,1.44.34,2.88.53,4.32.06.43.16.85.26,1.28a.76.76,0,0,0,.72.68.874.874,0,0,0,.89-.77c.11-.44.11-.72.19-1.07a15,15,0,0,1,.51-1.89,5.76,5.76,0,0,1,1.7-2.48c1.88-1.54,3.14-1.1,4.32.31a19.79,19.79,0,0,1,3.84,7.73A27.78,27.78,0,0,1,294.81,97ZM219.27,76.24a1.49,1.49,0,0,1,.09.62.43.43,0,0,1-.21.34,1.638,1.638,0,0,1-.58-.06,3.4,3.4,0,0,1-.55-.92,25.5,25.5,0,0,1-1-5.3,4.812,4.812,0,0,1,.27-.81.55.55,0,0,1,.71-.31.47.47,0,0,1,.3.51,16.66,16.66,0,0,0,.97,5.93ZM282,60.94c.22-.2.75.15.93.68.4,1.16.78,2.32,1.13,3.49a19,19,0,0,1,.82,4.37,2.311,2.311,0,0,1-.27,1.54.52.52,0,0,1-.35.21.44.44,0,0,1-.51-.28,2.209,2.209,0,0,1-.13-.62,21.5,21.5,0,0,0-1.39-7.18c-.14-.41-.28-.82-.41-1.23a.83.83,0,0,1,.18-.98Zm3.28,13.32a2.321,2.321,0,0,1,.3-.56c.27-.34.57-.65.86-1,1.1-1.22,2.45-2.28,2.65-4.09,0-.22.26-.32.5-.3a.47.47,0,0,1,.4.44,3.19,3.19,0,0,1-.77,2.62c-.91,1.11-1.91,2.16-2.89,3.22a.93.93,0,0,1-.43.2c-.4.1-.72-.29-.62-.53ZM75.17,103.8a47.88,47.88,0,1,1,13.974,33.977A48,48,0,0,1,75.17,103.8ZM12.71,247.46A48,48,0,1,1,26.7,281.524,48,48,0,0,1,12.71,247.46ZM115,434.8a48,48,0,1,1,48.1-47.9A48,48,0,0,1,115,434.8Zm133.17,57.11a47.915,47.915,0,1,1,.02,0ZM438.4,381.41c.15.48.33.95.5,1.43.52,1.29-.22,1.71-1.31,1.8a23.486,23.486,0,0,0-4.51.58c2.36-.39,4.28-.36,6.19-.61h0c.42.4.15,1,.4,1.43.2,1.87.45,3.73.6,5.61a45.38,45.38,0,0,1-4.89,25c-7.29,14.17-18.83,22.87-34.51,25.84a48,48,0,1,1,37.54-61.1Zm2.06-71.13a200.7,200.7,0,0,1-19.87,42.15,5,5,0,0,1-1.19,1.6c-.48-.27-1-.55-1.48-.85A49.24,49.24,0,0,0,349.29,419c.24.45.51.88.74,1.33a.43.43,0,0,1-.15.57c-.42.28-.86.54-1.29.79a203.49,203.49,0,0,1-42,18.11c-3,.9-6,1.7-9.14,2.6-.94-15.18-7-27.69-18.82-37.13a49.17,49.17,0,0,0-65.23,3.81c-9.28,9.26-13.95,20.61-14.49,33.67-9.23-.77-43.76-14.28-50.39-19.67a49.288,49.288,0,1,0-71.59-67.41c-1.78-1.78-6.82-10.46-10.89-18.76a197.557,197.557,0,0,1-8.43-19.77c-2.7-7.47-5.55-17-6.22-20.84.68-.43,1.41-.11,2.08,0a49.709,49.709,0,0,0,10.2.42A47.13,47.13,0,0,0,87.36,289a48.13,48.13,0,0,0,21.74-32.48,49.12,49.12,0,0,0-37-56.77,46.61,46.61,0,0,0-19-.72,1,1,0,0,1-1-.18,191.664,191.664,0,0,1,8.6-25.79c5.79-14.09,15-30.65,22.33-40.23.72.14.91.83,1.29,1.3a49.28,49.28,0,0,0,77.44.17A47.65,47.65,0,0,0,172,110c1.71-15-2.56-28.22-12.66-39.5-.38-.43-.77-.87-1.14-1.31a.34.34,0,0,1-.06-.2c3.34-2.34,18.82-8.7,26.68-11.26A212.35,212.35,0,0,1,213,50.5a2.25,2.25,0,0,1-.1,1.72A42.28,42.28,0,0,0,212.7,71a3,3,0,0,0,1,2.12,1.68,1.68,0,0,1,.49.7,26.2,26.2,0,0,0,4.13,6.79c-.14.53-.53.53-.87.58a5.23,5.23,0,0,0-3,1.71,10.23,10.23,0,0,0-2.79,6.23,20.67,20.67,0,0,0,.43,6.27,32.06,32.06,0,0,0,4.38,10.81,19.14,19.14,0,0,0,5.64,5.66,3.89,3.89,0,0,0,4.66.22c.5-.33.76-.23.93.33a48.06,48.06,0,0,0,3,7.44,1.12,1.12,0,0,1,0,.41c-1.84.4-3.68.74-5.49,1.2a68.07,68.07,0,0,0-25,12.63,31.449,31.449,0,0,0-6.41,6.47,10.47,10.47,0,0,0-2.15,5.82,8.64,8.64,0,0,0,1.45,5.35,6.262,6.262,0,0,1,.34.55.929.929,0,0,1,.07.27c-2.08.59-4.16,1.23-6.25,1.77a22.77,22.77,0,0,0-10.75,6.25A55.68,55.68,0,0,0,169,170.65c-1,1.66-2,3.38-2.84,5.13a20.77,20.77,0,0,0-2.07,12.45c.64,4.6,1.23,9.2,2.29,13.72a1.71,1.71,0,0,1-.79,2,24.46,24.46,0,0,0-5.31,6.28,46.259,46.259,0,0,0-3.55,6.71,16,16,0,0,0-.3,12.08,3.7,3.7,0,0,1,.5,1.67,4.7,4.7,0,0,1-1.73.79,9.6,9.6,0,0,0-6.16,5.72,42.1,42.1,0,0,0-2.18,7.26c-.83,3.75-1.88,7.44-3,11.12a34.3,34.3,0,0,1-2.26,5.63,18.19,18.19,0,0,0-2.1,6.81,1.51,1.51,0,0,1-.77,1.21,32.391,32.391,0,0,0-6.64,6.84,8.32,8.32,0,0,0-1.52,3.1,7.15,7.15,0,0,0,.62,5.67,10.3,10.3,0,0,1,1.39,7.1,34.827,34.827,0,0,0-.27,3.68,13.848,13.848,0,0,0,1.609,6.479,3.33,3.33,0,0,0,3.221,2.141,8.22,8.22,0,0,1,4.51,1.4,3,3,0,0,1,1.54,2.43c.21,2.1.26,4.2.28,6.3a31.45,31.45,0,0,0,.74,6.91,10.86,10.86,0,0,0,.91,2.66,4,4,0,0,1,.4,1,11.55,11.55,0,0,0,5.34,7.38,18.58,18.58,0,0,1,5.93,6.48c1,1.6,2.09,3.14,3.21,4.65s2.26,2.83,3.41,4.24a13.4,13.4,0,0,0,3,2.8,9,9,0,0,0,8.08,1.18c.82-.28,1.66-.53,2.48-.81a3.42,3.42,0,0,0,2-1.3,1.3,1.3,0,0,1,1.51-.56c3.76.75,7.64.93,11.29,2.19,5,1.74,9.86.93,14.6-1a19.909,19.909,0,0,0,5.37-3.25,1.23,1.23,0,0,1,1.37-.33,2.79,2.79,0,0,0,1.93,0,9,9,0,0,1,4.91,0c1.14.2,2.28.44,3.4.73a54.861,54.861,0,0,0,8.16,1.23c5.19.5,10.4.76,15.55,1.71,4.35.8,8.66,1.77,12.94,2.84a127.521,127.521,0,0,0,15.1,3.1,80,80,0,0,0,20.39.27l3.87-.52c.55-.08,1,0,1.16.67a2.779,2.779,0,0,0,.16.4c1.07,3.07,3.41,4.19,6.45,4.06,1.8-.08,3.61-.33,5.4-.58,3.16-.44,6.31-.93,9.45-1.43a2.25,2.25,0,0,1,2,.59,17.631,17.631,0,0,0,5.15,2.75,9.5,9.5,0,0,0,5.36.34,17.073,17.073,0,0,0,2.71-.77,8,8,0,0,0,4.85-4.1,1.43,1.43,0,0,1,1.52-.88,16.889,16.889,0,0,0,7.65-2.21c1.52-.83,3.12-1.52,4.67-2.29,4.82-2.41,8.3-6,9.67-11.37a14.33,14.33,0,0,0,.36-5,27.329,27.329,0,0,1,.16-6.94,18.12,18.12,0,0,0-.37-6.27,79.359,79.359,0,0,0-3.53-12.53c-.14-.4-.35-.79-.53-1.18-.3-.65-.9-1.33-.84-1.93.08-.82,1.16-.67,1.78-1a6.62,6.62,0,0,0,2.89-7.53,11.179,11.179,0,0,0-1.14-2.33c-3.42-5.27-4.39-11.12-4.12-17.26.19-4.42.79-8.81,1.39-13.19a72.109,72.109,0,0,0,.64-14.31,37.3,37.3,0,0,0-1.77-9.38,75.369,75.369,0,0,1-2.34-10.15c-.46-2.49-.86-5-1.19-7.51a35.729,35.729,0,0,1,.43-12.75,59.852,59.852,0,0,0,1-11.25,80.172,80.172,0,0,0-.67-10.84,30.46,30.46,0,0,0-1.07-6.64,55.9,55.9,0,0,0-3.08-8.11,18.72,18.72,0,0,0-6.68-7.28A37.79,37.79,0,0,0,333,162.26a45.87,45.87,0,0,0-8.17-1.11c-.57,0-.93-.16-1-.82-.42-3.08-2.19-5.48-4-7.83a17.9,17.9,0,0,0-1.92-2.07,16.341,16.341,0,0,1-3.46-5,5.34,5.34,0,0,1-.63-3.54,7.58,7.58,0,0,0-.53-3.84,26.81,26.81,0,0,0-14.53-16.45,15.47,15.47,0,0,0-3.7-1.23c-.69-.15-1.37-.35-2.05-.53.05-.22,0-.42.12-.49a10.89,10.89,0,0,0,3.54-5.6A25.33,25.33,0,0,0,297,99.63a12.15,12.15,0,0,1-.29-4.49,27.68,27.68,0,0,0-1.89-13.85,10.945,10.945,0,0,0-.84-1.76,3.06,3.06,0,0,1-.35-2.5,8.389,8.389,0,0,0,.27-1.93,114.827,114.827,0,0,0-.26-11.73,46.909,46.909,0,0,0-2.32-10.14c-.14-.41-.3-.82-.41-1.23a.36.36,0,0,1,.32-.46,14.36,14.36,0,0,1,1.72.29A202.209,202.209,0,0,1,364.83,83c.59.41,1.16.84,1.86,1.35-10.11,10.86-14.94,23.6-13.86,38.33a47.84,47.84,0,0,0,13.3,30,49.4,49.4,0,0,0,64.14,6.5c.64.2.71.84.94,1.33a196.606,196.606,0,0,1,13.73,37.92c1.08,4.29,2,8.6,2.77,13,.18,1.09.18,1.11-1,1.36a47.821,47.821,0,0,0-15.16,5.75c-12.89,7.75-20.9,19-23.68,33.8A49.11,49.11,0,0,0,439,307.13C441.57,308.09,441.38,307.54,440.46,310.28Zm15.8-1.24a48.017,48.017,0,1,0,0-.04ZM231.92,46.31Z" transform="translate(1173.501 3896.133)"/>
    <path id="Path_38987" data-name="Path 38987" d="M234.46,44.16A1.93,1.93,0,0,1,236.27,43a1.93,1.93,0,0,0-1.81,1.16ZM232,49.45a2.14,2.14,0,0,1-.19-.26,2.136,2.136,0,0,0,.19.26l.1.07Zm.79.06a1,1,0,0,1-.42.1,1,1,0,0,0,.42-.1L234,49Zm-.19-3.28.38-.06h0Zm2.1,1.45-.79.06.79-.06c.39-.06.83-.29,1.15,0C235.53,47.39,235.09,47.62,234.7,47.68Zm-2.7.24a.45.45,0,0,0-.26.23.45.45,0,0,1,.26-.23ZM234.29,45a.59.59,0,0,1,0-.23,1.871,1.871,0,0,0,.08-.32,1.871,1.871,0,0,1-.08.32.59.59,0,0,0,0,.23Zm14.44-.38c.76-.11,1.53-.2,2.3-.27C250.26,44.42,249.49,44.51,248.73,44.62Zm-10.88.18a2.871,2.871,0,0,1-.08.38c0-.13.07-.26.08-.38a1.49,1.49,0,0,0-.15-.93A1.49,1.49,0,0,1,237.85,44.8ZM231,44.48a1.42,1.42,0,0,1,1-1.45c1-.38,1.94-.73,2.92-1.06-1,.33-1.95.68-2.92,1.06a1.42,1.42,0,0,0-1,1.45,5.42,5.42,0,0,0,.08,1.29A5.419,5.419,0,0,1,231,44.48Zm24.53-5.42a25.34,25.34,0,0,1,6,.87,3.07,3.07,0,0,1,.72.27,3.07,3.07,0,0,0-.72-.27,25.34,25.34,0,0,0-6-.87Zm-11.1,6.29c-.77.09-1.54.16-2.3.22C242.89,45.51,243.66,45.44,244.43,45.35Zm0,0c.72-.09,1.43-.2,2.15-.35s1.43-.27,2.15-.38c-.72.11-1.44.24-2.15.38S245.15,45.26,244.43,45.35Z" transform="translate(1173.501 3896.133)"/>
    <path id="Path_38988" data-name="Path 38988" d="M193.45,256.18a53.648,53.648,0,0,0-5.25-6,14.686,14.686,0,0,0-1.45-1.29,2.3,2.3,0,0,0-3.74,1,6.52,6.52,0,0,0-.19,4.85,33.826,33.826,0,0,0,1.6,4c.92,1.95,1.93,3.86,2.91,5.79.34.51.3.84-.41.84q-2-2.19-3.91-4.39a12.9,12.9,0,0,0-3.09-2.71c-.74-.44-1.53-1-2.43-.46a2.451,2.451,0,0,0-1,2.46,9.79,9.79,0,0,0,.7,3.16,40.569,40.569,0,0,0,2.88,6.33c.86,1.51,1.68,3,2.57,4.65-1.52,1.37-1.4,3.05-1,4.82a22,22,0,0,0,1.61,4.49,121.2,121.2,0,0,0,6.38,11.62c1.07,1.73,2,3.54,3.23,5.16a4.48,4.48,0,0,1,.21,5.28,26.9,26.9,0,0,0-2.18,5.66,56.9,56.9,0,0,1-3.53,8.87,147.333,147.333,0,0,0-6.75,15.78,40.21,40.21,0,0,0-2.46,10.55,13.149,13.149,0,0,1-.31,1.49,1.49,1.49,0,0,1-1,1.09,18.761,18.761,0,0,1-4.57,1.35,7.21,7.21,0,0,1-4.74-1.27,10.52,10.52,0,0,1-2.6-2.29c-2-2.41-3.91-4.85-5.74-7.38a11.78,11.78,0,0,1-2.3-6.89,38.18,38.18,0,0,0-.41-5.85,29.44,29.44,0,0,0-2.32-7,1.16,1.16,0,0,0-.41-.49.89.89,0,0,0-.6-.09.55.55,0,0,0-.45.64,10,10,0,0,0,.56,1.65,26.27,26.27,0,0,1,1.92,11.05c0,.12-.1.24-.21.51a30.379,30.379,0,0,1-5.21-3.78,11.929,11.929,0,0,1-1.65-2.28,6.73,6.73,0,0,1-.42-6.45c1.7-3.76,3.38-7.54,5.09-11.29a36.83,36.83,0,0,0,2.9-7.25,5.16,5.16,0,0,0,.21-.84.69.69,0,0,0-.44-.68.6.6,0,0,0-.77.19,5.151,5.151,0,0,0-.49,1.19,24,24,0,0,1-1.52,3.84c-2.14,4.2-4,8.51-5.93,12.82a2.39,2.39,0,0,1-1,1.49,20.451,20.451,0,0,1-.51-3.72,86.687,86.687,0,0,0-.81-12.36,19.06,19.06,0,0,1,.12-5.64,4.35,4.35,0,0,0,.08-1.93.63.63,0,0,0-.63-.5.73.73,0,0,0-.52.3,5.37,5.37,0,0,0-.4,1.46,30.919,30.919,0,0,0-.36,5.85,1.315,1.315,0,0,1-.14.39c-.05.13-.3.11-.4.06a9.86,9.86,0,0,0-5-1.34,1.78,1.78,0,0,1-1.68-1.17,12.48,12.48,0,0,1-1.45-7.14c.16-1.22.24-2.45.31-3.68a9.92,9.92,0,0,0-1.4-6,5.85,5.85,0,0,1-.94-3.51,6.7,6.7,0,0,1,1.21-3.66c2.61-3.54,5.54-6.7,9.59-8.65a37.841,37.841,0,0,0,9.33-6.33c.8-.73,1.67-1.38,2.48-2.11a4.17,4.17,0,0,0,.82-1,.72.72,0,0,0-.1-.59.58.58,0,0,0-.75-.26,6,6,0,0,0-.87.65c-2.33,1.84-4.53,3.84-7,5.49a43.268,43.268,0,0,1-5,2.84.71.71,0,0,1-.27-.87,18.76,18.76,0,0,1,1.53-4.29,46.11,46.11,0,0,0,3.18-8.31c1.08-3.76,2-7.55,2.92-11.36a25.331,25.331,0,0,1,1.94-5.52,7.64,7.64,0,0,1,4.38-4c.81-.3,1.62-.58,2.46-.88.74,1.09,1.4,2.13,2.12,3.11.54.74,1.05.88,1.42.51a1.1,1.1,0,0,0-.06-1.37c-.64-1.05-1.33-2.07-1.93-3.15a16.92,16.92,0,0,1-2.22-6.76,12.71,12.71,0,0,1,.67-5.78,40.6,40.6,0,0,1,7.31-12.26,8.84,8.84,0,0,1,1.26-1.19c.26-.21.54-.08.67.24a4.478,4.478,0,0,1,.2.62c1,5.19,2.66,10.23,4,15.35a10.507,10.507,0,0,0,.52,1.42.77.77,0,0,0,.86.51.85.85,0,0,0,.57-1c-.12-.57-.29-1.12-.44-1.68-1.11-4.13-2.31-8.24-3.32-12.39a191.121,191.121,0,0,1-3.71-20.3A19.34,19.34,0,0,1,167.55,177a71.649,71.649,0,0,1,7.59-12.15,33.492,33.492,0,0,1,4.36-4.55,15.9,15.9,0,0,1,5-3.09,85.556,85.556,0,0,1,9.5-3.01,2.1,2.1,0,0,1,2,.38,24.43,24.43,0,0,0,8.57,4.1c2.86.81,5.76,1.44,8.63,2.23a105,105,0,0,1,20.24,7.8,44.5,44.5,0,0,1,11.43,8.93,21,21,0,0,1,5.17,9.43,69,69,0,0,1,2.25,16.55c.11,8,.25,16.09.35,24.14,0,4.42.41,8.83.75,13.24q.33,4.33.56,8.68c.33,6.37.58,12.74.95,19.11.17,3,.54,5.92.84,8.87a9.34,9.34,0,0,0,.34,1.48.79.79,0,0,0,.83.57.87.87,0,0,0,.83-.59,7.669,7.669,0,0,0,.47-2.55q0-1.31,0-2.61a67.924,67.924,0,0,1,.63-8.67c.49-4,1.05-8.05,1.5-12.08.24-2.16.31-4.34.47-6.51.48-6.73.51-13.47.46-20.22v-5.44c.08-5.58-.11-11.17-.42-16.74a163.3,163.3,0,0,0-1.73-17.08,29.1,29.1,0,0,0-2-6.88q-2.31-5.26-4.64-10.54c-.14-.33-.26-.67-.38-1s.11-.61.54-.51c1.37,1.19,2.59,2.53,4,3.65a5.68,5.68,0,0,0,6.51.5,10,10,0,0,0,2-1.32c3-2.62,6.34-4.84,9.55-7.2a56.57,56.57,0,0,0,8.85-8,19.1,19.1,0,0,0,3.24-4.86,10.6,10.6,0,0,0,1-4.42c0-3.47,0-7-.27-10.43a60.37,60.37,0,0,0-1.34-9.46,4.471,4.471,0,0,1-.06-.79c.45-.35.74,0,1,.09,1.8.75,3.59,1.56,5.41,2.26a14.19,14.19,0,0,1,7.43,6.41,11.38,11.38,0,0,1,.49,10.85,17.658,17.658,0,0,1-2.36,3.63,39.18,39.18,0,0,1-10,8.68c-2.1,1.29-4.17,2.62-6.26,3.92a36.28,36.28,0,0,0-6.56,5.35,8.359,8.359,0,0,0-2.05,3.29,2.64,2.64,0,0,0,.23,2.5c1.71,2.39,2.14,5.18,2.59,8,.75,4.66.92,9.37,1.22,14.07.27,4.42.6,8.83.73,13.25.17,6.08.3,12.17.11,18.27-.08,2.24-.07,4.49-.11,6.74s.01,4.73.01,7.12c-.09,6.24.18,12.47.59,18.69.15,2.24.32,4.48.46,6.73.25,4,1,7.9,1.57,11.84.27,1.79.48,3.59.75,5.38a15.472,15.472,0,0,0,.48,2.12.87.87,0,0,0,1,.63.79.79,0,0,0,.68-.74c.12-1,.22-2,.29-3a12.825,12.825,0,0,0,0-2,41.3,41.3,0,0,1,.55-10.17,94.614,94.614,0,0,0,1.15-11c.38-6.81.83-13.61.55-20.43-.14-3.26-.44-6.51-.68-9.76-.15-1.95-.32-3.9-.48-5.85-.62-7.95-1.41-15.89-1.67-23.86a161.629,161.629,0,0,1,.12-17.61,47,47,0,0,1,.49-6.28c.1-.43.13-.87.26-1.28.72-2.27.69-2.26,2.92-2.49a38.5,38.5,0,0,0,9.91-2.36,104,104,0,0,1,18.81-5.25,38.74,38.74,0,0,1,14.48-.2c4.35.85,8.66,1.77,12.62,3.88a30.909,30.909,0,0,1,4.62,2.86,17.53,17.53,0,0,1,5.57,7.64c.73,2,1.39,4,2,6a21.85,21.85,0,0,1,.84,4.7,88.108,88.108,0,0,1,.76,11.71,61.452,61.452,0,0,1-.48,8.46c-.14.85-.28,1.71-.46,2.56a40.19,40.19,0,0,0-.17,15.76c.49,2.64.89,5.29,1.35,7.93a1.17,1.17,0,0,1-.39,1.17c-.32.29-.63.59-1,.87a22.2,22.2,0,0,0-3.11,3,11.81,11.81,0,0,1-6.37,3.94,1.58,1.58,0,0,0-.42.09c-.67.22-1,.63-.81,1.06a1,1,0,0,0,1.29.53,12.58,12.58,0,0,0,6.13-3.1c.73-.7,1.41-1.45,2.08-2.22a20.456,20.456,0,0,1,3-2.71c1.55,5.28,3.23,10.34,3.31,15.78a83.47,83.47,0,0,1-.82,13.22A111.719,111.719,0,0,0,358.48,280c-.12,5.88.81,11.56,4,16.65a19.594,19.594,0,0,1,1.06,1.9,5,5,0,0,1-.85,5.66c-.74.91-1.92.94-2.86,1.46a.54.54,0,0,1-.4-.12,4.412,4.412,0,0,1-.58-.64,24,24,0,0,0-7.85-6.44,36.6,36.6,0,0,1-3.37-2,2.11,2.11,0,0,0-.78-.35.79.79,0,0,0-.58.17.57.57,0,0,0-.09.78,2.18,2.18,0,0,0,.6.61,21.284,21.284,0,0,0,2.92,1.87,25,25,0,0,1,8,6.57A21,21,0,0,1,361,312a79.9,79.9,0,0,1,3.22,12.17,19.689,19.689,0,0,1,.1,5.63,28.151,28.151,0,0,0-.06,6.29,13.33,13.33,0,0,1-2.82,9.78,17,17,0,0,1-7,5.41,32.8,32.8,0,0,0-3.32,1.61,19.62,19.62,0,0,1-6.09,2.25c-.49.09-1.06.41-1.41-.06s.09-.82.29-1.2l2.5-4.58a3.39,3.39,0,0,0,.68-1.58c0-.37-.07-.73-.5-.85a.65.65,0,0,0-.75.3c-.67,1-1.33,2.07-1.93,3.15s-1.27,2.44-1.9,3.66c-.48.93-.58,1-1.5.66s-1.87-.76-2.81-1.15c-.59-.24-.94-.16-1.11.25a.88.88,0,0,0,.39,1.13,7.779,7.779,0,0,0,1.12.65c.46.21.93.39,1.41.58,1.18.46,1.24.67.61,1.66a5.53,5.53,0,0,1-2.06,1.9c-3.33,1.73-6.72,2.19-10.2.42a14.927,14.927,0,0,1-2.86-1.55,1.11,1.11,0,0,1-.4-1.31c.67-2.89,1.2-5.81,1.61-8.75a55.5,55.5,0,0,0,.18-9.56,53.49,53.49,0,0,0-4.3-19,25.557,25.557,0,0,0-1.38-2.71,2.46,2.46,0,0,0-1.38-1.33c-1.32-.33-1.39-1.55-1.87-2.46a3.13,3.13,0,0,1-.11-2.74,8.74,8.74,0,0,1,2.23-3.17,13.481,13.481,0,0,1,4.84-2.85,5.37,5.37,0,0,1,4.23.16c3,1.41,6.17,2.5,9.28,3.69a20.5,20.5,0,0,1,5.11,2.85,8.569,8.569,0,0,0,1.47.91.71.71,0,0,0,.94-.31.63.63,0,0,0-.13-.79,9,9,0,0,0-1-.88,22.45,22.45,0,0,0-6-3.41c-3-1.17-6.13-2.22-9.08-3.63a6.81,6.81,0,0,0-5.49-.13,14.45,14.45,0,0,0-6.54,4.51,1,1,0,0,1-1.3.38c-2.38-.87-4.8-1.64-7.18-2.51a57.189,57.189,0,0,0-13.08-3.12,38.169,38.169,0,0,0-8.68.05q-9,1-17.93,2c-2.23.26-4.45.61-6.67.94A102.18,102.18,0,0,1,249,306.8a81.268,81.268,0,0,1-10-.42,76.291,76.291,0,0,0-16.06-.27c-2.26.24-2.35.36-2.15-1.88A28.829,28.829,0,0,0,219.42,294a61.231,61.231,0,0,0-5-12.72c-1.46-2.75-2.85-5.54-4.22-8.34-1.72-3.52-3.45-7-5.44-10.4a2.65,2.65,0,0,1-.25-2.65,13.7,13.7,0,0,0,1-6,61.438,61.438,0,0,0-.6-6.48c-.74-5.45-1.94-10.85-2-16.38v-4.35c0-6.38.21-12.76.08-19.14A93.13,93.13,0,0,0,200.28,188a77.377,77.377,0,0,1-1.47-7.67c-.06-.43-.06-.91-.64-1s-.78.41-.81,1.07a21.64,21.64,0,0,0,.65,4.73c.48,2.63,1.1,5.24,1.61,7.87a93.449,93.449,0,0,1,1.72,19.24c-.07,4.79-.1,9.57-.14,14.36a61.38,61.38,0,0,0,.46,10.41,3.53,3.53,0,0,1,0,.65c-.51.06-.65-.31-.82-.6-3-5-6.23-9.79-9.39-14.65-3.83-5.89-7.38-12-10.78-18.12a1.739,1.739,0,0,1-.1-.19c-.19-.4-.39-.81-.93-.74s-.69.78-.39,1.47c.23.53.51,1,.78,1.55,4.07,7.53,8.54,14.81,13.3,21.93,2.26,3.37,4.29,6.89,6.52,10.28a25.08,25.08,0,0,1,3.57,10.17,36.719,36.719,0,0,1,.39,6.29,13.329,13.329,0,0,1-.43,3,1,1,0,0,1-.59.7,21.081,21.081,0,0,1-2-3.8c-.59-1.32-1.12-2.67-1.7-4a6.12,6.12,0,0,0-1.61-2.29c-1.67-1.43-3.4-.88-3.92,1.27a8.76,8.76,0,0,0,0,3.46c.11.64.21,1.28.31,1.93C194.1,255.77,194.26,256.22,193.45,256.18Z" transform="translate(1173.501 3896.133)" fill="#0b132b"/>
    <path id="Path_38989" data-name="Path 38989" d="M246.09,161.33l-3.25-1.18c-4.13-1.58-8.37-2.82-12.58-4.13-1-.32-2.06-.7-3.07-1.1-4.58-1.81-9.24-3.4-13.93-4.88a26.719,26.719,0,0,1-6.19-2.6,10.521,10.521,0,0,1-1.73-1.29,2.16,2.16,0,0,1-.21-3.28,7.821,7.821,0,0,1,1.21-1.23,32.671,32.671,0,0,1,6.31-4.23,115.423,115.423,0,0,1,11.21-5.25c1.07-.42,2.11-1,3.15-1.46a47.188,47.188,0,0,1,7.71-2.92,1.57,1.57,0,0,1,2.07,1,.76.76,0,0,1,0,.61c-.4.68-.85,1.35-1.28,2a10.92,10.92,0,0,0-1.72,7.66,26.5,26.5,0,0,0,5.59,13.69c2.21,2.77,4.46,5.52,6.69,8.28.14.06.18.13.15.2A.169.169,0,0,1,246.09,161.33Zm40.36,8.1a10.191,10.191,0,0,1,2.53-2.9c2.63-2.27,5.31-4.48,8.11-6.56A132.312,132.312,0,0,0,309,149.78a25.12,25.12,0,0,0,3.05-3.39c.16-.22.28-.52.63-.51s.42.37.53.62a17.8,17.8,0,0,0,4.15,5.79,21.881,21.881,0,0,1,3.75,5.05,9,9,0,0,1,1.08,3,.7.7,0,0,1-.67.91c-.87.09-1.74.14-2.6.25a102.941,102.941,0,0,0-22.05,5.66,37.849,37.849,0,0,1-8.16,2.19,5.09,5.09,0,0,1-2.26.08Z" transform="translate(1173.501 3896.133)" fill="#0b132b"/>
    <path id="Path_38990" data-name="Path 38990" d="M295.57,100.76a24.86,24.86,0,0,1-.35,12.15,10.93,10.93,0,0,1-2.84,5,2.2,2.2,0,0,1-3.28,0c-1.26-1.3-2.05-2.7-1.49-4.68a35.912,35.912,0,0,0,1.07-7.74c0-.43.05-.85.08-1.24.19-.09.32-.21.41-.19,1.92.54,3.4-.26,4.72-1.52A18.191,18.191,0,0,0,295.57,100.76Z" transform="translate(1173.501 3896.133)" fill="#0b132b"/>
    <path id="Path_38991" data-name="Path 38991" d="M292.2,66.22c-.16-1.73-.23-3.48-.55-5.18-2.4-12.58-8.85-22.56-19.58-29.59a38.79,38.79,0,0,0-27.52-6.37A34.69,34.69,0,0,0,220,40.29c-5.27,7.64-7.14,16.22-6.39,25.4a13,13,0,0,0,.89,4.72c.6-1.2,1-2.11,1.49-3a12.42,12.42,0,0,1,5-5.6,5.51,5.51,0,0,0,.85-.68,30,30,0,0,1,7.48-4.36,66,66,0,0,1,7.64-2.47A107.219,107.219,0,0,1,256.14,51a46.14,46.14,0,0,1,18.45,2,20,20,0,0,1,6.63,3.16,54.43,54.43,0,0,1,10,10.19c.2.27.31.67.75.64C292.31,66.79,292.23,66.48,292.2,66.22ZM232.79,49.51a.64.64,0,0,1-.78-.06,1.34,1.34,0,0,1-.34-1.18.5.5,0,0,1,.47-.38c.85-.09,1.71-.14,2.56-.21.52-.08,1.12-.46,1.42.36Zm31-4.21a38.62,38.62,0,0,0-17.21-.3,71.79,71.79,0,0,1-8.49.85c-.53-.36-.28-.73-.24-1.05a1.58,1.58,0,0,0-1.27-1.8,1.9,1.9,0,0,0-2.12,1.12c-.08.2-.09.42-.16.63-.13.39.38.89-.07,1.16a3.56,3.56,0,0,1-1.25.22c-1.77.28-2,.36-2-1.69a1.42,1.42,0,0,1,1-1.45,46.889,46.889,0,0,1,7-2.22c2.33-.51,4.68-.92,7-1.38.72-.35,1.55,0,2.27-.3,2.39,0,4.78-.08,7.16-.07a25.34,25.34,0,0,1,6,.87,2.71,2.71,0,0,1,1.94,1.56,9.91,9.91,0,0,1,1.36,3.77c-.28.46-.6.16-.92.08Z" transform="translate(1173.501 3896.133)" fill="#0b132b"/>
    <path id="Path_38992" data-name="Path 38992" d="M439.27,384.61a2.65,2.65,0,0,1-1.52.77c-1.66.08-3.32.21-5,.29a1.81,1.81,0,0,1-1.24-.28.54.54,0,0,1-.14-.38c0-.12.08-.32.17-.35a3,3,0,0,1,.83-.19l6.46-.49a6.83,6.83,0,0,1,.06-1.14C439.5,383.33,439.36,384,439.27,384.61Z" transform="translate(1173.501 3896.133)" fill="#1c1313"/>
    <path id="Path_38993" data-name="Path 38993" d="M186.92,265.33c.38-.16.35-.52.41-.84a5.22,5.22,0,0,1,1.12,1.77.45.45,0,0,1-.06.65,3.42,3.42,0,0,1-1.47-1.58Z" transform="translate(1173.501 3896.133)" fill="#985302"/>
    <path id="Path_38994" data-name="Path 38994" d="M252.63,168.28l-.54.51a2.06,2.06,0,0,1-.64-1.64,1.89,1.89,0,0,1,1.18,1.13Z" transform="translate(1173.501 3896.133)" fill="#905702"/>
    <path id="Path_38995" data-name="Path 38995" d="M193.45,256.18c.37-.18.34-.57.45-.88a1.6,1.6,0,0,1,.42,1.14c0,.2,0,.46-.24.45s-.35-.19-.48-.33S193.5,256.31,193.45,256.18Z" transform="translate(1173.501 3896.133)" fill="#aa5902"/>
    <path id="Path_38996" data-name="Path 38996" d="M246.53,161.33a1.16,1.16,0,0,1,.72.7.917.917,0,0,1-.11.33.25.25,0,0,1-.2,0,5.927,5.927,0,0,1-.41-.45.34.34,0,0,1,0-.58Z" transform="translate(1173.501 3896.133)" fill="#432701"/>
    <path id="Path_38997" data-name="Path 38997" d="M439.66,386a2,2,0,0,1-.4-1.43C439.86,384.94,439.77,385.47,439.66,386Z" transform="translate(1173.501 3896.133)" fill="#1c1313"/>
    <path id="Path_38998" data-name="Path 38998" d="M246.53,161.33v.55c-.24-.11-.47-.22-.44-.55a.31.31,0,0,1,0-.32Z" transform="translate(1173.501 3896.133)" fill="#ae5202"/>
    <path id="Path_38999" data-name="Path 38999" d="M300.61,243.36c-.21-7.35.54-14.56,1-21.79.23-3.83.43-7.66.7-11.49.21-2.89.3-5.79.77-8.65a112.6,112.6,0,0,1,2.68-12.74,10.588,10.588,0,0,1,.44-1.23.67.67,0,0,1,.7-.4.69.69,0,0,1,.63.75,5.419,5.419,0,0,1-.19,1.5,95.51,95.51,0,0,0-2.64,12.75c-.25,1.71-.42,3.45-.55,5.18-.24,3.1-.42,6.21-.61,9.32q-.52,8.46-1,16.92c-.1,1.73-.19,3.47-.22,5.21v6.52c-.07,5.36.27,10.71.66,16.06a3,3,0,0,1,0,.85.68.68,0,0,1-.57.58.7.7,0,0,1-.8-.56,5.618,5.618,0,0,1-.15-1.08,144.077,144.077,0,0,1-.85-17.7Z" transform="translate(1173.501 3896.133)" fill="#030100"/>
    <path id="Path_39000" data-name="Path 39000" d="M215.66,229.54a169.73,169.73,0,0,1,.93-20.53,179.6,179.6,0,0,1,2.94-19.31c.23-1.06.54-2.1.85-3.14a1.46,1.46,0,0,1,.49-.68.83.83,0,0,1,.61,0,.42.42,0,0,1,.26.3,3.48,3.48,0,0,1,0,1.07,177.312,177.312,0,0,0-3.34,21,161.078,161.078,0,0,0-.73,28.63c.2,3.11.15,6.23.6,9.32a5,5,0,0,1,0,.87.765.765,0,0,1-.53.84c-.42.12-.75-.15-.92-.71a7.768,7.768,0,0,1-.28-1.27c-.15-1.29-.32-2.59-.37-3.89C216,237.28,215.78,232.58,215.66,229.54Zm98.72,14.54a85.441,85.441,0,0,1,2.77-22,177.388,177.388,0,0,1,6-18.37c.36-.94.82-1.85,1.27-2.75a.66.66,0,0,1,.92-.32.76.76,0,0,1,.39.92,12.2,12.2,0,0,1-.56,1.64,180.575,180.575,0,0,0-5.85,17.26A86,86,0,0,0,316.26,250c.1,1.66.17,3.32.26,5a1.65,1.65,0,0,1-.19,1,.69.69,0,0,1-1,.08,1.771,1.771,0,0,1-.31-.55,4.329,4.329,0,0,1-.16-1.07C314.89,250.67,314.21,246.93,314.38,244.08Z" transform="translate(1173.501 3896.133)" fill="#030200"/>
    <path id="Path_39001" data-name="Path 39001" d="M295.23,228.06c.73-5.24.28-10.4.71-15.53.14-1.66.06-3.34.16-5,.44-7.89.74-15.78,1-23.68a25.37,25.37,0,0,1,1.15-7.06c.16-.5.33-1,1-1s.85.66.62,1.38c-1.32,4.22-1.11,8.61-1.33,12.93-.39,7.75-.68,15.5-1,23.25-.15,4.05-.12,8.12-.49,12.16-.08.87-.2,1.73-.34,2.58a1.57,1.57,0,0,1-.4.75.8.8,0,0,1-.57.14.43.43,0,0,1-.32-.24A5.537,5.537,0,0,1,295.23,228.06Z" transform="translate(1173.501 3896.133)" fill="#030100"/>
    <path id="Path_39002" data-name="Path 39002" d="M154.07,277.72a10.38,10.38,0,0,0,4.19-.37c4.93-1.28,9.63-.36,14.27,1.34a1.91,1.91,0,0,1,1.05.72.92.92,0,0,1,.14.6.62.62,0,0,1-.63.51,5.928,5.928,0,0,1-1.24-.31,40.621,40.621,0,0,0-5.45-1.49,18.12,18.12,0,0,0-7.55.21,16.05,16.05,0,0,1-4.52.46h-1.31a7.54,7.54,0,0,0-7.24,4.64c-1,2.18-2,4.35-3.14,6.45a19,19,0,0,1-2.88,4.06.62.62,0,0,1-.78.19.77.77,0,0,1-.37-.93,1.41,1.41,0,0,1,.31-.56c2.13-2.54,3.32-5.59,4.73-8.53.24-.53.42-1.09.68-1.6a9.37,9.37,0,0,1,9-5.4A4.441,4.441,0,0,1,154.07,277.72Z" transform="translate(1173.501 3896.133)" fill="#050200"/>
    <path id="Path_39003" data-name="Path 39003" d="M325.34,250.67a51.7,51.7,0,0,1,5.06-19.12,41,41,0,0,1,9-11.64,14.5,14.5,0,0,1,2.11-1.52,1.21,1.21,0,0,1,1-.13c.32.11.57.64.34.87a6.854,6.854,0,0,1-.65.56,22.928,22.928,0,0,0-2,1.61,40.49,40.49,0,0,0-11.32,19A51.938,51.938,0,0,0,327,251.83a6.377,6.377,0,0,1-.11,1.08.84.84,0,0,1-.88.77.8.8,0,0,1-.66-.76C325.31,252.34,325.34,251.76,325.34,250.67Z" transform="translate(1173.501 3896.133)" fill="#040200"/>
    <path id="Path_39004" data-name="Path 39004" d="M353.08,315.65a1.72,1.72,0,0,1-.15,1,.71.71,0,0,1-1.11.1,2.29,2.29,0,0,1-.42-1.21c-.11-.93-.27-1.86-.38-2.79a7.18,7.18,0,0,0-2.4-4.5,33.64,33.64,0,0,0-10.5-6.84c-1.95-.78-3.92-1.5-5.88-2.26-.6-.24-1.2-.51-1.78-.81a.66.66,0,0,1-.31-.91.63.63,0,0,1,.72-.36,6.08,6.08,0,0,1,1,.3c1.64.59,3.26,1.22,4.91,1.77a38.76,38.76,0,0,1,11.63,6.63A11.85,11.85,0,0,1,353.08,315.65Zm-19.87-28.09c3.12.29,6.45.47,9.74.94s5.75,2.24,8.12,4.31a1,1,0,0,1,.32.54.85.85,0,0,1-.12.61.8.8,0,0,1-.57.24,2.41,2.41,0,0,1-1.33-.66c-.89-.62-1.77-1.24-2.68-1.84a13.66,13.66,0,0,0-6.59-1.88l-5.4-.46a14.2,14.2,0,0,0-7.42,1.11,8.06,8.06,0,0,0-3.47,2.49,1.66,1.66,0,0,1-.49.42.65.65,0,0,1-.79-.07.71.71,0,0,1-.27-.77,3.43,3.43,0,0,1,1.35-1.66,14.78,14.78,0,0,1,9.6-3.32Z" transform="translate(1173.501 3896.133)" fill="#050300"/>
    <path id="Path_39005" data-name="Path 39005" d="M179.46,295.29a12.73,12.73,0,0,0-7.22,1.91,71.06,71.06,0,0,0-9.56,6.39,2.61,2.61,0,0,1-1.09.66.71.71,0,0,1-.76-.29.66.66,0,0,1,0-.81,4.551,4.551,0,0,1,.76-.76,91.4,91.4,0,0,1,8.93-6.17,16.78,16.78,0,0,1,9.69-2.66,6.181,6.181,0,0,1,1.49.24.78.78,0,0,1,.52.86.7.7,0,0,1-.75.62C180.79,295.3,180.14,295.29,179.46,295.29Z" transform="translate(1173.501 3896.133)" fill="#070400"/>
    <path id="Path_39006" data-name="Path 39006" d="M173.2,186.05a15,15,0,0,1,1.5.21,65.2,65.2,0,0,1,12.92,4.33,33.488,33.488,0,0,1,5.72,3.51,3.62,3.62,0,0,1,1.33,1.39.71.71,0,0,1-.15.8.65.65,0,0,1-.78.19,2.06,2.06,0,0,1-.55-.33c-4.05-3.45-8.87-5.38-13.86-6.94-2-.62-4-1.11-6.05-1.66a3.64,3.64,0,0,1-.83-.25.71.71,0,0,1-.31-.74c0-.27.22-.37.42-.44A3.3,3.3,0,0,1,173.2,186.05Z" transform="translate(1173.501 3896.133)" fill="#060300"/>
    <path id="Path_39007" data-name="Path 39007" d="M164.21,238.91a20.75,20.75,0,0,1,9.1,2.86,23.74,23.74,0,0,1,5.56,5.12,2,2,0,0,1,.65,1.33.78.78,0,0,1-.27.54.7.7,0,0,1-.59.1,3.279,3.279,0,0,1-.84-.64c-.75-.78-1.48-1.58-2.21-2.38a16.71,16.71,0,0,0-8.77-4.85,10.09,10.09,0,0,0-7.17.59,1.69,1.69,0,0,1-.61.2.59.59,0,0,1-.66-.42.83.83,0,0,1,.07-.6,2.67,2.67,0,0,1,1.4-1,14.5,14.5,0,0,1,4.34-.85ZM340.26,253a26.25,26.25,0,0,0,12.38-1.63c1.28-.5,2.54-1,3.82-1.56a11.123,11.123,0,0,1,1.21-.46.59.59,0,0,1,.71.34.62.62,0,0,1-.11.79,2.72,2.72,0,0,1-.71.49,33.87,33.87,0,0,1-10.85,3.66,49.618,49.618,0,0,1-10.41,0,3.66,3.66,0,0,1-1-.24.59.59,0,0,1-.34-.72.71.71,0,0,1,.38-.46,5,5,0,0,1,1.28-.16C338,253,339.47,253,340.26,253Z" transform="translate(1173.501 3896.133)" fill="#070400"/>
    <path id="Path_39008" data-name="Path 39008" d="M173.7,324.17a16.729,16.729,0,0,1,.51-3,25.22,25.22,0,0,1,3.49-7.88,14.7,14.7,0,0,1,6.81-5.5,2.87,2.87,0,0,1,1.67-.32.75.75,0,0,1,.69.71.64.64,0,0,1-.41.69l-1,.36a12.79,12.79,0,0,0-6.6,5.38,22.6,22.6,0,0,0-3.67,10.52.78.78,0,0,1-.09.41,1,1,0,0,1-.46.4.58.58,0,0,1-.72-.31,2.57,2.57,0,0,1-.22-1.46Z" transform="translate(1173.501 3896.133)" fill="#060300"/>
    <path id="Path_39009" data-name="Path 39009" d="M354.8,231.3a2.519,2.519,0,0,1-.26.6,4.8,4.8,0,0,1-1.72,1.63,27.5,27.5,0,0,1-2.66,1.46,20.49,20.49,0,0,0-8.51,6.85,4.93,4.93,0,0,1-1.46,1.59.69.69,0,0,1-.8,0,.73.73,0,0,1-.25-.78,1.64,1.64,0,0,1,.26-.59c2.39-3.22,5-6.22,8.77-7.87l.79-.38c1.69-.81,3.46-1.49,4.68-3,.07-.1.25-.12.38-.18C354.31,230.44,354.82,230.79,354.8,231.3Zm-9.86,99.79a6.537,6.537,0,0,1-.2.68.7.7,0,0,1-.95.17,2.34,2.34,0,0,1-.66-1.33,12.75,12.75,0,0,0-7.5-9c-.79-.35-1.58-.71-2.36-1.08a4.559,4.559,0,0,1-.95-.51.65.65,0,0,1,.43-1.19,4.828,4.828,0,0,1,1,.27,27.591,27.591,0,0,1,5.78,2.94,9.53,9.53,0,0,1,3.31,3.65,22.2,22.2,0,0,1,1.73,4A9.1,9.1,0,0,1,344.94,331.09Z" transform="translate(1173.501 3896.133)" fill="#070400"/>
    <path id="Path_39010" data-name="Path 39010" d="M168.44,270c3.08-.14,5.39,1.4,7.49,3.41a1.1,1.1,0,0,1,.3.56,1,1,0,0,1-.12.59.56.56,0,0,1-.75.26,5,5,0,0,1-1.25-.84c-2.52-2.37-5.51-2.67-8.72-2a27.4,27.4,0,0,0-5,1.46.61.61,0,0,1-.76-.24.77.77,0,0,1,.06-1,.751.751,0,0,1,.16-.15,1.792,1.792,0,0,1,.38-.22,25.7,25.7,0,0,1,8.21-1.83Z" transform="translate(1173.501 3896.133)" fill="#090500"/>
    <path id="Path_39011" data-name="Path 39011" d="M171.44,284.21a17.09,17.09,0,0,1,5,1.14c.93.38,1.83.85,2.73,1.32a2.189,2.189,0,0,1,.64.54.69.69,0,0,1,0,.81.61.61,0,0,1-.72.34,11.135,11.135,0,0,1-1.59-.67,19.13,19.13,0,0,0-4.47-1.56,8,8,0,0,0-4.06.13c-1.11.31-2.23.57-3.36.82a1.58,1.58,0,0,1-1.26-.13.63.63,0,0,1-.33-.73c.06-.19.21-.43.37-.47,2-.49,4.06-.95,6.09-1.41a7.738,7.738,0,0,1,.96-.13Z" transform="translate(1173.501 3896.133)" fill="#080400"/>
    <path id="Path_39012" data-name="Path 39012" d="M167.06,328.46a.84.84,0,0,1,.67.46c.33.8.66,1.6.94,2.41a30.841,30.841,0,0,0,1.87,4.84,15.592,15.592,0,0,0,2.05,3,5.391,5.391,0,0,1,.65.86.63.63,0,0,1-.1.79.76.76,0,0,1-.79.2A2.75,2.75,0,0,1,171,340a15.69,15.69,0,0,1-2.61-4.47c-.7-2-1.32-4-2-5.95a1.34,1.34,0,0,1,0-.63.58.58,0,0,1,.67-.49Z" transform="translate(1173.501 3896.133)" fill="#0b0600"/>
    <path id="Path_39013" data-name="Path 39013" d="M295.83,139.71a15.919,15.919,0,0,1-1.57,5.16,1.47,1.47,0,0,1-.65.54.72.72,0,0,1-.93-.61,4.751,4.751,0,0,1,.19-.83c.36-1.1.76-2.19,1.08-3.3a5,5,0,0,0-1.14-5,3.56,3.56,0,0,1-.88-1.46.7.7,0,0,1,.3-.76.6.6,0,0,1,.79,0,8.13,8.13,0,0,1,2.81,6.26Z" transform="translate(1173.501 3896.133)" fill="#0a0500"/>
    <path id="Path_39014" data-name="Path 39014" d="M330.84,324.44a1.9,1.9,0,0,1,.59.33,9.99,9.99,0,0,1,.75,1.05,23.2,23.2,0,0,0,3.45,4.14,7.9,7.9,0,0,0,3.07,2,1.43,1.43,0,0,1,.58.28,1.07,1.07,0,0,1,.29.53c.07.33-.18.53-.43.68a1.16,1.16,0,0,1-1,.08,12.258,12.258,0,0,1-1.76-.82,11.83,11.83,0,0,1-3.06-2.71c-.94-1.19-1.84-2.41-2.74-3.63a2.12,2.12,0,0,1-.51-1.16.77.77,0,0,1,.77-.77Z" transform="translate(1173.501 3896.133)" fill="#0b0600"/>
    <path id="Path_39015" data-name="Path 39015" d="M188.23,174a2.69,2.69,0,0,1,.59.26c.31.24.32.63.39,1a22.72,22.72,0,0,0,2.36,6,35.862,35.862,0,0,1,1.58,3.78,1.81,1.81,0,0,1,.12.83.69.69,0,0,1-.57.58.73.73,0,0,1-.58-.17,4.09,4.09,0,0,1-.68-1.08c-.62-1.7-1.44-3.3-2.22-4.92a16,16,0,0,1-1.41-4.3,5.309,5.309,0,0,1,0-1.49C187.83,174.35,188.07,174.21,188.23,174Z" transform="translate(1173.501 3896.133)" fill="#0c0700"/>
    <path id="Path_39016" data-name="Path 39016" d="M347.64,249.35a1.59,1.59,0,0,1-.49-.1,1.16,1.16,0,0,1-.43-.42.59.59,0,0,1,.23-.76,5.149,5.149,0,0,1,1.19-.49c.9-.27,1.81-.48,2.71-.76a14.2,14.2,0,0,0,4.63-2.28,2.08,2.08,0,0,1,.54-.35.63.63,0,0,1,.77.2.61.61,0,0,1,.06.79,3.75,3.75,0,0,1-.9.92,25.18,25.18,0,0,1-2.82,1.59,22.628,22.628,0,0,1-4.71,1.56C348.14,249.31,347.85,249.32,347.64,249.35Z" transform="translate(1173.501 3896.133)" fill="#0c0600"/>
    <path id="Path_39017" data-name="Path 39017" d="M317.78,303.8a7.6,7.6,0,0,1,1.73-4.06,9.47,9.47,0,0,1,3.72-2.57.49.49,0,0,1,.21,0,.73.73,0,0,1,.72.37.56.56,0,0,1-.13.77A6.6,6.6,0,0,1,323,299a6.37,6.37,0,0,0-3.47,4.71,1.551,1.551,0,0,1-.12.42c-.21.67-.6,1-1,.82A1.262,1.262,0,0,1,317.78,303.8Z" transform="translate(1173.501 3896.133)" fill="#0d0600"/>
    <path id="Path_39022" data-name="Path 39022" d="M418.67,365v-2.5a6.178,6.178,0,0,1,.09-1.29.53.53,0,0,1,.58-.51.65.65,0,0,1,.57.55,2.049,2.049,0,0,1,.11.64c-.1,2.23-.21,4.47-.34,6.7a1,1,0,0,1-.25.58.93.93,0,0,1-.55.21.41.41,0,0,1-.43-.4,11.113,11.113,0,0,1,0-1.29C418.53,366.8,418.6,365.94,418.67,365Z" transform="translate(1173.501 3896.133)" fill="#1d1c1c"/>
    <path id="Path_39023" data-name="Path 39023" d="M436.79,395.23c-.11.25-.19.57-.55.56a2.28,2.28,0,0,1-.63-.13c-1.83-.64-3.67-1.27-5.5-1.93a1.59,1.59,0,0,1-.51-.36.54.54,0,0,1,.19-.73,1.35,1.35,0,0,1,.61-.1,39.787,39.787,0,0,1,5.93,2,.77.77,0,0,1,.46.69Z" transform="translate(1173.501 3896.133)" fill="#1f1616"/>
    <path id="Path_39024" data-name="Path 39024" d="M429.86,367.17a5.33,5.33,0,0,1-.33,1c-.79,1.45-1.61,2.87-2.43,4.3a.6.6,0,0,1-.3.29.88.88,0,0,1-.6,0,.81.81,0,0,1-.28-.52.95.95,0,0,1,.15-.39c.84-1.58,1.67-3.16,2.52-4.74a.72.72,0,0,1,.27-.32,1.17,1.17,0,0,1,.6-.11.49.49,0,0,1,.4.49Z" transform="translate(1173.501 3896.133)" fill="#171515"/>
    <path id="Path_39025" data-name="Path 39025" d="M256.5,116.06a21.94,21.94,0,0,1-5.6-.46,5.8,5.8,0,0,1-1.41-.51.68.68,0,0,1-.27-.76.62.62,0,0,1,.61-.52,16.93,16.93,0,0,1,2.35.28,25.81,25.81,0,0,0,11.16-.57A15.841,15.841,0,0,0,266.9,112a4.459,4.459,0,0,1,1-.42.69.69,0,0,1,.71.38.68.68,0,0,1,0,.81,4.45,4.45,0,0,1-1.57,1.13,20.94,20.94,0,0,1-8.09,2.17C258.09,116.12,257.29,116.06,256.5,116.06Z" transform="translate(1173.501 3896.133)" fill="#090707"/>
    <path id="Path_39026" data-name="Path 39026" d="M272.63,68.75a.8.8,0,0,1-.86.75,2.61,2.61,0,0,1-1.08-.69,10.63,10.63,0,0,0-4.22-2.11c-3.1-.68-5.89-.18-8,2.39-.37.44-.64,1-1,1.41a.69.69,0,0,1-1,.19.8.8,0,0,1-.38-.92,1.81,1.81,0,0,1,.25-.59,9.69,9.69,0,0,1,.71-1.09,8.93,8.93,0,0,1,8.26-3.31,11.93,11.93,0,0,1,6.79,3.06A1.13,1.13,0,0,1,272.63,68.75Z" transform="translate(1173.501 3896.133)" fill="#0a0707"/>
    <path id="Path_39027" data-name="Path 39027" d="M236.45,68a7.52,7.52,0,0,1,6.23,3,8.77,8.77,0,0,1,.57.92.71.71,0,0,1-.21,1,.73.73,0,0,1-1,0,4.942,4.942,0,0,1-.55-.66,5.92,5.92,0,0,0-6.12-2.35,6.57,6.57,0,0,0-5.33,4.54c-.13.33-.17.7-.29,1a.8.8,0,0,1-1,.6.86.86,0,0,1-.55-1,5.93,5.93,0,0,1,.3-1.26A8.41,8.41,0,0,1,236.45,68Z" transform="translate(1173.501 3896.133)" fill="#090808"/>
    <path id="Path_39028" data-name="Path 39028" d="M254.13,105.2a2.411,2.411,0,0,1-.64-.21.71.71,0,0,1-.41-.7.75.75,0,0,1,.47-.67,2.89,2.89,0,0,1,.84-.12,4.34,4.34,0,0,0,3.85-2.71c.12-.26.22-.53.36-.78a.66.66,0,0,1,.71-.39.73.73,0,0,1,.61.78,3.391,3.391,0,0,1-.26,1A6.09,6.09,0,0,1,254.13,105.2Z" transform="translate(1173.501 3896.133)" fill="#161212"/>
    <path id="Path_39029" data-name="Path 39029" d="M258.37,121a9.255,9.255,0,0,1-1.51-.2.83.83,0,0,1-.68-.93.71.71,0,0,1,.82-.55,7.27,7.27,0,0,0,5.19-1,.62.62,0,0,1,.78.2.75.75,0,0,1,0,1,2,2,0,0,1-.65.55,6.73,6.73,0,0,1-2.66.87A9.109,9.109,0,0,0,258.37,121Z" transform="translate(1173.501 3896.133)" fill="#100b0b"/>
    <path id="Path_39030" data-name="Path 39030" d="M291.1,88.59a3.66,3.66,0,0,1-1.66,3.08,2,2,0,0,1-1,.25.61.61,0,0,1-.6-.52.8.8,0,0,1,.13-.59,5.171,5.171,0,0,1,.67-.52,1.85,1.85,0,0,0,.69-2.44.67.67,0,0,1-.07-.41,1.25,1.25,0,0,1,.29-.53.58.58,0,0,1,.78,0A2.1,2.1,0,0,1,291.1,88.59Z" transform="translate(1173.501 3896.133)" fill="#0f0b0b"/>
    <path id="Path_39031" data-name="Path 39031" d="M219.9,94.71a1.18,1.18,0,0,1,.31-.92.85.85,0,0,1,.55-.22c.17,0,.46.19.48.33a7,7,0,0,0,.91,2.8.62.62,0,0,1-.14.57.6.6,0,0,1-.76.19,2.23,2.23,0,0,1-.69-.49,3,3,0,0,1-.66-2.26Z" transform="translate(1173.501 3896.133)" fill="#140e0e"/>
    <path id="Path_39032" data-name="Path 39032" d="M277,140.81a4.863,4.863,0,0,1-.07.57c-.42,1.83-.87,3.65-1.28,5.48-.86,3.73-3.2,6.38-6.21,8.56a1.777,1.777,0,0,1-.17.12c-.64.38-1.34.32-1.52-.15s.17-.93.59-1.24l.18-.13a13.87,13.87,0,0,0,6-9.39c.18-1,.47-2,.71-2.95a2.42,2.42,0,0,1,.65-1.34.84.84,0,0,1,.57-.19C276.79,140.18,276.94,140.44,277,140.81Z" transform="translate(1173.501 3896.133)" fill="#080707"/>
    <path id="Path_39033" data-name="Path 39033" d="M258.34,163.1a.81.81,0,0,1-.62.63.68.68,0,0,1-.42,0,7.76,7.76,0,0,1-3.5-3.72.81.81,0,0,1,.15-.81.53.53,0,0,1,.57-.21.56.56,0,0,1,.37.19,15.08,15.08,0,0,0,3.28,3.44C258.3,162.68,258.3,163,258.34,163.1Z" transform="translate(1173.501 3896.133)" fill="#130d0d"/>
    <path id="Path_39034" data-name="Path 39034" d="M223.82,137.89a1.429,1.429,0,0,1,0-.23c.07-.29.2-.55.52-.6a.6.6,0,0,1,.72.34c.21.6.35,1.24.53,1.86a2.15,2.15,0,0,0,2.45,1.93,15.656,15.656,0,0,1,1.94.08,2.45,2.45,0,0,1,1,.4.86.86,0,0,1,.25.55.732.732,0,0,1-.45.66.39.39,0,0,1-.21.06c-1.35-.1-2.72-.14-4.07-.34a2.73,2.73,0,0,1-1.93-1.61A7.16,7.16,0,0,1,223.82,137.89Z" transform="translate(1173.501 3896.133)" fill="#0a0600"/>
    <path id="Path_39035" data-name="Path 39035" d="M382.93,145.67a47.17,47.17,0,0,1,3.1-9.07,1,1,0,0,1,.83-.61,4.41,4.41,0,0,0,1.25-.37,3.54,3.54,0,0,1,3.09-.4c.93.35,1.82-.37,2.75-.4s1.79.7,2.75.37a7,7,0,0,1,3.42-.23c.95.16,1.84-.46,2.76-.45s1.84.65,2.76.37a37.381,37.381,0,0,1,5.56-.69c2.08-.29,4.18-.14,6.26-.37a1.39,1.39,0,0,1,1.38.86,55.759,55.759,0,0,1,4.06,8.15c.22.53.41,1.07.65,1.71a2.86,2.86,0,0,1-1.69.29l-24.77.54-12.39.3C384.2,145.69,383.7,145.67,382.93,145.67Z" transform="translate(1173.501 3896.133)" fill="#0b132b"/>
    <path id="Path_39036" data-name="Path 39036" d="M390.55,113.11c1.28-.48,2.34-1,3.64-.6a4,4,0,0,0,2.56-.19,3.73,3.73,0,0,1,2.93-.08,2.67,2.67,0,0,0,1.91.05,5.32,5.32,0,0,1,2.35-.13,3.83,3.83,0,0,0,1.72,0c1.55-.53,3.15-.17,4.71-.42a2.61,2.61,0,0,1,.79.12c.24.44,0,.74-.16,1.05a16.62,16.62,0,0,1-3.94,4.85,8.93,8.93,0,0,1-10.49,1A17,17,0,0,1,390.55,113.11Z" transform="translate(1173.501 3896.133)" fill="#0b132b"/>
    <path id="Path_39037" data-name="Path 39037" d="M404.15,122.5a7.846,7.846,0,0,1,0,.84c-.21,1.49-1,2.82-1.17,4.34a1.32,1.32,0,0,1-.17.39c-.29.65-.52,1.51-1.38,1.4s-.87-1-1.15-1.66a1.419,1.419,0,0,1-.06-.42c-.13-.71.63-1.29.25-2.07a14.219,14.219,0,0,1-.71-2,2,2,0,0,1,0-.64,6,6,0,0,1,4.39-.18Z" transform="translate(1173.501 3896.133)" fill="#0b132b"/>
    <path id="Path_39038" data-name="Path 39038" d="M461.94,294.48a16.1,16.1,0,0,1-7.69-10.58,7.91,7.91,0,0,1,1-6.46c.43-.63.66-.7,1.2-.28,1.43,1.12,2.84,2.24,4.27,3.35a.86.86,0,0,1,.37,1.11,15.9,15.9,0,0,0-.57,1.64,11.21,11.21,0,0,0,1.16,9.39c.38.62.77,1.23,1.15,1.84A.63.63,0,0,1,461.94,294.48Zm26.56-21.35a13.18,13.18,0,0,0-5.48-3.77,12.1,12.1,0,0,0-7-.52,1.13,1.13,0,0,1-1.44-.59c-.85-1.34-1.76-2.65-2.65-4-.2-.3-.45-.57-.35-1a1.91,1.91,0,0,1,1.35-.5,14.81,14.81,0,0,1,14,6.11,12.651,12.651,0,0,1,2.07,3.8C489.1,273.13,488.91,273.26,488.5,273.13Z" transform="translate(1173.501 3896.133)" fill="#0b132b"/>
    <path id="Path_39039" data-name="Path 39039" d="M426.4,228.86a70.29,70.29,0,0,1,9.16,3.76c1,.52,1.13.82.74,1.9a6.2,6.2,0,0,1-.76,1.55,10.15,10.15,0,0,1-5,3.67c-.37.13-.74.19-.94-.22a34.63,34.63,0,0,1-3.37-10.05C426.21,229.35,426.3,229.2,426.4,228.86Z" transform="translate(1173.501 3896.133)" fill="#0b132b"/>
    <path id="Path_39040" data-name="Path 39040" d="M478.89,285.75a31.561,31.561,0,0,0-4.47-1.4,2.83,2.83,0,0,1-2.46-2.86c0-.21.05-.44.31-.47a.59.59,0,0,1,.4.08,9.611,9.611,0,0,0,2.61,1.9c.64.28,1.14-.1,1.1-.81a6.68,6.68,0,0,0-1.09-3,3.728,3.728,0,0,1-.31-.78.42.42,0,0,1,.28-.23.73.73,0,0,1,.4.11,4.38,4.38,0,0,1,2.1,2.38,11.13,11.13,0,0,1,.61,1.85C478.58,283.47,478.69,284.47,478.89,285.75Z" transform="translate(1173.501 3896.133)" fill="#0b132b"/>
    <path id="Path_39041" data-name="Path 39041" d="M461.94,294.48h.91c.24.06.37.22.28.46a.38.38,0,0,1-.34.1,1.18,1.18,0,0,1-.85-.56Z" transform="translate(1173.501 3896.133)" fill="#a35302"/>
    <path id="Path_39043" data-name="Path 39043" d="M389.76,403.25v2.3a1.54,1.54,0,0,1-1.16,1.61,116.678,116.678,0,0,1-13.49,4.76c-1.05.27-2.08.58-3.12.89a1.9,1.9,0,0,1-1.83-.36,10.109,10.109,0,0,1-2.33-2.55A24.32,24.32,0,0,1,364,399.41c-.1-.79-.19-1.58-.25-2.38a2.72,2.72,0,0,1,1.38-2.74c1.19-.69,2.36-1.42,3.6-2,3.54-1.64,7.11-3.22,10.67-4.82l.81-.32c2.68-1,3.1-1.06,4.57,1.43C387.5,393.2,389.94,398,389.76,403.25Z" transform="translate(1173.501 3896.133)" fill="#0b132b"/>
    <path id="Path_39044" data-name="Path 39044" d="M422.16,390.46c-1.48-2.71-6.86-15.53-7.13-17a9.51,9.51,0,0,1,10.45,6.15,9,9,0,0,1,.13,4.71,13.18,13.18,0,0,1-2.8,5.57,4.334,4.334,0,0,1-.65.57Z" transform="translate(1173.501 3896.133)" fill="#0b132b"/>
    <path id="Path_39045" data-name="Path 39045" d="M240.3,77.73a3.43,3.43,0,0,0-5.38.89c-1.27,2.13-1,6.51,2.7,8a2.4,2.4,0,0,0,2.27-.17,4.57,4.57,0,0,0,2.35-4.25,5.6,5.6,0,0,0-1.94-4.47Zm-2.77,5a.56.56,0,0,1-.9.13,3.27,3.27,0,0,1-.53-3.22.57.57,0,0,1,.9-.1,3.92,3.92,0,0,1,.83,2.43c-.09.25-.18.51-.3.77Zm3.06,1a.45.45,0,0,1-.56.15,1,1,0,0,1-.41-1.45c0-.11.2-.17.3-.25s.31,0,.4.07a1,1,0,0,1,.27,1.47Z" transform="translate(1173.501 3896.133)" fill="#030202"/>
    <path id="Path_39046" data-name="Path 39046" d="M265.93,74.33a3.26,3.26,0,0,0-4.94.51A5,5,0,0,0,260,78a5.27,5.27,0,0,0,1.65,4.16,3.31,3.31,0,0,0,4.83-.19,5.67,5.67,0,0,0-.55-7.64Zm-2,4.34a.72.72,0,0,1-1.14.47,2.83,2.83,0,0,1-1-2.85.92.92,0,0,1,.7-.74.78.78,0,0,1,.87.47,4.06,4.06,0,0,1,.62,2.23,3,3,0,0,1-.04.42Zm2.13,1.5a.42.42,0,0,1-.58,0,1.26,1.26,0,0,1-.44-1.34c0-.15.32-.25.44-.34a.9.9,0,0,1,.82.67.88.88,0,0,1-.23,1.01Z" transform="translate(1173.501 3896.133)" fill="#040303"/>
    <path id="Path_39047" data-name="Path 39047" d="M141.67,378A25.11,25.11,0,0,0,139,368c-.54-1.11-.7-1.14-1.81-.47q-2.59,1.59-5.17,3.22c-.9.57-.91.6-.47,1.53a17.67,17.67,0,0,1,1.76,6.47,17.17,17.17,0,1,1-34.2-.63c.82-7.1,4.78-12.11,11.58-14.41s12.85-.6,17.95,4.45c.36.36.66.77,1,1.14.62.68.77.73,1.46.31,1.92-1.17,3.82-2.37,5.72-3.56l.18-.13a.65.65,0,0,0,.22-.94,12.753,12.753,0,0,0-.74-1.07A26.18,26.18,0,0,0,90,385.37a25.48,25.48,0,0,0,12.92,17.23,25.15,25.15,0,0,0,17.48,2.73,26,26,0,0,0,21.26-25.79C141.67,379,141.69,378.53,141.67,378Z" transform="translate(1173.501 3896.133)" fill="#0b132b"/>
    <path id="Path_39048" data-name="Path 39048" d="M120.12,378.24a2.49,2.49,0,0,1,.19,2.89,3.91,3.91,0,0,1-4.59,2.34,4,4,0,0,1-3-4.21,3.86,3.86,0,0,1,3.94-3.55,4,4,0,0,1,1.88.42c.88.48.73.9.14,1.24a12.563,12.563,0,0,0-1.08.71.75.75,0,0,0-.29.95.65.65,0,0,0,.93.24A20.442,20.442,0,0,0,120.12,378.24Z" transform="translate(1173.501 3896.133)" fill="#0b132b"/>
    <path id="Path_39049" data-name="Path 39049" d="M147.74,137.28a24.091,24.091,0,0,1-2.32-1c-1.83-.9-3.85-1.25-5.74-2a1,1,0,0,0-1.27.56c-.24.44-.44.91-.64,1.38a27,27,0,0,1-2.31,4.39c-.62-.06-.62-.56-.74-.92a70.5,70.5,0,0,0-6.07-13c-1.08-1.9-2.55-3.53-3.75-5.33s-1.57-2-2.66.2c-1.92,3.9-3.8,7.81-5.38,11.87a43.719,43.719,0,0,0-2.18,7.95c-.06.35-.12.71-.21,1.06a.432.432,0,0,1-.79.15c-1.25-1.41-2.48-2.84-3.72-4.26-.62-.71-1.25-1.41-1.86-2.12a1.73,1.73,0,0,0-2.34-.43c-1.21.66-2.38,1.39-3.56,2.09-.55.32-1,.87-1.64,1-.35-.32-.2-.68-.13-1,.57-2.54,1.23-5.06,2-7.54q2.54-7.86,5.56-15.54a3.82,3.82,0,0,1,3.53-2.7,20.73,20.73,0,0,1,10.76,2.06,7.78,7.78,0,0,1,1.86,1.47,1,1,0,0,0,1.51-.13c.24-.27.43-.59.66-.86a9.22,9.22,0,0,1,7.15-3.57,27.19,27.19,0,0,1,3.25.15,3,3,0,0,1,2.41,1.64c.73,1.42,1.56,2.79,2.24,4.22a72.089,72.089,0,0,1,5.67,15.92C147.33,134.35,147.48,135.64,147.74,137.28ZM248.58,475.35a31.54,31.54,0,1,1,31.82-30.59,31.54,31.54,0,0,1-31.82,30.59Z" transform="translate(1173.501 3896.133)" fill="#0b132b"/>
    <path id="Path_39050" data-name="Path 39050" d="M266.28,44a16.31,16.31,0,0,0-5.66-8.3,21.84,21.84,0,0,0-13.58-5c-4.93,0-8.87,1.05-12.27,3.67a12.92,12.92,0,0,0-5.21,12.79,13.709,13.709,0,0,0,1,3.32c.5,1.15,1.13,1.36,2.24.88l.39-.19a49.291,49.291,0,0,1,16.76-5,39.07,39.07,0,0,1,10,.1,41.381,41.381,0,0,1,5.05,1.2,1.209,1.209,0,0,0,1.68-1.31A9.65,9.65,0,0,0,266.28,44Zm-2.49,1.26a38.62,38.62,0,0,0-17.21-.3,71.789,71.789,0,0,1-8.49.85c-.53-.36-.28-.73-.24-1.05A1.58,1.58,0,0,0,236.58,43a1.9,1.9,0,0,0-2.12,1.12c-.08.2-.09.42-.16.63-.13.39.38.89-.07,1.16a3.56,3.56,0,0,1-1.25.22c-1.77.28-2,.36-2-1.69a1.42,1.42,0,0,1,1-1.45,46.889,46.889,0,0,1,7-2.22c2.33-.51,4.68-.92,7-1.38.72-.35,1.55,0,2.27-.3,2.39,0,4.78-.08,7.16-.07a25.34,25.34,0,0,1,6,.87,2.71,2.71,0,0,1,1.94,1.56,9.91,9.91,0,0,1,1.36,3.77c-.28.46-.6.16-.92.08Z" transform="translate(1173.501 3896.133)"/>
    <path id="Path_39051" data-name="Path 39051" d="M56.16,214.06a19.66,19.66,0,0,0-23.08,5.27,18.22,18.22,0,0,0-1.53,22c3.71,5.62,9.1,8.27,15.71,8.48,7.06-.17,12.69-3,16.6-8.83a18.21,18.21,0,0,0-7.7-26.92ZM41.05,242.24a.63.63,0,0,1-.62.5.76.76,0,0,1-.57-.22,2.57,2.57,0,0,1-.39-1q-.93-6.33-1.82-12.67c-.35-2.43-.69-4.86-1-7.3a8.27,8.27,0,0,1-.12-.85.82.82,0,0,1,.58-.82c.36-.14.86.21.94.68q.47,2.9.88,5.79c.72,4.86,1.42,9.73,2.13,14.59a5.972,5.972,0,0,0,.1.81,3.88,3.88,0,0,1-.11.49Zm2.12-7a.81.81,0,0,1-.49.37.71.71,0,0,1-.56-.23,2.47,2.47,0,0,1-.48-1.41c-.44-3-.88-6-1.3-9a4,4,0,0,1,0-1.29.58.58,0,0,1,.65-.44.78.78,0,0,1,.52.31,3.08,3.08,0,0,1,.36,1c.47,3.07.91,6.14,1.35,9.22a3.622,3.622,0,0,0,.08.9,1.68,1.68,0,0,1-.13.58Zm6.36,7.08c-.51,0-.78-.36-.9-1.28-.16-1.3-.29-2.59-.43-3.89q-.87-7.87-1.72-15.75c-.09-.83.19-1.32.72-1.33s.76.32.85,1.07q.44,3.76.85,7.55.63,5.61,1.24,11.22a8.882,8.882,0,0,0,.1,1c.04,1-.19,1.43-.71,1.42Zm4-6.36c-.08.36-.88.49-1.11.18a1.78,1.78,0,0,1-.36-.76c-.34-3.09-.66-6.19-1-9.41a3.88,3.88,0,0,1,.11-.94.7.7,0,0,1,.49-.37.72.72,0,0,1,.57.19,2.54,2.54,0,0,1,.49,1.63c.2,1.72.36,3.45.55,5.18.11,1.08.25,2.15.35,3.23a3.53,3.53,0,0,1-.06,1.11Z" transform="translate(1173.501 3896.133)" fill="#0b132b"/>
    <path id="Path_39052" data-name="Path 39052" d="M468.06,265.45a.753.753,0,0,1,.46.2c1.07,1.14,2.13,2.3,3.19,3.46a.68.68,0,0,1,.16.39.5.5,0,0,1-.07.39c-.15.12-.39.27-.55.23a1.44,1.44,0,0,1-.71-.42c-.92-1-1.82-2-2.72-3a.88.88,0,0,1-.27-.77A.52.52,0,0,1,468.06,265.45Z" transform="translate(1173.501 3896.133)" fill="#211a1a"/>
    <path id="Path_39053" data-name="Path 39053" d="M469.65,271.47a.46.46,0,0,1-.44.38.88.88,0,0,1-.59-.16c-1-1.09-2-2.21-3-3.34a.48.48,0,0,1,.05-.75.59.59,0,0,1,.78,0,17.662,17.662,0,0,1,3.15,3.48A1.05,1.05,0,0,1,469.65,271.47Z" transform="translate(1173.501 3896.133)" fill="#231c1c"/>
    <path id="Path_39054" data-name="Path 39054" d="M463.92,269.32c.23.08.48.1.61.23q1.49,1.54,2.91,3.13a.55.55,0,0,1,0,.77.63.63,0,0,1-.95,0q-1.395-1.5-2.73-3a.81.81,0,0,1-.14-.59C463.63,269.68,463.8,269.52,463.92,269.32Z" transform="translate(1173.501 3896.133)" fill="#251e1e"/>
    <path id="Path_39055" data-name="Path 39055" d="M465.53,274.89a.53.53,0,0,1-.55.53.6.6,0,0,1-.2,0,14.45,14.45,0,0,1-3.22-3.45c-.13-.18,0-.43.17-.58s.35-.32.57-.15a13.57,13.57,0,0,1,3.2,3.47C465.54,274.73,465.52,274.82,465.53,274.89Z" transform="translate(1173.501 3896.133)" fill="#161010"/>
    <path id="Path_39056" data-name="Path 39056" d="M463.15,277.19c-.17-.06-.42-.07-.56-.2-.95-.87-1.88-1.76-2.8-2.65a.54.54,0,0,1-.17-.39,1.35,1.35,0,0,1,.2-.57.43.43,0,0,1,.58-.09,14.85,14.85,0,0,1,3.22,3.11c.09.11,0,.4-.07.57S463.31,277.1,463.15,277.19Z" transform="translate(1173.501 3896.133)" fill="#130e0e"/>
    <path id="Path_39057" data-name="Path 39057" d="M260,451.18a8,8,0,0,1-3.34,6.95,15.51,15.51,0,0,1-4.15,2.32c-1.43.51-1.42.53-1.26,2.15.08.94.17,1.87.25,2.81a5.061,5.061,0,0,1,0,.87,2.5,2.5,0,0,1-2.47,2.29,2.45,2.45,0,0,1-2.53-2.2,40.329,40.329,0,0,1-.28-4.11,1.51,1.51,0,0,0-1.26-1.68,10.61,10.61,0,0,1-5.63-4.23,3.21,3.21,0,0,1-.7-1.57,2.54,2.54,0,0,1,4.13-2.29,9.439,9.439,0,0,1,1.16,1.28,5.79,5.79,0,0,0,6.26,1.93,8.14,8.14,0,0,0,3.42-1.81,3.74,3.74,0,0,0,1-4.15,1.82,1.82,0,0,0-1.5-1.1,6.572,6.572,0,0,0-2.38.09,16.74,16.74,0,0,1-3.46.3c-6.48,0-8.8-5.78-7-10.39a8.57,8.57,0,0,1,3.73-4.38,5.28,5.28,0,0,1,1.17-.57c1.12-.32,1.35-1.07,1.27-2.14s0-2.32,0-3.48a7.852,7.852,0,0,1,.08-1.08,2.25,2.25,0,0,1,2.41-2,2.14,2.14,0,0,1,2.07,2.12c.15,1.44.2,2.89.31,4.33.07,1,.16,1.06,1.13,1.28.77.18,1.55.34,2.32.55a5.119,5.119,0,0,1,2.09,1.12,2.19,2.19,0,0,1,.56,2.92,2.12,2.12,0,0,1-2.8.93,8.91,8.91,0,0,0-4.67-.58,8.43,8.43,0,0,0-3.28,1.09,3.4,3.4,0,0,0-1.76,2.61,2,2,0,0,0,1.85,2.42,13.37,13.37,0,0,0,3.68-.22,9.75,9.75,0,0,1,3.88,0,6.91,6.91,0,0,1,5.69,6.52C260,450.45,260,450.82,260,451.18Z" transform="translate(1173.501 3896.133)"/>
    <path id="Path_39058" data-name="Path 39058" d="M248.24,42a1.94,1.94,0,0,1-2,1.81,1.6,1.6,0,0,1-1.54-1.5,2,2,0,0,1,2-2.06A1.69,1.69,0,0,1,248.24,42Z" transform="translate(1173.501 3896.133)" fill="#1d1f1f"/>
    <path id="Path_39059" data-name="Path 39059" d="M257.73,40.19c1.13.08,1.87.82,1.75,1.74a1.66,1.66,0,0,1-1.63,1.41A1.79,1.79,0,0,1,256,41.42a1.46,1.46,0,0,1,1.73-1.23Z" transform="translate(1173.501 3896.133)" fill="#101010"/>
    <path id="Path_39060" data-name="Path 39060" d="M449.31,249.45a4.782,4.782,0,1,1-4.39-4.47A4.56,4.56,0,0,1,449.31,249.45Z" transform="translate(1173.501 3896.133)" fill="#0b132b"/>
    <path id="Path_39061" data-name="Path 39061" d="M140.47,87a18.41,18.41,0,0,0-12.23-13.33,16.13,16.13,0,0,0-13.45,1,15.8,15.8,0,0,0-7.69,18.35c2.13,7.49,7.1,12.12,14.75,13.68A15.84,15.84,0,0,0,141,91.05a19.131,19.131,0,0,0-.53-4.05Zm-20.86-8.75c-.47.33-1,.62-1.45,1a11.24,11.24,0,0,0-3.39,15,15,15,0,0,0,2,2.81,6.489,6.489,0,0,1,.78,1,.72.72,0,0,1-.11.59.65.65,0,0,1-.74.3,1.51,1.51,0,0,1-.56-.33,15.24,15.24,0,0,1-4.51-11c.21-4.31,2.67-8,6.93-10.55l.19-.09c.43-.16.85-.23,1.18.17s.14.74-.32,1.07Z" transform="translate(1173.501 3896.133)" fill="#020101"/>
    <path id="Path_39062" data-name="Path 39062" d="M137.74,84.18c-3.65-7.74-12.1-10.88-18.28-9.49a14.1,14.1,0,0,0-11.28,13.19,16.9,16.9,0,0,0,16.49,17.45,14,14,0,0,0,14.19-10.56A15.34,15.34,0,0,0,137.74,84.18Zm-18.13-6c-.47.33-1,.62-1.45,1a11.24,11.24,0,0,0-3.39,15,15,15,0,0,0,2,2.81,6.49,6.49,0,0,1,.78,1,.72.72,0,0,1-.11.59.65.65,0,0,1-.74.3,1.51,1.51,0,0,1-.56-.33,15.24,15.24,0,0,1-4.51-11c.21-4.31,2.67-8,6.93-10.55l.19-.09c.43-.16.85-.23,1.18.17s.14.81-.32,1.14Z" transform="translate(1173.501 3896.133)" fill="#0b132b"/>
  </g>
</svg>
